%TF.GenerationSoftware,KiCad,Pcbnew,9.0.7*%
%TF.CreationDate,2026-03-02T03:21:02+09:00*%
%TF.ProjectId,mixtee-key-pcb,6d697874-6565-42d6-9b65-792d7063622e,rev?*%
%TF.SameCoordinates,Original*%
%TF.FileFunction,Legend,Top*%
%TF.FilePolarity,Positive*%
%FSLAX46Y46*%
G04 Gerber Fmt 4.6, Leading zero omitted, Abs format (unit mm)*
G04 Created by KiCad (PCBNEW 9.0.7) date 2026-03-02 03:21:02*
%MOMM*%
%LPD*%
G01*
G04 APERTURE LIST*
%ADD10C,0.150000*%
%ADD11C,0.100000*%
%ADD12C,0.120000*%
G04 APERTURE END LIST*
D10*
X28914285Y-78047342D02*
X28914285Y-76847342D01*
X28914285Y-76847342D02*
X29314285Y-77704485D01*
X29314285Y-77704485D02*
X29714285Y-76847342D01*
X29714285Y-76847342D02*
X29714285Y-78047342D01*
X30285714Y-78047342D02*
X30285714Y-76847342D01*
X30742857Y-76847342D02*
X31542857Y-78047342D01*
X31542857Y-76847342D02*
X30742857Y-78047342D01*
X31828571Y-76847342D02*
X32514286Y-76847342D01*
X32171428Y-78047342D02*
X32171428Y-76847342D01*
X32914286Y-77418771D02*
X33314286Y-77418771D01*
X33485714Y-78047342D02*
X32914286Y-78047342D01*
X32914286Y-78047342D02*
X32914286Y-76847342D01*
X32914286Y-76847342D02*
X33485714Y-76847342D01*
X34000000Y-77418771D02*
X34400000Y-77418771D01*
X34571428Y-78047342D02*
X34000000Y-78047342D01*
X34000000Y-78047342D02*
X34000000Y-76847342D01*
X34000000Y-76847342D02*
X34571428Y-76847342D01*
X36000000Y-78047342D02*
X36000000Y-76847342D01*
X36685714Y-78047342D02*
X36171428Y-77361628D01*
X36685714Y-76847342D02*
X36000000Y-77533057D01*
X37657143Y-77990200D02*
X37542857Y-78047342D01*
X37542857Y-78047342D02*
X37314286Y-78047342D01*
X37314286Y-78047342D02*
X37200000Y-77990200D01*
X37200000Y-77990200D02*
X37142857Y-77875914D01*
X37142857Y-77875914D02*
X37142857Y-77418771D01*
X37142857Y-77418771D02*
X37200000Y-77304485D01*
X37200000Y-77304485D02*
X37314286Y-77247342D01*
X37314286Y-77247342D02*
X37542857Y-77247342D01*
X37542857Y-77247342D02*
X37657143Y-77304485D01*
X37657143Y-77304485D02*
X37714286Y-77418771D01*
X37714286Y-77418771D02*
X37714286Y-77533057D01*
X37714286Y-77533057D02*
X37142857Y-77647342D01*
X38114285Y-77247342D02*
X38399999Y-78047342D01*
X38685714Y-77247342D02*
X38399999Y-78047342D01*
X38399999Y-78047342D02*
X38285714Y-78333057D01*
X38285714Y-78333057D02*
X38228571Y-78390200D01*
X38228571Y-78390200D02*
X38114285Y-78447342D01*
X40057143Y-78047342D02*
X40057143Y-76847342D01*
X40057143Y-76847342D02*
X40514286Y-76847342D01*
X40514286Y-76847342D02*
X40628571Y-76904485D01*
X40628571Y-76904485D02*
X40685714Y-76961628D01*
X40685714Y-76961628D02*
X40742857Y-77075914D01*
X40742857Y-77075914D02*
X40742857Y-77247342D01*
X40742857Y-77247342D02*
X40685714Y-77361628D01*
X40685714Y-77361628D02*
X40628571Y-77418771D01*
X40628571Y-77418771D02*
X40514286Y-77475914D01*
X40514286Y-77475914D02*
X40057143Y-77475914D01*
X41942857Y-77933057D02*
X41885714Y-77990200D01*
X41885714Y-77990200D02*
X41714286Y-78047342D01*
X41714286Y-78047342D02*
X41600000Y-78047342D01*
X41600000Y-78047342D02*
X41428571Y-77990200D01*
X41428571Y-77990200D02*
X41314286Y-77875914D01*
X41314286Y-77875914D02*
X41257143Y-77761628D01*
X41257143Y-77761628D02*
X41200000Y-77533057D01*
X41200000Y-77533057D02*
X41200000Y-77361628D01*
X41200000Y-77361628D02*
X41257143Y-77133057D01*
X41257143Y-77133057D02*
X41314286Y-77018771D01*
X41314286Y-77018771D02*
X41428571Y-76904485D01*
X41428571Y-76904485D02*
X41600000Y-76847342D01*
X41600000Y-76847342D02*
X41714286Y-76847342D01*
X41714286Y-76847342D02*
X41885714Y-76904485D01*
X41885714Y-76904485D02*
X41942857Y-76961628D01*
X42857143Y-77418771D02*
X43028571Y-77475914D01*
X43028571Y-77475914D02*
X43085714Y-77533057D01*
X43085714Y-77533057D02*
X43142857Y-77647342D01*
X43142857Y-77647342D02*
X43142857Y-77818771D01*
X43142857Y-77818771D02*
X43085714Y-77933057D01*
X43085714Y-77933057D02*
X43028571Y-77990200D01*
X43028571Y-77990200D02*
X42914286Y-78047342D01*
X42914286Y-78047342D02*
X42457143Y-78047342D01*
X42457143Y-78047342D02*
X42457143Y-76847342D01*
X42457143Y-76847342D02*
X42857143Y-76847342D01*
X42857143Y-76847342D02*
X42971429Y-76904485D01*
X42971429Y-76904485D02*
X43028571Y-76961628D01*
X43028571Y-76961628D02*
X43085714Y-77075914D01*
X43085714Y-77075914D02*
X43085714Y-77190200D01*
X43085714Y-77190200D02*
X43028571Y-77304485D01*
X43028571Y-77304485D02*
X42971429Y-77361628D01*
X42971429Y-77361628D02*
X42857143Y-77418771D01*
X42857143Y-77418771D02*
X42457143Y-77418771D01*
X25199819Y-73761904D02*
X26009342Y-73761904D01*
X26009342Y-73761904D02*
X26104580Y-73714285D01*
X26104580Y-73714285D02*
X26152200Y-73666666D01*
X26152200Y-73666666D02*
X26199819Y-73571428D01*
X26199819Y-73571428D02*
X26199819Y-73380952D01*
X26199819Y-73380952D02*
X26152200Y-73285714D01*
X26152200Y-73285714D02*
X26104580Y-73238095D01*
X26104580Y-73238095D02*
X26009342Y-73190476D01*
X26009342Y-73190476D02*
X25199819Y-73190476D01*
X26199819Y-72190476D02*
X26199819Y-72761904D01*
X26199819Y-72476190D02*
X25199819Y-72476190D01*
X25199819Y-72476190D02*
X25342676Y-72571428D01*
X25342676Y-72571428D02*
X25437914Y-72666666D01*
X25437914Y-72666666D02*
X25485533Y-72761904D01*
D11*
X26042857Y-65272371D02*
X25757143Y-65272371D01*
X25757143Y-65272371D02*
X25757143Y-64672371D01*
X26242857Y-64958085D02*
X26442857Y-64958085D01*
X26528571Y-65272371D02*
X26242857Y-65272371D01*
X26242857Y-65272371D02*
X26242857Y-64672371D01*
X26242857Y-64672371D02*
X26528571Y-64672371D01*
X26785714Y-65272371D02*
X26785714Y-64672371D01*
X26785714Y-64672371D02*
X26928571Y-64672371D01*
X26928571Y-64672371D02*
X27014285Y-64700942D01*
X27014285Y-64700942D02*
X27071428Y-64758085D01*
X27071428Y-64758085D02*
X27099999Y-64815228D01*
X27099999Y-64815228D02*
X27128571Y-64929514D01*
X27128571Y-64929514D02*
X27128571Y-65015228D01*
X27128571Y-65015228D02*
X27099999Y-65129514D01*
X27099999Y-65129514D02*
X27071428Y-65186657D01*
X27071428Y-65186657D02*
X27014285Y-65243800D01*
X27014285Y-65243800D02*
X26928571Y-65272371D01*
X26928571Y-65272371D02*
X26785714Y-65272371D01*
X27699999Y-65272371D02*
X27357142Y-65272371D01*
X27528571Y-65272371D02*
X27528571Y-64672371D01*
X27528571Y-64672371D02*
X27471428Y-64758085D01*
X27471428Y-64758085D02*
X27414285Y-64815228D01*
X27414285Y-64815228D02*
X27357142Y-64843800D01*
X28214286Y-64872371D02*
X28214286Y-65272371D01*
X28071428Y-64643800D02*
X27928571Y-65072371D01*
X27928571Y-65072371D02*
X28300000Y-65072371D01*
X8042857Y-65272371D02*
X7757143Y-65272371D01*
X7757143Y-65272371D02*
X7757143Y-64672371D01*
X8242857Y-64958085D02*
X8442857Y-64958085D01*
X8528571Y-65272371D02*
X8242857Y-65272371D01*
X8242857Y-65272371D02*
X8242857Y-64672371D01*
X8242857Y-64672371D02*
X8528571Y-64672371D01*
X8785714Y-65272371D02*
X8785714Y-64672371D01*
X8785714Y-64672371D02*
X8928571Y-64672371D01*
X8928571Y-64672371D02*
X9014285Y-64700942D01*
X9014285Y-64700942D02*
X9071428Y-64758085D01*
X9071428Y-64758085D02*
X9099999Y-64815228D01*
X9099999Y-64815228D02*
X9128571Y-64929514D01*
X9128571Y-64929514D02*
X9128571Y-65015228D01*
X9128571Y-65015228D02*
X9099999Y-65129514D01*
X9099999Y-65129514D02*
X9071428Y-65186657D01*
X9071428Y-65186657D02*
X9014285Y-65243800D01*
X9014285Y-65243800D02*
X8928571Y-65272371D01*
X8928571Y-65272371D02*
X8785714Y-65272371D01*
X9699999Y-65272371D02*
X9357142Y-65272371D01*
X9528571Y-65272371D02*
X9528571Y-64672371D01*
X9528571Y-64672371D02*
X9471428Y-64758085D01*
X9471428Y-64758085D02*
X9414285Y-64815228D01*
X9414285Y-64815228D02*
X9357142Y-64843800D01*
X9900000Y-64672371D02*
X10271428Y-64672371D01*
X10271428Y-64672371D02*
X10071428Y-64900942D01*
X10071428Y-64900942D02*
X10157143Y-64900942D01*
X10157143Y-64900942D02*
X10214286Y-64929514D01*
X10214286Y-64929514D02*
X10242857Y-64958085D01*
X10242857Y-64958085D02*
X10271428Y-65015228D01*
X10271428Y-65015228D02*
X10271428Y-65158085D01*
X10271428Y-65158085D02*
X10242857Y-65215228D01*
X10242857Y-65215228D02*
X10214286Y-65243800D01*
X10214286Y-65243800D02*
X10157143Y-65272371D01*
X10157143Y-65272371D02*
X9985714Y-65272371D01*
X9985714Y-65272371D02*
X9928571Y-65243800D01*
X9928571Y-65243800D02*
X9900000Y-65215228D01*
X23900000Y-11415228D02*
X23871428Y-11443800D01*
X23871428Y-11443800D02*
X23785714Y-11472371D01*
X23785714Y-11472371D02*
X23728571Y-11472371D01*
X23728571Y-11472371D02*
X23642857Y-11443800D01*
X23642857Y-11443800D02*
X23585714Y-11386657D01*
X23585714Y-11386657D02*
X23557143Y-11329514D01*
X23557143Y-11329514D02*
X23528571Y-11215228D01*
X23528571Y-11215228D02*
X23528571Y-11129514D01*
X23528571Y-11129514D02*
X23557143Y-11015228D01*
X23557143Y-11015228D02*
X23585714Y-10958085D01*
X23585714Y-10958085D02*
X23642857Y-10900942D01*
X23642857Y-10900942D02*
X23728571Y-10872371D01*
X23728571Y-10872371D02*
X23785714Y-10872371D01*
X23785714Y-10872371D02*
X23871428Y-10900942D01*
X23871428Y-10900942D02*
X23900000Y-10929514D01*
X24128571Y-10929514D02*
X24157143Y-10900942D01*
X24157143Y-10900942D02*
X24214286Y-10872371D01*
X24214286Y-10872371D02*
X24357143Y-10872371D01*
X24357143Y-10872371D02*
X24414286Y-10900942D01*
X24414286Y-10900942D02*
X24442857Y-10929514D01*
X24442857Y-10929514D02*
X24471428Y-10986657D01*
X24471428Y-10986657D02*
X24471428Y-11043800D01*
X24471428Y-11043800D02*
X24442857Y-11129514D01*
X24442857Y-11129514D02*
X24100000Y-11472371D01*
X24100000Y-11472371D02*
X24471428Y-11472371D01*
X15557143Y-42772371D02*
X15557143Y-42172371D01*
X15557143Y-42172371D02*
X15700000Y-42172371D01*
X15700000Y-42172371D02*
X15785714Y-42200942D01*
X15785714Y-42200942D02*
X15842857Y-42258085D01*
X15842857Y-42258085D02*
X15871428Y-42315228D01*
X15871428Y-42315228D02*
X15900000Y-42429514D01*
X15900000Y-42429514D02*
X15900000Y-42515228D01*
X15900000Y-42515228D02*
X15871428Y-42629514D01*
X15871428Y-42629514D02*
X15842857Y-42686657D01*
X15842857Y-42686657D02*
X15785714Y-42743800D01*
X15785714Y-42743800D02*
X15700000Y-42772371D01*
X15700000Y-42772371D02*
X15557143Y-42772371D01*
X16185714Y-42772371D02*
X16300000Y-42772371D01*
X16300000Y-42772371D02*
X16357143Y-42743800D01*
X16357143Y-42743800D02*
X16385714Y-42715228D01*
X16385714Y-42715228D02*
X16442857Y-42629514D01*
X16442857Y-42629514D02*
X16471428Y-42515228D01*
X16471428Y-42515228D02*
X16471428Y-42286657D01*
X16471428Y-42286657D02*
X16442857Y-42229514D01*
X16442857Y-42229514D02*
X16414286Y-42200942D01*
X16414286Y-42200942D02*
X16357143Y-42172371D01*
X16357143Y-42172371D02*
X16242857Y-42172371D01*
X16242857Y-42172371D02*
X16185714Y-42200942D01*
X16185714Y-42200942D02*
X16157143Y-42229514D01*
X16157143Y-42229514D02*
X16128571Y-42286657D01*
X16128571Y-42286657D02*
X16128571Y-42429514D01*
X16128571Y-42429514D02*
X16157143Y-42486657D01*
X16157143Y-42486657D02*
X16185714Y-42515228D01*
X16185714Y-42515228D02*
X16242857Y-42543800D01*
X16242857Y-42543800D02*
X16357143Y-42543800D01*
X16357143Y-42543800D02*
X16414286Y-42515228D01*
X16414286Y-42515228D02*
X16442857Y-42486657D01*
X16442857Y-42486657D02*
X16471428Y-42429514D01*
X15557143Y-24772371D02*
X15557143Y-24172371D01*
X15557143Y-24172371D02*
X15700000Y-24172371D01*
X15700000Y-24172371D02*
X15785714Y-24200942D01*
X15785714Y-24200942D02*
X15842857Y-24258085D01*
X15842857Y-24258085D02*
X15871428Y-24315228D01*
X15871428Y-24315228D02*
X15900000Y-24429514D01*
X15900000Y-24429514D02*
X15900000Y-24515228D01*
X15900000Y-24515228D02*
X15871428Y-24629514D01*
X15871428Y-24629514D02*
X15842857Y-24686657D01*
X15842857Y-24686657D02*
X15785714Y-24743800D01*
X15785714Y-24743800D02*
X15700000Y-24772371D01*
X15700000Y-24772371D02*
X15557143Y-24772371D01*
X16442857Y-24172371D02*
X16157143Y-24172371D01*
X16157143Y-24172371D02*
X16128571Y-24458085D01*
X16128571Y-24458085D02*
X16157143Y-24429514D01*
X16157143Y-24429514D02*
X16214286Y-24400942D01*
X16214286Y-24400942D02*
X16357143Y-24400942D01*
X16357143Y-24400942D02*
X16414286Y-24429514D01*
X16414286Y-24429514D02*
X16442857Y-24458085D01*
X16442857Y-24458085D02*
X16471428Y-24515228D01*
X16471428Y-24515228D02*
X16471428Y-24658085D01*
X16471428Y-24658085D02*
X16442857Y-24715228D01*
X16442857Y-24715228D02*
X16414286Y-24743800D01*
X16414286Y-24743800D02*
X16357143Y-24772371D01*
X16357143Y-24772371D02*
X16214286Y-24772371D01*
X16214286Y-24772371D02*
X16157143Y-24743800D01*
X16157143Y-24743800D02*
X16128571Y-24715228D01*
D12*
X43933332Y-18825760D02*
X44047618Y-18863855D01*
X44047618Y-18863855D02*
X44238094Y-18863855D01*
X44238094Y-18863855D02*
X44314285Y-18825760D01*
X44314285Y-18825760D02*
X44352380Y-18787664D01*
X44352380Y-18787664D02*
X44390475Y-18711474D01*
X44390475Y-18711474D02*
X44390475Y-18635283D01*
X44390475Y-18635283D02*
X44352380Y-18559093D01*
X44352380Y-18559093D02*
X44314285Y-18520998D01*
X44314285Y-18520998D02*
X44238094Y-18482902D01*
X44238094Y-18482902D02*
X44085713Y-18444807D01*
X44085713Y-18444807D02*
X44009523Y-18406712D01*
X44009523Y-18406712D02*
X43971428Y-18368617D01*
X43971428Y-18368617D02*
X43933332Y-18292426D01*
X43933332Y-18292426D02*
X43933332Y-18216236D01*
X43933332Y-18216236D02*
X43971428Y-18140045D01*
X43971428Y-18140045D02*
X44009523Y-18101950D01*
X44009523Y-18101950D02*
X44085713Y-18063855D01*
X44085713Y-18063855D02*
X44276190Y-18063855D01*
X44276190Y-18063855D02*
X44390475Y-18101950D01*
X44657142Y-18063855D02*
X44847618Y-18863855D01*
X44847618Y-18863855D02*
X44999999Y-18292426D01*
X44999999Y-18292426D02*
X45152380Y-18863855D01*
X45152380Y-18863855D02*
X45342857Y-18063855D01*
X45571428Y-18063855D02*
X46104762Y-18063855D01*
X46104762Y-18063855D02*
X45761904Y-18863855D01*
D11*
X8328571Y-11272371D02*
X8042857Y-11272371D01*
X8042857Y-11272371D02*
X8042857Y-10672371D01*
X8528571Y-10958085D02*
X8728571Y-10958085D01*
X8814285Y-11272371D02*
X8528571Y-11272371D01*
X8528571Y-11272371D02*
X8528571Y-10672371D01*
X8528571Y-10672371D02*
X8814285Y-10672371D01*
X9071428Y-11272371D02*
X9071428Y-10672371D01*
X9071428Y-10672371D02*
X9214285Y-10672371D01*
X9214285Y-10672371D02*
X9299999Y-10700942D01*
X9299999Y-10700942D02*
X9357142Y-10758085D01*
X9357142Y-10758085D02*
X9385713Y-10815228D01*
X9385713Y-10815228D02*
X9414285Y-10929514D01*
X9414285Y-10929514D02*
X9414285Y-11015228D01*
X9414285Y-11015228D02*
X9385713Y-11129514D01*
X9385713Y-11129514D02*
X9357142Y-11186657D01*
X9357142Y-11186657D02*
X9299999Y-11243800D01*
X9299999Y-11243800D02*
X9214285Y-11272371D01*
X9214285Y-11272371D02*
X9071428Y-11272371D01*
X9985713Y-11272371D02*
X9642856Y-11272371D01*
X9814285Y-11272371D02*
X9814285Y-10672371D01*
X9814285Y-10672371D02*
X9757142Y-10758085D01*
X9757142Y-10758085D02*
X9699999Y-10815228D01*
X9699999Y-10815228D02*
X9642856Y-10843800D01*
X66772371Y-65728571D02*
X66172371Y-65728571D01*
X66172371Y-65728571D02*
X66172371Y-65585714D01*
X66172371Y-65585714D02*
X66200942Y-65500000D01*
X66200942Y-65500000D02*
X66258085Y-65442857D01*
X66258085Y-65442857D02*
X66315228Y-65414286D01*
X66315228Y-65414286D02*
X66429514Y-65385714D01*
X66429514Y-65385714D02*
X66515228Y-65385714D01*
X66515228Y-65385714D02*
X66629514Y-65414286D01*
X66629514Y-65414286D02*
X66686657Y-65442857D01*
X66686657Y-65442857D02*
X66743800Y-65500000D01*
X66743800Y-65500000D02*
X66772371Y-65585714D01*
X66772371Y-65585714D02*
X66772371Y-65728571D01*
X66772371Y-64814286D02*
X66772371Y-65157143D01*
X66772371Y-64985714D02*
X66172371Y-64985714D01*
X66172371Y-64985714D02*
X66258085Y-65042857D01*
X66258085Y-65042857D02*
X66315228Y-65100000D01*
X66315228Y-65100000D02*
X66343800Y-65157143D01*
X66172371Y-64300000D02*
X66172371Y-64414285D01*
X66172371Y-64414285D02*
X66200942Y-64471428D01*
X66200942Y-64471428D02*
X66229514Y-64500000D01*
X66229514Y-64500000D02*
X66315228Y-64557142D01*
X66315228Y-64557142D02*
X66429514Y-64585714D01*
X66429514Y-64585714D02*
X66658085Y-64585714D01*
X66658085Y-64585714D02*
X66715228Y-64557142D01*
X66715228Y-64557142D02*
X66743800Y-64528571D01*
X66743800Y-64528571D02*
X66772371Y-64471428D01*
X66772371Y-64471428D02*
X66772371Y-64357142D01*
X66772371Y-64357142D02*
X66743800Y-64300000D01*
X66743800Y-64300000D02*
X66715228Y-64271428D01*
X66715228Y-64271428D02*
X66658085Y-64242857D01*
X66658085Y-64242857D02*
X66515228Y-64242857D01*
X66515228Y-64242857D02*
X66458085Y-64271428D01*
X66458085Y-64271428D02*
X66429514Y-64300000D01*
X66429514Y-64300000D02*
X66400942Y-64357142D01*
X66400942Y-64357142D02*
X66400942Y-64471428D01*
X66400942Y-64471428D02*
X66429514Y-64528571D01*
X66429514Y-64528571D02*
X66458085Y-64557142D01*
X66458085Y-64557142D02*
X66515228Y-64585714D01*
D12*
X7552380Y-54825760D02*
X7666666Y-54863855D01*
X7666666Y-54863855D02*
X7857142Y-54863855D01*
X7857142Y-54863855D02*
X7933333Y-54825760D01*
X7933333Y-54825760D02*
X7971428Y-54787664D01*
X7971428Y-54787664D02*
X8009523Y-54711474D01*
X8009523Y-54711474D02*
X8009523Y-54635283D01*
X8009523Y-54635283D02*
X7971428Y-54559093D01*
X7971428Y-54559093D02*
X7933333Y-54520998D01*
X7933333Y-54520998D02*
X7857142Y-54482902D01*
X7857142Y-54482902D02*
X7704761Y-54444807D01*
X7704761Y-54444807D02*
X7628571Y-54406712D01*
X7628571Y-54406712D02*
X7590476Y-54368617D01*
X7590476Y-54368617D02*
X7552380Y-54292426D01*
X7552380Y-54292426D02*
X7552380Y-54216236D01*
X7552380Y-54216236D02*
X7590476Y-54140045D01*
X7590476Y-54140045D02*
X7628571Y-54101950D01*
X7628571Y-54101950D02*
X7704761Y-54063855D01*
X7704761Y-54063855D02*
X7895238Y-54063855D01*
X7895238Y-54063855D02*
X8009523Y-54101950D01*
X8276190Y-54063855D02*
X8466666Y-54863855D01*
X8466666Y-54863855D02*
X8619047Y-54292426D01*
X8619047Y-54292426D02*
X8771428Y-54863855D01*
X8771428Y-54863855D02*
X8961905Y-54063855D01*
X9685714Y-54863855D02*
X9228571Y-54863855D01*
X9457143Y-54863855D02*
X9457143Y-54063855D01*
X9457143Y-54063855D02*
X9380952Y-54178140D01*
X9380952Y-54178140D02*
X9304762Y-54254331D01*
X9304762Y-54254331D02*
X9228571Y-54292426D01*
X9952381Y-54063855D02*
X10447619Y-54063855D01*
X10447619Y-54063855D02*
X10180953Y-54368617D01*
X10180953Y-54368617D02*
X10295238Y-54368617D01*
X10295238Y-54368617D02*
X10371429Y-54406712D01*
X10371429Y-54406712D02*
X10409524Y-54444807D01*
X10409524Y-54444807D02*
X10447619Y-54520998D01*
X10447619Y-54520998D02*
X10447619Y-54711474D01*
X10447619Y-54711474D02*
X10409524Y-54787664D01*
X10409524Y-54787664D02*
X10371429Y-54825760D01*
X10371429Y-54825760D02*
X10295238Y-54863855D01*
X10295238Y-54863855D02*
X10066667Y-54863855D01*
X10066667Y-54863855D02*
X9990476Y-54825760D01*
X9990476Y-54825760D02*
X9952381Y-54787664D01*
X61552380Y-54825760D02*
X61666666Y-54863855D01*
X61666666Y-54863855D02*
X61857142Y-54863855D01*
X61857142Y-54863855D02*
X61933333Y-54825760D01*
X61933333Y-54825760D02*
X61971428Y-54787664D01*
X61971428Y-54787664D02*
X62009523Y-54711474D01*
X62009523Y-54711474D02*
X62009523Y-54635283D01*
X62009523Y-54635283D02*
X61971428Y-54559093D01*
X61971428Y-54559093D02*
X61933333Y-54520998D01*
X61933333Y-54520998D02*
X61857142Y-54482902D01*
X61857142Y-54482902D02*
X61704761Y-54444807D01*
X61704761Y-54444807D02*
X61628571Y-54406712D01*
X61628571Y-54406712D02*
X61590476Y-54368617D01*
X61590476Y-54368617D02*
X61552380Y-54292426D01*
X61552380Y-54292426D02*
X61552380Y-54216236D01*
X61552380Y-54216236D02*
X61590476Y-54140045D01*
X61590476Y-54140045D02*
X61628571Y-54101950D01*
X61628571Y-54101950D02*
X61704761Y-54063855D01*
X61704761Y-54063855D02*
X61895238Y-54063855D01*
X61895238Y-54063855D02*
X62009523Y-54101950D01*
X62276190Y-54063855D02*
X62466666Y-54863855D01*
X62466666Y-54863855D02*
X62619047Y-54292426D01*
X62619047Y-54292426D02*
X62771428Y-54863855D01*
X62771428Y-54863855D02*
X62961905Y-54063855D01*
X63685714Y-54863855D02*
X63228571Y-54863855D01*
X63457143Y-54863855D02*
X63457143Y-54063855D01*
X63457143Y-54063855D02*
X63380952Y-54178140D01*
X63380952Y-54178140D02*
X63304762Y-54254331D01*
X63304762Y-54254331D02*
X63228571Y-54292426D01*
X64371429Y-54063855D02*
X64219048Y-54063855D01*
X64219048Y-54063855D02*
X64142857Y-54101950D01*
X64142857Y-54101950D02*
X64104762Y-54140045D01*
X64104762Y-54140045D02*
X64028572Y-54254331D01*
X64028572Y-54254331D02*
X63990476Y-54406712D01*
X63990476Y-54406712D02*
X63990476Y-54711474D01*
X63990476Y-54711474D02*
X64028572Y-54787664D01*
X64028572Y-54787664D02*
X64066667Y-54825760D01*
X64066667Y-54825760D02*
X64142857Y-54863855D01*
X64142857Y-54863855D02*
X64295238Y-54863855D01*
X64295238Y-54863855D02*
X64371429Y-54825760D01*
X64371429Y-54825760D02*
X64409524Y-54787664D01*
X64409524Y-54787664D02*
X64447619Y-54711474D01*
X64447619Y-54711474D02*
X64447619Y-54520998D01*
X64447619Y-54520998D02*
X64409524Y-54444807D01*
X64409524Y-54444807D02*
X64371429Y-54406712D01*
X64371429Y-54406712D02*
X64295238Y-54368617D01*
X64295238Y-54368617D02*
X64142857Y-54368617D01*
X64142857Y-54368617D02*
X64066667Y-54406712D01*
X64066667Y-54406712D02*
X64028572Y-54444807D01*
X64028572Y-54444807D02*
X63990476Y-54520998D01*
X7933332Y-825760D02*
X8047618Y-863855D01*
X8047618Y-863855D02*
X8238094Y-863855D01*
X8238094Y-863855D02*
X8314285Y-825760D01*
X8314285Y-825760D02*
X8352380Y-787664D01*
X8352380Y-787664D02*
X8390475Y-711474D01*
X8390475Y-711474D02*
X8390475Y-635283D01*
X8390475Y-635283D02*
X8352380Y-559093D01*
X8352380Y-559093D02*
X8314285Y-520998D01*
X8314285Y-520998D02*
X8238094Y-482902D01*
X8238094Y-482902D02*
X8085713Y-444807D01*
X8085713Y-444807D02*
X8009523Y-406712D01*
X8009523Y-406712D02*
X7971428Y-368617D01*
X7971428Y-368617D02*
X7933332Y-292426D01*
X7933332Y-292426D02*
X7933332Y-216236D01*
X7933332Y-216236D02*
X7971428Y-140045D01*
X7971428Y-140045D02*
X8009523Y-101950D01*
X8009523Y-101950D02*
X8085713Y-63855D01*
X8085713Y-63855D02*
X8276190Y-63855D01*
X8276190Y-63855D02*
X8390475Y-101950D01*
X8657142Y-63855D02*
X8847618Y-863855D01*
X8847618Y-863855D02*
X8999999Y-292426D01*
X8999999Y-292426D02*
X9152380Y-863855D01*
X9152380Y-863855D02*
X9342857Y-63855D01*
X10066666Y-863855D02*
X9609523Y-863855D01*
X9838095Y-863855D02*
X9838095Y-63855D01*
X9838095Y-63855D02*
X9761904Y-178140D01*
X9761904Y-178140D02*
X9685714Y-254331D01*
X9685714Y-254331D02*
X9609523Y-292426D01*
D11*
X8328571Y-47272371D02*
X8042857Y-47272371D01*
X8042857Y-47272371D02*
X8042857Y-46672371D01*
X8528571Y-46958085D02*
X8728571Y-46958085D01*
X8814285Y-47272371D02*
X8528571Y-47272371D01*
X8528571Y-47272371D02*
X8528571Y-46672371D01*
X8528571Y-46672371D02*
X8814285Y-46672371D01*
X9071428Y-47272371D02*
X9071428Y-46672371D01*
X9071428Y-46672371D02*
X9214285Y-46672371D01*
X9214285Y-46672371D02*
X9299999Y-46700942D01*
X9299999Y-46700942D02*
X9357142Y-46758085D01*
X9357142Y-46758085D02*
X9385713Y-46815228D01*
X9385713Y-46815228D02*
X9414285Y-46929514D01*
X9414285Y-46929514D02*
X9414285Y-47015228D01*
X9414285Y-47015228D02*
X9385713Y-47129514D01*
X9385713Y-47129514D02*
X9357142Y-47186657D01*
X9357142Y-47186657D02*
X9299999Y-47243800D01*
X9299999Y-47243800D02*
X9214285Y-47272371D01*
X9214285Y-47272371D02*
X9071428Y-47272371D01*
X9699999Y-47272371D02*
X9814285Y-47272371D01*
X9814285Y-47272371D02*
X9871428Y-47243800D01*
X9871428Y-47243800D02*
X9899999Y-47215228D01*
X9899999Y-47215228D02*
X9957142Y-47129514D01*
X9957142Y-47129514D02*
X9985713Y-47015228D01*
X9985713Y-47015228D02*
X9985713Y-46786657D01*
X9985713Y-46786657D02*
X9957142Y-46729514D01*
X9957142Y-46729514D02*
X9928571Y-46700942D01*
X9928571Y-46700942D02*
X9871428Y-46672371D01*
X9871428Y-46672371D02*
X9757142Y-46672371D01*
X9757142Y-46672371D02*
X9699999Y-46700942D01*
X9699999Y-46700942D02*
X9671428Y-46729514D01*
X9671428Y-46729514D02*
X9642856Y-46786657D01*
X9642856Y-46786657D02*
X9642856Y-46929514D01*
X9642856Y-46929514D02*
X9671428Y-46986657D01*
X9671428Y-46986657D02*
X9699999Y-47015228D01*
X9699999Y-47015228D02*
X9757142Y-47043800D01*
X9757142Y-47043800D02*
X9871428Y-47043800D01*
X9871428Y-47043800D02*
X9928571Y-47015228D01*
X9928571Y-47015228D02*
X9957142Y-46986657D01*
X9957142Y-46986657D02*
X9985713Y-46929514D01*
X15557143Y-6772371D02*
X15557143Y-6172371D01*
X15557143Y-6172371D02*
X15700000Y-6172371D01*
X15700000Y-6172371D02*
X15785714Y-6200942D01*
X15785714Y-6200942D02*
X15842857Y-6258085D01*
X15842857Y-6258085D02*
X15871428Y-6315228D01*
X15871428Y-6315228D02*
X15900000Y-6429514D01*
X15900000Y-6429514D02*
X15900000Y-6515228D01*
X15900000Y-6515228D02*
X15871428Y-6629514D01*
X15871428Y-6629514D02*
X15842857Y-6686657D01*
X15842857Y-6686657D02*
X15785714Y-6743800D01*
X15785714Y-6743800D02*
X15700000Y-6772371D01*
X15700000Y-6772371D02*
X15557143Y-6772371D01*
X16471428Y-6772371D02*
X16128571Y-6772371D01*
X16300000Y-6772371D02*
X16300000Y-6172371D01*
X16300000Y-6172371D02*
X16242857Y-6258085D01*
X16242857Y-6258085D02*
X16185714Y-6315228D01*
X16185714Y-6315228D02*
X16128571Y-6343800D01*
X62042857Y-47272371D02*
X61757143Y-47272371D01*
X61757143Y-47272371D02*
X61757143Y-46672371D01*
X62242857Y-46958085D02*
X62442857Y-46958085D01*
X62528571Y-47272371D02*
X62242857Y-47272371D01*
X62242857Y-47272371D02*
X62242857Y-46672371D01*
X62242857Y-46672371D02*
X62528571Y-46672371D01*
X62785714Y-47272371D02*
X62785714Y-46672371D01*
X62785714Y-46672371D02*
X62928571Y-46672371D01*
X62928571Y-46672371D02*
X63014285Y-46700942D01*
X63014285Y-46700942D02*
X63071428Y-46758085D01*
X63071428Y-46758085D02*
X63099999Y-46815228D01*
X63099999Y-46815228D02*
X63128571Y-46929514D01*
X63128571Y-46929514D02*
X63128571Y-47015228D01*
X63128571Y-47015228D02*
X63099999Y-47129514D01*
X63099999Y-47129514D02*
X63071428Y-47186657D01*
X63071428Y-47186657D02*
X63014285Y-47243800D01*
X63014285Y-47243800D02*
X62928571Y-47272371D01*
X62928571Y-47272371D02*
X62785714Y-47272371D01*
X63699999Y-47272371D02*
X63357142Y-47272371D01*
X63528571Y-47272371D02*
X63528571Y-46672371D01*
X63528571Y-46672371D02*
X63471428Y-46758085D01*
X63471428Y-46758085D02*
X63414285Y-46815228D01*
X63414285Y-46815228D02*
X63357142Y-46843800D01*
X63928571Y-46729514D02*
X63957143Y-46700942D01*
X63957143Y-46700942D02*
X64014286Y-46672371D01*
X64014286Y-46672371D02*
X64157143Y-46672371D01*
X64157143Y-46672371D02*
X64214286Y-46700942D01*
X64214286Y-46700942D02*
X64242857Y-46729514D01*
X64242857Y-46729514D02*
X64271428Y-46786657D01*
X64271428Y-46786657D02*
X64271428Y-46843800D01*
X64271428Y-46843800D02*
X64242857Y-46929514D01*
X64242857Y-46929514D02*
X63900000Y-47272371D01*
X63900000Y-47272371D02*
X64271428Y-47272371D01*
X44328571Y-29272371D02*
X44042857Y-29272371D01*
X44042857Y-29272371D02*
X44042857Y-28672371D01*
X44528571Y-28958085D02*
X44728571Y-28958085D01*
X44814285Y-29272371D02*
X44528571Y-29272371D01*
X44528571Y-29272371D02*
X44528571Y-28672371D01*
X44528571Y-28672371D02*
X44814285Y-28672371D01*
X45071428Y-29272371D02*
X45071428Y-28672371D01*
X45071428Y-28672371D02*
X45214285Y-28672371D01*
X45214285Y-28672371D02*
X45299999Y-28700942D01*
X45299999Y-28700942D02*
X45357142Y-28758085D01*
X45357142Y-28758085D02*
X45385713Y-28815228D01*
X45385713Y-28815228D02*
X45414285Y-28929514D01*
X45414285Y-28929514D02*
X45414285Y-29015228D01*
X45414285Y-29015228D02*
X45385713Y-29129514D01*
X45385713Y-29129514D02*
X45357142Y-29186657D01*
X45357142Y-29186657D02*
X45299999Y-29243800D01*
X45299999Y-29243800D02*
X45214285Y-29272371D01*
X45214285Y-29272371D02*
X45071428Y-29272371D01*
X45614285Y-28672371D02*
X46014285Y-28672371D01*
X46014285Y-28672371D02*
X45757142Y-29272371D01*
X66772371Y-47728571D02*
X66172371Y-47728571D01*
X66172371Y-47728571D02*
X66172371Y-47585714D01*
X66172371Y-47585714D02*
X66200942Y-47500000D01*
X66200942Y-47500000D02*
X66258085Y-47442857D01*
X66258085Y-47442857D02*
X66315228Y-47414286D01*
X66315228Y-47414286D02*
X66429514Y-47385714D01*
X66429514Y-47385714D02*
X66515228Y-47385714D01*
X66515228Y-47385714D02*
X66629514Y-47414286D01*
X66629514Y-47414286D02*
X66686657Y-47442857D01*
X66686657Y-47442857D02*
X66743800Y-47500000D01*
X66743800Y-47500000D02*
X66772371Y-47585714D01*
X66772371Y-47585714D02*
X66772371Y-47728571D01*
X66772371Y-46814286D02*
X66772371Y-47157143D01*
X66772371Y-46985714D02*
X66172371Y-46985714D01*
X66172371Y-46985714D02*
X66258085Y-47042857D01*
X66258085Y-47042857D02*
X66315228Y-47100000D01*
X66315228Y-47100000D02*
X66343800Y-47157143D01*
X66229514Y-46585714D02*
X66200942Y-46557142D01*
X66200942Y-46557142D02*
X66172371Y-46500000D01*
X66172371Y-46500000D02*
X66172371Y-46357142D01*
X66172371Y-46357142D02*
X66200942Y-46300000D01*
X66200942Y-46300000D02*
X66229514Y-46271428D01*
X66229514Y-46271428D02*
X66286657Y-46242857D01*
X66286657Y-46242857D02*
X66343800Y-46242857D01*
X66343800Y-46242857D02*
X66429514Y-46271428D01*
X66429514Y-46271428D02*
X66772371Y-46614285D01*
X66772371Y-46614285D02*
X66772371Y-46242857D01*
X62042857Y-65272371D02*
X61757143Y-65272371D01*
X61757143Y-65272371D02*
X61757143Y-64672371D01*
X62242857Y-64958085D02*
X62442857Y-64958085D01*
X62528571Y-65272371D02*
X62242857Y-65272371D01*
X62242857Y-65272371D02*
X62242857Y-64672371D01*
X62242857Y-64672371D02*
X62528571Y-64672371D01*
X62785714Y-65272371D02*
X62785714Y-64672371D01*
X62785714Y-64672371D02*
X62928571Y-64672371D01*
X62928571Y-64672371D02*
X63014285Y-64700942D01*
X63014285Y-64700942D02*
X63071428Y-64758085D01*
X63071428Y-64758085D02*
X63099999Y-64815228D01*
X63099999Y-64815228D02*
X63128571Y-64929514D01*
X63128571Y-64929514D02*
X63128571Y-65015228D01*
X63128571Y-65015228D02*
X63099999Y-65129514D01*
X63099999Y-65129514D02*
X63071428Y-65186657D01*
X63071428Y-65186657D02*
X63014285Y-65243800D01*
X63014285Y-65243800D02*
X62928571Y-65272371D01*
X62928571Y-65272371D02*
X62785714Y-65272371D01*
X63699999Y-65272371D02*
X63357142Y-65272371D01*
X63528571Y-65272371D02*
X63528571Y-64672371D01*
X63528571Y-64672371D02*
X63471428Y-64758085D01*
X63471428Y-64758085D02*
X63414285Y-64815228D01*
X63414285Y-64815228D02*
X63357142Y-64843800D01*
X64214286Y-64672371D02*
X64100000Y-64672371D01*
X64100000Y-64672371D02*
X64042857Y-64700942D01*
X64042857Y-64700942D02*
X64014286Y-64729514D01*
X64014286Y-64729514D02*
X63957143Y-64815228D01*
X63957143Y-64815228D02*
X63928571Y-64929514D01*
X63928571Y-64929514D02*
X63928571Y-65158085D01*
X63928571Y-65158085D02*
X63957143Y-65215228D01*
X63957143Y-65215228D02*
X63985714Y-65243800D01*
X63985714Y-65243800D02*
X64042857Y-65272371D01*
X64042857Y-65272371D02*
X64157143Y-65272371D01*
X64157143Y-65272371D02*
X64214286Y-65243800D01*
X64214286Y-65243800D02*
X64242857Y-65215228D01*
X64242857Y-65215228D02*
X64271428Y-65158085D01*
X64271428Y-65158085D02*
X64271428Y-65015228D01*
X64271428Y-65015228D02*
X64242857Y-64958085D01*
X64242857Y-64958085D02*
X64214286Y-64929514D01*
X64214286Y-64929514D02*
X64157143Y-64900942D01*
X64157143Y-64900942D02*
X64042857Y-64900942D01*
X64042857Y-64900942D02*
X63985714Y-64929514D01*
X63985714Y-64929514D02*
X63957143Y-64958085D01*
X63957143Y-64958085D02*
X63928571Y-65015228D01*
D10*
X9666666Y-71954819D02*
X9666666Y-72669104D01*
X9666666Y-72669104D02*
X9619047Y-72811961D01*
X9619047Y-72811961D02*
X9523809Y-72907200D01*
X9523809Y-72907200D02*
X9380952Y-72954819D01*
X9380952Y-72954819D02*
X9285714Y-72954819D01*
X10666666Y-72954819D02*
X10095238Y-72954819D01*
X10380952Y-72954819D02*
X10380952Y-71954819D01*
X10380952Y-71954819D02*
X10285714Y-72097676D01*
X10285714Y-72097676D02*
X10190476Y-72192914D01*
X10190476Y-72192914D02*
X10095238Y-72240533D01*
D11*
X5614285Y-65415228D02*
X5585713Y-65443800D01*
X5585713Y-65443800D02*
X5499999Y-65472371D01*
X5499999Y-65472371D02*
X5442856Y-65472371D01*
X5442856Y-65472371D02*
X5357142Y-65443800D01*
X5357142Y-65443800D02*
X5299999Y-65386657D01*
X5299999Y-65386657D02*
X5271428Y-65329514D01*
X5271428Y-65329514D02*
X5242856Y-65215228D01*
X5242856Y-65215228D02*
X5242856Y-65129514D01*
X5242856Y-65129514D02*
X5271428Y-65015228D01*
X5271428Y-65015228D02*
X5299999Y-64958085D01*
X5299999Y-64958085D02*
X5357142Y-64900942D01*
X5357142Y-64900942D02*
X5442856Y-64872371D01*
X5442856Y-64872371D02*
X5499999Y-64872371D01*
X5499999Y-64872371D02*
X5585713Y-64900942D01*
X5585713Y-64900942D02*
X5614285Y-64929514D01*
X6185713Y-65472371D02*
X5842856Y-65472371D01*
X6014285Y-65472371D02*
X6014285Y-64872371D01*
X6014285Y-64872371D02*
X5957142Y-64958085D01*
X5957142Y-64958085D02*
X5899999Y-65015228D01*
X5899999Y-65015228D02*
X5842856Y-65043800D01*
X6385714Y-64872371D02*
X6757142Y-64872371D01*
X6757142Y-64872371D02*
X6557142Y-65100942D01*
X6557142Y-65100942D02*
X6642857Y-65100942D01*
X6642857Y-65100942D02*
X6700000Y-65129514D01*
X6700000Y-65129514D02*
X6728571Y-65158085D01*
X6728571Y-65158085D02*
X6757142Y-65215228D01*
X6757142Y-65215228D02*
X6757142Y-65358085D01*
X6757142Y-65358085D02*
X6728571Y-65415228D01*
X6728571Y-65415228D02*
X6700000Y-65443800D01*
X6700000Y-65443800D02*
X6642857Y-65472371D01*
X6642857Y-65472371D02*
X6471428Y-65472371D01*
X6471428Y-65472371D02*
X6414285Y-65443800D01*
X6414285Y-65443800D02*
X6385714Y-65415228D01*
D12*
X61933332Y-18825760D02*
X62047618Y-18863855D01*
X62047618Y-18863855D02*
X62238094Y-18863855D01*
X62238094Y-18863855D02*
X62314285Y-18825760D01*
X62314285Y-18825760D02*
X62352380Y-18787664D01*
X62352380Y-18787664D02*
X62390475Y-18711474D01*
X62390475Y-18711474D02*
X62390475Y-18635283D01*
X62390475Y-18635283D02*
X62352380Y-18559093D01*
X62352380Y-18559093D02*
X62314285Y-18520998D01*
X62314285Y-18520998D02*
X62238094Y-18482902D01*
X62238094Y-18482902D02*
X62085713Y-18444807D01*
X62085713Y-18444807D02*
X62009523Y-18406712D01*
X62009523Y-18406712D02*
X61971428Y-18368617D01*
X61971428Y-18368617D02*
X61933332Y-18292426D01*
X61933332Y-18292426D02*
X61933332Y-18216236D01*
X61933332Y-18216236D02*
X61971428Y-18140045D01*
X61971428Y-18140045D02*
X62009523Y-18101950D01*
X62009523Y-18101950D02*
X62085713Y-18063855D01*
X62085713Y-18063855D02*
X62276190Y-18063855D01*
X62276190Y-18063855D02*
X62390475Y-18101950D01*
X62657142Y-18063855D02*
X62847618Y-18863855D01*
X62847618Y-18863855D02*
X62999999Y-18292426D01*
X62999999Y-18292426D02*
X63152380Y-18863855D01*
X63152380Y-18863855D02*
X63342857Y-18063855D01*
X63761904Y-18406712D02*
X63685714Y-18368617D01*
X63685714Y-18368617D02*
X63647619Y-18330521D01*
X63647619Y-18330521D02*
X63609523Y-18254331D01*
X63609523Y-18254331D02*
X63609523Y-18216236D01*
X63609523Y-18216236D02*
X63647619Y-18140045D01*
X63647619Y-18140045D02*
X63685714Y-18101950D01*
X63685714Y-18101950D02*
X63761904Y-18063855D01*
X63761904Y-18063855D02*
X63914285Y-18063855D01*
X63914285Y-18063855D02*
X63990476Y-18101950D01*
X63990476Y-18101950D02*
X64028571Y-18140045D01*
X64028571Y-18140045D02*
X64066666Y-18216236D01*
X64066666Y-18216236D02*
X64066666Y-18254331D01*
X64066666Y-18254331D02*
X64028571Y-18330521D01*
X64028571Y-18330521D02*
X63990476Y-18368617D01*
X63990476Y-18368617D02*
X63914285Y-18406712D01*
X63914285Y-18406712D02*
X63761904Y-18406712D01*
X63761904Y-18406712D02*
X63685714Y-18444807D01*
X63685714Y-18444807D02*
X63647619Y-18482902D01*
X63647619Y-18482902D02*
X63609523Y-18559093D01*
X63609523Y-18559093D02*
X63609523Y-18711474D01*
X63609523Y-18711474D02*
X63647619Y-18787664D01*
X63647619Y-18787664D02*
X63685714Y-18825760D01*
X63685714Y-18825760D02*
X63761904Y-18863855D01*
X63761904Y-18863855D02*
X63914285Y-18863855D01*
X63914285Y-18863855D02*
X63990476Y-18825760D01*
X63990476Y-18825760D02*
X64028571Y-18787664D01*
X64028571Y-18787664D02*
X64066666Y-18711474D01*
X64066666Y-18711474D02*
X64066666Y-18559093D01*
X64066666Y-18559093D02*
X64028571Y-18482902D01*
X64028571Y-18482902D02*
X63990476Y-18444807D01*
X63990476Y-18444807D02*
X63914285Y-18406712D01*
D11*
X44042857Y-47272371D02*
X43757143Y-47272371D01*
X43757143Y-47272371D02*
X43757143Y-46672371D01*
X44242857Y-46958085D02*
X44442857Y-46958085D01*
X44528571Y-47272371D02*
X44242857Y-47272371D01*
X44242857Y-47272371D02*
X44242857Y-46672371D01*
X44242857Y-46672371D02*
X44528571Y-46672371D01*
X44785714Y-47272371D02*
X44785714Y-46672371D01*
X44785714Y-46672371D02*
X44928571Y-46672371D01*
X44928571Y-46672371D02*
X45014285Y-46700942D01*
X45014285Y-46700942D02*
X45071428Y-46758085D01*
X45071428Y-46758085D02*
X45099999Y-46815228D01*
X45099999Y-46815228D02*
X45128571Y-46929514D01*
X45128571Y-46929514D02*
X45128571Y-47015228D01*
X45128571Y-47015228D02*
X45099999Y-47129514D01*
X45099999Y-47129514D02*
X45071428Y-47186657D01*
X45071428Y-47186657D02*
X45014285Y-47243800D01*
X45014285Y-47243800D02*
X44928571Y-47272371D01*
X44928571Y-47272371D02*
X44785714Y-47272371D01*
X45699999Y-47272371D02*
X45357142Y-47272371D01*
X45528571Y-47272371D02*
X45528571Y-46672371D01*
X45528571Y-46672371D02*
X45471428Y-46758085D01*
X45471428Y-46758085D02*
X45414285Y-46815228D01*
X45414285Y-46815228D02*
X45357142Y-46843800D01*
X46271428Y-47272371D02*
X45928571Y-47272371D01*
X46100000Y-47272371D02*
X46100000Y-46672371D01*
X46100000Y-46672371D02*
X46042857Y-46758085D01*
X46042857Y-46758085D02*
X45985714Y-46815228D01*
X45985714Y-46815228D02*
X45928571Y-46843800D01*
X66772371Y-29442856D02*
X66172371Y-29442856D01*
X66172371Y-29442856D02*
X66172371Y-29299999D01*
X66172371Y-29299999D02*
X66200942Y-29214285D01*
X66200942Y-29214285D02*
X66258085Y-29157142D01*
X66258085Y-29157142D02*
X66315228Y-29128571D01*
X66315228Y-29128571D02*
X66429514Y-29099999D01*
X66429514Y-29099999D02*
X66515228Y-29099999D01*
X66515228Y-29099999D02*
X66629514Y-29128571D01*
X66629514Y-29128571D02*
X66686657Y-29157142D01*
X66686657Y-29157142D02*
X66743800Y-29214285D01*
X66743800Y-29214285D02*
X66772371Y-29299999D01*
X66772371Y-29299999D02*
X66772371Y-29442856D01*
X66429514Y-28757142D02*
X66400942Y-28814285D01*
X66400942Y-28814285D02*
X66372371Y-28842856D01*
X66372371Y-28842856D02*
X66315228Y-28871428D01*
X66315228Y-28871428D02*
X66286657Y-28871428D01*
X66286657Y-28871428D02*
X66229514Y-28842856D01*
X66229514Y-28842856D02*
X66200942Y-28814285D01*
X66200942Y-28814285D02*
X66172371Y-28757142D01*
X66172371Y-28757142D02*
X66172371Y-28642856D01*
X66172371Y-28642856D02*
X66200942Y-28585714D01*
X66200942Y-28585714D02*
X66229514Y-28557142D01*
X66229514Y-28557142D02*
X66286657Y-28528571D01*
X66286657Y-28528571D02*
X66315228Y-28528571D01*
X66315228Y-28528571D02*
X66372371Y-28557142D01*
X66372371Y-28557142D02*
X66400942Y-28585714D01*
X66400942Y-28585714D02*
X66429514Y-28642856D01*
X66429514Y-28642856D02*
X66429514Y-28757142D01*
X66429514Y-28757142D02*
X66458085Y-28814285D01*
X66458085Y-28814285D02*
X66486657Y-28842856D01*
X66486657Y-28842856D02*
X66543800Y-28871428D01*
X66543800Y-28871428D02*
X66658085Y-28871428D01*
X66658085Y-28871428D02*
X66715228Y-28842856D01*
X66715228Y-28842856D02*
X66743800Y-28814285D01*
X66743800Y-28814285D02*
X66772371Y-28757142D01*
X66772371Y-28757142D02*
X66772371Y-28642856D01*
X66772371Y-28642856D02*
X66743800Y-28585714D01*
X66743800Y-28585714D02*
X66715228Y-28557142D01*
X66715228Y-28557142D02*
X66658085Y-28528571D01*
X66658085Y-28528571D02*
X66543800Y-28528571D01*
X66543800Y-28528571D02*
X66486657Y-28557142D01*
X66486657Y-28557142D02*
X66458085Y-28585714D01*
X66458085Y-28585714D02*
X66429514Y-28642856D01*
X62328571Y-29272371D02*
X62042857Y-29272371D01*
X62042857Y-29272371D02*
X62042857Y-28672371D01*
X62528571Y-28958085D02*
X62728571Y-28958085D01*
X62814285Y-29272371D02*
X62528571Y-29272371D01*
X62528571Y-29272371D02*
X62528571Y-28672371D01*
X62528571Y-28672371D02*
X62814285Y-28672371D01*
X63071428Y-29272371D02*
X63071428Y-28672371D01*
X63071428Y-28672371D02*
X63214285Y-28672371D01*
X63214285Y-28672371D02*
X63299999Y-28700942D01*
X63299999Y-28700942D02*
X63357142Y-28758085D01*
X63357142Y-28758085D02*
X63385713Y-28815228D01*
X63385713Y-28815228D02*
X63414285Y-28929514D01*
X63414285Y-28929514D02*
X63414285Y-29015228D01*
X63414285Y-29015228D02*
X63385713Y-29129514D01*
X63385713Y-29129514D02*
X63357142Y-29186657D01*
X63357142Y-29186657D02*
X63299999Y-29243800D01*
X63299999Y-29243800D02*
X63214285Y-29272371D01*
X63214285Y-29272371D02*
X63071428Y-29272371D01*
X63757142Y-28929514D02*
X63699999Y-28900942D01*
X63699999Y-28900942D02*
X63671428Y-28872371D01*
X63671428Y-28872371D02*
X63642856Y-28815228D01*
X63642856Y-28815228D02*
X63642856Y-28786657D01*
X63642856Y-28786657D02*
X63671428Y-28729514D01*
X63671428Y-28729514D02*
X63699999Y-28700942D01*
X63699999Y-28700942D02*
X63757142Y-28672371D01*
X63757142Y-28672371D02*
X63871428Y-28672371D01*
X63871428Y-28672371D02*
X63928571Y-28700942D01*
X63928571Y-28700942D02*
X63957142Y-28729514D01*
X63957142Y-28729514D02*
X63985713Y-28786657D01*
X63985713Y-28786657D02*
X63985713Y-28815228D01*
X63985713Y-28815228D02*
X63957142Y-28872371D01*
X63957142Y-28872371D02*
X63928571Y-28900942D01*
X63928571Y-28900942D02*
X63871428Y-28929514D01*
X63871428Y-28929514D02*
X63757142Y-28929514D01*
X63757142Y-28929514D02*
X63699999Y-28958085D01*
X63699999Y-28958085D02*
X63671428Y-28986657D01*
X63671428Y-28986657D02*
X63642856Y-29043800D01*
X63642856Y-29043800D02*
X63642856Y-29158085D01*
X63642856Y-29158085D02*
X63671428Y-29215228D01*
X63671428Y-29215228D02*
X63699999Y-29243800D01*
X63699999Y-29243800D02*
X63757142Y-29272371D01*
X63757142Y-29272371D02*
X63871428Y-29272371D01*
X63871428Y-29272371D02*
X63928571Y-29243800D01*
X63928571Y-29243800D02*
X63957142Y-29215228D01*
X63957142Y-29215228D02*
X63985713Y-29158085D01*
X63985713Y-29158085D02*
X63985713Y-29043800D01*
X63985713Y-29043800D02*
X63957142Y-28986657D01*
X63957142Y-28986657D02*
X63928571Y-28958085D01*
X63928571Y-28958085D02*
X63871428Y-28929514D01*
X59614285Y-47415228D02*
X59585713Y-47443800D01*
X59585713Y-47443800D02*
X59499999Y-47472371D01*
X59499999Y-47472371D02*
X59442856Y-47472371D01*
X59442856Y-47472371D02*
X59357142Y-47443800D01*
X59357142Y-47443800D02*
X59299999Y-47386657D01*
X59299999Y-47386657D02*
X59271428Y-47329514D01*
X59271428Y-47329514D02*
X59242856Y-47215228D01*
X59242856Y-47215228D02*
X59242856Y-47129514D01*
X59242856Y-47129514D02*
X59271428Y-47015228D01*
X59271428Y-47015228D02*
X59299999Y-46958085D01*
X59299999Y-46958085D02*
X59357142Y-46900942D01*
X59357142Y-46900942D02*
X59442856Y-46872371D01*
X59442856Y-46872371D02*
X59499999Y-46872371D01*
X59499999Y-46872371D02*
X59585713Y-46900942D01*
X59585713Y-46900942D02*
X59614285Y-46929514D01*
X60185713Y-47472371D02*
X59842856Y-47472371D01*
X60014285Y-47472371D02*
X60014285Y-46872371D01*
X60014285Y-46872371D02*
X59957142Y-46958085D01*
X59957142Y-46958085D02*
X59899999Y-47015228D01*
X59899999Y-47015228D02*
X59842856Y-47043800D01*
X60414285Y-46929514D02*
X60442857Y-46900942D01*
X60442857Y-46900942D02*
X60500000Y-46872371D01*
X60500000Y-46872371D02*
X60642857Y-46872371D01*
X60642857Y-46872371D02*
X60700000Y-46900942D01*
X60700000Y-46900942D02*
X60728571Y-46929514D01*
X60728571Y-46929514D02*
X60757142Y-46986657D01*
X60757142Y-46986657D02*
X60757142Y-47043800D01*
X60757142Y-47043800D02*
X60728571Y-47129514D01*
X60728571Y-47129514D02*
X60385714Y-47472371D01*
X60385714Y-47472371D02*
X60757142Y-47472371D01*
X41614285Y-65415228D02*
X41585713Y-65443800D01*
X41585713Y-65443800D02*
X41499999Y-65472371D01*
X41499999Y-65472371D02*
X41442856Y-65472371D01*
X41442856Y-65472371D02*
X41357142Y-65443800D01*
X41357142Y-65443800D02*
X41299999Y-65386657D01*
X41299999Y-65386657D02*
X41271428Y-65329514D01*
X41271428Y-65329514D02*
X41242856Y-65215228D01*
X41242856Y-65215228D02*
X41242856Y-65129514D01*
X41242856Y-65129514D02*
X41271428Y-65015228D01*
X41271428Y-65015228D02*
X41299999Y-64958085D01*
X41299999Y-64958085D02*
X41357142Y-64900942D01*
X41357142Y-64900942D02*
X41442856Y-64872371D01*
X41442856Y-64872371D02*
X41499999Y-64872371D01*
X41499999Y-64872371D02*
X41585713Y-64900942D01*
X41585713Y-64900942D02*
X41614285Y-64929514D01*
X42185713Y-65472371D02*
X41842856Y-65472371D01*
X42014285Y-65472371D02*
X42014285Y-64872371D01*
X42014285Y-64872371D02*
X41957142Y-64958085D01*
X41957142Y-64958085D02*
X41899999Y-65015228D01*
X41899999Y-65015228D02*
X41842856Y-65043800D01*
X42728571Y-64872371D02*
X42442857Y-64872371D01*
X42442857Y-64872371D02*
X42414285Y-65158085D01*
X42414285Y-65158085D02*
X42442857Y-65129514D01*
X42442857Y-65129514D02*
X42500000Y-65100942D01*
X42500000Y-65100942D02*
X42642857Y-65100942D01*
X42642857Y-65100942D02*
X42700000Y-65129514D01*
X42700000Y-65129514D02*
X42728571Y-65158085D01*
X42728571Y-65158085D02*
X42757142Y-65215228D01*
X42757142Y-65215228D02*
X42757142Y-65358085D01*
X42757142Y-65358085D02*
X42728571Y-65415228D01*
X42728571Y-65415228D02*
X42700000Y-65443800D01*
X42700000Y-65443800D02*
X42642857Y-65472371D01*
X42642857Y-65472371D02*
X42500000Y-65472371D01*
X42500000Y-65472371D02*
X42442857Y-65443800D01*
X42442857Y-65443800D02*
X42414285Y-65415228D01*
X23614285Y-47415228D02*
X23585713Y-47443800D01*
X23585713Y-47443800D02*
X23499999Y-47472371D01*
X23499999Y-47472371D02*
X23442856Y-47472371D01*
X23442856Y-47472371D02*
X23357142Y-47443800D01*
X23357142Y-47443800D02*
X23299999Y-47386657D01*
X23299999Y-47386657D02*
X23271428Y-47329514D01*
X23271428Y-47329514D02*
X23242856Y-47215228D01*
X23242856Y-47215228D02*
X23242856Y-47129514D01*
X23242856Y-47129514D02*
X23271428Y-47015228D01*
X23271428Y-47015228D02*
X23299999Y-46958085D01*
X23299999Y-46958085D02*
X23357142Y-46900942D01*
X23357142Y-46900942D02*
X23442856Y-46872371D01*
X23442856Y-46872371D02*
X23499999Y-46872371D01*
X23499999Y-46872371D02*
X23585713Y-46900942D01*
X23585713Y-46900942D02*
X23614285Y-46929514D01*
X24185713Y-47472371D02*
X23842856Y-47472371D01*
X24014285Y-47472371D02*
X24014285Y-46872371D01*
X24014285Y-46872371D02*
X23957142Y-46958085D01*
X23957142Y-46958085D02*
X23899999Y-47015228D01*
X23899999Y-47015228D02*
X23842856Y-47043800D01*
X24557142Y-46872371D02*
X24614285Y-46872371D01*
X24614285Y-46872371D02*
X24671428Y-46900942D01*
X24671428Y-46900942D02*
X24700000Y-46929514D01*
X24700000Y-46929514D02*
X24728571Y-46986657D01*
X24728571Y-46986657D02*
X24757142Y-47100942D01*
X24757142Y-47100942D02*
X24757142Y-47243800D01*
X24757142Y-47243800D02*
X24728571Y-47358085D01*
X24728571Y-47358085D02*
X24700000Y-47415228D01*
X24700000Y-47415228D02*
X24671428Y-47443800D01*
X24671428Y-47443800D02*
X24614285Y-47472371D01*
X24614285Y-47472371D02*
X24557142Y-47472371D01*
X24557142Y-47472371D02*
X24500000Y-47443800D01*
X24500000Y-47443800D02*
X24471428Y-47415228D01*
X24471428Y-47415228D02*
X24442857Y-47358085D01*
X24442857Y-47358085D02*
X24414285Y-47243800D01*
X24414285Y-47243800D02*
X24414285Y-47100942D01*
X24414285Y-47100942D02*
X24442857Y-46986657D01*
X24442857Y-46986657D02*
X24471428Y-46929514D01*
X24471428Y-46929514D02*
X24500000Y-46900942D01*
X24500000Y-46900942D02*
X24557142Y-46872371D01*
D12*
X25933332Y-825760D02*
X26047618Y-863855D01*
X26047618Y-863855D02*
X26238094Y-863855D01*
X26238094Y-863855D02*
X26314285Y-825760D01*
X26314285Y-825760D02*
X26352380Y-787664D01*
X26352380Y-787664D02*
X26390475Y-711474D01*
X26390475Y-711474D02*
X26390475Y-635283D01*
X26390475Y-635283D02*
X26352380Y-559093D01*
X26352380Y-559093D02*
X26314285Y-520998D01*
X26314285Y-520998D02*
X26238094Y-482902D01*
X26238094Y-482902D02*
X26085713Y-444807D01*
X26085713Y-444807D02*
X26009523Y-406712D01*
X26009523Y-406712D02*
X25971428Y-368617D01*
X25971428Y-368617D02*
X25933332Y-292426D01*
X25933332Y-292426D02*
X25933332Y-216236D01*
X25933332Y-216236D02*
X25971428Y-140045D01*
X25971428Y-140045D02*
X26009523Y-101950D01*
X26009523Y-101950D02*
X26085713Y-63855D01*
X26085713Y-63855D02*
X26276190Y-63855D01*
X26276190Y-63855D02*
X26390475Y-101950D01*
X26657142Y-63855D02*
X26847618Y-863855D01*
X26847618Y-863855D02*
X26999999Y-292426D01*
X26999999Y-292426D02*
X27152380Y-863855D01*
X27152380Y-863855D02*
X27342857Y-63855D01*
X27609523Y-140045D02*
X27647619Y-101950D01*
X27647619Y-101950D02*
X27723809Y-63855D01*
X27723809Y-63855D02*
X27914285Y-63855D01*
X27914285Y-63855D02*
X27990476Y-101950D01*
X27990476Y-101950D02*
X28028571Y-140045D01*
X28028571Y-140045D02*
X28066666Y-216236D01*
X28066666Y-216236D02*
X28066666Y-292426D01*
X28066666Y-292426D02*
X28028571Y-406712D01*
X28028571Y-406712D02*
X27571428Y-863855D01*
X27571428Y-863855D02*
X28066666Y-863855D01*
D11*
X59900000Y-11415228D02*
X59871428Y-11443800D01*
X59871428Y-11443800D02*
X59785714Y-11472371D01*
X59785714Y-11472371D02*
X59728571Y-11472371D01*
X59728571Y-11472371D02*
X59642857Y-11443800D01*
X59642857Y-11443800D02*
X59585714Y-11386657D01*
X59585714Y-11386657D02*
X59557143Y-11329514D01*
X59557143Y-11329514D02*
X59528571Y-11215228D01*
X59528571Y-11215228D02*
X59528571Y-11129514D01*
X59528571Y-11129514D02*
X59557143Y-11015228D01*
X59557143Y-11015228D02*
X59585714Y-10958085D01*
X59585714Y-10958085D02*
X59642857Y-10900942D01*
X59642857Y-10900942D02*
X59728571Y-10872371D01*
X59728571Y-10872371D02*
X59785714Y-10872371D01*
X59785714Y-10872371D02*
X59871428Y-10900942D01*
X59871428Y-10900942D02*
X59900000Y-10929514D01*
X60414286Y-11072371D02*
X60414286Y-11472371D01*
X60271428Y-10843800D02*
X60128571Y-11272371D01*
X60128571Y-11272371D02*
X60500000Y-11272371D01*
D12*
X61933332Y-825760D02*
X62047618Y-863855D01*
X62047618Y-863855D02*
X62238094Y-863855D01*
X62238094Y-863855D02*
X62314285Y-825760D01*
X62314285Y-825760D02*
X62352380Y-787664D01*
X62352380Y-787664D02*
X62390475Y-711474D01*
X62390475Y-711474D02*
X62390475Y-635283D01*
X62390475Y-635283D02*
X62352380Y-559093D01*
X62352380Y-559093D02*
X62314285Y-520998D01*
X62314285Y-520998D02*
X62238094Y-482902D01*
X62238094Y-482902D02*
X62085713Y-444807D01*
X62085713Y-444807D02*
X62009523Y-406712D01*
X62009523Y-406712D02*
X61971428Y-368617D01*
X61971428Y-368617D02*
X61933332Y-292426D01*
X61933332Y-292426D02*
X61933332Y-216236D01*
X61933332Y-216236D02*
X61971428Y-140045D01*
X61971428Y-140045D02*
X62009523Y-101950D01*
X62009523Y-101950D02*
X62085713Y-63855D01*
X62085713Y-63855D02*
X62276190Y-63855D01*
X62276190Y-63855D02*
X62390475Y-101950D01*
X62657142Y-63855D02*
X62847618Y-863855D01*
X62847618Y-863855D02*
X62999999Y-292426D01*
X62999999Y-292426D02*
X63152380Y-863855D01*
X63152380Y-863855D02*
X63342857Y-63855D01*
X63990476Y-330521D02*
X63990476Y-863855D01*
X63800000Y-25760D02*
X63609523Y-597188D01*
X63609523Y-597188D02*
X64104762Y-597188D01*
D11*
X51271428Y-42772371D02*
X51271428Y-42172371D01*
X51271428Y-42172371D02*
X51414285Y-42172371D01*
X51414285Y-42172371D02*
X51499999Y-42200942D01*
X51499999Y-42200942D02*
X51557142Y-42258085D01*
X51557142Y-42258085D02*
X51585713Y-42315228D01*
X51585713Y-42315228D02*
X51614285Y-42429514D01*
X51614285Y-42429514D02*
X51614285Y-42515228D01*
X51614285Y-42515228D02*
X51585713Y-42629514D01*
X51585713Y-42629514D02*
X51557142Y-42686657D01*
X51557142Y-42686657D02*
X51499999Y-42743800D01*
X51499999Y-42743800D02*
X51414285Y-42772371D01*
X51414285Y-42772371D02*
X51271428Y-42772371D01*
X52185713Y-42772371D02*
X51842856Y-42772371D01*
X52014285Y-42772371D02*
X52014285Y-42172371D01*
X52014285Y-42172371D02*
X51957142Y-42258085D01*
X51957142Y-42258085D02*
X51899999Y-42315228D01*
X51899999Y-42315228D02*
X51842856Y-42343800D01*
X52757142Y-42772371D02*
X52414285Y-42772371D01*
X52585714Y-42772371D02*
X52585714Y-42172371D01*
X52585714Y-42172371D02*
X52528571Y-42258085D01*
X52528571Y-42258085D02*
X52471428Y-42315228D01*
X52471428Y-42315228D02*
X52414285Y-42343800D01*
X15271428Y-60772371D02*
X15271428Y-60172371D01*
X15271428Y-60172371D02*
X15414285Y-60172371D01*
X15414285Y-60172371D02*
X15499999Y-60200942D01*
X15499999Y-60200942D02*
X15557142Y-60258085D01*
X15557142Y-60258085D02*
X15585713Y-60315228D01*
X15585713Y-60315228D02*
X15614285Y-60429514D01*
X15614285Y-60429514D02*
X15614285Y-60515228D01*
X15614285Y-60515228D02*
X15585713Y-60629514D01*
X15585713Y-60629514D02*
X15557142Y-60686657D01*
X15557142Y-60686657D02*
X15499999Y-60743800D01*
X15499999Y-60743800D02*
X15414285Y-60772371D01*
X15414285Y-60772371D02*
X15271428Y-60772371D01*
X16185713Y-60772371D02*
X15842856Y-60772371D01*
X16014285Y-60772371D02*
X16014285Y-60172371D01*
X16014285Y-60172371D02*
X15957142Y-60258085D01*
X15957142Y-60258085D02*
X15899999Y-60315228D01*
X15899999Y-60315228D02*
X15842856Y-60343800D01*
X16385714Y-60172371D02*
X16757142Y-60172371D01*
X16757142Y-60172371D02*
X16557142Y-60400942D01*
X16557142Y-60400942D02*
X16642857Y-60400942D01*
X16642857Y-60400942D02*
X16700000Y-60429514D01*
X16700000Y-60429514D02*
X16728571Y-60458085D01*
X16728571Y-60458085D02*
X16757142Y-60515228D01*
X16757142Y-60515228D02*
X16757142Y-60658085D01*
X16757142Y-60658085D02*
X16728571Y-60715228D01*
X16728571Y-60715228D02*
X16700000Y-60743800D01*
X16700000Y-60743800D02*
X16642857Y-60772371D01*
X16642857Y-60772371D02*
X16471428Y-60772371D01*
X16471428Y-60772371D02*
X16414285Y-60743800D01*
X16414285Y-60743800D02*
X16385714Y-60715228D01*
X26328571Y-11272371D02*
X26042857Y-11272371D01*
X26042857Y-11272371D02*
X26042857Y-10672371D01*
X26528571Y-10958085D02*
X26728571Y-10958085D01*
X26814285Y-11272371D02*
X26528571Y-11272371D01*
X26528571Y-11272371D02*
X26528571Y-10672371D01*
X26528571Y-10672371D02*
X26814285Y-10672371D01*
X27071428Y-11272371D02*
X27071428Y-10672371D01*
X27071428Y-10672371D02*
X27214285Y-10672371D01*
X27214285Y-10672371D02*
X27299999Y-10700942D01*
X27299999Y-10700942D02*
X27357142Y-10758085D01*
X27357142Y-10758085D02*
X27385713Y-10815228D01*
X27385713Y-10815228D02*
X27414285Y-10929514D01*
X27414285Y-10929514D02*
X27414285Y-11015228D01*
X27414285Y-11015228D02*
X27385713Y-11129514D01*
X27385713Y-11129514D02*
X27357142Y-11186657D01*
X27357142Y-11186657D02*
X27299999Y-11243800D01*
X27299999Y-11243800D02*
X27214285Y-11272371D01*
X27214285Y-11272371D02*
X27071428Y-11272371D01*
X27642856Y-10729514D02*
X27671428Y-10700942D01*
X27671428Y-10700942D02*
X27728571Y-10672371D01*
X27728571Y-10672371D02*
X27871428Y-10672371D01*
X27871428Y-10672371D02*
X27928571Y-10700942D01*
X27928571Y-10700942D02*
X27957142Y-10729514D01*
X27957142Y-10729514D02*
X27985713Y-10786657D01*
X27985713Y-10786657D02*
X27985713Y-10843800D01*
X27985713Y-10843800D02*
X27957142Y-10929514D01*
X27957142Y-10929514D02*
X27614285Y-11272371D01*
X27614285Y-11272371D02*
X27985713Y-11272371D01*
X66772371Y-11442856D02*
X66172371Y-11442856D01*
X66172371Y-11442856D02*
X66172371Y-11299999D01*
X66172371Y-11299999D02*
X66200942Y-11214285D01*
X66200942Y-11214285D02*
X66258085Y-11157142D01*
X66258085Y-11157142D02*
X66315228Y-11128571D01*
X66315228Y-11128571D02*
X66429514Y-11099999D01*
X66429514Y-11099999D02*
X66515228Y-11099999D01*
X66515228Y-11099999D02*
X66629514Y-11128571D01*
X66629514Y-11128571D02*
X66686657Y-11157142D01*
X66686657Y-11157142D02*
X66743800Y-11214285D01*
X66743800Y-11214285D02*
X66772371Y-11299999D01*
X66772371Y-11299999D02*
X66772371Y-11442856D01*
X66372371Y-10585714D02*
X66772371Y-10585714D01*
X66143800Y-10728571D02*
X66572371Y-10871428D01*
X66572371Y-10871428D02*
X66572371Y-10499999D01*
X41614285Y-47415228D02*
X41585713Y-47443800D01*
X41585713Y-47443800D02*
X41499999Y-47472371D01*
X41499999Y-47472371D02*
X41442856Y-47472371D01*
X41442856Y-47472371D02*
X41357142Y-47443800D01*
X41357142Y-47443800D02*
X41299999Y-47386657D01*
X41299999Y-47386657D02*
X41271428Y-47329514D01*
X41271428Y-47329514D02*
X41242856Y-47215228D01*
X41242856Y-47215228D02*
X41242856Y-47129514D01*
X41242856Y-47129514D02*
X41271428Y-47015228D01*
X41271428Y-47015228D02*
X41299999Y-46958085D01*
X41299999Y-46958085D02*
X41357142Y-46900942D01*
X41357142Y-46900942D02*
X41442856Y-46872371D01*
X41442856Y-46872371D02*
X41499999Y-46872371D01*
X41499999Y-46872371D02*
X41585713Y-46900942D01*
X41585713Y-46900942D02*
X41614285Y-46929514D01*
X42185713Y-47472371D02*
X41842856Y-47472371D01*
X42014285Y-47472371D02*
X42014285Y-46872371D01*
X42014285Y-46872371D02*
X41957142Y-46958085D01*
X41957142Y-46958085D02*
X41899999Y-47015228D01*
X41899999Y-47015228D02*
X41842856Y-47043800D01*
X42757142Y-47472371D02*
X42414285Y-47472371D01*
X42585714Y-47472371D02*
X42585714Y-46872371D01*
X42585714Y-46872371D02*
X42528571Y-46958085D01*
X42528571Y-46958085D02*
X42471428Y-47015228D01*
X42471428Y-47015228D02*
X42414285Y-47043800D01*
X44042857Y-65272371D02*
X43757143Y-65272371D01*
X43757143Y-65272371D02*
X43757143Y-64672371D01*
X44242857Y-64958085D02*
X44442857Y-64958085D01*
X44528571Y-65272371D02*
X44242857Y-65272371D01*
X44242857Y-65272371D02*
X44242857Y-64672371D01*
X44242857Y-64672371D02*
X44528571Y-64672371D01*
X44785714Y-65272371D02*
X44785714Y-64672371D01*
X44785714Y-64672371D02*
X44928571Y-64672371D01*
X44928571Y-64672371D02*
X45014285Y-64700942D01*
X45014285Y-64700942D02*
X45071428Y-64758085D01*
X45071428Y-64758085D02*
X45099999Y-64815228D01*
X45099999Y-64815228D02*
X45128571Y-64929514D01*
X45128571Y-64929514D02*
X45128571Y-65015228D01*
X45128571Y-65015228D02*
X45099999Y-65129514D01*
X45099999Y-65129514D02*
X45071428Y-65186657D01*
X45071428Y-65186657D02*
X45014285Y-65243800D01*
X45014285Y-65243800D02*
X44928571Y-65272371D01*
X44928571Y-65272371D02*
X44785714Y-65272371D01*
X45699999Y-65272371D02*
X45357142Y-65272371D01*
X45528571Y-65272371D02*
X45528571Y-64672371D01*
X45528571Y-64672371D02*
X45471428Y-64758085D01*
X45471428Y-64758085D02*
X45414285Y-64815228D01*
X45414285Y-64815228D02*
X45357142Y-64843800D01*
X46242857Y-64672371D02*
X45957143Y-64672371D01*
X45957143Y-64672371D02*
X45928571Y-64958085D01*
X45928571Y-64958085D02*
X45957143Y-64929514D01*
X45957143Y-64929514D02*
X46014286Y-64900942D01*
X46014286Y-64900942D02*
X46157143Y-64900942D01*
X46157143Y-64900942D02*
X46214286Y-64929514D01*
X46214286Y-64929514D02*
X46242857Y-64958085D01*
X46242857Y-64958085D02*
X46271428Y-65015228D01*
X46271428Y-65015228D02*
X46271428Y-65158085D01*
X46271428Y-65158085D02*
X46242857Y-65215228D01*
X46242857Y-65215228D02*
X46214286Y-65243800D01*
X46214286Y-65243800D02*
X46157143Y-65272371D01*
X46157143Y-65272371D02*
X46014286Y-65272371D01*
X46014286Y-65272371D02*
X45957143Y-65243800D01*
X45957143Y-65243800D02*
X45928571Y-65215228D01*
X23614285Y-65415228D02*
X23585713Y-65443800D01*
X23585713Y-65443800D02*
X23499999Y-65472371D01*
X23499999Y-65472371D02*
X23442856Y-65472371D01*
X23442856Y-65472371D02*
X23357142Y-65443800D01*
X23357142Y-65443800D02*
X23299999Y-65386657D01*
X23299999Y-65386657D02*
X23271428Y-65329514D01*
X23271428Y-65329514D02*
X23242856Y-65215228D01*
X23242856Y-65215228D02*
X23242856Y-65129514D01*
X23242856Y-65129514D02*
X23271428Y-65015228D01*
X23271428Y-65015228D02*
X23299999Y-64958085D01*
X23299999Y-64958085D02*
X23357142Y-64900942D01*
X23357142Y-64900942D02*
X23442856Y-64872371D01*
X23442856Y-64872371D02*
X23499999Y-64872371D01*
X23499999Y-64872371D02*
X23585713Y-64900942D01*
X23585713Y-64900942D02*
X23614285Y-64929514D01*
X24185713Y-65472371D02*
X23842856Y-65472371D01*
X24014285Y-65472371D02*
X24014285Y-64872371D01*
X24014285Y-64872371D02*
X23957142Y-64958085D01*
X23957142Y-64958085D02*
X23899999Y-65015228D01*
X23899999Y-65015228D02*
X23842856Y-65043800D01*
X24700000Y-65072371D02*
X24700000Y-65472371D01*
X24557142Y-64843800D02*
X24414285Y-65272371D01*
X24414285Y-65272371D02*
X24785714Y-65272371D01*
X51557143Y-6772371D02*
X51557143Y-6172371D01*
X51557143Y-6172371D02*
X51700000Y-6172371D01*
X51700000Y-6172371D02*
X51785714Y-6200942D01*
X51785714Y-6200942D02*
X51842857Y-6258085D01*
X51842857Y-6258085D02*
X51871428Y-6315228D01*
X51871428Y-6315228D02*
X51900000Y-6429514D01*
X51900000Y-6429514D02*
X51900000Y-6515228D01*
X51900000Y-6515228D02*
X51871428Y-6629514D01*
X51871428Y-6629514D02*
X51842857Y-6686657D01*
X51842857Y-6686657D02*
X51785714Y-6743800D01*
X51785714Y-6743800D02*
X51700000Y-6772371D01*
X51700000Y-6772371D02*
X51557143Y-6772371D01*
X52100000Y-6172371D02*
X52471428Y-6172371D01*
X52471428Y-6172371D02*
X52271428Y-6400942D01*
X52271428Y-6400942D02*
X52357143Y-6400942D01*
X52357143Y-6400942D02*
X52414286Y-6429514D01*
X52414286Y-6429514D02*
X52442857Y-6458085D01*
X52442857Y-6458085D02*
X52471428Y-6515228D01*
X52471428Y-6515228D02*
X52471428Y-6658085D01*
X52471428Y-6658085D02*
X52442857Y-6715228D01*
X52442857Y-6715228D02*
X52414286Y-6743800D01*
X52414286Y-6743800D02*
X52357143Y-6772371D01*
X52357143Y-6772371D02*
X52185714Y-6772371D01*
X52185714Y-6772371D02*
X52128571Y-6743800D01*
X52128571Y-6743800D02*
X52100000Y-6715228D01*
D12*
X7933332Y-36825760D02*
X8047618Y-36863855D01*
X8047618Y-36863855D02*
X8238094Y-36863855D01*
X8238094Y-36863855D02*
X8314285Y-36825760D01*
X8314285Y-36825760D02*
X8352380Y-36787664D01*
X8352380Y-36787664D02*
X8390475Y-36711474D01*
X8390475Y-36711474D02*
X8390475Y-36635283D01*
X8390475Y-36635283D02*
X8352380Y-36559093D01*
X8352380Y-36559093D02*
X8314285Y-36520998D01*
X8314285Y-36520998D02*
X8238094Y-36482902D01*
X8238094Y-36482902D02*
X8085713Y-36444807D01*
X8085713Y-36444807D02*
X8009523Y-36406712D01*
X8009523Y-36406712D02*
X7971428Y-36368617D01*
X7971428Y-36368617D02*
X7933332Y-36292426D01*
X7933332Y-36292426D02*
X7933332Y-36216236D01*
X7933332Y-36216236D02*
X7971428Y-36140045D01*
X7971428Y-36140045D02*
X8009523Y-36101950D01*
X8009523Y-36101950D02*
X8085713Y-36063855D01*
X8085713Y-36063855D02*
X8276190Y-36063855D01*
X8276190Y-36063855D02*
X8390475Y-36101950D01*
X8657142Y-36063855D02*
X8847618Y-36863855D01*
X8847618Y-36863855D02*
X8999999Y-36292426D01*
X8999999Y-36292426D02*
X9152380Y-36863855D01*
X9152380Y-36863855D02*
X9342857Y-36063855D01*
X9685714Y-36863855D02*
X9838095Y-36863855D01*
X9838095Y-36863855D02*
X9914285Y-36825760D01*
X9914285Y-36825760D02*
X9952381Y-36787664D01*
X9952381Y-36787664D02*
X10028571Y-36673379D01*
X10028571Y-36673379D02*
X10066666Y-36520998D01*
X10066666Y-36520998D02*
X10066666Y-36216236D01*
X10066666Y-36216236D02*
X10028571Y-36140045D01*
X10028571Y-36140045D02*
X9990476Y-36101950D01*
X9990476Y-36101950D02*
X9914285Y-36063855D01*
X9914285Y-36063855D02*
X9761904Y-36063855D01*
X9761904Y-36063855D02*
X9685714Y-36101950D01*
X9685714Y-36101950D02*
X9647619Y-36140045D01*
X9647619Y-36140045D02*
X9609523Y-36216236D01*
X9609523Y-36216236D02*
X9609523Y-36406712D01*
X9609523Y-36406712D02*
X9647619Y-36482902D01*
X9647619Y-36482902D02*
X9685714Y-36520998D01*
X9685714Y-36520998D02*
X9761904Y-36559093D01*
X9761904Y-36559093D02*
X9914285Y-36559093D01*
X9914285Y-36559093D02*
X9990476Y-36520998D01*
X9990476Y-36520998D02*
X10028571Y-36482902D01*
X10028571Y-36482902D02*
X10066666Y-36406712D01*
D11*
X62328571Y-11272371D02*
X62042857Y-11272371D01*
X62042857Y-11272371D02*
X62042857Y-10672371D01*
X62528571Y-10958085D02*
X62728571Y-10958085D01*
X62814285Y-11272371D02*
X62528571Y-11272371D01*
X62528571Y-11272371D02*
X62528571Y-10672371D01*
X62528571Y-10672371D02*
X62814285Y-10672371D01*
X63071428Y-11272371D02*
X63071428Y-10672371D01*
X63071428Y-10672371D02*
X63214285Y-10672371D01*
X63214285Y-10672371D02*
X63299999Y-10700942D01*
X63299999Y-10700942D02*
X63357142Y-10758085D01*
X63357142Y-10758085D02*
X63385713Y-10815228D01*
X63385713Y-10815228D02*
X63414285Y-10929514D01*
X63414285Y-10929514D02*
X63414285Y-11015228D01*
X63414285Y-11015228D02*
X63385713Y-11129514D01*
X63385713Y-11129514D02*
X63357142Y-11186657D01*
X63357142Y-11186657D02*
X63299999Y-11243800D01*
X63299999Y-11243800D02*
X63214285Y-11272371D01*
X63214285Y-11272371D02*
X63071428Y-11272371D01*
X63928571Y-10872371D02*
X63928571Y-11272371D01*
X63785713Y-10643800D02*
X63642856Y-11072371D01*
X63642856Y-11072371D02*
X64014285Y-11072371D01*
D12*
X7933332Y-18825760D02*
X8047618Y-18863855D01*
X8047618Y-18863855D02*
X8238094Y-18863855D01*
X8238094Y-18863855D02*
X8314285Y-18825760D01*
X8314285Y-18825760D02*
X8352380Y-18787664D01*
X8352380Y-18787664D02*
X8390475Y-18711474D01*
X8390475Y-18711474D02*
X8390475Y-18635283D01*
X8390475Y-18635283D02*
X8352380Y-18559093D01*
X8352380Y-18559093D02*
X8314285Y-18520998D01*
X8314285Y-18520998D02*
X8238094Y-18482902D01*
X8238094Y-18482902D02*
X8085713Y-18444807D01*
X8085713Y-18444807D02*
X8009523Y-18406712D01*
X8009523Y-18406712D02*
X7971428Y-18368617D01*
X7971428Y-18368617D02*
X7933332Y-18292426D01*
X7933332Y-18292426D02*
X7933332Y-18216236D01*
X7933332Y-18216236D02*
X7971428Y-18140045D01*
X7971428Y-18140045D02*
X8009523Y-18101950D01*
X8009523Y-18101950D02*
X8085713Y-18063855D01*
X8085713Y-18063855D02*
X8276190Y-18063855D01*
X8276190Y-18063855D02*
X8390475Y-18101950D01*
X8657142Y-18063855D02*
X8847618Y-18863855D01*
X8847618Y-18863855D02*
X8999999Y-18292426D01*
X8999999Y-18292426D02*
X9152380Y-18863855D01*
X9152380Y-18863855D02*
X9342857Y-18063855D01*
X10028571Y-18063855D02*
X9647619Y-18063855D01*
X9647619Y-18063855D02*
X9609523Y-18444807D01*
X9609523Y-18444807D02*
X9647619Y-18406712D01*
X9647619Y-18406712D02*
X9723809Y-18368617D01*
X9723809Y-18368617D02*
X9914285Y-18368617D01*
X9914285Y-18368617D02*
X9990476Y-18406712D01*
X9990476Y-18406712D02*
X10028571Y-18444807D01*
X10028571Y-18444807D02*
X10066666Y-18520998D01*
X10066666Y-18520998D02*
X10066666Y-18711474D01*
X10066666Y-18711474D02*
X10028571Y-18787664D01*
X10028571Y-18787664D02*
X9990476Y-18825760D01*
X9990476Y-18825760D02*
X9914285Y-18863855D01*
X9914285Y-18863855D02*
X9723809Y-18863855D01*
X9723809Y-18863855D02*
X9647619Y-18825760D01*
X9647619Y-18825760D02*
X9609523Y-18787664D01*
D11*
X23900000Y-29415228D02*
X23871428Y-29443800D01*
X23871428Y-29443800D02*
X23785714Y-29472371D01*
X23785714Y-29472371D02*
X23728571Y-29472371D01*
X23728571Y-29472371D02*
X23642857Y-29443800D01*
X23642857Y-29443800D02*
X23585714Y-29386657D01*
X23585714Y-29386657D02*
X23557143Y-29329514D01*
X23557143Y-29329514D02*
X23528571Y-29215228D01*
X23528571Y-29215228D02*
X23528571Y-29129514D01*
X23528571Y-29129514D02*
X23557143Y-29015228D01*
X23557143Y-29015228D02*
X23585714Y-28958085D01*
X23585714Y-28958085D02*
X23642857Y-28900942D01*
X23642857Y-28900942D02*
X23728571Y-28872371D01*
X23728571Y-28872371D02*
X23785714Y-28872371D01*
X23785714Y-28872371D02*
X23871428Y-28900942D01*
X23871428Y-28900942D02*
X23900000Y-28929514D01*
X24414286Y-28872371D02*
X24300000Y-28872371D01*
X24300000Y-28872371D02*
X24242857Y-28900942D01*
X24242857Y-28900942D02*
X24214286Y-28929514D01*
X24214286Y-28929514D02*
X24157143Y-29015228D01*
X24157143Y-29015228D02*
X24128571Y-29129514D01*
X24128571Y-29129514D02*
X24128571Y-29358085D01*
X24128571Y-29358085D02*
X24157143Y-29415228D01*
X24157143Y-29415228D02*
X24185714Y-29443800D01*
X24185714Y-29443800D02*
X24242857Y-29472371D01*
X24242857Y-29472371D02*
X24357143Y-29472371D01*
X24357143Y-29472371D02*
X24414286Y-29443800D01*
X24414286Y-29443800D02*
X24442857Y-29415228D01*
X24442857Y-29415228D02*
X24471428Y-29358085D01*
X24471428Y-29358085D02*
X24471428Y-29215228D01*
X24471428Y-29215228D02*
X24442857Y-29158085D01*
X24442857Y-29158085D02*
X24414286Y-29129514D01*
X24414286Y-29129514D02*
X24357143Y-29100942D01*
X24357143Y-29100942D02*
X24242857Y-29100942D01*
X24242857Y-29100942D02*
X24185714Y-29129514D01*
X24185714Y-29129514D02*
X24157143Y-29158085D01*
X24157143Y-29158085D02*
X24128571Y-29215228D01*
X27614285Y-71915228D02*
X27585713Y-71943800D01*
X27585713Y-71943800D02*
X27499999Y-71972371D01*
X27499999Y-71972371D02*
X27442856Y-71972371D01*
X27442856Y-71972371D02*
X27357142Y-71943800D01*
X27357142Y-71943800D02*
X27299999Y-71886657D01*
X27299999Y-71886657D02*
X27271428Y-71829514D01*
X27271428Y-71829514D02*
X27242856Y-71715228D01*
X27242856Y-71715228D02*
X27242856Y-71629514D01*
X27242856Y-71629514D02*
X27271428Y-71515228D01*
X27271428Y-71515228D02*
X27299999Y-71458085D01*
X27299999Y-71458085D02*
X27357142Y-71400942D01*
X27357142Y-71400942D02*
X27442856Y-71372371D01*
X27442856Y-71372371D02*
X27499999Y-71372371D01*
X27499999Y-71372371D02*
X27585713Y-71400942D01*
X27585713Y-71400942D02*
X27614285Y-71429514D01*
X28185713Y-71972371D02*
X27842856Y-71972371D01*
X28014285Y-71972371D02*
X28014285Y-71372371D01*
X28014285Y-71372371D02*
X27957142Y-71458085D01*
X27957142Y-71458085D02*
X27899999Y-71515228D01*
X27899999Y-71515228D02*
X27842856Y-71543800D01*
X28385714Y-71372371D02*
X28785714Y-71372371D01*
X28785714Y-71372371D02*
X28528571Y-71972371D01*
X59614285Y-65415228D02*
X59585713Y-65443800D01*
X59585713Y-65443800D02*
X59499999Y-65472371D01*
X59499999Y-65472371D02*
X59442856Y-65472371D01*
X59442856Y-65472371D02*
X59357142Y-65443800D01*
X59357142Y-65443800D02*
X59299999Y-65386657D01*
X59299999Y-65386657D02*
X59271428Y-65329514D01*
X59271428Y-65329514D02*
X59242856Y-65215228D01*
X59242856Y-65215228D02*
X59242856Y-65129514D01*
X59242856Y-65129514D02*
X59271428Y-65015228D01*
X59271428Y-65015228D02*
X59299999Y-64958085D01*
X59299999Y-64958085D02*
X59357142Y-64900942D01*
X59357142Y-64900942D02*
X59442856Y-64872371D01*
X59442856Y-64872371D02*
X59499999Y-64872371D01*
X59499999Y-64872371D02*
X59585713Y-64900942D01*
X59585713Y-64900942D02*
X59614285Y-64929514D01*
X60185713Y-65472371D02*
X59842856Y-65472371D01*
X60014285Y-65472371D02*
X60014285Y-64872371D01*
X60014285Y-64872371D02*
X59957142Y-64958085D01*
X59957142Y-64958085D02*
X59899999Y-65015228D01*
X59899999Y-65015228D02*
X59842856Y-65043800D01*
X60700000Y-64872371D02*
X60585714Y-64872371D01*
X60585714Y-64872371D02*
X60528571Y-64900942D01*
X60528571Y-64900942D02*
X60500000Y-64929514D01*
X60500000Y-64929514D02*
X60442857Y-65015228D01*
X60442857Y-65015228D02*
X60414285Y-65129514D01*
X60414285Y-65129514D02*
X60414285Y-65358085D01*
X60414285Y-65358085D02*
X60442857Y-65415228D01*
X60442857Y-65415228D02*
X60471428Y-65443800D01*
X60471428Y-65443800D02*
X60528571Y-65472371D01*
X60528571Y-65472371D02*
X60642857Y-65472371D01*
X60642857Y-65472371D02*
X60700000Y-65443800D01*
X60700000Y-65443800D02*
X60728571Y-65415228D01*
X60728571Y-65415228D02*
X60757142Y-65358085D01*
X60757142Y-65358085D02*
X60757142Y-65215228D01*
X60757142Y-65215228D02*
X60728571Y-65158085D01*
X60728571Y-65158085D02*
X60700000Y-65129514D01*
X60700000Y-65129514D02*
X60642857Y-65100942D01*
X60642857Y-65100942D02*
X60528571Y-65100942D01*
X60528571Y-65100942D02*
X60471428Y-65129514D01*
X60471428Y-65129514D02*
X60442857Y-65158085D01*
X60442857Y-65158085D02*
X60414285Y-65215228D01*
X26042857Y-47272371D02*
X25757143Y-47272371D01*
X25757143Y-47272371D02*
X25757143Y-46672371D01*
X26242857Y-46958085D02*
X26442857Y-46958085D01*
X26528571Y-47272371D02*
X26242857Y-47272371D01*
X26242857Y-47272371D02*
X26242857Y-46672371D01*
X26242857Y-46672371D02*
X26528571Y-46672371D01*
X26785714Y-47272371D02*
X26785714Y-46672371D01*
X26785714Y-46672371D02*
X26928571Y-46672371D01*
X26928571Y-46672371D02*
X27014285Y-46700942D01*
X27014285Y-46700942D02*
X27071428Y-46758085D01*
X27071428Y-46758085D02*
X27099999Y-46815228D01*
X27099999Y-46815228D02*
X27128571Y-46929514D01*
X27128571Y-46929514D02*
X27128571Y-47015228D01*
X27128571Y-47015228D02*
X27099999Y-47129514D01*
X27099999Y-47129514D02*
X27071428Y-47186657D01*
X27071428Y-47186657D02*
X27014285Y-47243800D01*
X27014285Y-47243800D02*
X26928571Y-47272371D01*
X26928571Y-47272371D02*
X26785714Y-47272371D01*
X27699999Y-47272371D02*
X27357142Y-47272371D01*
X27528571Y-47272371D02*
X27528571Y-46672371D01*
X27528571Y-46672371D02*
X27471428Y-46758085D01*
X27471428Y-46758085D02*
X27414285Y-46815228D01*
X27414285Y-46815228D02*
X27357142Y-46843800D01*
X28071428Y-46672371D02*
X28128571Y-46672371D01*
X28128571Y-46672371D02*
X28185714Y-46700942D01*
X28185714Y-46700942D02*
X28214286Y-46729514D01*
X28214286Y-46729514D02*
X28242857Y-46786657D01*
X28242857Y-46786657D02*
X28271428Y-46900942D01*
X28271428Y-46900942D02*
X28271428Y-47043800D01*
X28271428Y-47043800D02*
X28242857Y-47158085D01*
X28242857Y-47158085D02*
X28214286Y-47215228D01*
X28214286Y-47215228D02*
X28185714Y-47243800D01*
X28185714Y-47243800D02*
X28128571Y-47272371D01*
X28128571Y-47272371D02*
X28071428Y-47272371D01*
X28071428Y-47272371D02*
X28014286Y-47243800D01*
X28014286Y-47243800D02*
X27985714Y-47215228D01*
X27985714Y-47215228D02*
X27957143Y-47158085D01*
X27957143Y-47158085D02*
X27928571Y-47043800D01*
X27928571Y-47043800D02*
X27928571Y-46900942D01*
X27928571Y-46900942D02*
X27957143Y-46786657D01*
X27957143Y-46786657D02*
X27985714Y-46729514D01*
X27985714Y-46729514D02*
X28014286Y-46700942D01*
X28014286Y-46700942D02*
X28071428Y-46672371D01*
X33557143Y-6772371D02*
X33557143Y-6172371D01*
X33557143Y-6172371D02*
X33700000Y-6172371D01*
X33700000Y-6172371D02*
X33785714Y-6200942D01*
X33785714Y-6200942D02*
X33842857Y-6258085D01*
X33842857Y-6258085D02*
X33871428Y-6315228D01*
X33871428Y-6315228D02*
X33900000Y-6429514D01*
X33900000Y-6429514D02*
X33900000Y-6515228D01*
X33900000Y-6515228D02*
X33871428Y-6629514D01*
X33871428Y-6629514D02*
X33842857Y-6686657D01*
X33842857Y-6686657D02*
X33785714Y-6743800D01*
X33785714Y-6743800D02*
X33700000Y-6772371D01*
X33700000Y-6772371D02*
X33557143Y-6772371D01*
X34128571Y-6229514D02*
X34157143Y-6200942D01*
X34157143Y-6200942D02*
X34214286Y-6172371D01*
X34214286Y-6172371D02*
X34357143Y-6172371D01*
X34357143Y-6172371D02*
X34414286Y-6200942D01*
X34414286Y-6200942D02*
X34442857Y-6229514D01*
X34442857Y-6229514D02*
X34471428Y-6286657D01*
X34471428Y-6286657D02*
X34471428Y-6343800D01*
X34471428Y-6343800D02*
X34442857Y-6429514D01*
X34442857Y-6429514D02*
X34100000Y-6772371D01*
X34100000Y-6772371D02*
X34471428Y-6772371D01*
X33271428Y-42772371D02*
X33271428Y-42172371D01*
X33271428Y-42172371D02*
X33414285Y-42172371D01*
X33414285Y-42172371D02*
X33499999Y-42200942D01*
X33499999Y-42200942D02*
X33557142Y-42258085D01*
X33557142Y-42258085D02*
X33585713Y-42315228D01*
X33585713Y-42315228D02*
X33614285Y-42429514D01*
X33614285Y-42429514D02*
X33614285Y-42515228D01*
X33614285Y-42515228D02*
X33585713Y-42629514D01*
X33585713Y-42629514D02*
X33557142Y-42686657D01*
X33557142Y-42686657D02*
X33499999Y-42743800D01*
X33499999Y-42743800D02*
X33414285Y-42772371D01*
X33414285Y-42772371D02*
X33271428Y-42772371D01*
X34185713Y-42772371D02*
X33842856Y-42772371D01*
X34014285Y-42772371D02*
X34014285Y-42172371D01*
X34014285Y-42172371D02*
X33957142Y-42258085D01*
X33957142Y-42258085D02*
X33899999Y-42315228D01*
X33899999Y-42315228D02*
X33842856Y-42343800D01*
X34557142Y-42172371D02*
X34614285Y-42172371D01*
X34614285Y-42172371D02*
X34671428Y-42200942D01*
X34671428Y-42200942D02*
X34700000Y-42229514D01*
X34700000Y-42229514D02*
X34728571Y-42286657D01*
X34728571Y-42286657D02*
X34757142Y-42400942D01*
X34757142Y-42400942D02*
X34757142Y-42543800D01*
X34757142Y-42543800D02*
X34728571Y-42658085D01*
X34728571Y-42658085D02*
X34700000Y-42715228D01*
X34700000Y-42715228D02*
X34671428Y-42743800D01*
X34671428Y-42743800D02*
X34614285Y-42772371D01*
X34614285Y-42772371D02*
X34557142Y-42772371D01*
X34557142Y-42772371D02*
X34500000Y-42743800D01*
X34500000Y-42743800D02*
X34471428Y-42715228D01*
X34471428Y-42715228D02*
X34442857Y-42658085D01*
X34442857Y-42658085D02*
X34414285Y-42543800D01*
X34414285Y-42543800D02*
X34414285Y-42400942D01*
X34414285Y-42400942D02*
X34442857Y-42286657D01*
X34442857Y-42286657D02*
X34471428Y-42229514D01*
X34471428Y-42229514D02*
X34500000Y-42200942D01*
X34500000Y-42200942D02*
X34557142Y-42172371D01*
D12*
X43933332Y-825760D02*
X44047618Y-863855D01*
X44047618Y-863855D02*
X44238094Y-863855D01*
X44238094Y-863855D02*
X44314285Y-825760D01*
X44314285Y-825760D02*
X44352380Y-787664D01*
X44352380Y-787664D02*
X44390475Y-711474D01*
X44390475Y-711474D02*
X44390475Y-635283D01*
X44390475Y-635283D02*
X44352380Y-559093D01*
X44352380Y-559093D02*
X44314285Y-520998D01*
X44314285Y-520998D02*
X44238094Y-482902D01*
X44238094Y-482902D02*
X44085713Y-444807D01*
X44085713Y-444807D02*
X44009523Y-406712D01*
X44009523Y-406712D02*
X43971428Y-368617D01*
X43971428Y-368617D02*
X43933332Y-292426D01*
X43933332Y-292426D02*
X43933332Y-216236D01*
X43933332Y-216236D02*
X43971428Y-140045D01*
X43971428Y-140045D02*
X44009523Y-101950D01*
X44009523Y-101950D02*
X44085713Y-63855D01*
X44085713Y-63855D02*
X44276190Y-63855D01*
X44276190Y-63855D02*
X44390475Y-101950D01*
X44657142Y-63855D02*
X44847618Y-863855D01*
X44847618Y-863855D02*
X44999999Y-292426D01*
X44999999Y-292426D02*
X45152380Y-863855D01*
X45152380Y-863855D02*
X45342857Y-63855D01*
X45571428Y-63855D02*
X46066666Y-63855D01*
X46066666Y-63855D02*
X45800000Y-368617D01*
X45800000Y-368617D02*
X45914285Y-368617D01*
X45914285Y-368617D02*
X45990476Y-406712D01*
X45990476Y-406712D02*
X46028571Y-444807D01*
X46028571Y-444807D02*
X46066666Y-520998D01*
X46066666Y-520998D02*
X46066666Y-711474D01*
X46066666Y-711474D02*
X46028571Y-787664D01*
X46028571Y-787664D02*
X45990476Y-825760D01*
X45990476Y-825760D02*
X45914285Y-863855D01*
X45914285Y-863855D02*
X45685714Y-863855D01*
X45685714Y-863855D02*
X45609523Y-825760D01*
X45609523Y-825760D02*
X45571428Y-787664D01*
X25552380Y-54825760D02*
X25666666Y-54863855D01*
X25666666Y-54863855D02*
X25857142Y-54863855D01*
X25857142Y-54863855D02*
X25933333Y-54825760D01*
X25933333Y-54825760D02*
X25971428Y-54787664D01*
X25971428Y-54787664D02*
X26009523Y-54711474D01*
X26009523Y-54711474D02*
X26009523Y-54635283D01*
X26009523Y-54635283D02*
X25971428Y-54559093D01*
X25971428Y-54559093D02*
X25933333Y-54520998D01*
X25933333Y-54520998D02*
X25857142Y-54482902D01*
X25857142Y-54482902D02*
X25704761Y-54444807D01*
X25704761Y-54444807D02*
X25628571Y-54406712D01*
X25628571Y-54406712D02*
X25590476Y-54368617D01*
X25590476Y-54368617D02*
X25552380Y-54292426D01*
X25552380Y-54292426D02*
X25552380Y-54216236D01*
X25552380Y-54216236D02*
X25590476Y-54140045D01*
X25590476Y-54140045D02*
X25628571Y-54101950D01*
X25628571Y-54101950D02*
X25704761Y-54063855D01*
X25704761Y-54063855D02*
X25895238Y-54063855D01*
X25895238Y-54063855D02*
X26009523Y-54101950D01*
X26276190Y-54063855D02*
X26466666Y-54863855D01*
X26466666Y-54863855D02*
X26619047Y-54292426D01*
X26619047Y-54292426D02*
X26771428Y-54863855D01*
X26771428Y-54863855D02*
X26961905Y-54063855D01*
X27685714Y-54863855D02*
X27228571Y-54863855D01*
X27457143Y-54863855D02*
X27457143Y-54063855D01*
X27457143Y-54063855D02*
X27380952Y-54178140D01*
X27380952Y-54178140D02*
X27304762Y-54254331D01*
X27304762Y-54254331D02*
X27228571Y-54292426D01*
X28371429Y-54330521D02*
X28371429Y-54863855D01*
X28180953Y-54025760D02*
X27990476Y-54597188D01*
X27990476Y-54597188D02*
X28485715Y-54597188D01*
D11*
X41900000Y-29415228D02*
X41871428Y-29443800D01*
X41871428Y-29443800D02*
X41785714Y-29472371D01*
X41785714Y-29472371D02*
X41728571Y-29472371D01*
X41728571Y-29472371D02*
X41642857Y-29443800D01*
X41642857Y-29443800D02*
X41585714Y-29386657D01*
X41585714Y-29386657D02*
X41557143Y-29329514D01*
X41557143Y-29329514D02*
X41528571Y-29215228D01*
X41528571Y-29215228D02*
X41528571Y-29129514D01*
X41528571Y-29129514D02*
X41557143Y-29015228D01*
X41557143Y-29015228D02*
X41585714Y-28958085D01*
X41585714Y-28958085D02*
X41642857Y-28900942D01*
X41642857Y-28900942D02*
X41728571Y-28872371D01*
X41728571Y-28872371D02*
X41785714Y-28872371D01*
X41785714Y-28872371D02*
X41871428Y-28900942D01*
X41871428Y-28900942D02*
X41900000Y-28929514D01*
X42100000Y-28872371D02*
X42500000Y-28872371D01*
X42500000Y-28872371D02*
X42242857Y-29472371D01*
X33557143Y-24772371D02*
X33557143Y-24172371D01*
X33557143Y-24172371D02*
X33700000Y-24172371D01*
X33700000Y-24172371D02*
X33785714Y-24200942D01*
X33785714Y-24200942D02*
X33842857Y-24258085D01*
X33842857Y-24258085D02*
X33871428Y-24315228D01*
X33871428Y-24315228D02*
X33900000Y-24429514D01*
X33900000Y-24429514D02*
X33900000Y-24515228D01*
X33900000Y-24515228D02*
X33871428Y-24629514D01*
X33871428Y-24629514D02*
X33842857Y-24686657D01*
X33842857Y-24686657D02*
X33785714Y-24743800D01*
X33785714Y-24743800D02*
X33700000Y-24772371D01*
X33700000Y-24772371D02*
X33557143Y-24772371D01*
X34414286Y-24172371D02*
X34300000Y-24172371D01*
X34300000Y-24172371D02*
X34242857Y-24200942D01*
X34242857Y-24200942D02*
X34214286Y-24229514D01*
X34214286Y-24229514D02*
X34157143Y-24315228D01*
X34157143Y-24315228D02*
X34128571Y-24429514D01*
X34128571Y-24429514D02*
X34128571Y-24658085D01*
X34128571Y-24658085D02*
X34157143Y-24715228D01*
X34157143Y-24715228D02*
X34185714Y-24743800D01*
X34185714Y-24743800D02*
X34242857Y-24772371D01*
X34242857Y-24772371D02*
X34357143Y-24772371D01*
X34357143Y-24772371D02*
X34414286Y-24743800D01*
X34414286Y-24743800D02*
X34442857Y-24715228D01*
X34442857Y-24715228D02*
X34471428Y-24658085D01*
X34471428Y-24658085D02*
X34471428Y-24515228D01*
X34471428Y-24515228D02*
X34442857Y-24458085D01*
X34442857Y-24458085D02*
X34414286Y-24429514D01*
X34414286Y-24429514D02*
X34357143Y-24400942D01*
X34357143Y-24400942D02*
X34242857Y-24400942D01*
X34242857Y-24400942D02*
X34185714Y-24429514D01*
X34185714Y-24429514D02*
X34157143Y-24458085D01*
X34157143Y-24458085D02*
X34128571Y-24515228D01*
X33271428Y-60772371D02*
X33271428Y-60172371D01*
X33271428Y-60172371D02*
X33414285Y-60172371D01*
X33414285Y-60172371D02*
X33499999Y-60200942D01*
X33499999Y-60200942D02*
X33557142Y-60258085D01*
X33557142Y-60258085D02*
X33585713Y-60315228D01*
X33585713Y-60315228D02*
X33614285Y-60429514D01*
X33614285Y-60429514D02*
X33614285Y-60515228D01*
X33614285Y-60515228D02*
X33585713Y-60629514D01*
X33585713Y-60629514D02*
X33557142Y-60686657D01*
X33557142Y-60686657D02*
X33499999Y-60743800D01*
X33499999Y-60743800D02*
X33414285Y-60772371D01*
X33414285Y-60772371D02*
X33271428Y-60772371D01*
X34185713Y-60772371D02*
X33842856Y-60772371D01*
X34014285Y-60772371D02*
X34014285Y-60172371D01*
X34014285Y-60172371D02*
X33957142Y-60258085D01*
X33957142Y-60258085D02*
X33899999Y-60315228D01*
X33899999Y-60315228D02*
X33842856Y-60343800D01*
X34700000Y-60372371D02*
X34700000Y-60772371D01*
X34557142Y-60143800D02*
X34414285Y-60572371D01*
X34414285Y-60572371D02*
X34785714Y-60572371D01*
D12*
X43552380Y-36825760D02*
X43666666Y-36863855D01*
X43666666Y-36863855D02*
X43857142Y-36863855D01*
X43857142Y-36863855D02*
X43933333Y-36825760D01*
X43933333Y-36825760D02*
X43971428Y-36787664D01*
X43971428Y-36787664D02*
X44009523Y-36711474D01*
X44009523Y-36711474D02*
X44009523Y-36635283D01*
X44009523Y-36635283D02*
X43971428Y-36559093D01*
X43971428Y-36559093D02*
X43933333Y-36520998D01*
X43933333Y-36520998D02*
X43857142Y-36482902D01*
X43857142Y-36482902D02*
X43704761Y-36444807D01*
X43704761Y-36444807D02*
X43628571Y-36406712D01*
X43628571Y-36406712D02*
X43590476Y-36368617D01*
X43590476Y-36368617D02*
X43552380Y-36292426D01*
X43552380Y-36292426D02*
X43552380Y-36216236D01*
X43552380Y-36216236D02*
X43590476Y-36140045D01*
X43590476Y-36140045D02*
X43628571Y-36101950D01*
X43628571Y-36101950D02*
X43704761Y-36063855D01*
X43704761Y-36063855D02*
X43895238Y-36063855D01*
X43895238Y-36063855D02*
X44009523Y-36101950D01*
X44276190Y-36063855D02*
X44466666Y-36863855D01*
X44466666Y-36863855D02*
X44619047Y-36292426D01*
X44619047Y-36292426D02*
X44771428Y-36863855D01*
X44771428Y-36863855D02*
X44961905Y-36063855D01*
X45685714Y-36863855D02*
X45228571Y-36863855D01*
X45457143Y-36863855D02*
X45457143Y-36063855D01*
X45457143Y-36063855D02*
X45380952Y-36178140D01*
X45380952Y-36178140D02*
X45304762Y-36254331D01*
X45304762Y-36254331D02*
X45228571Y-36292426D01*
X46447619Y-36863855D02*
X45990476Y-36863855D01*
X46219048Y-36863855D02*
X46219048Y-36063855D01*
X46219048Y-36063855D02*
X46142857Y-36178140D01*
X46142857Y-36178140D02*
X46066667Y-36254331D01*
X46066667Y-36254331D02*
X45990476Y-36292426D01*
D11*
X26328571Y-29272371D02*
X26042857Y-29272371D01*
X26042857Y-29272371D02*
X26042857Y-28672371D01*
X26528571Y-28958085D02*
X26728571Y-28958085D01*
X26814285Y-29272371D02*
X26528571Y-29272371D01*
X26528571Y-29272371D02*
X26528571Y-28672371D01*
X26528571Y-28672371D02*
X26814285Y-28672371D01*
X27071428Y-29272371D02*
X27071428Y-28672371D01*
X27071428Y-28672371D02*
X27214285Y-28672371D01*
X27214285Y-28672371D02*
X27299999Y-28700942D01*
X27299999Y-28700942D02*
X27357142Y-28758085D01*
X27357142Y-28758085D02*
X27385713Y-28815228D01*
X27385713Y-28815228D02*
X27414285Y-28929514D01*
X27414285Y-28929514D02*
X27414285Y-29015228D01*
X27414285Y-29015228D02*
X27385713Y-29129514D01*
X27385713Y-29129514D02*
X27357142Y-29186657D01*
X27357142Y-29186657D02*
X27299999Y-29243800D01*
X27299999Y-29243800D02*
X27214285Y-29272371D01*
X27214285Y-29272371D02*
X27071428Y-29272371D01*
X27928571Y-28672371D02*
X27814285Y-28672371D01*
X27814285Y-28672371D02*
X27757142Y-28700942D01*
X27757142Y-28700942D02*
X27728571Y-28729514D01*
X27728571Y-28729514D02*
X27671428Y-28815228D01*
X27671428Y-28815228D02*
X27642856Y-28929514D01*
X27642856Y-28929514D02*
X27642856Y-29158085D01*
X27642856Y-29158085D02*
X27671428Y-29215228D01*
X27671428Y-29215228D02*
X27699999Y-29243800D01*
X27699999Y-29243800D02*
X27757142Y-29272371D01*
X27757142Y-29272371D02*
X27871428Y-29272371D01*
X27871428Y-29272371D02*
X27928571Y-29243800D01*
X27928571Y-29243800D02*
X27957142Y-29215228D01*
X27957142Y-29215228D02*
X27985713Y-29158085D01*
X27985713Y-29158085D02*
X27985713Y-29015228D01*
X27985713Y-29015228D02*
X27957142Y-28958085D01*
X27957142Y-28958085D02*
X27928571Y-28929514D01*
X27928571Y-28929514D02*
X27871428Y-28900942D01*
X27871428Y-28900942D02*
X27757142Y-28900942D01*
X27757142Y-28900942D02*
X27699999Y-28929514D01*
X27699999Y-28929514D02*
X27671428Y-28958085D01*
X27671428Y-28958085D02*
X27642856Y-29015228D01*
X41900000Y-11415228D02*
X41871428Y-11443800D01*
X41871428Y-11443800D02*
X41785714Y-11472371D01*
X41785714Y-11472371D02*
X41728571Y-11472371D01*
X41728571Y-11472371D02*
X41642857Y-11443800D01*
X41642857Y-11443800D02*
X41585714Y-11386657D01*
X41585714Y-11386657D02*
X41557143Y-11329514D01*
X41557143Y-11329514D02*
X41528571Y-11215228D01*
X41528571Y-11215228D02*
X41528571Y-11129514D01*
X41528571Y-11129514D02*
X41557143Y-11015228D01*
X41557143Y-11015228D02*
X41585714Y-10958085D01*
X41585714Y-10958085D02*
X41642857Y-10900942D01*
X41642857Y-10900942D02*
X41728571Y-10872371D01*
X41728571Y-10872371D02*
X41785714Y-10872371D01*
X41785714Y-10872371D02*
X41871428Y-10900942D01*
X41871428Y-10900942D02*
X41900000Y-10929514D01*
X42100000Y-10872371D02*
X42471428Y-10872371D01*
X42471428Y-10872371D02*
X42271428Y-11100942D01*
X42271428Y-11100942D02*
X42357143Y-11100942D01*
X42357143Y-11100942D02*
X42414286Y-11129514D01*
X42414286Y-11129514D02*
X42442857Y-11158085D01*
X42442857Y-11158085D02*
X42471428Y-11215228D01*
X42471428Y-11215228D02*
X42471428Y-11358085D01*
X42471428Y-11358085D02*
X42442857Y-11415228D01*
X42442857Y-11415228D02*
X42414286Y-11443800D01*
X42414286Y-11443800D02*
X42357143Y-11472371D01*
X42357143Y-11472371D02*
X42185714Y-11472371D01*
X42185714Y-11472371D02*
X42128571Y-11443800D01*
X42128571Y-11443800D02*
X42100000Y-11415228D01*
X51271428Y-60772371D02*
X51271428Y-60172371D01*
X51271428Y-60172371D02*
X51414285Y-60172371D01*
X51414285Y-60172371D02*
X51499999Y-60200942D01*
X51499999Y-60200942D02*
X51557142Y-60258085D01*
X51557142Y-60258085D02*
X51585713Y-60315228D01*
X51585713Y-60315228D02*
X51614285Y-60429514D01*
X51614285Y-60429514D02*
X51614285Y-60515228D01*
X51614285Y-60515228D02*
X51585713Y-60629514D01*
X51585713Y-60629514D02*
X51557142Y-60686657D01*
X51557142Y-60686657D02*
X51499999Y-60743800D01*
X51499999Y-60743800D02*
X51414285Y-60772371D01*
X51414285Y-60772371D02*
X51271428Y-60772371D01*
X52185713Y-60772371D02*
X51842856Y-60772371D01*
X52014285Y-60772371D02*
X52014285Y-60172371D01*
X52014285Y-60172371D02*
X51957142Y-60258085D01*
X51957142Y-60258085D02*
X51899999Y-60315228D01*
X51899999Y-60315228D02*
X51842856Y-60343800D01*
X52728571Y-60172371D02*
X52442857Y-60172371D01*
X52442857Y-60172371D02*
X52414285Y-60458085D01*
X52414285Y-60458085D02*
X52442857Y-60429514D01*
X52442857Y-60429514D02*
X52500000Y-60400942D01*
X52500000Y-60400942D02*
X52642857Y-60400942D01*
X52642857Y-60400942D02*
X52700000Y-60429514D01*
X52700000Y-60429514D02*
X52728571Y-60458085D01*
X52728571Y-60458085D02*
X52757142Y-60515228D01*
X52757142Y-60515228D02*
X52757142Y-60658085D01*
X52757142Y-60658085D02*
X52728571Y-60715228D01*
X52728571Y-60715228D02*
X52700000Y-60743800D01*
X52700000Y-60743800D02*
X52642857Y-60772371D01*
X52642857Y-60772371D02*
X52500000Y-60772371D01*
X52500000Y-60772371D02*
X52442857Y-60743800D01*
X52442857Y-60743800D02*
X52414285Y-60715228D01*
X44328571Y-11272371D02*
X44042857Y-11272371D01*
X44042857Y-11272371D02*
X44042857Y-10672371D01*
X44528571Y-10958085D02*
X44728571Y-10958085D01*
X44814285Y-11272371D02*
X44528571Y-11272371D01*
X44528571Y-11272371D02*
X44528571Y-10672371D01*
X44528571Y-10672371D02*
X44814285Y-10672371D01*
X45071428Y-11272371D02*
X45071428Y-10672371D01*
X45071428Y-10672371D02*
X45214285Y-10672371D01*
X45214285Y-10672371D02*
X45299999Y-10700942D01*
X45299999Y-10700942D02*
X45357142Y-10758085D01*
X45357142Y-10758085D02*
X45385713Y-10815228D01*
X45385713Y-10815228D02*
X45414285Y-10929514D01*
X45414285Y-10929514D02*
X45414285Y-11015228D01*
X45414285Y-11015228D02*
X45385713Y-11129514D01*
X45385713Y-11129514D02*
X45357142Y-11186657D01*
X45357142Y-11186657D02*
X45299999Y-11243800D01*
X45299999Y-11243800D02*
X45214285Y-11272371D01*
X45214285Y-11272371D02*
X45071428Y-11272371D01*
X45614285Y-10672371D02*
X45985713Y-10672371D01*
X45985713Y-10672371D02*
X45785713Y-10900942D01*
X45785713Y-10900942D02*
X45871428Y-10900942D01*
X45871428Y-10900942D02*
X45928571Y-10929514D01*
X45928571Y-10929514D02*
X45957142Y-10958085D01*
X45957142Y-10958085D02*
X45985713Y-11015228D01*
X45985713Y-11015228D02*
X45985713Y-11158085D01*
X45985713Y-11158085D02*
X45957142Y-11215228D01*
X45957142Y-11215228D02*
X45928571Y-11243800D01*
X45928571Y-11243800D02*
X45871428Y-11272371D01*
X45871428Y-11272371D02*
X45699999Y-11272371D01*
X45699999Y-11272371D02*
X45642856Y-11243800D01*
X45642856Y-11243800D02*
X45614285Y-11215228D01*
X5900000Y-11415228D02*
X5871428Y-11443800D01*
X5871428Y-11443800D02*
X5785714Y-11472371D01*
X5785714Y-11472371D02*
X5728571Y-11472371D01*
X5728571Y-11472371D02*
X5642857Y-11443800D01*
X5642857Y-11443800D02*
X5585714Y-11386657D01*
X5585714Y-11386657D02*
X5557143Y-11329514D01*
X5557143Y-11329514D02*
X5528571Y-11215228D01*
X5528571Y-11215228D02*
X5528571Y-11129514D01*
X5528571Y-11129514D02*
X5557143Y-11015228D01*
X5557143Y-11015228D02*
X5585714Y-10958085D01*
X5585714Y-10958085D02*
X5642857Y-10900942D01*
X5642857Y-10900942D02*
X5728571Y-10872371D01*
X5728571Y-10872371D02*
X5785714Y-10872371D01*
X5785714Y-10872371D02*
X5871428Y-10900942D01*
X5871428Y-10900942D02*
X5900000Y-10929514D01*
X6471428Y-11472371D02*
X6128571Y-11472371D01*
X6300000Y-11472371D02*
X6300000Y-10872371D01*
X6300000Y-10872371D02*
X6242857Y-10958085D01*
X6242857Y-10958085D02*
X6185714Y-11015228D01*
X6185714Y-11015228D02*
X6128571Y-11043800D01*
X51557143Y-24772371D02*
X51557143Y-24172371D01*
X51557143Y-24172371D02*
X51700000Y-24172371D01*
X51700000Y-24172371D02*
X51785714Y-24200942D01*
X51785714Y-24200942D02*
X51842857Y-24258085D01*
X51842857Y-24258085D02*
X51871428Y-24315228D01*
X51871428Y-24315228D02*
X51900000Y-24429514D01*
X51900000Y-24429514D02*
X51900000Y-24515228D01*
X51900000Y-24515228D02*
X51871428Y-24629514D01*
X51871428Y-24629514D02*
X51842857Y-24686657D01*
X51842857Y-24686657D02*
X51785714Y-24743800D01*
X51785714Y-24743800D02*
X51700000Y-24772371D01*
X51700000Y-24772371D02*
X51557143Y-24772371D01*
X52100000Y-24172371D02*
X52500000Y-24172371D01*
X52500000Y-24172371D02*
X52242857Y-24772371D01*
X59900000Y-29415228D02*
X59871428Y-29443800D01*
X59871428Y-29443800D02*
X59785714Y-29472371D01*
X59785714Y-29472371D02*
X59728571Y-29472371D01*
X59728571Y-29472371D02*
X59642857Y-29443800D01*
X59642857Y-29443800D02*
X59585714Y-29386657D01*
X59585714Y-29386657D02*
X59557143Y-29329514D01*
X59557143Y-29329514D02*
X59528571Y-29215228D01*
X59528571Y-29215228D02*
X59528571Y-29129514D01*
X59528571Y-29129514D02*
X59557143Y-29015228D01*
X59557143Y-29015228D02*
X59585714Y-28958085D01*
X59585714Y-28958085D02*
X59642857Y-28900942D01*
X59642857Y-28900942D02*
X59728571Y-28872371D01*
X59728571Y-28872371D02*
X59785714Y-28872371D01*
X59785714Y-28872371D02*
X59871428Y-28900942D01*
X59871428Y-28900942D02*
X59900000Y-28929514D01*
X60242857Y-29129514D02*
X60185714Y-29100942D01*
X60185714Y-29100942D02*
X60157143Y-29072371D01*
X60157143Y-29072371D02*
X60128571Y-29015228D01*
X60128571Y-29015228D02*
X60128571Y-28986657D01*
X60128571Y-28986657D02*
X60157143Y-28929514D01*
X60157143Y-28929514D02*
X60185714Y-28900942D01*
X60185714Y-28900942D02*
X60242857Y-28872371D01*
X60242857Y-28872371D02*
X60357143Y-28872371D01*
X60357143Y-28872371D02*
X60414286Y-28900942D01*
X60414286Y-28900942D02*
X60442857Y-28929514D01*
X60442857Y-28929514D02*
X60471428Y-28986657D01*
X60471428Y-28986657D02*
X60471428Y-29015228D01*
X60471428Y-29015228D02*
X60442857Y-29072371D01*
X60442857Y-29072371D02*
X60414286Y-29100942D01*
X60414286Y-29100942D02*
X60357143Y-29129514D01*
X60357143Y-29129514D02*
X60242857Y-29129514D01*
X60242857Y-29129514D02*
X60185714Y-29158085D01*
X60185714Y-29158085D02*
X60157143Y-29186657D01*
X60157143Y-29186657D02*
X60128571Y-29243800D01*
X60128571Y-29243800D02*
X60128571Y-29358085D01*
X60128571Y-29358085D02*
X60157143Y-29415228D01*
X60157143Y-29415228D02*
X60185714Y-29443800D01*
X60185714Y-29443800D02*
X60242857Y-29472371D01*
X60242857Y-29472371D02*
X60357143Y-29472371D01*
X60357143Y-29472371D02*
X60414286Y-29443800D01*
X60414286Y-29443800D02*
X60442857Y-29415228D01*
X60442857Y-29415228D02*
X60471428Y-29358085D01*
X60471428Y-29358085D02*
X60471428Y-29243800D01*
X60471428Y-29243800D02*
X60442857Y-29186657D01*
X60442857Y-29186657D02*
X60414286Y-29158085D01*
X60414286Y-29158085D02*
X60357143Y-29129514D01*
D12*
X25933332Y-18825760D02*
X26047618Y-18863855D01*
X26047618Y-18863855D02*
X26238094Y-18863855D01*
X26238094Y-18863855D02*
X26314285Y-18825760D01*
X26314285Y-18825760D02*
X26352380Y-18787664D01*
X26352380Y-18787664D02*
X26390475Y-18711474D01*
X26390475Y-18711474D02*
X26390475Y-18635283D01*
X26390475Y-18635283D02*
X26352380Y-18559093D01*
X26352380Y-18559093D02*
X26314285Y-18520998D01*
X26314285Y-18520998D02*
X26238094Y-18482902D01*
X26238094Y-18482902D02*
X26085713Y-18444807D01*
X26085713Y-18444807D02*
X26009523Y-18406712D01*
X26009523Y-18406712D02*
X25971428Y-18368617D01*
X25971428Y-18368617D02*
X25933332Y-18292426D01*
X25933332Y-18292426D02*
X25933332Y-18216236D01*
X25933332Y-18216236D02*
X25971428Y-18140045D01*
X25971428Y-18140045D02*
X26009523Y-18101950D01*
X26009523Y-18101950D02*
X26085713Y-18063855D01*
X26085713Y-18063855D02*
X26276190Y-18063855D01*
X26276190Y-18063855D02*
X26390475Y-18101950D01*
X26657142Y-18063855D02*
X26847618Y-18863855D01*
X26847618Y-18863855D02*
X26999999Y-18292426D01*
X26999999Y-18292426D02*
X27152380Y-18863855D01*
X27152380Y-18863855D02*
X27342857Y-18063855D01*
X27990476Y-18063855D02*
X27838095Y-18063855D01*
X27838095Y-18063855D02*
X27761904Y-18101950D01*
X27761904Y-18101950D02*
X27723809Y-18140045D01*
X27723809Y-18140045D02*
X27647619Y-18254331D01*
X27647619Y-18254331D02*
X27609523Y-18406712D01*
X27609523Y-18406712D02*
X27609523Y-18711474D01*
X27609523Y-18711474D02*
X27647619Y-18787664D01*
X27647619Y-18787664D02*
X27685714Y-18825760D01*
X27685714Y-18825760D02*
X27761904Y-18863855D01*
X27761904Y-18863855D02*
X27914285Y-18863855D01*
X27914285Y-18863855D02*
X27990476Y-18825760D01*
X27990476Y-18825760D02*
X28028571Y-18787664D01*
X28028571Y-18787664D02*
X28066666Y-18711474D01*
X28066666Y-18711474D02*
X28066666Y-18520998D01*
X28066666Y-18520998D02*
X28028571Y-18444807D01*
X28028571Y-18444807D02*
X27990476Y-18406712D01*
X27990476Y-18406712D02*
X27914285Y-18368617D01*
X27914285Y-18368617D02*
X27761904Y-18368617D01*
X27761904Y-18368617D02*
X27685714Y-18406712D01*
X27685714Y-18406712D02*
X27647619Y-18444807D01*
X27647619Y-18444807D02*
X27609523Y-18520998D01*
X43552380Y-54825760D02*
X43666666Y-54863855D01*
X43666666Y-54863855D02*
X43857142Y-54863855D01*
X43857142Y-54863855D02*
X43933333Y-54825760D01*
X43933333Y-54825760D02*
X43971428Y-54787664D01*
X43971428Y-54787664D02*
X44009523Y-54711474D01*
X44009523Y-54711474D02*
X44009523Y-54635283D01*
X44009523Y-54635283D02*
X43971428Y-54559093D01*
X43971428Y-54559093D02*
X43933333Y-54520998D01*
X43933333Y-54520998D02*
X43857142Y-54482902D01*
X43857142Y-54482902D02*
X43704761Y-54444807D01*
X43704761Y-54444807D02*
X43628571Y-54406712D01*
X43628571Y-54406712D02*
X43590476Y-54368617D01*
X43590476Y-54368617D02*
X43552380Y-54292426D01*
X43552380Y-54292426D02*
X43552380Y-54216236D01*
X43552380Y-54216236D02*
X43590476Y-54140045D01*
X43590476Y-54140045D02*
X43628571Y-54101950D01*
X43628571Y-54101950D02*
X43704761Y-54063855D01*
X43704761Y-54063855D02*
X43895238Y-54063855D01*
X43895238Y-54063855D02*
X44009523Y-54101950D01*
X44276190Y-54063855D02*
X44466666Y-54863855D01*
X44466666Y-54863855D02*
X44619047Y-54292426D01*
X44619047Y-54292426D02*
X44771428Y-54863855D01*
X44771428Y-54863855D02*
X44961905Y-54063855D01*
X45685714Y-54863855D02*
X45228571Y-54863855D01*
X45457143Y-54863855D02*
X45457143Y-54063855D01*
X45457143Y-54063855D02*
X45380952Y-54178140D01*
X45380952Y-54178140D02*
X45304762Y-54254331D01*
X45304762Y-54254331D02*
X45228571Y-54292426D01*
X46409524Y-54063855D02*
X46028572Y-54063855D01*
X46028572Y-54063855D02*
X45990476Y-54444807D01*
X45990476Y-54444807D02*
X46028572Y-54406712D01*
X46028572Y-54406712D02*
X46104762Y-54368617D01*
X46104762Y-54368617D02*
X46295238Y-54368617D01*
X46295238Y-54368617D02*
X46371429Y-54406712D01*
X46371429Y-54406712D02*
X46409524Y-54444807D01*
X46409524Y-54444807D02*
X46447619Y-54520998D01*
X46447619Y-54520998D02*
X46447619Y-54711474D01*
X46447619Y-54711474D02*
X46409524Y-54787664D01*
X46409524Y-54787664D02*
X46371429Y-54825760D01*
X46371429Y-54825760D02*
X46295238Y-54863855D01*
X46295238Y-54863855D02*
X46104762Y-54863855D01*
X46104762Y-54863855D02*
X46028572Y-54825760D01*
X46028572Y-54825760D02*
X45990476Y-54787664D01*
X25552380Y-36825760D02*
X25666666Y-36863855D01*
X25666666Y-36863855D02*
X25857142Y-36863855D01*
X25857142Y-36863855D02*
X25933333Y-36825760D01*
X25933333Y-36825760D02*
X25971428Y-36787664D01*
X25971428Y-36787664D02*
X26009523Y-36711474D01*
X26009523Y-36711474D02*
X26009523Y-36635283D01*
X26009523Y-36635283D02*
X25971428Y-36559093D01*
X25971428Y-36559093D02*
X25933333Y-36520998D01*
X25933333Y-36520998D02*
X25857142Y-36482902D01*
X25857142Y-36482902D02*
X25704761Y-36444807D01*
X25704761Y-36444807D02*
X25628571Y-36406712D01*
X25628571Y-36406712D02*
X25590476Y-36368617D01*
X25590476Y-36368617D02*
X25552380Y-36292426D01*
X25552380Y-36292426D02*
X25552380Y-36216236D01*
X25552380Y-36216236D02*
X25590476Y-36140045D01*
X25590476Y-36140045D02*
X25628571Y-36101950D01*
X25628571Y-36101950D02*
X25704761Y-36063855D01*
X25704761Y-36063855D02*
X25895238Y-36063855D01*
X25895238Y-36063855D02*
X26009523Y-36101950D01*
X26276190Y-36063855D02*
X26466666Y-36863855D01*
X26466666Y-36863855D02*
X26619047Y-36292426D01*
X26619047Y-36292426D02*
X26771428Y-36863855D01*
X26771428Y-36863855D02*
X26961905Y-36063855D01*
X27685714Y-36863855D02*
X27228571Y-36863855D01*
X27457143Y-36863855D02*
X27457143Y-36063855D01*
X27457143Y-36063855D02*
X27380952Y-36178140D01*
X27380952Y-36178140D02*
X27304762Y-36254331D01*
X27304762Y-36254331D02*
X27228571Y-36292426D01*
X28180953Y-36063855D02*
X28257143Y-36063855D01*
X28257143Y-36063855D02*
X28333334Y-36101950D01*
X28333334Y-36101950D02*
X28371429Y-36140045D01*
X28371429Y-36140045D02*
X28409524Y-36216236D01*
X28409524Y-36216236D02*
X28447619Y-36368617D01*
X28447619Y-36368617D02*
X28447619Y-36559093D01*
X28447619Y-36559093D02*
X28409524Y-36711474D01*
X28409524Y-36711474D02*
X28371429Y-36787664D01*
X28371429Y-36787664D02*
X28333334Y-36825760D01*
X28333334Y-36825760D02*
X28257143Y-36863855D01*
X28257143Y-36863855D02*
X28180953Y-36863855D01*
X28180953Y-36863855D02*
X28104762Y-36825760D01*
X28104762Y-36825760D02*
X28066667Y-36787664D01*
X28066667Y-36787664D02*
X28028572Y-36711474D01*
X28028572Y-36711474D02*
X27990476Y-36559093D01*
X27990476Y-36559093D02*
X27990476Y-36368617D01*
X27990476Y-36368617D02*
X28028572Y-36216236D01*
X28028572Y-36216236D02*
X28066667Y-36140045D01*
X28066667Y-36140045D02*
X28104762Y-36101950D01*
X28104762Y-36101950D02*
X28180953Y-36063855D01*
D11*
X5900000Y-47415228D02*
X5871428Y-47443800D01*
X5871428Y-47443800D02*
X5785714Y-47472371D01*
X5785714Y-47472371D02*
X5728571Y-47472371D01*
X5728571Y-47472371D02*
X5642857Y-47443800D01*
X5642857Y-47443800D02*
X5585714Y-47386657D01*
X5585714Y-47386657D02*
X5557143Y-47329514D01*
X5557143Y-47329514D02*
X5528571Y-47215228D01*
X5528571Y-47215228D02*
X5528571Y-47129514D01*
X5528571Y-47129514D02*
X5557143Y-47015228D01*
X5557143Y-47015228D02*
X5585714Y-46958085D01*
X5585714Y-46958085D02*
X5642857Y-46900942D01*
X5642857Y-46900942D02*
X5728571Y-46872371D01*
X5728571Y-46872371D02*
X5785714Y-46872371D01*
X5785714Y-46872371D02*
X5871428Y-46900942D01*
X5871428Y-46900942D02*
X5900000Y-46929514D01*
X6185714Y-47472371D02*
X6300000Y-47472371D01*
X6300000Y-47472371D02*
X6357143Y-47443800D01*
X6357143Y-47443800D02*
X6385714Y-47415228D01*
X6385714Y-47415228D02*
X6442857Y-47329514D01*
X6442857Y-47329514D02*
X6471428Y-47215228D01*
X6471428Y-47215228D02*
X6471428Y-46986657D01*
X6471428Y-46986657D02*
X6442857Y-46929514D01*
X6442857Y-46929514D02*
X6414286Y-46900942D01*
X6414286Y-46900942D02*
X6357143Y-46872371D01*
X6357143Y-46872371D02*
X6242857Y-46872371D01*
X6242857Y-46872371D02*
X6185714Y-46900942D01*
X6185714Y-46900942D02*
X6157143Y-46929514D01*
X6157143Y-46929514D02*
X6128571Y-46986657D01*
X6128571Y-46986657D02*
X6128571Y-47129514D01*
X6128571Y-47129514D02*
X6157143Y-47186657D01*
X6157143Y-47186657D02*
X6185714Y-47215228D01*
X6185714Y-47215228D02*
X6242857Y-47243800D01*
X6242857Y-47243800D02*
X6357143Y-47243800D01*
X6357143Y-47243800D02*
X6414286Y-47215228D01*
X6414286Y-47215228D02*
X6442857Y-47186657D01*
X6442857Y-47186657D02*
X6471428Y-47129514D01*
D12*
X61552380Y-36825760D02*
X61666666Y-36863855D01*
X61666666Y-36863855D02*
X61857142Y-36863855D01*
X61857142Y-36863855D02*
X61933333Y-36825760D01*
X61933333Y-36825760D02*
X61971428Y-36787664D01*
X61971428Y-36787664D02*
X62009523Y-36711474D01*
X62009523Y-36711474D02*
X62009523Y-36635283D01*
X62009523Y-36635283D02*
X61971428Y-36559093D01*
X61971428Y-36559093D02*
X61933333Y-36520998D01*
X61933333Y-36520998D02*
X61857142Y-36482902D01*
X61857142Y-36482902D02*
X61704761Y-36444807D01*
X61704761Y-36444807D02*
X61628571Y-36406712D01*
X61628571Y-36406712D02*
X61590476Y-36368617D01*
X61590476Y-36368617D02*
X61552380Y-36292426D01*
X61552380Y-36292426D02*
X61552380Y-36216236D01*
X61552380Y-36216236D02*
X61590476Y-36140045D01*
X61590476Y-36140045D02*
X61628571Y-36101950D01*
X61628571Y-36101950D02*
X61704761Y-36063855D01*
X61704761Y-36063855D02*
X61895238Y-36063855D01*
X61895238Y-36063855D02*
X62009523Y-36101950D01*
X62276190Y-36063855D02*
X62466666Y-36863855D01*
X62466666Y-36863855D02*
X62619047Y-36292426D01*
X62619047Y-36292426D02*
X62771428Y-36863855D01*
X62771428Y-36863855D02*
X62961905Y-36063855D01*
X63685714Y-36863855D02*
X63228571Y-36863855D01*
X63457143Y-36863855D02*
X63457143Y-36063855D01*
X63457143Y-36063855D02*
X63380952Y-36178140D01*
X63380952Y-36178140D02*
X63304762Y-36254331D01*
X63304762Y-36254331D02*
X63228571Y-36292426D01*
X63990476Y-36140045D02*
X64028572Y-36101950D01*
X64028572Y-36101950D02*
X64104762Y-36063855D01*
X64104762Y-36063855D02*
X64295238Y-36063855D01*
X64295238Y-36063855D02*
X64371429Y-36101950D01*
X64371429Y-36101950D02*
X64409524Y-36140045D01*
X64409524Y-36140045D02*
X64447619Y-36216236D01*
X64447619Y-36216236D02*
X64447619Y-36292426D01*
X64447619Y-36292426D02*
X64409524Y-36406712D01*
X64409524Y-36406712D02*
X63952381Y-36863855D01*
X63952381Y-36863855D02*
X64447619Y-36863855D01*
D11*
X8328571Y-29272371D02*
X8042857Y-29272371D01*
X8042857Y-29272371D02*
X8042857Y-28672371D01*
X8528571Y-28958085D02*
X8728571Y-28958085D01*
X8814285Y-29272371D02*
X8528571Y-29272371D01*
X8528571Y-29272371D02*
X8528571Y-28672371D01*
X8528571Y-28672371D02*
X8814285Y-28672371D01*
X9071428Y-29272371D02*
X9071428Y-28672371D01*
X9071428Y-28672371D02*
X9214285Y-28672371D01*
X9214285Y-28672371D02*
X9299999Y-28700942D01*
X9299999Y-28700942D02*
X9357142Y-28758085D01*
X9357142Y-28758085D02*
X9385713Y-28815228D01*
X9385713Y-28815228D02*
X9414285Y-28929514D01*
X9414285Y-28929514D02*
X9414285Y-29015228D01*
X9414285Y-29015228D02*
X9385713Y-29129514D01*
X9385713Y-29129514D02*
X9357142Y-29186657D01*
X9357142Y-29186657D02*
X9299999Y-29243800D01*
X9299999Y-29243800D02*
X9214285Y-29272371D01*
X9214285Y-29272371D02*
X9071428Y-29272371D01*
X9957142Y-28672371D02*
X9671428Y-28672371D01*
X9671428Y-28672371D02*
X9642856Y-28958085D01*
X9642856Y-28958085D02*
X9671428Y-28929514D01*
X9671428Y-28929514D02*
X9728571Y-28900942D01*
X9728571Y-28900942D02*
X9871428Y-28900942D01*
X9871428Y-28900942D02*
X9928571Y-28929514D01*
X9928571Y-28929514D02*
X9957142Y-28958085D01*
X9957142Y-28958085D02*
X9985713Y-29015228D01*
X9985713Y-29015228D02*
X9985713Y-29158085D01*
X9985713Y-29158085D02*
X9957142Y-29215228D01*
X9957142Y-29215228D02*
X9928571Y-29243800D01*
X9928571Y-29243800D02*
X9871428Y-29272371D01*
X9871428Y-29272371D02*
X9728571Y-29272371D01*
X9728571Y-29272371D02*
X9671428Y-29243800D01*
X9671428Y-29243800D02*
X9642856Y-29215228D01*
X5900000Y-29415228D02*
X5871428Y-29443800D01*
X5871428Y-29443800D02*
X5785714Y-29472371D01*
X5785714Y-29472371D02*
X5728571Y-29472371D01*
X5728571Y-29472371D02*
X5642857Y-29443800D01*
X5642857Y-29443800D02*
X5585714Y-29386657D01*
X5585714Y-29386657D02*
X5557143Y-29329514D01*
X5557143Y-29329514D02*
X5528571Y-29215228D01*
X5528571Y-29215228D02*
X5528571Y-29129514D01*
X5528571Y-29129514D02*
X5557143Y-29015228D01*
X5557143Y-29015228D02*
X5585714Y-28958085D01*
X5585714Y-28958085D02*
X5642857Y-28900942D01*
X5642857Y-28900942D02*
X5728571Y-28872371D01*
X5728571Y-28872371D02*
X5785714Y-28872371D01*
X5785714Y-28872371D02*
X5871428Y-28900942D01*
X5871428Y-28900942D02*
X5900000Y-28929514D01*
X6442857Y-28872371D02*
X6157143Y-28872371D01*
X6157143Y-28872371D02*
X6128571Y-29158085D01*
X6128571Y-29158085D02*
X6157143Y-29129514D01*
X6157143Y-29129514D02*
X6214286Y-29100942D01*
X6214286Y-29100942D02*
X6357143Y-29100942D01*
X6357143Y-29100942D02*
X6414286Y-29129514D01*
X6414286Y-29129514D02*
X6442857Y-29158085D01*
X6442857Y-29158085D02*
X6471428Y-29215228D01*
X6471428Y-29215228D02*
X6471428Y-29358085D01*
X6471428Y-29358085D02*
X6442857Y-29415228D01*
X6442857Y-29415228D02*
X6414286Y-29443800D01*
X6414286Y-29443800D02*
X6357143Y-29472371D01*
X6357143Y-29472371D02*
X6214286Y-29472371D01*
X6214286Y-29472371D02*
X6157143Y-29443800D01*
X6157143Y-29443800D02*
X6128571Y-29415228D01*
D10*
%TO.C,U1*%
X27245000Y-69250000D02*
X44755000Y-69250000D01*
X27245000Y-76750000D02*
X27245000Y-69250000D01*
X44755000Y-69250000D02*
X44755000Y-76750000D01*
X44755000Y-76750000D02*
X27245000Y-76750000D01*
D12*
%TO.C,LED14*%
X25900000Y-65400000D02*
X28100000Y-65400000D01*
X25900000Y-67600000D02*
X25900000Y-65400000D01*
X28100000Y-65400000D02*
X28100000Y-67600000D01*
X28100000Y-67600000D02*
X25900000Y-67600000D01*
%TO.C,LED13*%
X7900000Y-65400000D02*
X10100000Y-65400000D01*
X7900000Y-67600000D02*
X7900000Y-65400000D01*
X10100000Y-65400000D02*
X10100000Y-67600000D01*
X10100000Y-67600000D02*
X7900000Y-67600000D01*
%TO.C,D9*%
X14200000Y-43400000D02*
X14200000Y-44600000D01*
X14200000Y-43400000D02*
X17800000Y-43400000D01*
X14200000Y-44600000D02*
X17800000Y-44600000D01*
%TO.C,D5*%
X14200000Y-25400000D02*
X14200000Y-26600000D01*
X14200000Y-25400000D02*
X17800000Y-25400000D01*
X14200000Y-26600000D02*
X17800000Y-26600000D01*
%TO.C,LED1*%
X7900000Y-11400000D02*
X10100000Y-11400000D01*
X7900000Y-13600000D02*
X7900000Y-11400000D01*
X10100000Y-11400000D02*
X10100000Y-13600000D01*
X10100000Y-13600000D02*
X7900000Y-13600000D01*
%TO.C,D16*%
X67400000Y-66800000D02*
X67400000Y-63200000D01*
X67400000Y-66800000D02*
X68600000Y-66800000D01*
X68600000Y-66800000D02*
X68600000Y-63200000D01*
%TO.C,LED9*%
X7900000Y-47400000D02*
X10100000Y-47400000D01*
X7900000Y-49600000D02*
X7900000Y-47400000D01*
X10100000Y-47400000D02*
X10100000Y-49600000D01*
X10100000Y-49600000D02*
X7900000Y-49600000D01*
%TO.C,D1*%
X14200000Y-7400000D02*
X14200000Y-8600000D01*
X14200000Y-7400000D02*
X17800000Y-7400000D01*
X14200000Y-8600000D02*
X17800000Y-8600000D01*
%TO.C,LED12*%
X61900000Y-47400000D02*
X64100000Y-47400000D01*
X61900000Y-49600000D02*
X61900000Y-47400000D01*
X64100000Y-47400000D02*
X64100000Y-49600000D01*
X64100000Y-49600000D02*
X61900000Y-49600000D01*
%TO.C,LED7*%
X43900000Y-29400000D02*
X46100000Y-29400000D01*
X43900000Y-31600000D02*
X43900000Y-29400000D01*
X46100000Y-29400000D02*
X46100000Y-31600000D01*
X46100000Y-31600000D02*
X43900000Y-31600000D01*
%TO.C,D12*%
X67400000Y-48800000D02*
X67400000Y-45200000D01*
X67400000Y-48800000D02*
X68600000Y-48800000D01*
X68600000Y-48800000D02*
X68600000Y-45200000D01*
%TO.C,LED16*%
X61900000Y-65400000D02*
X64100000Y-65400000D01*
X61900000Y-67600000D02*
X61900000Y-65400000D01*
X64100000Y-65400000D02*
X64100000Y-67600000D01*
X64100000Y-67600000D02*
X61900000Y-67600000D01*
%TO.C,J1*%
X3750000Y-73400000D02*
X16250000Y-73400000D01*
X3750000Y-79400000D02*
X3750000Y-73400000D01*
X16250000Y-73400000D02*
X16250000Y-79400000D01*
X16250000Y-79400000D02*
X3750000Y-79400000D01*
%TO.C,LED11*%
X43900000Y-47400000D02*
X46100000Y-47400000D01*
X43900000Y-49600000D02*
X43900000Y-47400000D01*
X46100000Y-47400000D02*
X46100000Y-49600000D01*
X46100000Y-49600000D02*
X43900000Y-49600000D01*
%TO.C,D8*%
X67400000Y-30800000D02*
X67400000Y-27200000D01*
X67400000Y-30800000D02*
X68600000Y-30800000D01*
X68600000Y-30800000D02*
X68600000Y-27200000D01*
%TO.C,LED8*%
X61900000Y-29400000D02*
X64100000Y-29400000D01*
X61900000Y-31600000D02*
X61900000Y-29400000D01*
X64100000Y-29400000D02*
X64100000Y-31600000D01*
X64100000Y-31600000D02*
X61900000Y-31600000D01*
%TO.C,D11*%
X50200000Y-43400000D02*
X50200000Y-44600000D01*
X50200000Y-43400000D02*
X53800000Y-43400000D01*
X50200000Y-44600000D02*
X53800000Y-44600000D01*
%TO.C,D13*%
X14200000Y-61400000D02*
X14200000Y-62600000D01*
X14200000Y-61400000D02*
X17800000Y-61400000D01*
X14200000Y-62600000D02*
X17800000Y-62600000D01*
%TO.C,LED2*%
X25900000Y-11400000D02*
X28100000Y-11400000D01*
X25900000Y-13600000D02*
X25900000Y-11400000D01*
X28100000Y-11400000D02*
X28100000Y-13600000D01*
X28100000Y-13600000D02*
X25900000Y-13600000D01*
%TO.C,D4*%
X67400000Y-12800000D02*
X67400000Y-9200000D01*
X67400000Y-12800000D02*
X68600000Y-12800000D01*
X68600000Y-12800000D02*
X68600000Y-9200000D01*
%TO.C,LED15*%
X43900000Y-65400000D02*
X46100000Y-65400000D01*
X43900000Y-67600000D02*
X43900000Y-65400000D01*
X46100000Y-65400000D02*
X46100000Y-67600000D01*
X46100000Y-67600000D02*
X43900000Y-67600000D01*
%TO.C,D3*%
X50200000Y-7400000D02*
X50200000Y-8600000D01*
X50200000Y-7400000D02*
X53800000Y-7400000D01*
X50200000Y-8600000D02*
X53800000Y-8600000D01*
%TO.C,LED4*%
X61900000Y-11400000D02*
X64100000Y-11400000D01*
X61900000Y-13600000D02*
X61900000Y-11400000D01*
X64100000Y-11400000D02*
X64100000Y-13600000D01*
X64100000Y-13600000D02*
X61900000Y-13600000D01*
%TO.C,LED10*%
X25900000Y-47400000D02*
X28100000Y-47400000D01*
X25900000Y-49600000D02*
X25900000Y-47400000D01*
X28100000Y-47400000D02*
X28100000Y-49600000D01*
X28100000Y-49600000D02*
X25900000Y-49600000D01*
%TO.C,D2*%
X32200000Y-7400000D02*
X32200000Y-8600000D01*
X32200000Y-7400000D02*
X35800000Y-7400000D01*
X32200000Y-8600000D02*
X35800000Y-8600000D01*
%TO.C,D10*%
X32200000Y-43400000D02*
X32200000Y-44600000D01*
X32200000Y-43400000D02*
X35800000Y-43400000D01*
X32200000Y-44600000D02*
X35800000Y-44600000D01*
%TO.C,D6*%
X32200000Y-25400000D02*
X32200000Y-26600000D01*
X32200000Y-25400000D02*
X35800000Y-25400000D01*
X32200000Y-26600000D02*
X35800000Y-26600000D01*
%TO.C,D14*%
X32200000Y-61400000D02*
X32200000Y-62600000D01*
X32200000Y-61400000D02*
X35800000Y-61400000D01*
X32200000Y-62600000D02*
X35800000Y-62600000D01*
%TO.C,LED6*%
X25900000Y-29400000D02*
X28100000Y-29400000D01*
X25900000Y-31600000D02*
X25900000Y-29400000D01*
X28100000Y-29400000D02*
X28100000Y-31600000D01*
X28100000Y-31600000D02*
X25900000Y-31600000D01*
%TO.C,D15*%
X50200000Y-61400000D02*
X50200000Y-62600000D01*
X50200000Y-61400000D02*
X53800000Y-61400000D01*
X50200000Y-62600000D02*
X53800000Y-62600000D01*
%TO.C,LED3*%
X43900000Y-11400000D02*
X46100000Y-11400000D01*
X43900000Y-13600000D02*
X43900000Y-11400000D01*
X46100000Y-11400000D02*
X46100000Y-13600000D01*
X46100000Y-13600000D02*
X43900000Y-13600000D01*
%TO.C,D7*%
X50200000Y-25400000D02*
X50200000Y-26600000D01*
X50200000Y-25400000D02*
X53800000Y-25400000D01*
X50200000Y-26600000D02*
X53800000Y-26600000D01*
%TO.C,LED5*%
X7900000Y-29400000D02*
X10100000Y-29400000D01*
X7900000Y-31600000D02*
X7900000Y-29400000D01*
X10100000Y-29400000D02*
X10100000Y-31600000D01*
X10100000Y-31600000D02*
X7900000Y-31600000D01*
%TD*%
M02*
