%TF.GenerationSoftware,KiCad,Pcbnew,9.0.7*%
%TF.CreationDate,2026-03-02T03:21:02+09:00*%
%TF.ProjectId,mixtee-key-pcb,6d697874-6565-42d6-9b65-792d7063622e,rev?*%
%TF.SameCoordinates,Original*%
%TF.FileFunction,Soldermask,Top*%
%TF.FilePolarity,Negative*%
%FSLAX46Y46*%
G04 Gerber Fmt 4.6, Leading zero omitted, Abs format (unit mm)*
G04 Created by KiCad (PCBNEW 9.0.7) date 2026-03-02 03:21:02*
%MOMM*%
%LPD*%
G01*
G04 APERTURE LIST*
G04 Aperture macros list*
%AMRoundRect*
0 Rectangle with rounded corners*
0 $1 Rounding radius*
0 $2 $3 $4 $5 $6 $7 $8 $9 X,Y pos of 4 corners*
0 Add a 4 corners polygon primitive as box body*
4,1,4,$2,$3,$4,$5,$6,$7,$8,$9,$2,$3,0*
0 Add four circle primitives for the rounded corners*
1,1,$1+$1,$2,$3*
1,1,$1+$1,$4,$5*
1,1,$1+$1,$6,$7*
1,1,$1+$1,$8,$9*
0 Add four rect primitives between the rounded corners*
20,1,$1+$1,$2,$3,$4,$5,0*
20,1,$1+$1,$4,$5,$6,$7,0*
20,1,$1+$1,$6,$7,$8,$9,0*
20,1,$1+$1,$8,$9,$2,$3,0*%
G04 Aperture macros list end*
%ADD10RoundRect,0.150000X-0.150000X-0.625000X0.150000X-0.625000X0.150000X0.625000X-0.150000X0.625000X0*%
%ADD11R,0.500000X0.550000*%
%ADD12RoundRect,0.225000X-0.225000X-0.275000X0.225000X-0.275000X0.225000X0.275000X-0.225000X0.275000X0*%
%ADD13RoundRect,0.175000X-0.325000X-0.175000X0.325000X-0.175000X0.325000X0.175000X-0.325000X0.175000X0*%
%ADD14RoundRect,0.375000X-0.900000X-0.875000X0.900000X-0.875000X0.900000X0.875000X-0.900000X0.875000X0*%
%ADD15RoundRect,0.175000X0.175000X-0.325000X0.175000X0.325000X-0.175000X0.325000X-0.175000X-0.325000X0*%
%ADD16C,1.750000*%
G04 APERTURE END LIST*
D10*
%TO.C,U1*%
X27745000Y-77445000D03*
X29015000Y-77445000D03*
X30285000Y-77445000D03*
X31555000Y-77445000D03*
X32825000Y-77445000D03*
X34095000Y-77445000D03*
X35365000Y-77445000D03*
X36635000Y-77445000D03*
X37905000Y-77445000D03*
X39175000Y-77445000D03*
X40445000Y-77445000D03*
X41715000Y-77445000D03*
X42985000Y-77445000D03*
X44255000Y-77445000D03*
X44255000Y-68555000D03*
X42985000Y-68555000D03*
X41715000Y-68555000D03*
X40445000Y-68555000D03*
X39175000Y-68555000D03*
X37905000Y-68555000D03*
X36635000Y-68555000D03*
X35365000Y-68555000D03*
X34095000Y-68555000D03*
X32825000Y-68555000D03*
X31555000Y-68555000D03*
X30285000Y-68555000D03*
X29015000Y-68555000D03*
X27745000Y-68555000D03*
%TD*%
D11*
%TO.C,LED14*%
X26350000Y-66025000D03*
X26350000Y-66975000D03*
X27650000Y-66975000D03*
X27650000Y-66025000D03*
%TD*%
%TO.C,LED13*%
X8350000Y-66025000D03*
X8350000Y-66975000D03*
X9650000Y-66975000D03*
X9650000Y-66025000D03*
%TD*%
D12*
%TO.C,C2*%
X23200000Y-12500000D03*
X24800000Y-12500000D03*
%TD*%
D13*
%TO.C,D9*%
X14900000Y-44000000D03*
X17100000Y-44000000D03*
%TD*%
%TO.C,D5*%
X14900000Y-26000000D03*
X17100000Y-26000000D03*
%TD*%
D14*
%TO.C,SW7*%
X45000000Y-21100000D03*
X50000000Y-23200000D03*
%TD*%
D11*
%TO.C,LED1*%
X8350000Y-12025000D03*
X8350000Y-12975000D03*
X9650000Y-12975000D03*
X9650000Y-12025000D03*
%TD*%
D15*
%TO.C,D16*%
X68000000Y-66100000D03*
X68000000Y-63900000D03*
%TD*%
D14*
%TO.C,SW13*%
X9000000Y-57100000D03*
X14000000Y-59200000D03*
%TD*%
%TO.C,SW16*%
X63000000Y-57100000D03*
X68000000Y-59200000D03*
%TD*%
%TO.C,SW1*%
X9000000Y-3100000D03*
X14000000Y-5200000D03*
%TD*%
D11*
%TO.C,LED9*%
X8350000Y-48025000D03*
X8350000Y-48975000D03*
X9650000Y-48975000D03*
X9650000Y-48025000D03*
%TD*%
D13*
%TO.C,D1*%
X14900000Y-8000000D03*
X17100000Y-8000000D03*
%TD*%
D11*
%TO.C,LED12*%
X62350000Y-48025000D03*
X62350000Y-48975000D03*
X63650000Y-48975000D03*
X63650000Y-48025000D03*
%TD*%
%TO.C,LED7*%
X44350000Y-30025000D03*
X44350000Y-30975000D03*
X45650000Y-30975000D03*
X45650000Y-30025000D03*
%TD*%
D15*
%TO.C,D12*%
X68000000Y-48100000D03*
X68000000Y-45900000D03*
%TD*%
D11*
%TO.C,LED16*%
X62350000Y-66025000D03*
X62350000Y-66975000D03*
X63650000Y-66975000D03*
X63650000Y-66025000D03*
%TD*%
D16*
%TO.C,J1*%
X5000000Y-75000000D03*
X7000000Y-75000000D03*
X9000000Y-75000000D03*
X11000000Y-75000000D03*
X13000000Y-75000000D03*
X15000000Y-75000000D03*
%TD*%
D12*
%TO.C,C13*%
X5200000Y-66500000D03*
X6800000Y-66500000D03*
%TD*%
D14*
%TO.C,SW8*%
X63000000Y-21100000D03*
X68000000Y-23200000D03*
%TD*%
D11*
%TO.C,LED11*%
X44350000Y-48025000D03*
X44350000Y-48975000D03*
X45650000Y-48975000D03*
X45650000Y-48025000D03*
%TD*%
D15*
%TO.C,D8*%
X68000000Y-30100000D03*
X68000000Y-27900000D03*
%TD*%
D11*
%TO.C,LED8*%
X62350000Y-30025000D03*
X62350000Y-30975000D03*
X63650000Y-30975000D03*
X63650000Y-30025000D03*
%TD*%
D12*
%TO.C,C12*%
X59200000Y-48500000D03*
X60800000Y-48500000D03*
%TD*%
%TO.C,C15*%
X41200000Y-66500000D03*
X42800000Y-66500000D03*
%TD*%
%TO.C,C10*%
X23200000Y-48500000D03*
X24800000Y-48500000D03*
%TD*%
D14*
%TO.C,SW2*%
X27000000Y-3100000D03*
X32000000Y-5200000D03*
%TD*%
D12*
%TO.C,C4*%
X59200000Y-12500000D03*
X60800000Y-12500000D03*
%TD*%
D14*
%TO.C,SW4*%
X63000000Y-3100000D03*
X68000000Y-5200000D03*
%TD*%
D13*
%TO.C,D11*%
X50900000Y-44000000D03*
X53100000Y-44000000D03*
%TD*%
%TO.C,D13*%
X14900000Y-62000000D03*
X17100000Y-62000000D03*
%TD*%
D11*
%TO.C,LED2*%
X26350000Y-12025000D03*
X26350000Y-12975000D03*
X27650000Y-12975000D03*
X27650000Y-12025000D03*
%TD*%
D15*
%TO.C,D4*%
X68000000Y-12100000D03*
X68000000Y-9900000D03*
%TD*%
D12*
%TO.C,C11*%
X41200000Y-48500000D03*
X42800000Y-48500000D03*
%TD*%
D11*
%TO.C,LED15*%
X44350000Y-66025000D03*
X44350000Y-66975000D03*
X45650000Y-66975000D03*
X45650000Y-66025000D03*
%TD*%
D12*
%TO.C,C14*%
X23200000Y-66500000D03*
X24800000Y-66500000D03*
%TD*%
D13*
%TO.C,D3*%
X50900000Y-8000000D03*
X53100000Y-8000000D03*
%TD*%
D14*
%TO.C,SW9*%
X9000000Y-39100000D03*
X14000000Y-41200000D03*
%TD*%
D11*
%TO.C,LED4*%
X62350000Y-12025000D03*
X62350000Y-12975000D03*
X63650000Y-12975000D03*
X63650000Y-12025000D03*
%TD*%
D14*
%TO.C,SW5*%
X9000000Y-21100000D03*
X14000000Y-23200000D03*
%TD*%
D12*
%TO.C,C6*%
X23200000Y-30500000D03*
X24800000Y-30500000D03*
%TD*%
%TO.C,C17*%
X27200000Y-73000000D03*
X28800000Y-73000000D03*
%TD*%
%TO.C,C16*%
X59200000Y-66500000D03*
X60800000Y-66500000D03*
%TD*%
D11*
%TO.C,LED10*%
X26350000Y-48025000D03*
X26350000Y-48975000D03*
X27650000Y-48975000D03*
X27650000Y-48025000D03*
%TD*%
D13*
%TO.C,D2*%
X32900000Y-8000000D03*
X35100000Y-8000000D03*
%TD*%
%TO.C,D10*%
X32900000Y-44000000D03*
X35100000Y-44000000D03*
%TD*%
D14*
%TO.C,SW3*%
X45000000Y-3100000D03*
X50000000Y-5200000D03*
%TD*%
%TO.C,SW14*%
X27000000Y-57100000D03*
X32000000Y-59200000D03*
%TD*%
D12*
%TO.C,C7*%
X41200000Y-30500000D03*
X42800000Y-30500000D03*
%TD*%
D13*
%TO.C,D6*%
X32900000Y-26000000D03*
X35100000Y-26000000D03*
%TD*%
%TO.C,D14*%
X32900000Y-62000000D03*
X35100000Y-62000000D03*
%TD*%
D14*
%TO.C,SW11*%
X45000000Y-39100000D03*
X50000000Y-41200000D03*
%TD*%
D11*
%TO.C,LED6*%
X26350000Y-30025000D03*
X26350000Y-30975000D03*
X27650000Y-30975000D03*
X27650000Y-30025000D03*
%TD*%
D12*
%TO.C,C3*%
X41200000Y-12500000D03*
X42800000Y-12500000D03*
%TD*%
D13*
%TO.C,D15*%
X50900000Y-62000000D03*
X53100000Y-62000000D03*
%TD*%
D11*
%TO.C,LED3*%
X44350000Y-12025000D03*
X44350000Y-12975000D03*
X45650000Y-12975000D03*
X45650000Y-12025000D03*
%TD*%
D12*
%TO.C,C1*%
X5200000Y-12500000D03*
X6800000Y-12500000D03*
%TD*%
D13*
%TO.C,D7*%
X50900000Y-26000000D03*
X53100000Y-26000000D03*
%TD*%
D12*
%TO.C,C8*%
X59200000Y-30500000D03*
X60800000Y-30500000D03*
%TD*%
D14*
%TO.C,SW6*%
X27000000Y-21100000D03*
X32000000Y-23200000D03*
%TD*%
%TO.C,SW15*%
X45000000Y-57100000D03*
X50000000Y-59200000D03*
%TD*%
%TO.C,SW10*%
X27000000Y-39100000D03*
X32000000Y-41200000D03*
%TD*%
D12*
%TO.C,C9*%
X5200000Y-48500000D03*
X6800000Y-48500000D03*
%TD*%
D14*
%TO.C,SW12*%
X63000000Y-39100000D03*
X68000000Y-41200000D03*
%TD*%
D11*
%TO.C,LED5*%
X8350000Y-30025000D03*
X8350000Y-30975000D03*
X9650000Y-30975000D03*
X9650000Y-30025000D03*
%TD*%
D12*
%TO.C,C5*%
X5200000Y-30500000D03*
X6800000Y-30500000D03*
%TD*%
M02*
