%TF.GenerationSoftware,KiCad,Pcbnew,9.0.7*%
%TF.CreationDate,2026-03-02T02:23:24+09:00*%
%TF.ProjectId,mixtee-daughter-output,6d697874-6565-42d6-9461-756768746572,rev?*%
%TF.SameCoordinates,Original*%
%TF.FileFunction,Copper,L2,Bot*%
%TF.FilePolarity,Positive*%
%FSLAX46Y46*%
G04 Gerber Fmt 4.6, Leading zero omitted, Abs format (unit mm)*
G04 Created by KiCad (PCBNEW 9.0.7) date 2026-03-02 02:23:24*
%MOMM*%
%LPD*%
G01*
G04 APERTURE LIST*
%TA.AperFunction,ComponentPad*%
%ADD10C,2.400000*%
%TD*%
%TA.AperFunction,ComponentPad*%
%ADD11C,1.750000*%
%TD*%
%TA.AperFunction,ViaPad*%
%ADD12C,0.600000*%
%TD*%
%TA.AperFunction,Conductor*%
%ADD13C,0.300000*%
%TD*%
G04 APERTURE END LIST*
D10*
%TO.P,J1,S*%
%TO.N,GND*%
X17620000Y-8570000D03*
%TO.P,J1,T*%
%TO.N,AIN1*%
X10000000Y-2220000D03*
%TD*%
%TO.P,J4,S*%
%TO.N,GND*%
X77620000Y-8570000D03*
%TO.P,J4,T*%
%TO.N,AIN4*%
X70000000Y-2220000D03*
%TD*%
D11*
%TO.P,J5,1*%
%TO.N,AIN1*%
X35000000Y-1500000D03*
%TO.P,J5,2*%
%TO.N,AIN2*%
X37000000Y-1500000D03*
%TO.P,J5,3*%
%TO.N,AIN3*%
X39000000Y-1500000D03*
%TO.P,J5,4*%
%TO.N,AIN4*%
X41000000Y-1500000D03*
%TO.P,J5,5*%
%TO.N,+5VA*%
X43000000Y-1500000D03*
%TO.P,J5,6*%
%TO.N,GND*%
X45000000Y-1500000D03*
%TD*%
D10*
%TO.P,J3,S*%
%TO.N,GND*%
X57620000Y-8570000D03*
%TO.P,J3,T*%
%TO.N,AIN3*%
X50000000Y-2220000D03*
%TD*%
%TO.P,J2,S*%
%TO.N,GND*%
X37620000Y-8570000D03*
%TO.P,J2,T*%
%TO.N,AIN2*%
X30000000Y-2220000D03*
%TD*%
D12*
%TO.N,AIN1*%
X14033800Y-4818000D03*
%TO.N,AIN2*%
X33114400Y-4618300D03*
%TO.N,AIN3*%
X51556200Y-6852900D03*
%TO.N,AIN4*%
X43829600Y-3312100D03*
%TO.N,GND*%
X27989000Y-4307400D03*
%TD*%
D13*
%TO.N,AIN1*%
X10000000Y-2220000D02*
X11435800Y-2220000D01*
X11435800Y-2220000D02*
X14033800Y-4818000D01*
%TO.N,AIN2*%
X30000000Y-2220000D02*
X30572100Y-2792100D01*
X33114400Y-2792100D02*
X35707900Y-2792100D01*
X35707900Y-2792100D02*
X37000000Y-1500000D01*
X33114400Y-2792100D02*
X33114400Y-4618300D01*
X30572100Y-2792100D02*
X33114400Y-2792100D01*
%TO.N,AIN3*%
X41514500Y-4014500D02*
X39000000Y-1500000D01*
X50000000Y-4014500D02*
X50000000Y-2220000D01*
X50000000Y-5296700D02*
X50000000Y-4014500D01*
X51556200Y-6852900D02*
X50000000Y-5296700D01*
X50000000Y-4014500D02*
X41514500Y-4014500D01*
%TO.N,AIN4*%
X43829600Y-3312100D02*
X42812100Y-3312100D01*
X42812100Y-3312100D02*
X41000000Y-1500000D01*
%TD*%
%TA.AperFunction,Conductor*%
%TO.N,GND*%
G36*
X34246190Y-520185D02*
G01*
X34291945Y-572989D01*
X34301889Y-642147D01*
X34272864Y-705703D01*
X34266832Y-712181D01*
X34179652Y-799360D01*
X34179648Y-799365D01*
X34080152Y-936311D01*
X34003296Y-1087146D01*
X33950981Y-1248152D01*
X33924500Y-1415350D01*
X33924500Y-1584649D01*
X33950981Y-1751847D01*
X34003296Y-1912853D01*
X34080152Y-2063688D01*
X34179648Y-2200634D01*
X34179652Y-2200639D01*
X34208932Y-2229919D01*
X34242417Y-2291242D01*
X34237433Y-2360934D01*
X34195561Y-2416867D01*
X34130097Y-2441284D01*
X34121251Y-2441600D01*
X31524500Y-2441600D01*
X31457461Y-2421915D01*
X31411706Y-2369111D01*
X31400500Y-2317600D01*
X31400500Y-2109778D01*
X31393200Y-2063688D01*
X31366015Y-1892049D01*
X31297895Y-1682394D01*
X31297895Y-1682393D01*
X31231792Y-1552661D01*
X31197815Y-1485978D01*
X31169742Y-1447339D01*
X31068247Y-1307641D01*
X31068243Y-1307636D01*
X30912363Y-1151756D01*
X30912358Y-1151752D01*
X30734025Y-1022187D01*
X30734024Y-1022186D01*
X30734022Y-1022185D01*
X30635887Y-972182D01*
X30537606Y-922104D01*
X30537603Y-922103D01*
X30327952Y-853985D01*
X30219086Y-836742D01*
X30110222Y-819500D01*
X29889778Y-819500D01*
X29817201Y-830995D01*
X29672047Y-853985D01*
X29462396Y-922103D01*
X29462393Y-922104D01*
X29265974Y-1022187D01*
X29087641Y-1151752D01*
X29087636Y-1151756D01*
X28931756Y-1307636D01*
X28931752Y-1307641D01*
X28802187Y-1485974D01*
X28702104Y-1682393D01*
X28702103Y-1682396D01*
X28633985Y-1892047D01*
X28621439Y-1971260D01*
X28599500Y-2109778D01*
X28599500Y-2330222D01*
X28613223Y-2416867D01*
X28633985Y-2547952D01*
X28702103Y-2757603D01*
X28702104Y-2757606D01*
X28761921Y-2875000D01*
X28801641Y-2952955D01*
X28802187Y-2954025D01*
X28931752Y-3132358D01*
X28931756Y-3132363D01*
X29087636Y-3288243D01*
X29087641Y-3288247D01*
X29211162Y-3377989D01*
X29265978Y-3417815D01*
X29383098Y-3477491D01*
X29462393Y-3517895D01*
X29462396Y-3517896D01*
X29546776Y-3545312D01*
X29672049Y-3586015D01*
X29889778Y-3620500D01*
X29889779Y-3620500D01*
X30110221Y-3620500D01*
X30110222Y-3620500D01*
X30327951Y-3586015D01*
X30537606Y-3517895D01*
X30734022Y-3417815D01*
X30912365Y-3288242D01*
X31021688Y-3178919D01*
X31083011Y-3145434D01*
X31109369Y-3142600D01*
X32639900Y-3142600D01*
X32706939Y-3162285D01*
X32752694Y-3215089D01*
X32763900Y-3266600D01*
X32763900Y-4209624D01*
X32744215Y-4276663D01*
X32727581Y-4297305D01*
X32713902Y-4310983D01*
X32713900Y-4310986D01*
X32648008Y-4425112D01*
X32613900Y-4552408D01*
X32613900Y-4684191D01*
X32648008Y-4811487D01*
X32648987Y-4813182D01*
X32713900Y-4925614D01*
X32807086Y-5018800D01*
X32921214Y-5084692D01*
X33048508Y-5118800D01*
X33048510Y-5118800D01*
X33180290Y-5118800D01*
X33180292Y-5118800D01*
X33307586Y-5084692D01*
X33421714Y-5018800D01*
X33514900Y-4925614D01*
X33580792Y-4811486D01*
X33614900Y-4684192D01*
X33614900Y-4552408D01*
X33580792Y-4425114D01*
X33514900Y-4310986D01*
X33501219Y-4297305D01*
X33467734Y-4235982D01*
X33464900Y-4209624D01*
X33464900Y-3266600D01*
X33484585Y-3199561D01*
X33537389Y-3153806D01*
X33588900Y-3142600D01*
X35754042Y-3142600D01*
X35754044Y-3142600D01*
X35843188Y-3118714D01*
X35923112Y-3072570D01*
X36466870Y-2528810D01*
X36528191Y-2495327D01*
X36592865Y-2498561D01*
X36685966Y-2528812D01*
X36748152Y-2549018D01*
X36915351Y-2575500D01*
X36915356Y-2575500D01*
X37084649Y-2575500D01*
X37251847Y-2549018D01*
X37314034Y-2528812D01*
X37412849Y-2496705D01*
X37563685Y-2419850D01*
X37700641Y-2320346D01*
X37820346Y-2200641D01*
X37828513Y-2189399D01*
X37899682Y-2091445D01*
X37955011Y-2048779D01*
X38024625Y-2042800D01*
X38086420Y-2075405D01*
X38100318Y-2091445D01*
X38179648Y-2200634D01*
X38179652Y-2200639D01*
X38299360Y-2320347D01*
X38299365Y-2320351D01*
X38418817Y-2407137D01*
X38436315Y-2419850D01*
X38528738Y-2466942D01*
X38587146Y-2496703D01*
X38587148Y-2496703D01*
X38587151Y-2496705D01*
X38673450Y-2524745D01*
X38748152Y-2549018D01*
X38915351Y-2575500D01*
X38915356Y-2575500D01*
X39084649Y-2575500D01*
X39251847Y-2549018D01*
X39255131Y-2547951D01*
X39407134Y-2498561D01*
X39476971Y-2496566D01*
X39533130Y-2528812D01*
X41299288Y-4294970D01*
X41299289Y-4294971D01*
X41299291Y-4294972D01*
X41338311Y-4317500D01*
X41379212Y-4341114D01*
X41468356Y-4365000D01*
X49525500Y-4365000D01*
X49592539Y-4384685D01*
X49638294Y-4437489D01*
X49649500Y-4489000D01*
X49649500Y-5342843D01*
X49673386Y-5431987D01*
X49673387Y-5431990D01*
X49719527Y-5511908D01*
X49719531Y-5511913D01*
X51019381Y-6811763D01*
X51052866Y-6873086D01*
X51055700Y-6899444D01*
X51055700Y-6918791D01*
X51089808Y-7046087D01*
X51122754Y-7103150D01*
X51155700Y-7160214D01*
X51248886Y-7253400D01*
X51363014Y-7319292D01*
X51490308Y-7353400D01*
X51490310Y-7353400D01*
X51622090Y-7353400D01*
X51622092Y-7353400D01*
X51749386Y-7319292D01*
X51863514Y-7253400D01*
X51956700Y-7160214D01*
X52022592Y-7046086D01*
X52056700Y-6918792D01*
X52056700Y-6787008D01*
X52022592Y-6659714D01*
X51956700Y-6545586D01*
X51863514Y-6452400D01*
X51806450Y-6419454D01*
X51749387Y-6386508D01*
X51685739Y-6369454D01*
X51622092Y-6352400D01*
X51622091Y-6352400D01*
X51602744Y-6352400D01*
X51535705Y-6332715D01*
X51515063Y-6316081D01*
X50386819Y-5187837D01*
X50353334Y-5126514D01*
X50350500Y-5100156D01*
X50350500Y-3668779D01*
X50370185Y-3601740D01*
X50422989Y-3555985D01*
X50436164Y-3550854D01*
X50537606Y-3517895D01*
X50734022Y-3417815D01*
X50912365Y-3288242D01*
X51068242Y-3132365D01*
X51197815Y-2954022D01*
X51297895Y-2757606D01*
X51366015Y-2547951D01*
X51400500Y-2330222D01*
X51400500Y-2109778D01*
X68599500Y-2109778D01*
X68599500Y-2330222D01*
X68613223Y-2416867D01*
X68633985Y-2547952D01*
X68702103Y-2757603D01*
X68702104Y-2757606D01*
X68761921Y-2875000D01*
X68801641Y-2952955D01*
X68802187Y-2954025D01*
X68931752Y-3132358D01*
X68931756Y-3132363D01*
X69087636Y-3288243D01*
X69087641Y-3288247D01*
X69211162Y-3377989D01*
X69265978Y-3417815D01*
X69383098Y-3477491D01*
X69462393Y-3517895D01*
X69462396Y-3517896D01*
X69546776Y-3545312D01*
X69672049Y-3586015D01*
X69889778Y-3620500D01*
X69889779Y-3620500D01*
X70110221Y-3620500D01*
X70110222Y-3620500D01*
X70327951Y-3586015D01*
X70537606Y-3517895D01*
X70734022Y-3417815D01*
X70912365Y-3288242D01*
X71068242Y-3132365D01*
X71197815Y-2954022D01*
X71297895Y-2757606D01*
X71366015Y-2547951D01*
X71400500Y-2330222D01*
X71400500Y-2109778D01*
X71366015Y-1892049D01*
X71297895Y-1682394D01*
X71297895Y-1682393D01*
X71231792Y-1552661D01*
X71197815Y-1485978D01*
X71169742Y-1447339D01*
X71068247Y-1307641D01*
X71068243Y-1307636D01*
X70912363Y-1151756D01*
X70912358Y-1151752D01*
X70734025Y-1022187D01*
X70734024Y-1022186D01*
X70734022Y-1022185D01*
X70635887Y-972182D01*
X70537606Y-922104D01*
X70537603Y-922103D01*
X70327952Y-853985D01*
X70219086Y-836742D01*
X70110222Y-819500D01*
X69889778Y-819500D01*
X69817201Y-830995D01*
X69672047Y-853985D01*
X69462396Y-922103D01*
X69462393Y-922104D01*
X69265974Y-1022187D01*
X69087641Y-1151752D01*
X69087636Y-1151756D01*
X68931756Y-1307636D01*
X68931752Y-1307641D01*
X68802187Y-1485974D01*
X68702104Y-1682393D01*
X68702103Y-1682396D01*
X68633985Y-1892047D01*
X68621439Y-1971260D01*
X68599500Y-2109778D01*
X51400500Y-2109778D01*
X51366015Y-1892049D01*
X51297895Y-1682394D01*
X51297895Y-1682393D01*
X51231792Y-1552661D01*
X51197815Y-1485978D01*
X51169742Y-1447339D01*
X51068247Y-1307641D01*
X51068243Y-1307636D01*
X50912363Y-1151756D01*
X50912358Y-1151752D01*
X50734025Y-1022187D01*
X50734024Y-1022186D01*
X50734022Y-1022185D01*
X50635887Y-972182D01*
X50537606Y-922104D01*
X50537603Y-922103D01*
X50327952Y-853985D01*
X50219086Y-836742D01*
X50110222Y-819500D01*
X49889778Y-819500D01*
X49817201Y-830995D01*
X49672047Y-853985D01*
X49462396Y-922103D01*
X49462393Y-922104D01*
X49265974Y-1022187D01*
X49087641Y-1151752D01*
X49087636Y-1151756D01*
X48931756Y-1307636D01*
X48931752Y-1307641D01*
X48802187Y-1485974D01*
X48702104Y-1682393D01*
X48702103Y-1682396D01*
X48633985Y-1892047D01*
X48621439Y-1971260D01*
X48599500Y-2109778D01*
X48599500Y-2330222D01*
X48613223Y-2416867D01*
X48633985Y-2547952D01*
X48702103Y-2757603D01*
X48702104Y-2757606D01*
X48761921Y-2875000D01*
X48801641Y-2952955D01*
X48802187Y-2954025D01*
X48931752Y-3132358D01*
X48931756Y-3132363D01*
X49087636Y-3288243D01*
X49087641Y-3288247D01*
X49265976Y-3417814D01*
X49288941Y-3429516D01*
X49339737Y-3477491D01*
X49356531Y-3545312D01*
X49333993Y-3611447D01*
X49279277Y-3654898D01*
X49232645Y-3664000D01*
X44415064Y-3664000D01*
X44348025Y-3644315D01*
X44302270Y-3591511D01*
X44292326Y-3522353D01*
X44295289Y-3507906D01*
X44295990Y-3505289D01*
X44295992Y-3505286D01*
X44330100Y-3377992D01*
X44330100Y-3246208D01*
X44295992Y-3118914D01*
X44295875Y-3118712D01*
X44269234Y-3072568D01*
X44230100Y-3004786D01*
X44136914Y-2911600D01*
X44073521Y-2875000D01*
X44022787Y-2845708D01*
X43959139Y-2828654D01*
X43895492Y-2811600D01*
X43763708Y-2811600D01*
X43636412Y-2845708D01*
X43522286Y-2911600D01*
X43522283Y-2911602D01*
X43508605Y-2925281D01*
X43447282Y-2958766D01*
X43420924Y-2961600D01*
X43008643Y-2961600D01*
X42979202Y-2952955D01*
X42949216Y-2946432D01*
X42944200Y-2942677D01*
X42941604Y-2941915D01*
X42920962Y-2925281D01*
X42776265Y-2780584D01*
X42742780Y-2719261D01*
X42747764Y-2649569D01*
X42789636Y-2593636D01*
X42855100Y-2569219D01*
X42883344Y-2570429D01*
X42892201Y-2571832D01*
X42915353Y-2575500D01*
X42915356Y-2575500D01*
X43084649Y-2575500D01*
X43251847Y-2549018D01*
X43255131Y-2547951D01*
X43412849Y-2496705D01*
X43563685Y-2419850D01*
X43700641Y-2320346D01*
X43711372Y-2309614D01*
X43772692Y-2276129D01*
X43809555Y-2278764D01*
X43809841Y-2275131D01*
X43866830Y-2279616D01*
X44600000Y-1546446D01*
X44600000Y-1552661D01*
X44627259Y-1654394D01*
X44679920Y-1745606D01*
X44754394Y-1820080D01*
X44845606Y-1872741D01*
X44947339Y-1900000D01*
X44953553Y-1900000D01*
X44220382Y-2633168D01*
X44279342Y-2676005D01*
X44472182Y-2774263D01*
X44472185Y-2774264D01*
X44678018Y-2841142D01*
X44891780Y-2875000D01*
X45108220Y-2875000D01*
X45321981Y-2841142D01*
X45527814Y-2774264D01*
X45527817Y-2774263D01*
X45720656Y-2676006D01*
X45779615Y-2633168D01*
X45779616Y-2633168D01*
X45046447Y-1900000D01*
X45052661Y-1900000D01*
X45154394Y-1872741D01*
X45245606Y-1820080D01*
X45320080Y-1745606D01*
X45372741Y-1654394D01*
X45400000Y-1552661D01*
X45400000Y-1546447D01*
X46133168Y-2279616D01*
X46133168Y-2279615D01*
X46176006Y-2220656D01*
X46274263Y-2027817D01*
X46274264Y-2027814D01*
X46341142Y-1821981D01*
X46375000Y-1608220D01*
X46375000Y-1391779D01*
X46341142Y-1178018D01*
X46274264Y-972185D01*
X46274263Y-972182D01*
X46176005Y-779342D01*
X46116460Y-697386D01*
X46092980Y-631580D01*
X46108805Y-563526D01*
X46158911Y-514831D01*
X46216778Y-500500D01*
X78934108Y-500500D01*
X78993038Y-500500D01*
X79006922Y-501280D01*
X79097266Y-511459D01*
X79124331Y-517636D01*
X79203540Y-545352D01*
X79228553Y-557398D01*
X79299606Y-602043D01*
X79321313Y-619355D01*
X79380644Y-678686D01*
X79397957Y-700395D01*
X79442600Y-771444D01*
X79454648Y-796462D01*
X79482362Y-875666D01*
X79488540Y-902735D01*
X79498720Y-993076D01*
X79499500Y-1006961D01*
X79499500Y-8074218D01*
X79479815Y-8141257D01*
X79427011Y-8187012D01*
X79357853Y-8196956D01*
X79294297Y-8167931D01*
X79256523Y-8109153D01*
X79255725Y-8106311D01*
X79233236Y-8022381D01*
X79147954Y-7816497D01*
X79147949Y-7816485D01*
X79036533Y-7623507D01*
X78985956Y-7557595D01*
X78985955Y-7557595D01*
X78221041Y-8322510D01*
X78196022Y-8262110D01*
X78124888Y-8155649D01*
X78034351Y-8065112D01*
X77927890Y-7993978D01*
X77867487Y-7968958D01*
X78632403Y-7204043D01*
X78632403Y-7204040D01*
X78566504Y-7153473D01*
X78566491Y-7153464D01*
X78373520Y-7042054D01*
X78373502Y-7042045D01*
X78167618Y-6956763D01*
X77952367Y-6899088D01*
X77952354Y-6899085D01*
X77731425Y-6870000D01*
X77508575Y-6870000D01*
X77287645Y-6899085D01*
X77287632Y-6899088D01*
X77072381Y-6956763D01*
X76866497Y-7042045D01*
X76866479Y-7042054D01*
X76673511Y-7153462D01*
X76607595Y-7204042D01*
X77372511Y-7968958D01*
X77312110Y-7993978D01*
X77205649Y-8065112D01*
X77115112Y-8155649D01*
X77043978Y-8262110D01*
X77018958Y-8322511D01*
X76254042Y-7557595D01*
X76203462Y-7623511D01*
X76092054Y-7816479D01*
X76092045Y-7816497D01*
X76006763Y-8022381D01*
X75949088Y-8237632D01*
X75949085Y-8237645D01*
X75920000Y-8458575D01*
X75920000Y-8681424D01*
X75949085Y-8902354D01*
X75949088Y-8902367D01*
X76006763Y-9117618D01*
X76092045Y-9323502D01*
X76092054Y-9323520D01*
X76203464Y-9516491D01*
X76203473Y-9516504D01*
X76254040Y-9582403D01*
X76254043Y-9582403D01*
X77018958Y-8817488D01*
X77043978Y-8877890D01*
X77115112Y-8984351D01*
X77205649Y-9074888D01*
X77312110Y-9146022D01*
X77372510Y-9171041D01*
X76607595Y-9935955D01*
X76607595Y-9935956D01*
X76673507Y-9986533D01*
X76866485Y-10097949D01*
X76866497Y-10097954D01*
X77072381Y-10183236D01*
X77287632Y-10240911D01*
X77287645Y-10240914D01*
X77508575Y-10270000D01*
X77731425Y-10270000D01*
X77952354Y-10240914D01*
X77952367Y-10240911D01*
X78167618Y-10183236D01*
X78373502Y-10097954D01*
X78373514Y-10097949D01*
X78566498Y-9986530D01*
X78632403Y-9935957D01*
X78632404Y-9935956D01*
X77867488Y-9171041D01*
X77927890Y-9146022D01*
X78034351Y-9074888D01*
X78124888Y-8984351D01*
X78196022Y-8877890D01*
X78221041Y-8817488D01*
X78985956Y-9582404D01*
X78985957Y-9582403D01*
X79036530Y-9516498D01*
X79147949Y-9323514D01*
X79147954Y-9323502D01*
X79233236Y-9117618D01*
X79255725Y-9033688D01*
X79292090Y-8974027D01*
X79354937Y-8943498D01*
X79424312Y-8951793D01*
X79478190Y-8996278D01*
X79499465Y-9062830D01*
X79499500Y-9065781D01*
X79499500Y-18993038D01*
X79498720Y-19006923D01*
X79488540Y-19097264D01*
X79482362Y-19124333D01*
X79454648Y-19203537D01*
X79442600Y-19228555D01*
X79397957Y-19299604D01*
X79380644Y-19321313D01*
X79321313Y-19380644D01*
X79299604Y-19397957D01*
X79228555Y-19442600D01*
X79203537Y-19454648D01*
X79124333Y-19482362D01*
X79097264Y-19488540D01*
X79017075Y-19497576D01*
X79006921Y-19498720D01*
X78993038Y-19499500D01*
X1006977Y-19499500D01*
X993091Y-19498720D01*
X977019Y-19496908D01*
X902742Y-19488538D01*
X875674Y-19482359D01*
X796471Y-19454644D01*
X771453Y-19442596D01*
X700402Y-19397951D01*
X678694Y-19380639D01*
X619360Y-19321305D01*
X602048Y-19299597D01*
X557403Y-19228546D01*
X545355Y-19203528D01*
X517640Y-19124325D01*
X511461Y-19097255D01*
X501280Y-19006908D01*
X500500Y-18993023D01*
X500500Y-8458575D01*
X15920000Y-8458575D01*
X15920000Y-8681424D01*
X15949085Y-8902354D01*
X15949088Y-8902367D01*
X16006763Y-9117618D01*
X16092045Y-9323502D01*
X16092054Y-9323520D01*
X16203464Y-9516491D01*
X16203473Y-9516504D01*
X16254040Y-9582403D01*
X16254043Y-9582403D01*
X17018958Y-8817488D01*
X17043978Y-8877890D01*
X17115112Y-8984351D01*
X17205649Y-9074888D01*
X17312110Y-9146022D01*
X17372510Y-9171041D01*
X16607595Y-9935955D01*
X16607595Y-9935956D01*
X16673507Y-9986533D01*
X16866485Y-10097949D01*
X16866497Y-10097954D01*
X17072381Y-10183236D01*
X17287632Y-10240911D01*
X17287645Y-10240914D01*
X17508575Y-10270000D01*
X17731425Y-10270000D01*
X17952354Y-10240914D01*
X17952367Y-10240911D01*
X18167618Y-10183236D01*
X18373502Y-10097954D01*
X18373514Y-10097949D01*
X18566498Y-9986530D01*
X18632403Y-9935957D01*
X18632404Y-9935956D01*
X17867488Y-9171041D01*
X17927890Y-9146022D01*
X18034351Y-9074888D01*
X18124888Y-8984351D01*
X18196022Y-8877890D01*
X18221041Y-8817488D01*
X18985956Y-9582404D01*
X18985957Y-9582403D01*
X19036530Y-9516498D01*
X19147949Y-9323514D01*
X19147954Y-9323502D01*
X19233236Y-9117618D01*
X19290911Y-8902367D01*
X19290914Y-8902354D01*
X19320000Y-8681424D01*
X19320000Y-8458575D01*
X35920000Y-8458575D01*
X35920000Y-8681424D01*
X35949085Y-8902354D01*
X35949088Y-8902367D01*
X36006763Y-9117618D01*
X36092045Y-9323502D01*
X36092054Y-9323520D01*
X36203464Y-9516491D01*
X36203473Y-9516504D01*
X36254040Y-9582403D01*
X36254043Y-9582403D01*
X37018958Y-8817487D01*
X37043978Y-8877890D01*
X37115112Y-8984351D01*
X37205649Y-9074888D01*
X37312110Y-9146022D01*
X37372510Y-9171041D01*
X36607595Y-9935955D01*
X36607595Y-9935956D01*
X36673507Y-9986533D01*
X36866485Y-10097949D01*
X36866497Y-10097954D01*
X37072381Y-10183236D01*
X37287632Y-10240911D01*
X37287645Y-10240914D01*
X37508575Y-10270000D01*
X37731425Y-10270000D01*
X37952354Y-10240914D01*
X37952367Y-10240911D01*
X38167618Y-10183236D01*
X38373502Y-10097954D01*
X38373514Y-10097949D01*
X38566498Y-9986530D01*
X38632403Y-9935957D01*
X38632404Y-9935956D01*
X37867488Y-9171041D01*
X37927890Y-9146022D01*
X38034351Y-9074888D01*
X38124888Y-8984351D01*
X38196022Y-8877890D01*
X38221041Y-8817488D01*
X38985956Y-9582404D01*
X38985957Y-9582403D01*
X39036530Y-9516498D01*
X39147949Y-9323514D01*
X39147954Y-9323502D01*
X39233236Y-9117618D01*
X39290911Y-8902367D01*
X39290914Y-8902354D01*
X39320000Y-8681424D01*
X39320000Y-8458575D01*
X55920000Y-8458575D01*
X55920000Y-8681424D01*
X55949085Y-8902354D01*
X55949088Y-8902367D01*
X56006763Y-9117618D01*
X56092045Y-9323502D01*
X56092054Y-9323520D01*
X56203464Y-9516491D01*
X56203473Y-9516504D01*
X56254040Y-9582403D01*
X56254043Y-9582403D01*
X57018958Y-8817487D01*
X57043978Y-8877890D01*
X57115112Y-8984351D01*
X57205649Y-9074888D01*
X57312110Y-9146022D01*
X57372510Y-9171041D01*
X56607595Y-9935955D01*
X56607595Y-9935956D01*
X56673507Y-9986533D01*
X56866485Y-10097949D01*
X56866497Y-10097954D01*
X57072381Y-10183236D01*
X57287632Y-10240911D01*
X57287645Y-10240914D01*
X57508575Y-10270000D01*
X57731425Y-10270000D01*
X57952354Y-10240914D01*
X57952367Y-10240911D01*
X58167618Y-10183236D01*
X58373502Y-10097954D01*
X58373514Y-10097949D01*
X58566498Y-9986530D01*
X58632403Y-9935957D01*
X58632404Y-9935956D01*
X57867488Y-9171041D01*
X57927890Y-9146022D01*
X58034351Y-9074888D01*
X58124888Y-8984351D01*
X58196022Y-8877890D01*
X58221041Y-8817488D01*
X58985956Y-9582404D01*
X58985957Y-9582403D01*
X59036530Y-9516498D01*
X59147949Y-9323514D01*
X59147954Y-9323502D01*
X59233236Y-9117618D01*
X59290911Y-8902367D01*
X59290914Y-8902354D01*
X59320000Y-8681424D01*
X59320000Y-8458575D01*
X59290914Y-8237645D01*
X59290911Y-8237632D01*
X59233236Y-8022381D01*
X59147954Y-7816497D01*
X59147949Y-7816485D01*
X59036533Y-7623507D01*
X58985956Y-7557595D01*
X58985955Y-7557595D01*
X58221041Y-8322510D01*
X58196022Y-8262110D01*
X58124888Y-8155649D01*
X58034351Y-8065112D01*
X57927890Y-7993978D01*
X57867487Y-7968958D01*
X58632403Y-7204043D01*
X58632403Y-7204041D01*
X58566504Y-7153473D01*
X58566491Y-7153464D01*
X58373520Y-7042054D01*
X58373502Y-7042045D01*
X58167618Y-6956763D01*
X57952367Y-6899088D01*
X57952354Y-6899085D01*
X57731425Y-6870000D01*
X57508575Y-6870000D01*
X57287645Y-6899085D01*
X57287632Y-6899088D01*
X57072381Y-6956763D01*
X56866497Y-7042045D01*
X56866479Y-7042054D01*
X56673511Y-7153462D01*
X56607595Y-7204042D01*
X57372511Y-7968958D01*
X57312110Y-7993978D01*
X57205649Y-8065112D01*
X57115112Y-8155649D01*
X57043978Y-8262110D01*
X57018958Y-8322511D01*
X56254042Y-7557595D01*
X56203462Y-7623511D01*
X56092054Y-7816479D01*
X56092045Y-7816497D01*
X56006763Y-8022381D01*
X55949088Y-8237632D01*
X55949085Y-8237645D01*
X55920000Y-8458575D01*
X39320000Y-8458575D01*
X39290914Y-8237645D01*
X39290911Y-8237632D01*
X39233236Y-8022381D01*
X39147954Y-7816497D01*
X39147949Y-7816485D01*
X39036533Y-7623507D01*
X38985956Y-7557595D01*
X38985955Y-7557595D01*
X38221041Y-8322510D01*
X38196022Y-8262110D01*
X38124888Y-8155649D01*
X38034351Y-8065112D01*
X37927890Y-7993978D01*
X37867487Y-7968958D01*
X38632403Y-7204043D01*
X38632403Y-7204040D01*
X38566504Y-7153473D01*
X38566491Y-7153464D01*
X38373520Y-7042054D01*
X38373502Y-7042045D01*
X38167618Y-6956763D01*
X37952367Y-6899088D01*
X37952354Y-6899085D01*
X37731425Y-6870000D01*
X37508575Y-6870000D01*
X37287645Y-6899085D01*
X37287632Y-6899088D01*
X37072381Y-6956763D01*
X36866497Y-7042045D01*
X36866479Y-7042054D01*
X36673511Y-7153462D01*
X36607595Y-7204042D01*
X37372511Y-7968958D01*
X37312110Y-7993978D01*
X37205649Y-8065112D01*
X37115112Y-8155649D01*
X37043978Y-8262110D01*
X37018958Y-8322511D01*
X36254042Y-7557595D01*
X36203462Y-7623511D01*
X36092054Y-7816479D01*
X36092045Y-7816497D01*
X36006763Y-8022381D01*
X35949088Y-8237632D01*
X35949085Y-8237645D01*
X35920000Y-8458575D01*
X19320000Y-8458575D01*
X19290914Y-8237645D01*
X19290911Y-8237632D01*
X19233236Y-8022381D01*
X19147954Y-7816497D01*
X19147949Y-7816485D01*
X19036533Y-7623507D01*
X18985956Y-7557595D01*
X18985955Y-7557595D01*
X18221041Y-8322510D01*
X18196022Y-8262110D01*
X18124888Y-8155649D01*
X18034351Y-8065112D01*
X17927890Y-7993978D01*
X17867487Y-7968958D01*
X18632403Y-7204043D01*
X18632403Y-7204041D01*
X18566504Y-7153473D01*
X18566491Y-7153464D01*
X18373520Y-7042054D01*
X18373502Y-7042045D01*
X18167618Y-6956763D01*
X17952367Y-6899088D01*
X17952354Y-6899085D01*
X17731425Y-6870000D01*
X17508575Y-6870000D01*
X17287645Y-6899085D01*
X17287632Y-6899088D01*
X17072381Y-6956763D01*
X16866497Y-7042045D01*
X16866479Y-7042054D01*
X16673511Y-7153462D01*
X16607595Y-7204042D01*
X17372511Y-7968958D01*
X17312110Y-7993978D01*
X17205649Y-8065112D01*
X17115112Y-8155649D01*
X17043978Y-8262110D01*
X17018958Y-8322511D01*
X16254042Y-7557595D01*
X16203462Y-7623511D01*
X16092054Y-7816479D01*
X16092045Y-7816497D01*
X16006763Y-8022381D01*
X15949088Y-8237632D01*
X15949085Y-8237645D01*
X15920000Y-8458575D01*
X500500Y-8458575D01*
X500500Y-2109778D01*
X8599500Y-2109778D01*
X8599500Y-2330222D01*
X8613223Y-2416867D01*
X8633985Y-2547952D01*
X8702103Y-2757603D01*
X8702104Y-2757606D01*
X8761921Y-2875000D01*
X8801641Y-2952955D01*
X8802187Y-2954025D01*
X8931752Y-3132358D01*
X8931756Y-3132363D01*
X9087636Y-3288243D01*
X9087641Y-3288247D01*
X9211162Y-3377989D01*
X9265978Y-3417815D01*
X9383098Y-3477491D01*
X9462393Y-3517895D01*
X9462396Y-3517896D01*
X9546776Y-3545312D01*
X9672049Y-3586015D01*
X9889778Y-3620500D01*
X9889779Y-3620500D01*
X10110221Y-3620500D01*
X10110222Y-3620500D01*
X10327951Y-3586015D01*
X10537606Y-3517895D01*
X10734022Y-3417815D01*
X10912365Y-3288242D01*
X11068242Y-3132365D01*
X11197815Y-2954022D01*
X11281112Y-2790543D01*
X11329086Y-2739749D01*
X11396907Y-2722954D01*
X11463042Y-2745492D01*
X11479277Y-2759159D01*
X13496981Y-4776863D01*
X13530466Y-4838186D01*
X13533300Y-4864544D01*
X13533300Y-4883891D01*
X13567408Y-5011187D01*
X13600354Y-5068250D01*
X13633300Y-5125314D01*
X13726486Y-5218500D01*
X13840614Y-5284392D01*
X13967908Y-5318500D01*
X13967910Y-5318500D01*
X14099690Y-5318500D01*
X14099692Y-5318500D01*
X14226986Y-5284392D01*
X14341114Y-5218500D01*
X14434300Y-5125314D01*
X14500192Y-5011186D01*
X14534300Y-4883892D01*
X14534300Y-4752108D01*
X14500192Y-4624814D01*
X14434300Y-4510686D01*
X14341114Y-4417500D01*
X14250180Y-4364999D01*
X14226987Y-4351608D01*
X14163339Y-4334554D01*
X14099692Y-4317500D01*
X14099691Y-4317500D01*
X14080344Y-4317500D01*
X14013305Y-4297815D01*
X13992663Y-4281181D01*
X11651013Y-1939531D01*
X11651008Y-1939527D01*
X11571104Y-1893395D01*
X11571103Y-1893394D01*
X11571088Y-1893386D01*
X11566098Y-1892049D01*
X11481944Y-1869500D01*
X11437757Y-1869500D01*
X11426908Y-1867556D01*
X11405110Y-1856677D01*
X11381741Y-1849815D01*
X11374410Y-1841355D01*
X11364392Y-1836355D01*
X11351936Y-1815418D01*
X11335986Y-1797011D01*
X11330849Y-1783817D01*
X11297897Y-1682399D01*
X11297895Y-1682393D01*
X11231792Y-1552661D01*
X11197815Y-1485978D01*
X11169742Y-1447339D01*
X11068247Y-1307641D01*
X11068243Y-1307636D01*
X10912363Y-1151756D01*
X10912358Y-1151752D01*
X10734025Y-1022187D01*
X10734024Y-1022186D01*
X10734022Y-1022185D01*
X10635887Y-972182D01*
X10537606Y-922104D01*
X10537603Y-922103D01*
X10327952Y-853985D01*
X10219086Y-836742D01*
X10110222Y-819500D01*
X9889778Y-819500D01*
X9817201Y-830995D01*
X9672047Y-853985D01*
X9462396Y-922103D01*
X9462393Y-922104D01*
X9265974Y-1022187D01*
X9087641Y-1151752D01*
X9087636Y-1151756D01*
X8931756Y-1307636D01*
X8931752Y-1307641D01*
X8802187Y-1485974D01*
X8702104Y-1682393D01*
X8702103Y-1682396D01*
X8633985Y-1892047D01*
X8621439Y-1971260D01*
X8599500Y-2109778D01*
X500500Y-2109778D01*
X500500Y-1006976D01*
X501280Y-993091D01*
X505325Y-957199D01*
X511461Y-902739D01*
X517640Y-875674D01*
X517643Y-875666D01*
X545359Y-796462D01*
X557399Y-771459D01*
X602052Y-700396D01*
X619356Y-678698D01*
X678700Y-619355D01*
X700396Y-602052D01*
X771459Y-557399D01*
X796466Y-545356D01*
X875677Y-517639D01*
X902739Y-511461D01*
X970274Y-503851D01*
X993092Y-501280D01*
X1006977Y-500500D01*
X34179151Y-500500D01*
X34246190Y-520185D01*
G37*
%TD.AperFunction*%
%TD*%
M02*
