<?xml version="1.0" encoding="UTF-8" standalone="no"?>
<!DOCTYPE svg PUBLIC "-//W3C//DTD SVG 1.1//EN" "http://www.w3.org/Graphics/SVG/1.1/DTD/svg11.dtd">
<svg width="100%" height="100%" viewBox="0 0 851 851" version="1.1" xmlns="http://www.w3.org/2000/svg" xmlns:xlink="http://www.w3.org/1999/xlink" xml:space="preserve" xmlns:serif="http://www.serif.com/" style="fill-rule:evenodd;clip-rule:evenodd;">
    <g transform="matrix(1.4662,0,0,1.51856,14.662,27.3341)">
        <text x="0px" y="0px" style="font-family:'Arial-BoldMT', 'Arial', sans-serif;font-weight:700;font-size:14px;fill:rgb(34,34,34);">MIXTEE — T<tspan x="81.409px 89.961px " y="0px 0px ">op</tspan> Panel</text>
    </g>
    <g transform="matrix(1.4662,0,0,1.51856,14.662,45.5568)">
        <text x="0px" y="0px" style="font-family:'ArialMT', 'Arial', sans-serif;font-size:9px;fill:rgb(85,85,85);">260 × 84.6 mm (W × D) — 2 px/mm — Back edge at top</text>
    </g>
    <g transform="matrix(1.4662,0,0,1.51856,14.662,63.7795)">
        <g transform="matrix(0.966667,0,0,1.10454,0,0)">
            <rect x="0" y="0" width="520" height="169" style="fill:rgb(250,250,250);stroke:rgb(51,51,51);stroke-width:1.5px;"/>
        </g>
        <g transform="matrix(1,0,0,1,94.3797,100.551)">
            <circle cx="30" cy="50" r="12" style="fill:rgb(136,136,136);stroke:rgb(51,51,51);stroke-width:0.6px;"/>
            <circle cx="30" cy="50" r="3" style="fill:rgb(85,85,85);"/>
            <g transform="matrix(1,0,0,1,30,68)">
                <text x="-7.947px" y="0px" style="font-family:'ArialMT', 'Arial', sans-serif;font-size:6.5px;fill:rgb(51,51,51);">NavY</text>
                <g transform="matrix(3.95111,0,0,3.95111,6.0376,3.95111)">
                </g>
                <text x="-6.038px" y="3.951px" style="font-family:'ArialMT', 'Arial', sans-serif;font-size:3.951px;fill:rgb(51,51,51);">(Enter)</text>
            </g>
        </g>
        <g transform="matrix(1,0,0,1,260,-4)">
            <text x="-20.422px" y="0px" style="font-family:'Arial-ItalicMT', 'Arial', sans-serif;font-style:italic;font-size:7px;fill:rgb(136,136,136);">BACK EDGE</text>
        </g>
        <g transform="matrix(1,0,0,1,259.204,202.255)">
            <text x="-22.945px" y="0px" style="font-family:'Arial-ItalicMT', 'Arial', sans-serif;font-style:italic;font-size:7px;fill:rgb(136,136,136);">FRONT EDGE</text>
        </g>
        <g transform="matrix(0.966667,0,0,1,1.77636e-14,0)">
            <path d="M0,-10L520,-10" style="fill:none;fill-rule:nonzero;stroke:rgb(170,170,170);stroke-width:0.4px;"/>
        </g>
        <g transform="matrix(1,0,0,1,260,-14)">
            <text x="-12.643px" y="0px" style="font-family:'Arial-ItalicMT', 'Arial', sans-serif;font-style:italic;font-size:7px;fill:rgb(136,136,136);">260 mm</text>
        </g>
        <g transform="matrix(1,0,0,1.10454,0,-1.42109e-14)">
            <path d="M534,0L534,169" style="fill:none;fill-rule:nonzero;stroke:rgb(170,170,170);stroke-width:0.4px;"/>
        </g>
        <g transform="matrix(-3.82857e-16,1,-1,-3.82857e-16,548,85)">
            <text x="-12.643px" y="0px" style="font-family:'Arial-ItalicMT', 'Arial', sans-serif;font-style:italic;font-size:7px;fill:rgb(136,136,136);">100 mm</text>
        </g>
        <g transform="matrix(1,0,0,1,20.4374,100.551)">
            <circle cx="30" cy="50" r="12" style="fill:rgb(136,136,136);stroke:rgb(51,51,51);stroke-width:0.6px;"/>
            <circle cx="30" cy="50" r="3" style="fill:rgb(85,85,85);"/>
            <g transform="matrix(1,0,0,1,30,68)">
                <text x="-7.947px" y="0px" style="font-family:'ArialMT', 'Arial', sans-serif;font-size:6.5px;fill:rgb(51,51,51);">NavX</text>
                <g transform="matrix(3.95111,0,0,3.95111,5.7077,3.95111)">
                </g>
                <text x="-5.708px" y="3.951px" style="font-family:'ArialMT', 'Arial', sans-serif;font-size:3.951px;fill:rgb(51,51,51);">(Back)</text>
            </g>
        </g>
        <g transform="matrix(1,0,0,1,165.549,42.551)">
            <circle cx="30" cy="108" r="12" style="fill:rgb(136,136,136);stroke:rgb(51,51,51);stroke-width:0.6px;"/>
            <circle cx="30" cy="108" r="3" style="fill:rgb(85,85,85);"/>
            <g transform="matrix(1,0,0,1,30,126)">
                <text x="-5.6px" y="0px" style="font-family:'ArialMT', 'Arial', sans-serif;font-size:6.5px;fill:rgb(51,51,51);">Edit</text>
                <g transform="matrix(3.95111,0,0,3.95111,6.25753,3.95111)">
                </g>
                <text x="-6.258px" y="3.951px" style="font-family:'ArialMT', 'Arial', sans-serif;font-size:3.951px;fill:rgb(51,51,51);">(Menu)</text>
            </g>
        </g>
        <g transform="matrix(1,0,0,1,-19.8019,-4.85855)">
            <g transform="matrix(1,0,0,1,1.18154,-6.10192)">
                <rect x="50" y="29" width="186" height="112" style="fill:rgb(26,42,58);stroke:rgb(51,51,51);stroke-width:0.8px;"/>
            </g>
            <g transform="matrix(1,0,0,1,143,82)">
                <text x="-17.886px" y="0px" style="font-family:'Arial-BoldMT', 'Arial', sans-serif;font-weight:700;font-size:9px;fill:rgb(68,170,136);">4.3&quot; TFT</text>
            </g>
            <g transform="matrix(1,0,0,1,143,96)">
                <text x="-15.924px" y="0px" style="font-family:'ArialMT', 'Arial', sans-serif;font-size:6px;fill:rgb(102,170,187);">93 × 56 mm</text>
            </g>
            <g transform="matrix(1,0,0,1,143,108)">
                <text x="-24.844px" y="0px" style="font-family:'ArialMT', 'Arial', sans-serif;font-size:5.5px;fill:rgb(85,136,153);">480 × 272 (RA8875)</text>
            </g>
        </g>
        <g transform="matrix(1,0,0,1,-3.54051,-10.9605)">
            <rect x="250" y="29" width="32" height="32" style="fill:rgb(232,224,216);stroke:rgb(153,153,153);stroke-width:0.5px;"/>
        </g>
        <g transform="matrix(1,0,0,1,262.459,37.0395)">
            <text x="-5.002px" y="0px" style="font-family:'ArialMT', 'Arial', sans-serif;font-size:4.5px;fill:rgb(68,68,68);">Mute</text>
        </g>
        <g transform="matrix(1,0,0,1,-3.54051,-10.9605)">
            <rect x="286" y="29" width="32" height="32" style="fill:rgb(232,224,216);stroke:rgb(153,153,153);stroke-width:0.5px;"/>
        </g>
        <g transform="matrix(1,0,0,1,298.459,37.0395)">
            <text x="-4.503px" y="0px" style="font-family:'ArialMT', 'Arial', sans-serif;font-size:4.5px;fill:rgb(68,68,68);">Solo</text>
        </g>
        <g transform="matrix(1,0,0,1,-3.54051,-10.9605)">
            <rect x="322" y="29" width="32" height="32" style="fill:rgb(232,224,216);stroke:rgb(153,153,153);stroke-width:0.5px;"/>
        </g>
        <g transform="matrix(1,0,0,1,334.459,37.0395)">
            <text x="-4.001px" y="0px" style="font-family:'ArialMT', 'Arial', sans-serif;font-size:4.5px;fill:rgb(68,68,68);">Rec</text>
        </g>
        <g transform="matrix(1,0,0,1,-3.54051,-10.9605)">
            <rect x="358" y="29" width="32" height="32" style="fill:rgb(232,224,216);stroke:rgb(153,153,153);stroke-width:0.5px;"/>
        </g>
        <g transform="matrix(1,0,0,1,370.459,37.0395)">
            <text x="-1.499px" y="0px" style="font-family:'ArialMT', 'Arial', sans-serif;font-size:4.5px;fill:rgb(170,170,170);">--</text>
        </g>
        <g transform="matrix(1,0,0,1,-3.54051,25.91)">
            <rect x="250" y="65" width="32" height="32" style="fill:rgb(232,224,216);stroke:rgb(153,153,153);stroke-width:0.5px;"/>
        </g>
        <g transform="matrix(1,0,0,1,262.459,109.91)">
            <text x="-1.499px" y="0px" style="font-family:'ArialMT', 'Arial', sans-serif;font-size:4.5px;fill:rgb(170,170,170);">--</text>
        </g>
        <g transform="matrix(1,0,0,1,-3.54051,25.91)">
            <rect x="286" y="65" width="32" height="32" style="fill:rgb(232,224,216);stroke:rgb(153,153,153);stroke-width:0.5px;"/>
        </g>
        <g transform="matrix(1,0,0,1,298.459,109.91)">
            <text x="-1.499px" y="0px" style="font-family:'ArialMT', 'Arial', sans-serif;font-size:4.5px;fill:rgb(170,170,170);">--</text>
        </g>
        <g transform="matrix(1,0,0,1,-3.54051,25.91)">
            <rect x="322" y="65" width="32" height="32" style="fill:rgb(232,224,216);stroke:rgb(153,153,153);stroke-width:0.5px;"/>
        </g>
        <g transform="matrix(1,0,0,1,334.459,109.91)">
            <text x="-1.499px" y="0px" style="font-family:'ArialMT', 'Arial', sans-serif;font-size:4.5px;fill:rgb(170,170,170);">--</text>
        </g>
        <g transform="matrix(1,0,0,1,-3.54051,25.91)">
            <rect x="358" y="65" width="32" height="32" style="fill:rgb(232,224,216);stroke:rgb(153,153,153);stroke-width:0.5px;"/>
        </g>
        <g transform="matrix(1,0,0,1,370.459,109.91)">
            <text x="-1.499px" y="0px" style="font-family:'ArialMT', 'Arial', sans-serif;font-size:4.5px;fill:rgb(170,170,170);">--</text>
        </g>
        <g transform="matrix(1,0,0,1,-3.54051,-11.2038)">
            <rect x="250" y="65" width="32" height="32" style="fill:rgb(232,224,216);stroke:rgb(153,153,153);stroke-width:0.5px;"/>
        </g>
        <g transform="matrix(1,0,0,1,262.459,72.7962)">
            <text x="-1.499px" y="0px" style="font-family:'ArialMT', 'Arial', sans-serif;font-size:4.5px;fill:rgb(170,170,170);">--</text>
        </g>
        <g transform="matrix(1,0,0,1,-3.54051,-11.2038)">
            <rect x="286" y="65" width="32" height="32" style="fill:rgb(232,224,216);stroke:rgb(153,153,153);stroke-width:0.5px;"/>
        </g>
        <g transform="matrix(1,0,0,1,298.459,72.7962)">
            <text x="-1.499px" y="0px" style="font-family:'ArialMT', 'Arial', sans-serif;font-size:4.5px;fill:rgb(170,170,170);">--</text>
        </g>
        <g transform="matrix(1,0,0,1,-3.54051,-11.2038)">
            <rect x="322" y="65" width="32" height="32" style="fill:rgb(232,224,216);stroke:rgb(153,153,153);stroke-width:0.5px;"/>
        </g>
        <g transform="matrix(1,0,0,1,334.459,72.7962)">
            <text x="-1.499px" y="0px" style="font-family:'ArialMT', 'Arial', sans-serif;font-size:4.5px;fill:rgb(170,170,170);">--</text>
        </g>
        <g transform="matrix(1,0,0,1,-3.54051,-11.2038)">
            <rect x="358" y="65" width="32" height="32" style="fill:rgb(232,224,216);stroke:rgb(153,153,153);stroke-width:0.5px;"/>
        </g>
        <g transform="matrix(1,0,0,1,370.459,72.7962)">
            <text x="-1.499px" y="0px" style="font-family:'ArialMT', 'Arial', sans-serif;font-size:4.5px;fill:rgb(170,170,170);">--</text>
        </g>
        <g transform="matrix(1,0,0,1,-3.54051,25.91)">
            <rect x="250" y="101" width="32" height="32" style="fill:rgb(232,224,216);stroke:rgb(153,153,153);stroke-width:0.5px;"/>
        </g>
        <g transform="matrix(1,0,0,1,262.459,145.91)">
            <text x="-6.002px" y="0px" style="font-family:'ArialMT', 'Arial', sans-serif;font-size:4.5px;fill:rgb(68,68,68);">Home</text>
        </g>
        <g transform="matrix(1,0,0,1,-3.54051,25.91)">
            <rect x="286" y="101" width="32" height="32" style="fill:rgb(232,224,216);stroke:rgb(153,153,153);stroke-width:0.5px;"/>
        </g>
        <g transform="matrix(1,0,0,1,298.459,145.91)">
            <text x="-5.002px" y="0px" style="font-family:'ArialMT', 'Arial', sans-serif;font-size:4.5px;fill:rgb(68,68,68);">Back</text>
        </g>
        <g transform="matrix(1,0,0,1,-3.54051,25.91)">
            <rect x="322" y="101" width="32" height="32" style="fill:rgb(232,224,216);stroke:rgb(153,153,153);stroke-width:0.5px;"/>
        </g>
        <g transform="matrix(1,0,0,1,334.459,145.91)">
            <text x="-5.255px" y="0px" style="font-family:'ArialMT', 'Arial', sans-serif;font-size:4.5px;fill:rgb(68,68,68);">Page</text>
        </g>
        <g transform="matrix(1,0,0,1,-3.54051,25.91)">
            <rect x="358" y="101" width="32" height="32" style="fill:rgb(232,224,216);stroke:rgb(153,153,153);stroke-width:0.5px;"/>
        </g>
        <g transform="matrix(1,0,0,1,370.459,145.91)">
            <text x="-4.502px" y="0px" style="font-family:'ArialMT', 'Arial', sans-serif;font-size:4.5px;fill:rgb(68,68,68);">Shift</text>
        </g>
        <g transform="matrix(-0.00387395,0.96551,-1.03571,-0.00387395,73.2047,-340.929)">
            <g transform="matrix(1,0,0,0.270312,0,39.774)">
                <rect x="415" y="35" width="30" height="20" style="fill:rgb(192,184,168);stroke:rgb(85,85,85);stroke-width:0.6px;"/>
            </g>
            <g transform="matrix(1,0,0,1,430,62)">
                <text x="-12.462px" y="0px" style="font-family:'ArialMT', 'Arial', sans-serif;font-size:6.5px;fill:rgb(51,51,51);">SD Card</text>
            </g>
        </g>
        <g transform="matrix(1,0,0,1,-15.5062,-46.7034)">
            <circle cx="430" cy="81" r="10" style="fill:rgb(170,170,170);stroke:rgb(51,51,51);stroke-width:0.6px;"/>
            <circle cx="430" cy="81" r="2" style="fill:rgb(102,102,102);"/>
            <g transform="matrix(1,0,0,1,-6.83913,4.51689)">
                <path d="M430,73L434,75" style="fill:none;fill-rule:nonzero;stroke:rgb(85,85,85);stroke-width:1px;"/>
            </g>
            <g transform="matrix(1,0,0,1,429.688,98.3363)">
                <text x="-4.518px" y="0px" style="font-family:'ArialMT', 'Arial', sans-serif;font-size:6.5px;fill:rgb(51,51,51);">V<tspan x="-0.541px 3.074px " y="0px 0px ">ol</tspan></text>
            </g>
        </g>
        <g transform="matrix(1,0,0,1,-15.3677,-47.5715)">
            <circle cx="430" cy="117" r="9" style="fill:rgb(174,174,174);stroke:rgb(34,34,34);stroke-width:0.6px;"/>
            <g transform="matrix(2.42227,0,0,2.42227,-611.575,-166.405)">
                <circle cx="430" cy="117" r="3" style="fill:rgb(68,68,68);"/>
            </g>
            <g transform="matrix(0.73399,0,0,0.73399,430.037,131.052)">
                <g transform="matrix(6.5,0,0,6.5,13.7252,0)">
                </g>
                <text x="-13.725px" y="0px" style="font-family:'ArialMT', 'Arial', sans-serif;font-size:6.5px;fill:rgb(51,51,51);">PHONES</text>
            </g>
        </g>
    </g>
    <g transform="matrix(1.4662,0,0,1.51856,14.662,496.589)">
        <text x="0px" y="0px" style="font-family:'Arial-BoldMT', 'Arial', sans-serif;font-weight:700;font-size:14px;fill:rgb(34,34,34);">Back Panel — Inputs + Outputs</text>
    </g>
    <g transform="matrix(1.4662,0,0,1.51856,14.662,514.812)">
        <text x="0px" y="0px" style="font-family:'ArialMT', 'Arial', sans-serif;font-size:9px;fill:rgb(85,85,85);">260 × 50 mm (W × H) — 12 evenly spaced pairs, labeling only</text>
    </g>
    <g transform="matrix(1.4662,0,0,1.51856,14.662,416.085)">
        <g transform="matrix(1,0,0,1,0,75.0132)">
            <rect x="0" y="0" width="520" height="100" style="fill:rgb(250,250,250);stroke:rgb(51,51,51);stroke-width:1.5px;"/>
        </g>
        <g transform="matrix(1,0,0,1,17.8053,121.412)">
            <text x="0px" y="0px" style="font-family:'ArialMT', 'Arial', sans-serif;font-size:5.5px;fill:rgb(136,136,136);">L</text>
        </g>
        <g transform="matrix(1,0,0,1,17.8053,149.412)">
            <text x="0px" y="0px" style="font-family:'ArialMT', 'Arial', sans-serif;font-size:5.5px;fill:rgb(136,136,136);">R</text>
        </g>
        <g transform="matrix(1,0,0,1,-0.194695,82.4116)">
            <circle cx="40" cy="36" r="8" style="fill:rgb(68,68,68);stroke:rgb(34,34,34);stroke-width:0.6px;"/>
        </g>
        <g transform="matrix(1,0,0,1,-0.194695,82.4116)">
            <circle cx="40" cy="36" r="2.5" style="fill:rgb(34,34,34);"/>
        </g>
        <g transform="matrix(1,0,0,1,-0.194695,82.4116)">
            <circle cx="40" cy="64" r="8" style="fill:rgb(68,68,68);stroke:rgb(34,34,34);stroke-width:0.6px;"/>
        </g>
        <g transform="matrix(1,0,0,1,-0.194695,82.4116)">
            <circle cx="40" cy="64" r="2.5" style="fill:rgb(34,34,34);"/>
        </g>
        <g transform="matrix(1,0,0,1,79.8092,165.02)">
            <text x="-8.49px" y="0px" style="font-family:'ArialMT', 'Arial', sans-serif;font-size:6.5px;fill:rgb(51,51,51);">AUX1</text>
        </g>
        <g transform="matrix(1,0,0,1,-0.194695,82.4116)">
            <circle cx="80" cy="36" r="8" style="fill:rgb(68,68,68);stroke:rgb(34,34,34);stroke-width:0.6px;"/>
        </g>
        <g transform="matrix(1,0,0,1,-0.194695,82.4116)">
            <circle cx="80" cy="36" r="2.5" style="fill:rgb(34,34,34);"/>
        </g>
        <g transform="matrix(1,0,0,1,-0.194695,82.4116)">
            <circle cx="80" cy="64" r="8" style="fill:rgb(68,68,68);stroke:rgb(34,34,34);stroke-width:0.6px;"/>
        </g>
        <g transform="matrix(1,0,0,1,-0.194695,82.4116)">
            <circle cx="80" cy="64" r="2.5" style="fill:rgb(34,34,34);"/>
        </g>
        <g transform="matrix(1,0,0,1,119.809,165.02)">
            <text x="-8.49px" y="0px" style="font-family:'ArialMT', 'Arial', sans-serif;font-size:6.5px;fill:rgb(51,51,51);">AUX2</text>
        </g>
        <g transform="matrix(1,0,0,1,-0.194695,82.4116)">
            <circle cx="120" cy="36" r="8" style="fill:rgb(68,68,68);stroke:rgb(34,34,34);stroke-width:0.6px;"/>
        </g>
        <g transform="matrix(1,0,0,1,-0.194695,82.4116)">
            <circle cx="120" cy="36" r="2.5" style="fill:rgb(34,34,34);"/>
        </g>
        <g transform="matrix(1,0,0,1,-0.194695,82.4116)">
            <circle cx="120" cy="64" r="8" style="fill:rgb(68,68,68);stroke:rgb(34,34,34);stroke-width:0.6px;"/>
        </g>
        <g transform="matrix(1,0,0,1,-0.194695,82.4116)">
            <circle cx="120" cy="64" r="2.5" style="fill:rgb(34,34,34);"/>
        </g>
        <g transform="matrix(1,0,0,1,159.809,165.02)">
            <text x="-8.49px" y="0px" style="font-family:'ArialMT', 'Arial', sans-serif;font-size:6.5px;fill:rgb(51,51,51);">AUX3</text>
        </g>
        <g transform="matrix(1,0,0,1,-0.194695,82.4116)">
            <circle cx="160" cy="36" r="8" style="fill:rgb(68,68,68);stroke:rgb(34,34,34);stroke-width:0.6px;"/>
        </g>
        <g transform="matrix(1,0,0,1,-0.194695,82.4116)">
            <circle cx="160" cy="36" r="2.5" style="fill:rgb(34,34,34);"/>
        </g>
        <g transform="matrix(1,0,0,1,-0.194695,82.4116)">
            <circle cx="160" cy="64" r="8" style="fill:rgb(68,68,68);stroke:rgb(34,34,34);stroke-width:0.6px;"/>
        </g>
        <g transform="matrix(1,0,0,1,-0.194695,82.4116)">
            <circle cx="160" cy="64" r="2.5" style="fill:rgb(34,34,34);"/>
        </g>
        <g transform="matrix(1,0,0,1,39.1853,165.026)">
            <text x="-10.477px" y="0px" style="font-family:'Arial-BoldMT', 'Arial', sans-serif;font-weight:700;font-size:6.5px;fill:rgb(51,51,51);">Master</text>
        </g>
        <g transform="matrix(1,0,0,1,-0.194695,82.4116)">
            <circle cx="200" cy="36" r="8" style="fill:rgb(68,68,68);stroke:rgb(34,34,34);stroke-width:0.6px;"/>
        </g>
        <g transform="matrix(1,0,0,1,-0.194695,82.4116)">
            <circle cx="200" cy="36" r="2.5" style="fill:rgb(34,34,34);"/>
        </g>
        <g transform="matrix(1,0,0,1,-0.194695,82.4116)">
            <circle cx="200" cy="64" r="8" style="fill:rgb(68,68,68);stroke:rgb(34,34,34);stroke-width:0.6px;"/>
        </g>
        <g transform="matrix(1,0,0,1,-0.194695,82.4116)">
            <circle cx="200" cy="64" r="2.5" style="fill:rgb(34,34,34);"/>
        </g>
        <g transform="matrix(1,0,0,1,199.805,164.412)">
            <text x="-8.133px" y="0px" style="font-family:'ArialMT', 'Arial', sans-serif;font-size:6.5px;fill:rgb(51,51,51);">15/16</text>
        </g>
        <g transform="matrix(1,0,0,1,-0.194695,82.4116)">
            <circle cx="240" cy="36" r="8" style="fill:rgb(68,68,68);stroke:rgb(34,34,34);stroke-width:0.6px;"/>
        </g>
        <g transform="matrix(1,0,0,1,-0.194695,82.4116)">
            <circle cx="240" cy="36" r="2.5" style="fill:rgb(34,34,34);"/>
        </g>
        <g transform="matrix(1,0,0,1,-0.194695,82.4116)">
            <circle cx="240" cy="64" r="8" style="fill:rgb(68,68,68);stroke:rgb(34,34,34);stroke-width:0.6px;"/>
        </g>
        <g transform="matrix(1,0,0,1,-0.194695,82.4116)">
            <circle cx="240" cy="64" r="2.5" style="fill:rgb(34,34,34);"/>
        </g>
        <g transform="matrix(1,0,0,1,239.805,164.412)">
            <text x="-8.133px" y="0px" style="font-family:'ArialMT', 'Arial', sans-serif;font-size:6.5px;fill:rgb(51,51,51);">13/14</text>
        </g>
        <g transform="matrix(1,0,0,1,-0.194695,82.4116)">
            <circle cx="280" cy="36" r="8" style="fill:rgb(68,68,68);stroke:rgb(34,34,34);stroke-width:0.6px;"/>
        </g>
        <g transform="matrix(1,0,0,1,-0.194695,82.4116)">
            <circle cx="280" cy="36" r="2.5" style="fill:rgb(34,34,34);"/>
        </g>
        <g transform="matrix(1,0,0,1,-0.194695,82.4116)">
            <circle cx="280" cy="64" r="8" style="fill:rgb(68,68,68);stroke:rgb(34,34,34);stroke-width:0.6px;"/>
        </g>
        <g transform="matrix(1,0,0,1,-0.194695,82.4116)">
            <circle cx="280" cy="64" r="2.5" style="fill:rgb(34,34,34);"/>
        </g>
        <g transform="matrix(1,0,0,1,279.805,164.412)">
            <text x="-7.892px" y="0px" style="font-family:'ArialMT', 'Arial', sans-serif;font-size:6.5px;fill:rgb(51,51,51);">1<tspan x="-4.759px -1.144px " y="0px 0px ">1/</tspan>12</text>
        </g>
        <g transform="matrix(1,0,0,1,-0.194695,82.4116)">
            <circle cx="320" cy="36" r="8" style="fill:rgb(68,68,68);stroke:rgb(34,34,34);stroke-width:0.6px;"/>
        </g>
        <g transform="matrix(1,0,0,1,-0.194695,82.4116)">
            <circle cx="320" cy="36" r="2.5" style="fill:rgb(34,34,34);"/>
        </g>
        <g transform="matrix(1,0,0,1,-0.194695,82.4116)">
            <circle cx="320" cy="64" r="8" style="fill:rgb(68,68,68);stroke:rgb(34,34,34);stroke-width:0.6px;"/>
        </g>
        <g transform="matrix(1,0,0,1,-0.194695,82.4116)">
            <circle cx="320" cy="64" r="2.5" style="fill:rgb(34,34,34);"/>
        </g>
        <g transform="matrix(1,0,0,1,319.805,164.412)">
            <text x="-6.325px" y="0px" style="font-family:'ArialMT', 'Arial', sans-serif;font-size:6.5px;fill:rgb(51,51,51);">9/10</text>
        </g>
        <g transform="matrix(1,0,0,1,-0.194695,82.4116)">
            <circle cx="360" cy="36" r="8" style="fill:rgb(68,68,68);stroke:rgb(34,34,34);stroke-width:0.6px;"/>
        </g>
        <g transform="matrix(1,0,0,1,-0.194695,82.4116)">
            <circle cx="360" cy="36" r="2.5" style="fill:rgb(34,34,34);"/>
        </g>
        <g transform="matrix(1,0,0,1,-0.194695,82.4116)">
            <circle cx="360" cy="64" r="8" style="fill:rgb(68,68,68);stroke:rgb(34,34,34);stroke-width:0.6px;"/>
        </g>
        <g transform="matrix(1,0,0,1,-0.194695,82.4116)">
            <circle cx="360" cy="64" r="2.5" style="fill:rgb(34,34,34);"/>
        </g>
        <g transform="matrix(1,0,0,1,359.805,164.412)">
            <text x="-4.518px" y="0px" style="font-family:'ArialMT', 'Arial', sans-serif;font-size:6.5px;fill:rgb(51,51,51);">7/8</text>
        </g>
        <g transform="matrix(1,0,0,1,-0.194695,82.4116)">
            <circle cx="400" cy="36" r="8" style="fill:rgb(68,68,68);stroke:rgb(34,34,34);stroke-width:0.6px;"/>
        </g>
        <g transform="matrix(1,0,0,1,-0.194695,82.4116)">
            <circle cx="400" cy="36" r="2.5" style="fill:rgb(34,34,34);"/>
        </g>
        <g transform="matrix(1,0,0,1,-0.194695,82.4116)">
            <circle cx="400" cy="64" r="8" style="fill:rgb(68,68,68);stroke:rgb(34,34,34);stroke-width:0.6px;"/>
        </g>
        <g transform="matrix(1,0,0,1,-0.194695,82.4116)">
            <circle cx="400" cy="64" r="2.5" style="fill:rgb(34,34,34);"/>
        </g>
        <g transform="matrix(1,0,0,1,399.805,164.412)">
            <text x="-4.518px" y="0px" style="font-family:'ArialMT', 'Arial', sans-serif;font-size:6.5px;fill:rgb(51,51,51);">5/6</text>
        </g>
        <g transform="matrix(1,0,0,1,-0.194695,82.4116)">
            <circle cx="440" cy="36" r="8" style="fill:rgb(68,68,68);stroke:rgb(34,34,34);stroke-width:0.6px;"/>
        </g>
        <g transform="matrix(1,0,0,1,-0.194695,82.4116)">
            <circle cx="440" cy="36" r="2.5" style="fill:rgb(34,34,34);"/>
        </g>
        <g transform="matrix(1,0,0,1,-0.194695,82.4116)">
            <circle cx="440" cy="64" r="8" style="fill:rgb(68,68,68);stroke:rgb(34,34,34);stroke-width:0.6px;"/>
        </g>
        <g transform="matrix(1,0,0,1,-0.194695,82.4116)">
            <circle cx="440" cy="64" r="2.5" style="fill:rgb(34,34,34);"/>
        </g>
        <g transform="matrix(1,0,0,1,439.805,164.412)">
            <text x="-4.518px" y="0px" style="font-family:'ArialMT', 'Arial', sans-serif;font-size:6.5px;fill:rgb(51,51,51);">3/4</text>
        </g>
        <g transform="matrix(1,0,0,1,-0.194695,82.4116)">
            <circle cx="480" cy="36" r="8" style="fill:rgb(68,68,68);stroke:rgb(34,34,34);stroke-width:0.6px;"/>
        </g>
        <g transform="matrix(1,0,0,1,-0.194695,82.4116)">
            <circle cx="480" cy="36" r="2.5" style="fill:rgb(34,34,34);"/>
        </g>
        <g transform="matrix(1,0,0,1,-0.194695,82.4116)">
            <circle cx="480" cy="64" r="8" style="fill:rgb(68,68,68);stroke:rgb(34,34,34);stroke-width:0.6px;"/>
        </g>
        <g transform="matrix(1,0,0,1,-0.194695,82.4116)">
            <circle cx="480" cy="64" r="2.5" style="fill:rgb(34,34,34);"/>
        </g>
        <g transform="matrix(1,0,0,1,479.805,164.412)">
            <text x="-4.518px" y="0px" style="font-family:'ArialMT', 'Arial', sans-serif;font-size:6.5px;fill:rgb(51,51,51);">1/2</text>
        </g>
        <g transform="matrix(1,0,0,1,100,94.0042)">
            <text x="-16.722px" y="0px" style="font-family:'Arial-BoldMT', 'Arial', sans-serif;font-weight:700;font-size:7px;fill:rgb(102,102,102);">OUTPUTS</text>
        </g>
        <g transform="matrix(1,0,0,1,340,94.0042)">
            <text x="-12.834px" y="0px" style="font-family:'Arial-BoldMT', 'Arial', sans-serif;font-weight:700;font-size:7px;fill:rgb(102,102,102);">INPUTS</text>
        </g>
        <g transform="matrix(1,0,0,1,-0.47533,93.7887)">
            <path d="M40,94L480,94" style="fill:none;fill-rule:nonzero;stroke:rgb(170,170,170);stroke-width:0.4px;"/>
        </g>
        <g transform="matrix(1,0,0,1,259.525,193.789)">
            <text x="-42.827px" y="0px" style="font-family:'Arial-ItalicMT', 'Arial', sans-serif;font-style:italic;font-size:7px;fill:rgb(136,136,136);">220 mm span (1<tspan x="7.232px 11.125px " y="0px 0px ">1 </tspan>× 20 mm)</text>
        </g>
    </g>
    <g transform="matrix(1.4662,0,0,1.51856,14.662,649.944)">
        <g transform="matrix(1,0,0,1,436.122,-404.703)">
            <circle cx="24" cy="50" r="7" style="fill:rgb(187,187,187);stroke:rgb(85,85,85);stroke-width:0.6px;"/>
            <g transform="matrix(1,0,0,1,23.8479,63.8704)">
                <g transform="matrix(6.5,0,0,6.5,12.278,0)">
                </g>
                <text x="-12.278px" y="0px" style="font-family:'ArialMT', 'Arial', sans-serif;font-size:6.5px;fill:rgb(51,51,51);">POWER</text>
            </g>
        </g>
        <g transform="matrix(1,0,0,1,396.158,-367.597)">
            <g transform="matrix(1,0,0,0.727426,0,16.627)">
                <rect x="52" y="30" width="24" height="14" style="fill:rgb(204,204,204);stroke:rgb(85,85,85);stroke-width:0.6px;"/>
            </g>
            <g transform="matrix(1,0,0,0.727426,0,16.627)">
                <rect x="52" y="46" width="24" height="14" style="fill:rgb(204,204,204);stroke:rgb(85,85,85);stroke-width:0.6px;"/>
            </g>
            <g transform="matrix(1,0,0,0.727426,0,16.627)">
                <rect x="51" y="29" width="26" height="32" style="fill:none;stroke:rgb(85,85,85);stroke-width:0.8px;"/>
            </g>
            <g transform="matrix(0.785766,0,0,0.785766,63.7687,67.7558)">
                <g transform="matrix(6.5,0,0,6.5,16.7911,0)">
                </g>
                <text x="-16.791px" y="0px" style="font-family:'ArialMT', 'Arial', sans-serif;font-size:6.5px;fill:rgb(51,51,51);">MIDI HOST</text>
            </g>
        </g>
        <g transform="matrix(1,0,0,1,351.918,-291.157)">
            <circle cx="108" cy="50" r="6" style="fill:rgb(85,85,85);stroke:rgb(51,51,51);stroke-width:0.6px;"/>
            <circle cx="108" cy="50" r="2" style="fill:rgb(51,51,51);"/>
        </g>
        <g transform="matrix(1,0,0,1,351.918,-326.323)">
            <circle cx="108" cy="50" r="6" style="fill:rgb(85,85,85);stroke:rgb(51,51,51);stroke-width:0.6px;"/>
            <circle cx="108" cy="50" r="2" style="fill:rgb(51,51,51);"/>
        </g>
        <g transform="matrix(1,0,0,1,460.296,-255.484)">
            <text x="-6.86px" y="0px" style="font-family:'ArialMT', 'Arial', sans-serif;font-size:6.5px;fill:rgb(51,51,51);">MIDI</text>
        </g>
        <g transform="matrix(1,0,0,1,444.239,-273.068)">
            <g transform="matrix(6.5,0,0,6.5,5.23523,0)">
            </g>
            <text x="-5.235px" y="0px" style="font-family:'ArialMT', 'Arial', sans-serif;font-size:6.5px;fill:rgb(51,51,51);">TH.</text>
        </g>
        <g transform="matrix(1,0,0,1,443.996,-237.901)">
            <g transform="matrix(6.5,0,0,6.5,3.25,0)">
            </g>
            <text x="-3.25px" y="0px" style="font-family:'ArialMT', 'Arial', sans-serif;font-size:6.5px;fill:rgb(51,51,51);">IN</text>
        </g>
        <g transform="matrix(1,0,0,1,337.875,-112.159)">
            <rect x="132" y="44" width="20" height="10" style="fill:rgb(221,221,221);stroke:rgb(85,85,85);stroke-width:0.6px;"/>
            <g transform="matrix(0.793248,0,0,0.793248,119.66,51.1914)">
                <g transform="matrix(6.5,0,0,6.5,12.278,0)">
                </g>
                <text x="-12.278px" y="0px" style="font-family:'ArialMT', 'Arial', sans-serif;font-size:6.5px;fill:rgb(51,51,51);">POWER</text>
            </g>
        </g>
        <g transform="matrix(1,0,0,1,293.044,-110.507)">
            <g transform="matrix(1,0,0,1,-16.1319,-1.65143)">
                <rect x="132" y="44" width="20" height="10" style="fill:rgb(221,221,221);stroke:rgb(85,85,85);stroke-width:0.6px;"/>
            </g>
            <g transform="matrix(0.793248,0,0,0.793248,108.072,49.194)">
                <g transform="matrix(6.5,0,0,6.5,4.51477,0)">
                </g>
                <text x="-4.515px" y="0px" style="font-family:'ArialMT', 'Arial', sans-serif;font-size:6.5px;fill:rgb(51,51,51);">PC</text>
            </g>
        </g>
    </g>
</svg>
