<?xml version="1.0" encoding="UTF-8" standalone="no"?>
<!DOCTYPE svg PUBLIC "-//W3C//DTD SVG 1.1//EN" "http://www.w3.org/Graphics/SVG/1.1/DTD/svg11.dtd">
<svg width="100%" height="100%" viewBox="0 0 851 851" version="1.1" xmlns="http://www.w3.org/2000/svg" xmlns:xlink="http://www.w3.org/1999/xlink" xml:space="preserve" xmlns:serif="http://www.serif.com/" style="fill-rule:evenodd;clip-rule:evenodd;">
    <g transform="matrix(1.4662,0,0,1.51856,24.9874,44.7187)">
        <text x="0px" y="0px" style="font-family:'Arial-BoldMT', 'Arial', sans-serif;font-weight:700;font-size:14px;fill:rgb(34,34,34);">MIXTEE — T<tspan x="81.409px 89.961px " y="0px 0px ">op</tspan> Panel</text>
    </g>
    <g transform="matrix(1.4662,0,0,1.51856,26.4407,80.6802)">
        <text x="0px" y="0px" style="font-family:'ArialMT', 'Arial', sans-serif;font-size:9px;fill:rgb(85,85,85);">260 × 84.6 mm (W × D) — 2 px/mm — Back edge at top</text>
    </g>
    <g transform="matrix(1.4662,0,0,1.51856,14.662,63.7795)">
        <g transform="matrix(0.966667,0,0,1.10454,8.03351,23.1294)">
            <rect x="0" y="0" width="520" height="169" style="fill:rgb(250,250,250);stroke:rgb(51,51,51);stroke-width:1.5px;"/>
        </g>
        <g transform="matrix(1,0,0,1,-383.508,10.9365)">
            <g transform="matrix(1,0,0,1,446.735,100.205)">
                <g transform="matrix(6.5,0,0,6.5,6.86023,0)">
                </g>
                <text x="-6.86px" y="0px" style="font-family:'ArialMT', 'Arial', sans-serif;font-size:6.5px;fill:rgb(51,51,51);">MIDI</text>
            </g>
            <g transform="matrix(1,0,0,1,425.772,100.205)">
                <g transform="matrix(6.5,0,0,6.5,3.25,0)">
                </g>
                <text x="-3.25px" y="0px" style="font-family:'ArialMT', 'Arial', sans-serif;font-size:6.5px;fill:rgb(51,51,51);">IN</text>
            </g>
            <g transform="matrix(1,0,0,1,7.98445,15.5325)">
                <g transform="matrix(0.785766,0,0,0.785766,459.436,51.5584)">
                    <g transform="matrix(6.5,0,0,6.5,6.5,0)">
                    </g>
                    <text x="-6.5px" y="0px" style="font-family:'ArialMT', 'Arial', sans-serif;font-size:6.5px;fill:rgb(51,51,51);">ETH</text>
                </g>
                <g transform="matrix(0.930085,0,0,0.806966,71.1322,-1.50191)">
                    <g transform="matrix(1,0,0,0.727426,353.489,13.3799)">
                        <rect x="51" y="29" width="26" height="32" style="fill:none;stroke:rgb(85,85,85);stroke-width:0.8px;"/>
                    </g>
                    <g transform="matrix(0.686961,0,0,0.56407,-13.7117,-18.3288)">
                        <path d="M635.824,102.311L644.072,102.311L644.072,131.995L611.313,131.995L611.313,102.311L619.561,102.311L619.561,97.167L635.824,97.167L635.824,102.311Z" style="fill:rgb(174,174,174);"/>
                    </g>
                </g>
            </g>
            <g transform="matrix(1,0,0,1,38.0315,46.3414)">
                <circle cx="430" cy="81" r="10" style="fill:rgb(170,170,170);stroke:rgb(51,51,51);stroke-width:0.6px;"/>
                <circle cx="430" cy="81" r="2" style="fill:rgb(102,102,102);"/>
                <g transform="matrix(1,0,0,1,-6.83913,4.51689)">
                    <path d="M430,73L434,75" style="fill:none;fill-rule:nonzero;stroke:rgb(85,85,85);stroke-width:1px;"/>
                </g>
                <g transform="matrix(1,0,0,1,430.074,96.1815)">
                    <g transform="matrix(4.74133,0,0,4.74133,4.74365,0)">
                    </g>
                    <text x="-4.744px" y="0px" style="font-family:'ArialMT', 'Arial', sans-serif;font-size:4.741px;fill:rgb(51,51,51);">VOL</text>
                </g>
            </g>
            <g transform="matrix(1,0,0,1,-3.72776,11.4707)">
                <g transform="matrix(1,0,0,1,0.0959167,-1.04668)">
                    <circle cx="430" cy="117" r="9" style="fill:rgb(174,174,174);stroke:rgb(34,34,34);stroke-width:0.6px;"/>
                </g>
                <g transform="matrix(2.42227,0,0,2.42227,-611.479,-167.452)">
                    <circle cx="430" cy="117" r="3" style="fill:rgb(68,68,68);"/>
                </g>
                <g transform="matrix(0.73399,0,0,0.73399,430.037,131.052)">
                    <g transform="matrix(6.5,0,0,6.5,13.7252,0)">
                    </g>
                    <text x="-13.725px" y="0px" style="font-family:'ArialMT', 'Arial', sans-serif;font-size:6.5px;fill:rgb(51,51,51);">PHONES</text>
                </g>
            </g>
            <g transform="matrix(1,0,0,1,362.484,1.625)">
                <g transform="matrix(1,0,0,0.727426,0,16.627)">
                    <rect x="52" y="30" width="24" height="14" style="fill:rgb(204,204,204);stroke:rgb(85,85,85);stroke-width:0.6px;"/>
                </g>
                <g transform="matrix(1,0,0,0.727426,0,16.627)">
                    <rect x="52" y="46" width="24" height="14" style="fill:rgb(204,204,204);stroke:rgb(85,85,85);stroke-width:0.6px;"/>
                </g>
                <g transform="matrix(1,0,0,0.727426,0,16.627)">
                    <rect x="51" y="29" width="26" height="32" style="fill:none;stroke:rgb(85,85,85);stroke-width:0.8px;"/>
                </g>
                <g transform="matrix(0.785766,0,0,0.785766,63.7687,67.7558)">
                    <g transform="matrix(6.5,0,0,6.5,16.7911,0)">
                    </g>
                    <text x="-16.791px" y="0px" style="font-family:'ArialMT', 'Arial', sans-serif;font-size:6.5px;fill:rgb(51,51,51);">MIDI HOST</text>
                </g>
            </g>
            <g transform="matrix(1,0,0,1,317.809,36.7936)">
                <g>
                    <circle cx="108" cy="50" r="6" style="fill:rgb(85,85,85);stroke:rgb(51,51,51);stroke-width:0.6px;"/>
                    <circle cx="108" cy="50" r="2" style="fill:rgb(51,51,51);"/>
                </g>
            </g>
            <g transform="matrix(1,0,0,1,7.42237,363.117)">
                <g transform="matrix(1,0,0,1,351.918,-326.323)">
                    <circle cx="108" cy="50" r="6" style="fill:rgb(85,85,85);stroke:rgb(51,51,51);stroke-width:0.6px;"/>
                    <circle cx="108" cy="50" r="2" style="fill:rgb(51,51,51);"/>
                </g>
                <g transform="matrix(1,0,0,1,460.168,-262.912)">
                    <g transform="matrix(6.5,0,0,6.5,5.23523,0)">
                    </g>
                    <text x="-5.235px" y="0px" style="font-family:'ArialMT', 'Arial', sans-serif;font-size:6.5px;fill:rgb(51,51,51);">TH.</text>
                </g>
            </g>
        </g>
        <g transform="matrix(1,0,0,1,198.269,128.162)">
            <circle cx="30" cy="50" r="12" style="fill:rgb(136,136,136);stroke:rgb(51,51,51);stroke-width:0.6px;"/>
            <circle cx="30" cy="50" r="3" style="fill:rgb(85,85,85);"/>
            <g transform="matrix(1,0,0,1,29.7778,70.5544)">
                <text x="-9.03px" y="0px" style="font-family:'ArialMT', 'Arial', sans-serif;font-size:6.5px;fill:rgb(51,51,51);">Nav-Y</text>
                <g transform="matrix(3.95111,0,0,3.95111,6.0376,3.95111)">
                </g>
                <text x="-6.038px" y="3.951px" style="font-family:'ArialMT', 'Arial', sans-serif;font-size:3.951px;fill:rgb(51,51,51);">(Enter)</text>
            </g>
        </g>
        <g transform="matrix(1,0,0,1,259.177,20.0534)">
            <text x="-20.422px" y="0px" style="font-family:'Arial-ItalicMT', 'Arial', sans-serif;font-style:italic;font-size:7px;fill:rgb(136,136,136);">BACK EDGE</text>
        </g>
        <g transform="matrix(1,0,0,1,257.894,8.34985)">
            <text x="-12.643px" y="0px" style="font-family:'Arial-ItalicMT', 'Arial', sans-serif;font-style:italic;font-size:7px;fill:rgb(136,136,136);">260 mm</text>
        </g>
        <g transform="matrix(1,0,0,1,125.713,128.162)">
            <circle cx="30" cy="50" r="12" style="fill:rgb(136,136,136);stroke:rgb(51,51,51);stroke-width:0.6px;"/>
            <circle cx="30" cy="50" r="3" style="fill:rgb(85,85,85);"/>
            <g transform="matrix(1,0,0,1,29.9355,70.5544)">
                <text x="-9.03px" y="0px" style="font-family:'ArialMT', 'Arial', sans-serif;font-size:6.5px;fill:rgb(51,51,51);">Nav-X</text>
                <g transform="matrix(3.95111,0,0,3.95111,5.7077,3.95111)">
                </g>
                <text x="-5.708px" y="3.951px" style="font-family:'ArialMT', 'Arial', sans-serif;font-size:3.951px;fill:rgb(51,51,51);">(Back)</text>
            </g>
        </g>
        <g transform="matrix(1,0,0,1,270.825,70.1625)">
            <circle cx="30" cy="108" r="12" style="fill:rgb(136,136,136);stroke:rgb(51,51,51);stroke-width:0.6px;"/>
            <circle cx="30" cy="108" r="3" style="fill:rgb(85,85,85);"/>
            <g transform="matrix(1,0,0,1,30.1936,128.554)">
                <text x="-5.6px" y="0px" style="font-family:'ArialMT', 'Arial', sans-serif;font-size:6.5px;fill:rgb(51,51,51);">Edit</text>
                <g transform="matrix(3.95111,0,0,3.95111,6.25753,3.95111)">
                </g>
                <text x="-6.258px" y="3.951px" style="font-family:'ArialMT', 'Arial', sans-serif;font-size:3.951px;fill:rgb(51,51,51);">(Menu)</text>
            </g>
        </g>
        <g transform="matrix(1,0,0,1,84.0875,23.5135)">
            <g transform="matrix(1,0,0,1,1.18154,-6.10192)">
                <rect x="50" y="29" width="186" height="112" style="fill:rgb(26,42,58);stroke:rgb(51,51,51);stroke-width:0.8px;"/>
            </g>
            <g transform="matrix(1,0,0,1,143,82)">
                <text x="-17.886px" y="0px" style="font-family:'Arial-BoldMT', 'Arial', sans-serif;font-weight:700;font-size:9px;fill:rgb(68,170,136);">4.3&quot; TFT</text>
            </g>
            <g transform="matrix(1,0,0,1,143,96)">
                <text x="-15.924px" y="0px" style="font-family:'ArialMT', 'Arial', sans-serif;font-size:6px;fill:rgb(102,170,187);">93 × 56 mm</text>
            </g>
            <g transform="matrix(1,0,0,1,143,108)">
                <text x="-24.844px" y="0px" style="font-family:'ArialMT', 'Arial', sans-serif;font-size:5.5px;fill:rgb(85,136,153);">480 × 272 (RA8875)</text>
            </g>
        </g>
        <g transform="matrix(-0.00387395,0.96551,-1.03571,-0.00387395,175.942,-271.944)">
            <g transform="matrix(1,0,0,0.270312,0,39.774)">
                <rect x="415" y="35" width="30" height="20" style="fill:rgb(192,184,168);stroke:rgb(85,85,85);stroke-width:0.6px;"/>
            </g>
            <g transform="matrix(1,0,0,1,395.445,54.079)">
                <text x="-12.462px" y="0px" style="font-family:'ArialMT', 'Arial', sans-serif;font-size:6.5px;fill:rgb(51,51,51);">SD Card</text>
            </g>
        </g>
        <g transform="matrix(0.00920804,-0.965476,1.03567,0.00920804,72.133,179.226)">
            <g transform="matrix(1,0,0,1,-16.1319,-1.65143)">
                <path d="M152,46.192L152,51.808C152,53.018 150.983,54 149.73,54L134.27,54C133.017,54 132,53.018 132,51.808L132,46.192C132,44.982 133.017,44 134.27,44L149.73,44C150.983,44 152,44.982 152,46.192Z" style="fill:rgb(221,221,221);stroke:rgb(85,85,85);stroke-width:0.6px;"/>
            </g>
            <g transform="matrix(0.793248,0,0,0.793248,108.072,49.194)">
                <g transform="matrix(6.5,0,0,6.5,4.51477,0)">
                </g>
                <text x="-4.515px" y="0px" style="font-family:'ArialMT', 'Arial', sans-serif;font-size:6.5px;fill:rgb(51,51,51);">PC</text>
            </g>
        </g>
        <g transform="matrix(1,0,0,1,267.237,225.385)">
            <text x="-22.945px" y="0px" style="font-family:'Arial-ItalicMT', 'Arial', sans-serif;font-style:italic;font-size:7px;fill:rgb(136,136,136);">FRONT EDGE</text>
        </g>
        <g transform="matrix(0.966667,0,0,1,8.03351,23.1294)">
            <path d="M0,-10L520,-10" style="fill:none;fill-rule:nonzero;stroke:rgb(170,170,170);stroke-width:0.4px;"/>
        </g>
        <g transform="matrix(1,0,0,1.10454,0.975816,23.1294)">
            <path d="M534,0L534,169" style="fill:none;fill-rule:nonzero;stroke:rgb(170,170,170);stroke-width:0.4px;"/>
        </g>
        <g transform="matrix(-3.82857e-16,1,-1,-3.82857e-16,543.362,107.88)">
            <text x="-12.643px" y="0px" style="font-family:'Arial-ItalicMT', 'Arial', sans-serif;font-style:italic;font-size:7px;fill:rgb(136,136,136);">100 mm</text>
        </g>
        <g transform="matrix(1,0,0,1,-6.85032,13.9496)">
            <g transform="matrix(1,0,0,1,102.713,3.07791)">
                <rect x="250" y="29" width="32" height="32" style="fill:rgb(232,224,216);stroke:rgb(153,153,153);stroke-width:0.5px;"/>
            </g>
            <g transform="matrix(1,0,0,1,368.713,51.0779)">
                <text x="-5.002px" y="0px" style="font-family:'ArialMT', 'Arial', sans-serif;font-size:4.5px;fill:rgb(68,68,68);">Mute</text>
            </g>
            <g transform="matrix(1,0,0,1,102.713,3.07791)">
                <rect x="286" y="29" width="32" height="32" style="fill:rgb(232,224,216);stroke:rgb(153,153,153);stroke-width:0.5px;"/>
            </g>
            <g transform="matrix(1,0,0,1,404.713,51.0779)">
                <text x="-4.503px" y="0px" style="font-family:'ArialMT', 'Arial', sans-serif;font-size:4.5px;fill:rgb(68,68,68);">Solo</text>
            </g>
            <g transform="matrix(1,0,0,1,102.713,3.07791)">
                <rect x="322" y="29" width="32" height="32" style="fill:rgb(232,224,216);stroke:rgb(153,153,153);stroke-width:0.5px;"/>
            </g>
            <g transform="matrix(1,0,0,1,440.713,51.0779)">
                <text x="-4.001px" y="0px" style="font-family:'ArialMT', 'Arial', sans-serif;font-size:4.5px;fill:rgb(68,68,68);">Rec</text>
            </g>
            <g transform="matrix(1,0,0,1,102.713,3.07791)">
                <rect x="358" y="29" width="32" height="32" style="fill:rgb(232,224,216);stroke:rgb(153,153,153);stroke-width:0.5px;"/>
            </g>
            <g transform="matrix(1,0,0,1,473.228,33.7894)">
                <text x="-1.499px" y="0px" style="font-family:'ArialMT', 'Arial', sans-serif;font-size:4.5px;fill:rgb(170,170,170);">--</text>
            </g>
            <g transform="matrix(1,0,0,1,102.713,39.9484)">
                <rect x="250" y="65" width="32" height="32" style="fill:rgb(232,224,216);stroke:rgb(153,153,153);stroke-width:0.5px;"/>
            </g>
            <g transform="matrix(1,0,0,1,368.713,123.948)">
                <text x="-1.499px" y="0px" style="font-family:'ArialMT', 'Arial', sans-serif;font-size:4.5px;fill:rgb(170,170,170);">--</text>
            </g>
            <g transform="matrix(1,0,0,1,102.713,39.9484)">
                <rect x="286" y="65" width="32" height="32" style="fill:rgb(232,224,216);stroke:rgb(153,153,153);stroke-width:0.5px;"/>
            </g>
            <g transform="matrix(1,0,0,1,404.713,123.948)">
                <text x="-1.499px" y="0px" style="font-family:'ArialMT', 'Arial', sans-serif;font-size:4.5px;fill:rgb(170,170,170);">--</text>
            </g>
            <g transform="matrix(1,0,0,1,102.713,39.9484)">
                <rect x="322" y="65" width="32" height="32" style="fill:rgb(232,224,216);stroke:rgb(153,153,153);stroke-width:0.5px;"/>
            </g>
            <g transform="matrix(1,0,0,1,440.713,123.948)">
                <text x="-1.499px" y="0px" style="font-family:'ArialMT', 'Arial', sans-serif;font-size:4.5px;fill:rgb(170,170,170);">--</text>
            </g>
            <g transform="matrix(1,0,0,1,102.713,39.9484)">
                <rect x="358" y="65" width="32" height="32" style="fill:rgb(232,224,216);stroke:rgb(153,153,153);stroke-width:0.5px;"/>
            </g>
            <g transform="matrix(1,0,0,1,473.228,106.66)">
                <text x="-1.499px" y="0px" style="font-family:'ArialMT', 'Arial', sans-serif;font-size:4.5px;fill:rgb(170,170,170);">--</text>
            </g>
            <g transform="matrix(1,0,0,1,102.713,2.83454)">
                <rect x="250" y="65" width="32" height="32" style="fill:rgb(232,224,216);stroke:rgb(153,153,153);stroke-width:0.5px;"/>
            </g>
            <g transform="matrix(1,0,0,1,368.713,86.8345)">
                <text x="-1.499px" y="0px" style="font-family:'ArialMT', 'Arial', sans-serif;font-size:4.5px;fill:rgb(170,170,170);">--</text>
            </g>
            <g transform="matrix(1,0,0,1,102.713,2.83454)">
                <rect x="286" y="65" width="32" height="32" style="fill:rgb(232,224,216);stroke:rgb(153,153,153);stroke-width:0.5px;"/>
            </g>
            <g transform="matrix(1,0,0,1,404.713,86.8345)">
                <text x="-1.499px" y="0px" style="font-family:'ArialMT', 'Arial', sans-serif;font-size:4.5px;fill:rgb(170,170,170);">--</text>
            </g>
            <g transform="matrix(1,0,0,1,102.713,2.83454)">
                <rect x="322" y="65" width="32" height="32" style="fill:rgb(232,224,216);stroke:rgb(153,153,153);stroke-width:0.5px;"/>
            </g>
            <g transform="matrix(1,0,0,1,440.713,86.8345)">
                <text x="-1.499px" y="0px" style="font-family:'ArialMT', 'Arial', sans-serif;font-size:4.5px;fill:rgb(170,170,170);">--</text>
            </g>
            <g transform="matrix(1,0,0,1,102.713,2.83454)">
                <rect x="358" y="65" width="32" height="32" style="fill:rgb(232,224,216);stroke:rgb(153,153,153);stroke-width:0.5px;"/>
            </g>
            <g transform="matrix(1,0,0,1,473.228,69.546)">
                <text x="-1.499px" y="0px" style="font-family:'ArialMT', 'Arial', sans-serif;font-size:4.5px;fill:rgb(170,170,170);">--</text>
            </g>
            <g transform="matrix(1,0,0,1,102.713,39.9484)">
                <rect x="250" y="101" width="32" height="32" style="fill:rgb(232,224,216);stroke:rgb(153,153,153);stroke-width:0.5px;"/>
            </g>
            <g transform="matrix(1,0,0,1,368.713,159.948)">
                <text x="-6.002px" y="0px" style="font-family:'ArialMT', 'Arial', sans-serif;font-size:4.5px;fill:rgb(68,68,68);">Home</text>
            </g>
            <g transform="matrix(1,0,0,1,102.713,39.9484)">
                <rect x="286" y="101" width="32" height="32" style="fill:rgb(232,224,216);stroke:rgb(153,153,153);stroke-width:0.5px;"/>
            </g>
            <g transform="matrix(1,0,0,1,404.713,159.948)">
                <text x="-5.002px" y="0px" style="font-family:'ArialMT', 'Arial', sans-serif;font-size:4.5px;fill:rgb(68,68,68);">Back</text>
            </g>
            <g transform="matrix(1,0,0,1,102.713,39.9484)">
                <rect x="322" y="101" width="32" height="32" style="fill:rgb(232,224,216);stroke:rgb(153,153,153);stroke-width:0.5px;"/>
            </g>
            <g transform="matrix(1,0,0,1,440.713,159.948)">
                <text x="-5.255px" y="0px" style="font-family:'ArialMT', 'Arial', sans-serif;font-size:4.5px;fill:rgb(68,68,68);">Page</text>
            </g>
            <g transform="matrix(1,0,0,1,102.713,39.9484)">
                <rect x="358" y="101" width="32" height="32" style="fill:rgb(232,224,216);stroke:rgb(153,153,153);stroke-width:0.5px;"/>
            </g>
            <g transform="matrix(1,0,0,1,476.713,159.948)">
                <text x="-4.502px" y="0px" style="font-family:'ArialMT', 'Arial', sans-serif;font-size:4.5px;fill:rgb(68,68,68);">Shift</text>
            </g>
        </g>
    </g>
    <g transform="matrix(1.4662,0,0,1.51856,21.3319,505.459)">
        <text x="0px" y="0px" style="font-family:'Arial-BoldMT', 'Arial', sans-serif;font-weight:700;font-size:14px;fill:rgb(34,34,34);">Back Panel — Inputs + Outputs</text>
    </g>
    <g transform="matrix(1.4662,0,0,1.51856,21.3319,523.682)">
        <text x="0px" y="0px" style="font-family:'ArialMT', 'Arial', sans-serif;font-size:9px;fill:rgb(85,85,85);">260 × 50 mm (W × H) — 12 evenly spaced pairs, labeling only</text>
    </g>
    <g transform="matrix(1.4662,0,0,1.51856,14.662,416.085)">
        <g transform="matrix(1,0,0,1,4.54914,80.854)">
            <rect x="0" y="0" width="520" height="100" style="fill:rgb(250,250,250);stroke:rgb(51,51,51);stroke-width:1.5px;"/>
        </g>
        <g transform="matrix(1,0,0,1,22.3544,127.252)">
            <text x="0px" y="0px" style="font-family:'ArialMT', 'Arial', sans-serif;font-size:5.5px;fill:rgb(136,136,136);">L</text>
        </g>
        <g transform="matrix(1,0,0,1,22.3544,155.252)">
            <text x="0px" y="0px" style="font-family:'ArialMT', 'Arial', sans-serif;font-size:5.5px;fill:rgb(136,136,136);">R</text>
        </g>
        <g transform="matrix(1,0,0,1,4.35444,88.2524)">
            <circle cx="40" cy="36" r="8" style="fill:rgb(68,68,68);stroke:rgb(34,34,34);stroke-width:0.6px;"/>
        </g>
        <g transform="matrix(1,0,0,1,4.35444,88.2524)">
            <circle cx="40" cy="36" r="2.5" style="fill:rgb(34,34,34);"/>
        </g>
        <g transform="matrix(1,0,0,1,4.35444,88.2524)">
            <circle cx="40" cy="64" r="8" style="fill:rgb(68,68,68);stroke:rgb(34,34,34);stroke-width:0.6px;"/>
        </g>
        <g transform="matrix(1,0,0,1,4.35444,88.2524)">
            <circle cx="40" cy="64" r="2.5" style="fill:rgb(34,34,34);"/>
        </g>
        <g transform="matrix(1,0,0,1,84.3583,170.861)">
            <text x="-8.49px" y="0px" style="font-family:'ArialMT', 'Arial', sans-serif;font-size:6.5px;fill:rgb(51,51,51);">AUX1</text>
        </g>
        <g transform="matrix(1,0,0,1,4.35444,88.2524)">
            <circle cx="80" cy="36" r="8" style="fill:rgb(68,68,68);stroke:rgb(34,34,34);stroke-width:0.6px;"/>
        </g>
        <g transform="matrix(1,0,0,1,4.35444,88.2524)">
            <circle cx="80" cy="36" r="2.5" style="fill:rgb(34,34,34);"/>
        </g>
        <g transform="matrix(1,0,0,1,4.35444,88.2524)">
            <circle cx="80" cy="64" r="8" style="fill:rgb(68,68,68);stroke:rgb(34,34,34);stroke-width:0.6px;"/>
        </g>
        <g transform="matrix(1,0,0,1,4.35444,88.2524)">
            <circle cx="80" cy="64" r="2.5" style="fill:rgb(34,34,34);"/>
        </g>
        <g transform="matrix(1,0,0,1,124.358,170.861)">
            <text x="-8.49px" y="0px" style="font-family:'ArialMT', 'Arial', sans-serif;font-size:6.5px;fill:rgb(51,51,51);">AUX2</text>
        </g>
        <g transform="matrix(1,0,0,1,4.35444,88.2524)">
            <circle cx="120" cy="36" r="8" style="fill:rgb(68,68,68);stroke:rgb(34,34,34);stroke-width:0.6px;"/>
        </g>
        <g transform="matrix(1,0,0,1,4.35444,88.2524)">
            <circle cx="120" cy="36" r="2.5" style="fill:rgb(34,34,34);"/>
        </g>
        <g transform="matrix(1,0,0,1,4.35444,88.2524)">
            <circle cx="120" cy="64" r="8" style="fill:rgb(68,68,68);stroke:rgb(34,34,34);stroke-width:0.6px;"/>
        </g>
        <g transform="matrix(1,0,0,1,4.35444,88.2524)">
            <circle cx="120" cy="64" r="2.5" style="fill:rgb(34,34,34);"/>
        </g>
        <g transform="matrix(1,0,0,1,164.358,170.861)">
            <text x="-8.49px" y="0px" style="font-family:'ArialMT', 'Arial', sans-serif;font-size:6.5px;fill:rgb(51,51,51);">AUX3</text>
        </g>
        <g transform="matrix(1,0,0,1,4.35444,88.2524)">
            <circle cx="160" cy="36" r="8" style="fill:rgb(68,68,68);stroke:rgb(34,34,34);stroke-width:0.6px;"/>
        </g>
        <g transform="matrix(1,0,0,1,4.35444,88.2524)">
            <circle cx="160" cy="36" r="2.5" style="fill:rgb(34,34,34);"/>
        </g>
        <g transform="matrix(1,0,0,1,4.35444,88.2524)">
            <circle cx="160" cy="64" r="8" style="fill:rgb(68,68,68);stroke:rgb(34,34,34);stroke-width:0.6px;"/>
        </g>
        <g transform="matrix(1,0,0,1,4.35444,88.2524)">
            <circle cx="160" cy="64" r="2.5" style="fill:rgb(34,34,34);"/>
        </g>
        <g transform="matrix(1,0,0,1,43.7344,170.867)">
            <text x="-10.477px" y="0px" style="font-family:'Arial-BoldMT', 'Arial', sans-serif;font-weight:700;font-size:6.5px;fill:rgb(51,51,51);">Master</text>
        </g>
        <g transform="matrix(1,0,0,1,4.35444,88.2524)">
            <circle cx="200" cy="36" r="8" style="fill:rgb(68,68,68);stroke:rgb(34,34,34);stroke-width:0.6px;"/>
        </g>
        <g transform="matrix(1,0,0,1,4.35444,88.2524)">
            <circle cx="200" cy="36" r="2.5" style="fill:rgb(34,34,34);"/>
        </g>
        <g transform="matrix(1,0,0,1,4.35444,88.2524)">
            <circle cx="200" cy="64" r="8" style="fill:rgb(68,68,68);stroke:rgb(34,34,34);stroke-width:0.6px;"/>
        </g>
        <g transform="matrix(1,0,0,1,4.35444,88.2524)">
            <circle cx="200" cy="64" r="2.5" style="fill:rgb(34,34,34);"/>
        </g>
        <g transform="matrix(1,0,0,1,204.354,170.252)">
            <text x="-8.133px" y="0px" style="font-family:'ArialMT', 'Arial', sans-serif;font-size:6.5px;fill:rgb(51,51,51);">15/16</text>
        </g>
        <g transform="matrix(1,0,0,1,4.35444,88.2524)">
            <circle cx="240" cy="36" r="8" style="fill:rgb(68,68,68);stroke:rgb(34,34,34);stroke-width:0.6px;"/>
        </g>
        <g transform="matrix(1,0,0,1,4.35444,88.2524)">
            <circle cx="240" cy="36" r="2.5" style="fill:rgb(34,34,34);"/>
        </g>
        <g transform="matrix(1,0,0,1,4.35444,88.2524)">
            <circle cx="240" cy="64" r="8" style="fill:rgb(68,68,68);stroke:rgb(34,34,34);stroke-width:0.6px;"/>
        </g>
        <g transform="matrix(1,0,0,1,4.35444,88.2524)">
            <circle cx="240" cy="64" r="2.5" style="fill:rgb(34,34,34);"/>
        </g>
        <g transform="matrix(1,0,0,1,244.354,170.252)">
            <text x="-8.133px" y="0px" style="font-family:'ArialMT', 'Arial', sans-serif;font-size:6.5px;fill:rgb(51,51,51);">13/14</text>
        </g>
        <g transform="matrix(1,0,0,1,4.35444,88.2524)">
            <circle cx="280" cy="36" r="8" style="fill:rgb(68,68,68);stroke:rgb(34,34,34);stroke-width:0.6px;"/>
        </g>
        <g transform="matrix(1,0,0,1,4.35444,88.2524)">
            <circle cx="280" cy="36" r="2.5" style="fill:rgb(34,34,34);"/>
        </g>
        <g transform="matrix(1,0,0,1,4.35444,88.2524)">
            <circle cx="280" cy="64" r="8" style="fill:rgb(68,68,68);stroke:rgb(34,34,34);stroke-width:0.6px;"/>
        </g>
        <g transform="matrix(1,0,0,1,4.35444,88.2524)">
            <circle cx="280" cy="64" r="2.5" style="fill:rgb(34,34,34);"/>
        </g>
        <g transform="matrix(1,0,0,1,284.354,170.252)">
            <text x="-7.892px" y="0px" style="font-family:'ArialMT', 'Arial', sans-serif;font-size:6.5px;fill:rgb(51,51,51);">1<tspan x="-4.759px -1.144px " y="0px 0px ">1/</tspan>12</text>
        </g>
        <g transform="matrix(1,0,0,1,4.35444,88.2524)">
            <circle cx="320" cy="36" r="8" style="fill:rgb(68,68,68);stroke:rgb(34,34,34);stroke-width:0.6px;"/>
        </g>
        <g transform="matrix(1,0,0,1,4.35444,88.2524)">
            <circle cx="320" cy="36" r="2.5" style="fill:rgb(34,34,34);"/>
        </g>
        <g transform="matrix(1,0,0,1,4.35444,88.2524)">
            <circle cx="320" cy="64" r="8" style="fill:rgb(68,68,68);stroke:rgb(34,34,34);stroke-width:0.6px;"/>
        </g>
        <g transform="matrix(1,0,0,1,4.35444,88.2524)">
            <circle cx="320" cy="64" r="2.5" style="fill:rgb(34,34,34);"/>
        </g>
        <g transform="matrix(1,0,0,1,324.354,170.252)">
            <text x="-6.325px" y="0px" style="font-family:'ArialMT', 'Arial', sans-serif;font-size:6.5px;fill:rgb(51,51,51);">9/10</text>
        </g>
        <g transform="matrix(1,0,0,1,4.35444,88.2524)">
            <circle cx="360" cy="36" r="8" style="fill:rgb(68,68,68);stroke:rgb(34,34,34);stroke-width:0.6px;"/>
        </g>
        <g transform="matrix(1,0,0,1,4.35444,88.2524)">
            <circle cx="360" cy="36" r="2.5" style="fill:rgb(34,34,34);"/>
        </g>
        <g transform="matrix(1,0,0,1,4.35444,88.2524)">
            <circle cx="360" cy="64" r="8" style="fill:rgb(68,68,68);stroke:rgb(34,34,34);stroke-width:0.6px;"/>
        </g>
        <g transform="matrix(1,0,0,1,4.35444,88.2524)">
            <circle cx="360" cy="64" r="2.5" style="fill:rgb(34,34,34);"/>
        </g>
        <g transform="matrix(1,0,0,1,364.354,170.252)">
            <text x="-4.518px" y="0px" style="font-family:'ArialMT', 'Arial', sans-serif;font-size:6.5px;fill:rgb(51,51,51);">7/8</text>
        </g>
        <g transform="matrix(1,0,0,1,4.35444,88.2524)">
            <circle cx="400" cy="36" r="8" style="fill:rgb(68,68,68);stroke:rgb(34,34,34);stroke-width:0.6px;"/>
        </g>
        <g transform="matrix(1,0,0,1,4.35444,88.2524)">
            <circle cx="400" cy="36" r="2.5" style="fill:rgb(34,34,34);"/>
        </g>
        <g transform="matrix(1,0,0,1,4.35444,88.2524)">
            <circle cx="400" cy="64" r="8" style="fill:rgb(68,68,68);stroke:rgb(34,34,34);stroke-width:0.6px;"/>
        </g>
        <g transform="matrix(1,0,0,1,4.35444,88.2524)">
            <circle cx="400" cy="64" r="2.5" style="fill:rgb(34,34,34);"/>
        </g>
        <g transform="matrix(1,0,0,1,404.354,170.252)">
            <text x="-4.518px" y="0px" style="font-family:'ArialMT', 'Arial', sans-serif;font-size:6.5px;fill:rgb(51,51,51);">5/6</text>
        </g>
        <g transform="matrix(1,0,0,1,4.35444,88.2524)">
            <circle cx="440" cy="36" r="8" style="fill:rgb(68,68,68);stroke:rgb(34,34,34);stroke-width:0.6px;"/>
        </g>
        <g transform="matrix(1,0,0,1,4.35444,88.2524)">
            <circle cx="440" cy="36" r="2.5" style="fill:rgb(34,34,34);"/>
        </g>
        <g transform="matrix(1,0,0,1,4.35444,88.2524)">
            <circle cx="440" cy="64" r="8" style="fill:rgb(68,68,68);stroke:rgb(34,34,34);stroke-width:0.6px;"/>
        </g>
        <g transform="matrix(1,0,0,1,4.35444,88.2524)">
            <circle cx="440" cy="64" r="2.5" style="fill:rgb(34,34,34);"/>
        </g>
        <g transform="matrix(1,0,0,1,444.354,170.252)">
            <text x="-4.518px" y="0px" style="font-family:'ArialMT', 'Arial', sans-serif;font-size:6.5px;fill:rgb(51,51,51);">3/4</text>
        </g>
        <g transform="matrix(1,0,0,1,4.35444,88.2524)">
            <circle cx="480" cy="36" r="8" style="fill:rgb(68,68,68);stroke:rgb(34,34,34);stroke-width:0.6px;"/>
        </g>
        <g transform="matrix(1,0,0,1,4.35444,88.2524)">
            <circle cx="480" cy="36" r="2.5" style="fill:rgb(34,34,34);"/>
        </g>
        <g transform="matrix(1,0,0,1,4.35444,88.2524)">
            <circle cx="480" cy="64" r="8" style="fill:rgb(68,68,68);stroke:rgb(34,34,34);stroke-width:0.6px;"/>
        </g>
        <g transform="matrix(1,0,0,1,4.35444,88.2524)">
            <circle cx="480" cy="64" r="2.5" style="fill:rgb(34,34,34);"/>
        </g>
        <g transform="matrix(1,0,0,1,484.354,170.252)">
            <text x="-4.518px" y="0px" style="font-family:'ArialMT', 'Arial', sans-serif;font-size:6.5px;fill:rgb(51,51,51);">1/2</text>
        </g>
        <g transform="matrix(1,0,0,1,104.549,102.398)">
            <text x="-16.722px" y="0px" style="font-family:'Arial-BoldMT', 'Arial', sans-serif;font-weight:700;font-size:7px;fill:rgb(102,102,102);">OUTPUTS</text>
        </g>
        <g transform="matrix(0.682036,-9.20939e-05,-9.5383e-05,0.644812,-5.3971,-260.433)">
            <path d="M277.669,571.242L277.683,672.505" style="fill:none;stroke:rgb(87,87,87);stroke-width:1.01px;stroke-linecap:square;stroke-linejoin:round;stroke-miterlimit:1.5;"/>
        </g>
        <g transform="matrix(1,0,0,1,344.448,102.398)">
            <text x="-12.834px" y="0px" style="font-family:'Arial-BoldMT', 'Arial', sans-serif;font-weight:700;font-size:7px;fill:rgb(102,102,102);">INPUTS</text>
        </g>
        <g transform="matrix(1,0,0,1,4.0738,99.6296)">
            <path d="M40,94L480,94" style="fill:none;fill-rule:nonzero;stroke:rgb(170,170,170);stroke-width:0.4px;"/>
        </g>
        <g transform="matrix(1,0,0,1,264.074,199.63)">
            <text x="-42.827px" y="0px" style="font-family:'Arial-ItalicMT', 'Arial', sans-serif;font-style:italic;font-size:7px;fill:rgb(136,136,136);">220 mm span (1<tspan x="7.232px 11.125px " y="0px 0px ">1 </tspan>× 20 mm)</text>
        </g>
    </g>
    <g transform="matrix(1.4662,0,0,1.51856,14.662,649.944)">
        <g transform="matrix(0.714286,0,0,0.714286,467.372,-89.8197)">
            <circle cx="24" cy="50" r="7" style="fill:rgb(187,187,187);stroke:rgb(85,85,85);stroke-width:0.6px;"/>
        </g>
        <g transform="matrix(1,0,0,1,302.659,-103.105)">
            <path d="M152,46.283L152,51.717C152,52.977 150.941,54 149.636,54L134.364,54C133.059,54 132,52.977 132,51.717L132,46.283C132,45.023 133.059,44 134.364,44L149.636,44C150.941,44 152,45.023 152,46.283Z" style="fill:rgb(221,221,221);stroke:rgb(85,85,85);stroke-width:0.6px;"/>
            <g transform="matrix(0.793248,0,0,0.793248,164.571,50.8467)">
                <g transform="matrix(6.5,0,0,6.5,12.278,0)">
                </g>
                <text x="-12.278px" y="0px" style="font-family:'ArialMT', 'Arial', sans-serif;font-size:6.5px;fill:rgb(51,51,51);">POWER</text>
            </g>
        </g>
    </g>
</svg>
