%TF.GenerationSoftware,KiCad,Pcbnew,9.0.7*%
%TF.CreationDate,2026-03-02T07:05:33+09:00*%
%TF.ProjectId,mixtee-io-board,6d697874-6565-42d6-996f-2d626f617264,rev?*%
%TF.SameCoordinates,Original*%
%TF.FileFunction,Copper,L2,Bot*%
%TF.FilePolarity,Positive*%
%FSLAX46Y46*%
G04 Gerber Fmt 4.6, Leading zero omitted, Abs format (unit mm)*
G04 Created by KiCad (PCBNEW 9.0.7) date 2026-03-02 07:05:33*
%MOMM*%
%LPD*%
G01*
G04 APERTURE LIST*
%TA.AperFunction,ComponentPad*%
%ADD10C,1.600000*%
%TD*%
%TA.AperFunction,ComponentPad*%
%ADD11C,2.500000*%
%TD*%
%TA.AperFunction,ComponentPad*%
%ADD12C,1.750000*%
%TD*%
%TA.AperFunction,ComponentPad*%
%ADD13C,2.000000*%
%TD*%
%TA.AperFunction,ComponentPad*%
%ADD14C,3.000000*%
%TD*%
%TA.AperFunction,ViaPad*%
%ADD15C,0.600000*%
%TD*%
%TA.AperFunction,Conductor*%
%ADD16C,0.200000*%
%TD*%
G04 APERTURE END LIST*
D10*
%TO.P,J1,1*%
%TO.N,VBUS1*%
X9000000Y-8000000D03*
%TO.P,J1,2*%
%TO.N,USB_DN1_DM*%
X11000000Y-8000000D03*
%TO.P,J1,3*%
%TO.N,USB_DN1_DP*%
X13000000Y-8000000D03*
%TO.P,J1,4*%
%TO.N,GND*%
X15000000Y-8000000D03*
%TO.P,J1,5*%
%TO.N,VBUS2*%
X9000000Y-5500000D03*
%TO.P,J1,6*%
%TO.N,USB_DN2_DM*%
X11000000Y-5500000D03*
%TO.P,J1,7*%
%TO.N,USB_DN2_DP*%
X13000000Y-5500000D03*
%TO.P,J1,8*%
%TO.N,GND*%
X15000000Y-5500000D03*
D11*
%TO.P,J1,S1*%
X5500000Y-6750000D03*
%TO.P,J1,S2*%
X18500000Y-6750000D03*
%TD*%
D12*
%TO.P,J7,1*%
%TO.N,HP_L*%
X42000000Y-62000000D03*
%TO.P,J7,2*%
%TO.N,HP_R*%
X42000000Y-59460000D03*
%TO.P,J7,3*%
%TO.N,5V_A*%
X42000000Y-56920000D03*
%TO.P,J7,4*%
%TO.N,GND*%
X42000000Y-54380000D03*
%TD*%
%TO.P,VR1,A1*%
%TO.N,HP_AMP_L*%
X28000000Y-56000000D03*
%TO.P,VR1,A2*%
%TO.N,HP_OUT_L*%
X30540000Y-56000000D03*
%TO.P,VR1,A3*%
%TO.N,GND*%
X33080000Y-56000000D03*
%TO.P,VR1,B1*%
%TO.N,HP_AMP_R*%
X28000000Y-61000000D03*
%TO.P,VR1,B2*%
%TO.N,HP_OUT_R*%
X30540000Y-61000000D03*
%TO.P,VR1,B3*%
%TO.N,GND*%
X33080000Y-61000000D03*
%TD*%
%TO.P,J6,1*%
%TO.N,ETH_TXP*%
X32000000Y-76000000D03*
%TO.P,J6,2*%
%TO.N,ETH_TXN*%
X34540000Y-76000000D03*
%TO.P,J6,3*%
%TO.N,ETH_RXP*%
X37080000Y-76000000D03*
%TO.P,J6,4*%
%TO.N,ETH_RXN*%
X39620000Y-76000000D03*
%TO.P,J6,5*%
%TO.N,ETH_LED*%
X42160000Y-76000000D03*
%TO.P,J6,6*%
%TO.N,GND*%
X44700000Y-76000000D03*
%TD*%
%TO.P,J9,1*%
%TO.N,HP_AMP_L*%
X42000000Y-48000000D03*
%TO.P,J9,2*%
%TO.N,HP_AMP_R*%
X42000000Y-45460000D03*
%TO.P,J9,3*%
%TO.N,GND*%
X42000000Y-42920000D03*
%TD*%
D10*
%TO.P,U4,1*%
%TO.N,N/C*%
X34190000Y-30190000D03*
%TO.P,U4,2*%
%TO.N,MIDI_IN_OA*%
X34190000Y-32730000D03*
%TO.P,U4,3*%
%TO.N,MIDI_IN_OK*%
X34190000Y-35270000D03*
%TO.P,U4,4*%
%TO.N,N/C*%
X34190000Y-37810000D03*
%TO.P,U4,5*%
%TO.N,GND*%
X41810000Y-37810000D03*
%TO.P,U4,6*%
%TO.N,MIDI_RX*%
X41810000Y-35270000D03*
%TO.P,U4,7*%
%TO.N,V33*%
X41810000Y-32730000D03*
%TO.P,U4,8*%
X41810000Y-30190000D03*
%TD*%
D13*
%TO.P,J8,R*%
%TO.N,HP_OUT_R*%
X11000000Y-58000000D03*
%TO.P,J8,S*%
%TO.N,GND*%
X16000000Y-58000000D03*
%TO.P,J8,T*%
%TO.N,HP_OUT_L*%
X6000000Y-58000000D03*
%TD*%
D10*
%TO.P,J2,1*%
%TO.N,ETH_TXP_MJ*%
X34190000Y-10000000D03*
%TO.P,J2,2*%
%TO.N,ETH_TXN_MJ*%
X36730000Y-10000000D03*
%TO.P,J2,3*%
%TO.N,ETH_RXP_MJ*%
X39270000Y-10000000D03*
%TO.P,J2,4*%
%TO.N,GND*%
X41810000Y-10000000D03*
%TO.P,J2,5*%
X34190000Y-12540000D03*
%TO.P,J2,6*%
%TO.N,ETH_RXN_MJ*%
X36730000Y-12540000D03*
%TO.P,J2,7*%
%TO.N,ETH_LED*%
X39270000Y-12540000D03*
%TO.P,J2,8*%
%TO.N,GND*%
X41810000Y-12540000D03*
D14*
%TO.P,J2,S1*%
X30100000Y-11270000D03*
%TO.P,J2,S2*%
X45900000Y-11270000D03*
%TD*%
D15*
%TO.N,GND*%
X19836500Y-25323300D03*
X19573500Y-22656500D03*
X45671500Y-28065900D03*
X13188500Y-77794700D03*
X22047500Y-77794700D03*
X7282500Y-78559800D03*
X20962400Y-31612300D03*
X18903200Y-19059800D03*
X6453000Y-29000000D03*
X8511900Y-25479900D03*
X5595600Y-21025100D03*
X36618000Y-25147600D03*
X14223800Y-43528100D03*
X9867300Y-16125100D03*
X27953500Y-25147600D03*
X10935800Y-77878000D03*
X30925300Y-16143900D03*
X10235500Y-28965400D03*
X34158100Y-43457100D03*
X22047500Y-16125100D03*
X19094500Y-77794700D03*
X39765500Y-19596400D03*
%TO.N,5V_DIG*%
X31704300Y-17021100D03*
X15957300Y-19206800D03*
X9633200Y-17085500D03*
X36965800Y-16126300D03*
%TO.N,V33*%
X34097400Y-28877300D03*
X19504800Y-31166000D03*
X10492400Y-31099300D03*
%TO.N,USB_UP_DM*%
X1426900Y-42970000D03*
X12725800Y-43460800D03*
%TO.N,USB_DN2_DP*%
X11997700Y-9997700D03*
%TO.N,VBUS1*%
X30906500Y-19596400D03*
%TO.N,VBUS2*%
X36854400Y-14158100D03*
%TO.N,ETH_TXP*%
X9150200Y-74704300D03*
%TO.N,ETH_TXN*%
X10235500Y-78559800D03*
%TO.N,ETH_RXP*%
X13188500Y-79324900D03*
%TO.N,ETH_RXN*%
X13833500Y-74398300D03*
%TO.N,MIDI_RX*%
X17801900Y-40076900D03*
%TO.N,MIDI_IN_OA*%
X24100300Y-33150100D03*
%TO.N,MIDI_IN_OK*%
X4329500Y-39956600D03*
X25349200Y-35270000D03*
%TO.N,MIDI_OUT_SRC*%
X31198600Y-42510700D03*
X34754900Y-44977100D03*
%TD*%
D16*
%TO.N,5V_DIG*%
X13836000Y-17085500D02*
X15957300Y-19206800D01*
X9633200Y-17085500D02*
X13836000Y-17085500D01*
X31704300Y-17021100D02*
X36071000Y-17021100D01*
X36071000Y-17021100D02*
X36965800Y-16126300D01*
%TO.N,V33*%
X41810000Y-30190000D02*
X40664900Y-29044900D01*
X10492400Y-31099300D02*
X19438100Y-31099300D01*
X21625900Y-29044900D02*
X19504800Y-31166000D01*
X40664900Y-29044900D02*
X34097400Y-29044900D01*
X19438100Y-31099300D02*
X19504800Y-31166000D01*
X34097400Y-29044900D02*
X21625900Y-29044900D01*
X34097400Y-28877300D02*
X34097400Y-29044900D01*
%TO.N,USB_UP_DM*%
X12235000Y-42970000D02*
X12725800Y-43460800D01*
X1426900Y-42970000D02*
X12235000Y-42970000D01*
%TO.N,USB_DN2_DP*%
X14609800Y-9997700D02*
X11997700Y-9997700D01*
X15370300Y-6750000D02*
X16104100Y-7483800D01*
X16104100Y-7483800D02*
X16104100Y-8503400D01*
X13000000Y-5500000D02*
X14250000Y-6750000D01*
X14250000Y-6750000D02*
X15370300Y-6750000D01*
X16104100Y-8503400D02*
X14609800Y-9997700D01*
%TO.N,VBUS1*%
X20596400Y-19596400D02*
X30906500Y-19596400D01*
X9000000Y-8000000D02*
X20596400Y-19596400D01*
%TO.N,VBUS2*%
X32026400Y-10641200D02*
X25782800Y-4397600D01*
X36854400Y-14158100D02*
X34188800Y-14158100D01*
X25782800Y-4397600D02*
X10102400Y-4397600D01*
X32026400Y-11995700D02*
X32026400Y-10641200D01*
X10102400Y-4397600D02*
X9000000Y-5500000D01*
X34188800Y-14158100D02*
X32026400Y-11995700D01*
%TO.N,ETH_TXP*%
X10445900Y-76000000D02*
X32000000Y-76000000D01*
X9150200Y-74704300D02*
X10445900Y-76000000D01*
%TO.N,ETH_TXN*%
X31980200Y-78559800D02*
X10235500Y-78559800D01*
X34540000Y-76000000D02*
X31980200Y-78559800D01*
%TO.N,ETH_RXP*%
X33755100Y-79324900D02*
X13188500Y-79324900D01*
X37080000Y-76000000D02*
X33755100Y-79324900D01*
%TO.N,ETH_RXN*%
X13833500Y-74398300D02*
X38018300Y-74398300D01*
X38018300Y-74398300D02*
X39620000Y-76000000D01*
%TO.N,MIDI_RX*%
X17801900Y-40076900D02*
X37003100Y-40076900D01*
X37003100Y-40076900D02*
X41810000Y-35270000D01*
%TO.N,MIDI_IN_OA*%
X24520400Y-32730000D02*
X24100300Y-33150100D01*
X34190000Y-32730000D02*
X24520400Y-32730000D01*
%TO.N,MIDI_IN_OK*%
X34190000Y-35270000D02*
X25349200Y-35270000D01*
X9016100Y-35270000D02*
X4329500Y-39956600D01*
X25349200Y-35270000D02*
X9016100Y-35270000D01*
%TO.N,MIDI_OUT_SRC*%
X31198600Y-42510700D02*
X33665000Y-44977100D01*
X33665000Y-44977100D02*
X34754900Y-44977100D01*
%TO.N,HP_AMP_L*%
X28000000Y-56000000D02*
X36000000Y-48000000D01*
X36000000Y-48000000D02*
X42000000Y-48000000D01*
%TO.N,HP_AMP_R*%
X30012000Y-58988000D02*
X28000000Y-61000000D01*
X43176700Y-46636700D02*
X43176700Y-48516800D01*
X32705500Y-58988000D02*
X30012000Y-58988000D01*
X43176700Y-48516800D02*
X32705500Y-58988000D01*
X42000000Y-45460000D02*
X43176700Y-46636700D01*
%TO.N,HP_OUT_L*%
X6000000Y-58000000D02*
X7358300Y-56641700D01*
X25882500Y-57220500D02*
X29319500Y-57220500D01*
X7358300Y-56641700D02*
X25303700Y-56641700D01*
X29319500Y-57220500D02*
X30540000Y-56000000D01*
X25303700Y-56641700D02*
X25882500Y-57220500D01*
%TO.N,HP_OUT_R*%
X15180500Y-62180500D02*
X29359500Y-62180500D01*
X29359500Y-62180500D02*
X30540000Y-61000000D01*
X11000000Y-58000000D02*
X15180500Y-62180500D01*
%TD*%
%TA.AperFunction,Conductor*%
%TO.N,GND*%
G36*
X32614075Y-56192993D02*
G01*
X32679901Y-56307007D01*
X32772993Y-56400099D01*
X32887007Y-56465925D01*
X32950590Y-56482962D01*
X32300382Y-57133168D01*
X32359342Y-57176005D01*
X32552182Y-57274263D01*
X32552185Y-57274264D01*
X32758018Y-57341142D01*
X32971780Y-57375000D01*
X33188220Y-57375000D01*
X33401981Y-57341142D01*
X33607814Y-57274264D01*
X33607827Y-57274258D01*
X33698151Y-57228236D01*
X33766820Y-57215339D01*
X33831560Y-57241615D01*
X33871818Y-57298721D01*
X33874810Y-57368527D01*
X33842127Y-57426401D01*
X32617348Y-58651181D01*
X32556025Y-58684666D01*
X32529667Y-58687500D01*
X29972438Y-58687500D01*
X29896010Y-58707978D01*
X29827489Y-58747540D01*
X29827486Y-58747542D01*
X28581807Y-59993220D01*
X28520484Y-60026705D01*
X28450792Y-60021721D01*
X28437834Y-60016025D01*
X28412851Y-60003296D01*
X28412850Y-60003295D01*
X28412849Y-60003295D01*
X28371095Y-59989728D01*
X28251847Y-59950981D01*
X28084649Y-59924500D01*
X28084644Y-59924500D01*
X27915356Y-59924500D01*
X27915351Y-59924500D01*
X27748152Y-59950981D01*
X27587146Y-60003296D01*
X27436311Y-60080152D01*
X27299365Y-60179648D01*
X27299360Y-60179652D01*
X27179652Y-60299360D01*
X27179648Y-60299365D01*
X27080152Y-60436311D01*
X27003296Y-60587146D01*
X26950981Y-60748152D01*
X26924500Y-60915350D01*
X26924500Y-61084649D01*
X26950981Y-61251847D01*
X27003296Y-61412853D01*
X27080152Y-61563688D01*
X27166920Y-61683115D01*
X27190400Y-61748921D01*
X27174574Y-61816975D01*
X27124469Y-61865670D01*
X27066602Y-61880000D01*
X15356333Y-61880000D01*
X15289294Y-61860315D01*
X15268652Y-61843681D01*
X12099715Y-58674744D01*
X12066230Y-58613421D01*
X12071214Y-58543729D01*
X12076907Y-58530778D01*
X12112547Y-58460832D01*
X12170940Y-58281118D01*
X12200500Y-58094486D01*
X12200500Y-57905513D01*
X12170940Y-57718881D01*
X12112545Y-57539163D01*
X12067290Y-57450347D01*
X12026760Y-57370801D01*
X11915690Y-57217927D01*
X11851644Y-57153881D01*
X11818159Y-57092558D01*
X11823143Y-57022866D01*
X11865015Y-56966933D01*
X11930479Y-56942516D01*
X11939325Y-56942200D01*
X14671071Y-56942200D01*
X14738110Y-56961885D01*
X14783865Y-57014689D01*
X14793809Y-57083847D01*
X14771389Y-57139085D01*
X14717087Y-57213825D01*
X14609897Y-57424197D01*
X14536934Y-57648752D01*
X14500000Y-57881947D01*
X14500000Y-58118052D01*
X14536934Y-58351247D01*
X14609897Y-58575802D01*
X14717087Y-58786174D01*
X14777338Y-58869104D01*
X14777340Y-58869105D01*
X15517037Y-58129408D01*
X15534075Y-58192993D01*
X15599901Y-58307007D01*
X15692993Y-58400099D01*
X15807007Y-58465925D01*
X15870590Y-58482962D01*
X15130893Y-59222658D01*
X15213828Y-59282914D01*
X15424197Y-59390102D01*
X15648752Y-59463065D01*
X15648751Y-59463065D01*
X15881948Y-59500000D01*
X16118052Y-59500000D01*
X16351247Y-59463065D01*
X16575802Y-59390102D01*
X16786163Y-59282918D01*
X16786169Y-59282914D01*
X16869104Y-59222658D01*
X16869105Y-59222658D01*
X16129408Y-58482962D01*
X16192993Y-58465925D01*
X16307007Y-58400099D01*
X16400099Y-58307007D01*
X16465925Y-58192993D01*
X16482962Y-58129409D01*
X17222658Y-58869105D01*
X17222658Y-58869104D01*
X17282914Y-58786169D01*
X17282918Y-58786163D01*
X17390102Y-58575802D01*
X17463065Y-58351247D01*
X17500000Y-58118052D01*
X17500000Y-57881947D01*
X17463065Y-57648752D01*
X17390102Y-57424197D01*
X17282912Y-57213825D01*
X17228611Y-57139085D01*
X17205131Y-57073279D01*
X17220956Y-57005225D01*
X17271062Y-56956530D01*
X17328929Y-56942200D01*
X25127867Y-56942200D01*
X25194906Y-56961885D01*
X25215548Y-56978519D01*
X25642040Y-57405011D01*
X25697989Y-57460960D01*
X25697991Y-57460961D01*
X25697995Y-57460964D01*
X25737350Y-57483685D01*
X25766511Y-57500521D01*
X25842938Y-57521000D01*
X25842940Y-57521000D01*
X29359060Y-57521000D01*
X29359062Y-57521000D01*
X29435489Y-57500521D01*
X29504011Y-57460960D01*
X29559960Y-57405011D01*
X29958193Y-57006776D01*
X30019514Y-56973293D01*
X30089205Y-56978277D01*
X30102155Y-56983968D01*
X30127151Y-56996705D01*
X30256444Y-57038715D01*
X30288152Y-57049018D01*
X30455351Y-57075500D01*
X30455356Y-57075500D01*
X30624649Y-57075500D01*
X30791847Y-57049018D01*
X30952849Y-56996705D01*
X31103685Y-56919850D01*
X31240641Y-56820346D01*
X31360346Y-56700641D01*
X31459850Y-56563685D01*
X31536705Y-56412849D01*
X31536706Y-56412844D01*
X31537906Y-56409949D01*
X31538658Y-56409014D01*
X31538917Y-56408508D01*
X31539023Y-56408562D01*
X31581741Y-56355541D01*
X31648032Y-56333469D01*
X31715733Y-56350740D01*
X31763350Y-56401872D01*
X31770403Y-56419071D01*
X31805735Y-56527814D01*
X31805736Y-56527817D01*
X31903996Y-56720660D01*
X31946829Y-56779615D01*
X31946830Y-56779616D01*
X32597037Y-56129409D01*
X32614075Y-56192993D01*
G37*
%TD.AperFunction*%
%TA.AperFunction,Conductor*%
G36*
X40943738Y-48320185D02*
G01*
X40989493Y-48372989D01*
X40994629Y-48386180D01*
X41003294Y-48412849D01*
X41080152Y-48563688D01*
X41179648Y-48700634D01*
X41179650Y-48700637D01*
X41299360Y-48820347D01*
X41299365Y-48820351D01*
X41418817Y-48907137D01*
X41436315Y-48919850D01*
X41532425Y-48968820D01*
X41587146Y-48996703D01*
X41587148Y-48996703D01*
X41587151Y-48996705D01*
X41673450Y-49024745D01*
X41748152Y-49049018D01*
X41914694Y-49075396D01*
X41977829Y-49105325D01*
X42014760Y-49164637D01*
X42013762Y-49234499D01*
X41982977Y-49285550D01*
X34506401Y-56762127D01*
X34445078Y-56795612D01*
X34375386Y-56790628D01*
X34319453Y-56748756D01*
X34295036Y-56683292D01*
X34308236Y-56618151D01*
X34354258Y-56527827D01*
X34354264Y-56527814D01*
X34421142Y-56321981D01*
X34455000Y-56108220D01*
X34455000Y-55891779D01*
X34421142Y-55678018D01*
X34354264Y-55472185D01*
X34354263Y-55472182D01*
X34256005Y-55279342D01*
X34213168Y-55220383D01*
X34213168Y-55220382D01*
X33562962Y-55870590D01*
X33545925Y-55807007D01*
X33480099Y-55692993D01*
X33387007Y-55599901D01*
X33272993Y-55534075D01*
X33209408Y-55517037D01*
X33859616Y-54866830D01*
X33859615Y-54866829D01*
X33800660Y-54823996D01*
X33607817Y-54725736D01*
X33607814Y-54725735D01*
X33401981Y-54658857D01*
X33188220Y-54625000D01*
X32971780Y-54625000D01*
X32758018Y-54658857D01*
X32552185Y-54725735D01*
X32552182Y-54725736D01*
X32359346Y-54823992D01*
X32300383Y-54866830D01*
X32950591Y-55517037D01*
X32887007Y-55534075D01*
X32772993Y-55599901D01*
X32679901Y-55692993D01*
X32614075Y-55807007D01*
X32597037Y-55870590D01*
X31946830Y-55220383D01*
X31903992Y-55279346D01*
X31805736Y-55472182D01*
X31805735Y-55472185D01*
X31770403Y-55580928D01*
X31730965Y-55638604D01*
X31666607Y-55665802D01*
X31597760Y-55653887D01*
X31546285Y-55606643D01*
X31537908Y-55590055D01*
X31536706Y-55587153D01*
X31509661Y-55534075D01*
X31459850Y-55436315D01*
X31446682Y-55418191D01*
X31360351Y-55299365D01*
X31360347Y-55299360D01*
X31240639Y-55179652D01*
X31240634Y-55179648D01*
X31103688Y-55080152D01*
X31103687Y-55080151D01*
X31103685Y-55080150D01*
X30994610Y-55024573D01*
X30994608Y-55024571D01*
X30952857Y-55003298D01*
X30952859Y-55003298D01*
X30791847Y-54950981D01*
X30624649Y-54924500D01*
X30624644Y-54924500D01*
X30455356Y-54924500D01*
X30455351Y-54924500D01*
X30288152Y-54950981D01*
X30127146Y-55003296D01*
X29976311Y-55080152D01*
X29839365Y-55179648D01*
X29839360Y-55179652D01*
X29719652Y-55299360D01*
X29719648Y-55299365D01*
X29620152Y-55436311D01*
X29543296Y-55587146D01*
X29490981Y-55748152D01*
X29464500Y-55915350D01*
X29464500Y-56084649D01*
X29490981Y-56251847D01*
X29524926Y-56356315D01*
X29539728Y-56401872D01*
X29543296Y-56412851D01*
X29556025Y-56437834D01*
X29568920Y-56506503D01*
X29542642Y-56571243D01*
X29533221Y-56581807D01*
X29231346Y-56883682D01*
X29204417Y-56898386D01*
X29178602Y-56914977D01*
X29172401Y-56915868D01*
X29170025Y-56917166D01*
X29143667Y-56920000D01*
X28900349Y-56920000D01*
X28833310Y-56900315D01*
X28787555Y-56847511D01*
X28777611Y-56778353D01*
X28806636Y-56714797D01*
X28812668Y-56708319D01*
X28820346Y-56700641D01*
X28919850Y-56563685D01*
X28996705Y-56412849D01*
X29049018Y-56251847D01*
X29054163Y-56219365D01*
X29075500Y-56084649D01*
X29075500Y-55915350D01*
X29049018Y-55748152D01*
X29031095Y-55692993D01*
X28996705Y-55587151D01*
X28983973Y-55562164D01*
X28971078Y-55493498D01*
X28997354Y-55428758D01*
X29006769Y-55418200D01*
X36088152Y-48336819D01*
X36149475Y-48303334D01*
X36175833Y-48300500D01*
X40876699Y-48300500D01*
X40943738Y-48320185D01*
G37*
%TD.AperFunction*%
%TA.AperFunction,Conductor*%
G36*
X35646978Y-12556663D02*
G01*
X35705211Y-12595273D01*
X35731965Y-12650937D01*
X35767947Y-12831829D01*
X35767950Y-12831839D01*
X35843364Y-13013907D01*
X35843371Y-13013920D01*
X35952860Y-13177781D01*
X35952863Y-13177785D01*
X36092214Y-13317136D01*
X36092218Y-13317139D01*
X36256079Y-13426628D01*
X36256092Y-13426635D01*
X36330980Y-13457654D01*
X36438165Y-13502051D01*
X36438169Y-13502051D01*
X36438170Y-13502052D01*
X36525250Y-13519374D01*
X36587161Y-13551759D01*
X36621735Y-13612475D01*
X36617995Y-13682244D01*
X36582934Y-13734117D01*
X36573703Y-13742232D01*
X36547086Y-13757600D01*
X36480579Y-13824106D01*
X36477600Y-13826726D01*
X36449379Y-13839860D01*
X36422082Y-13854766D01*
X36415932Y-13855427D01*
X36414255Y-13856208D01*
X36411793Y-13855872D01*
X36395724Y-13857600D01*
X34969804Y-13857600D01*
X34902765Y-13837915D01*
X34857010Y-13785111D01*
X34847066Y-13715953D01*
X34876091Y-13652397D01*
X34896917Y-13633283D01*
X34915921Y-13619474D01*
X34278584Y-12982138D01*
X34363694Y-12959333D01*
X34466306Y-12900090D01*
X34550090Y-12816306D01*
X34609333Y-12713694D01*
X34632138Y-12628585D01*
X35269474Y-13265921D01*
X35301859Y-13221349D01*
X35394755Y-13039031D01*
X35457990Y-12844417D01*
X35487875Y-12655731D01*
X35517804Y-12592596D01*
X35577116Y-12555665D01*
X35646978Y-12556663D01*
G37*
%TD.AperFunction*%
%TA.AperFunction,Conductor*%
G36*
X31031670Y-10087288D02*
G01*
X31076018Y-10115789D01*
X31254210Y-10293981D01*
X31287695Y-10355304D01*
X31282711Y-10424996D01*
X31254210Y-10469343D01*
X30962573Y-10760979D01*
X30876751Y-10632537D01*
X30737463Y-10493249D01*
X30609019Y-10407425D01*
X30900656Y-10115789D01*
X30961979Y-10082304D01*
X31031670Y-10087288D01*
G37*
%TD.AperFunction*%
%TA.AperFunction,Conductor*%
G36*
X14600000Y-8052661D02*
G01*
X14627259Y-8154394D01*
X14679920Y-8245606D01*
X14754394Y-8320080D01*
X14845606Y-8372741D01*
X14947339Y-8400000D01*
X14953552Y-8400000D01*
X14274076Y-9079474D01*
X14318650Y-9111859D01*
X14500970Y-9204755D01*
X14668396Y-9259156D01*
X14726072Y-9298594D01*
X14753270Y-9362952D01*
X14741355Y-9431799D01*
X14717760Y-9464768D01*
X14656450Y-9526079D01*
X14521646Y-9660882D01*
X14460326Y-9694366D01*
X14433967Y-9697200D01*
X12456376Y-9697200D01*
X12389337Y-9677515D01*
X12368695Y-9660881D01*
X12305016Y-9597202D01*
X12305014Y-9597200D01*
X12247950Y-9564254D01*
X12190887Y-9531308D01*
X12127239Y-9514254D01*
X12063592Y-9497200D01*
X11931808Y-9497200D01*
X11804512Y-9531308D01*
X11690386Y-9597200D01*
X11690383Y-9597202D01*
X11597202Y-9690383D01*
X11597200Y-9690386D01*
X11531309Y-9804511D01*
X11523113Y-9835100D01*
X11486747Y-9894760D01*
X11423900Y-9925288D01*
X11354524Y-9916993D01*
X11315657Y-9890686D01*
X10596327Y-9171356D01*
X10562842Y-9110033D01*
X10567826Y-9040341D01*
X10609698Y-8984408D01*
X10675162Y-8959991D01*
X10708200Y-8962058D01*
X10901456Y-9000500D01*
X10901459Y-9000500D01*
X11098543Y-9000500D01*
X11228582Y-8974632D01*
X11291835Y-8962051D01*
X11465252Y-8890220D01*
X11473907Y-8886635D01*
X11473907Y-8886634D01*
X11473914Y-8886632D01*
X11637782Y-8777139D01*
X11777139Y-8637782D01*
X11886632Y-8473914D01*
X11886634Y-8473907D01*
X11889502Y-8468544D01*
X11891310Y-8469510D01*
X11929272Y-8422397D01*
X11995564Y-8400326D01*
X12063265Y-8417600D01*
X12110879Y-8468734D01*
X12112522Y-8472331D01*
X12113371Y-8473920D01*
X12222860Y-8637781D01*
X12222863Y-8637785D01*
X12362214Y-8777136D01*
X12362218Y-8777139D01*
X12526079Y-8886628D01*
X12526092Y-8886635D01*
X12708160Y-8962049D01*
X12708165Y-8962051D01*
X12708169Y-8962051D01*
X12708170Y-8962052D01*
X12901456Y-9000500D01*
X12901459Y-9000500D01*
X13098543Y-9000500D01*
X13228582Y-8974632D01*
X13291835Y-8962051D01*
X13465252Y-8890220D01*
X13473907Y-8886635D01*
X13473907Y-8886634D01*
X13473914Y-8886632D01*
X13637782Y-8777139D01*
X13720435Y-8694485D01*
X13781756Y-8661001D01*
X13851447Y-8665985D01*
X13907381Y-8707855D01*
X13908433Y-8709281D01*
X13920523Y-8725921D01*
X13920524Y-8725922D01*
X14600000Y-8046446D01*
X14600000Y-8052661D01*
G37*
%TD.AperFunction*%
%TA.AperFunction,Conductor*%
G36*
X49006922Y-501280D02*
G01*
X49097266Y-511459D01*
X49124331Y-517636D01*
X49203540Y-545352D01*
X49228553Y-557398D01*
X49299606Y-602043D01*
X49321313Y-619355D01*
X49380644Y-678686D01*
X49397957Y-700395D01*
X49442600Y-771444D01*
X49454648Y-796462D01*
X49482362Y-875666D01*
X49488540Y-902735D01*
X49498720Y-993076D01*
X49499500Y-1006961D01*
X49499500Y-78993038D01*
X49498720Y-79006923D01*
X49488540Y-79097264D01*
X49482362Y-79124333D01*
X49454648Y-79203537D01*
X49442600Y-79228555D01*
X49397957Y-79299604D01*
X49380644Y-79321313D01*
X49321313Y-79380644D01*
X49299604Y-79397957D01*
X49228555Y-79442600D01*
X49203537Y-79454648D01*
X49124333Y-79482362D01*
X49097264Y-79488540D01*
X49017075Y-79497576D01*
X49006921Y-79498720D01*
X48993038Y-79499500D01*
X34304833Y-79499500D01*
X34237794Y-79479815D01*
X34192039Y-79427011D01*
X34182095Y-79357853D01*
X34211120Y-79294297D01*
X34217152Y-79287819D01*
X34760660Y-78744311D01*
X36498193Y-77006776D01*
X36559514Y-76973293D01*
X36629206Y-76978277D01*
X36642155Y-76983968D01*
X36667151Y-76996705D01*
X36796444Y-77038715D01*
X36828152Y-77049018D01*
X36995351Y-77075500D01*
X36995356Y-77075500D01*
X37164649Y-77075500D01*
X37331847Y-77049018D01*
X37492849Y-76996705D01*
X37643685Y-76919850D01*
X37780641Y-76820346D01*
X37900346Y-76700641D01*
X37999850Y-76563685D01*
X38076705Y-76412849D01*
X38129018Y-76251847D01*
X38155500Y-76084649D01*
X38155500Y-75915350D01*
X38129018Y-75748152D01*
X38083038Y-75606643D01*
X38076705Y-75587151D01*
X38076703Y-75587148D01*
X38076703Y-75587146D01*
X38032299Y-75500000D01*
X37999850Y-75436315D01*
X37986682Y-75418191D01*
X37900351Y-75299365D01*
X37900347Y-75299360D01*
X37780639Y-75179652D01*
X37780634Y-75179648D01*
X37643688Y-75080152D01*
X37643687Y-75080151D01*
X37643685Y-75080150D01*
X37596582Y-75056150D01*
X37492853Y-75003296D01*
X37331847Y-74950981D01*
X37295803Y-74945273D01*
X37232668Y-74915344D01*
X37195737Y-74856032D01*
X37196735Y-74786170D01*
X37235345Y-74727937D01*
X37299309Y-74699823D01*
X37315201Y-74698800D01*
X37842467Y-74698800D01*
X37909506Y-74718485D01*
X37930148Y-74735119D01*
X38613220Y-75418191D01*
X38646705Y-75479514D01*
X38641721Y-75549206D01*
X38636025Y-75562164D01*
X38623298Y-75587143D01*
X38623296Y-75587148D01*
X38623295Y-75587151D01*
X38616962Y-75606643D01*
X38570981Y-75748152D01*
X38544500Y-75915350D01*
X38544500Y-76084649D01*
X38570981Y-76251847D01*
X38623296Y-76412853D01*
X38700152Y-76563688D01*
X38799648Y-76700634D01*
X38799652Y-76700639D01*
X38919360Y-76820347D01*
X38919365Y-76820351D01*
X39038817Y-76907137D01*
X39056315Y-76919850D01*
X39152425Y-76968820D01*
X39207146Y-76996703D01*
X39207148Y-76996703D01*
X39207151Y-76996705D01*
X39293450Y-77024745D01*
X39368152Y-77049018D01*
X39535351Y-77075500D01*
X39535356Y-77075500D01*
X39704649Y-77075500D01*
X39871847Y-77049018D01*
X40032849Y-76996705D01*
X40183685Y-76919850D01*
X40320641Y-76820346D01*
X40440346Y-76700641D01*
X40539850Y-76563685D01*
X40616705Y-76412849D01*
X40669018Y-76251847D01*
X40695500Y-76084649D01*
X40695500Y-75915350D01*
X41084500Y-75915350D01*
X41084500Y-76084649D01*
X41110981Y-76251847D01*
X41163296Y-76412853D01*
X41240152Y-76563688D01*
X41339648Y-76700634D01*
X41339652Y-76700639D01*
X41459360Y-76820347D01*
X41459365Y-76820351D01*
X41578817Y-76907137D01*
X41596315Y-76919850D01*
X41692425Y-76968820D01*
X41747146Y-76996703D01*
X41747148Y-76996703D01*
X41747151Y-76996705D01*
X41833450Y-77024745D01*
X41908152Y-77049018D01*
X42075351Y-77075500D01*
X42075356Y-77075500D01*
X42244649Y-77075500D01*
X42411847Y-77049018D01*
X42572849Y-76996705D01*
X42723685Y-76919850D01*
X42860641Y-76820346D01*
X42980346Y-76700641D01*
X43079850Y-76563685D01*
X43156705Y-76412849D01*
X43156706Y-76412844D01*
X43157906Y-76409949D01*
X43158658Y-76409014D01*
X43158917Y-76408508D01*
X43159023Y-76408562D01*
X43201741Y-76355541D01*
X43268032Y-76333469D01*
X43335733Y-76350740D01*
X43383350Y-76401872D01*
X43390403Y-76419071D01*
X43425735Y-76527814D01*
X43425736Y-76527817D01*
X43523996Y-76720660D01*
X43566829Y-76779615D01*
X43566830Y-76779616D01*
X44217037Y-76129409D01*
X44234075Y-76192993D01*
X44299901Y-76307007D01*
X44392993Y-76400099D01*
X44507007Y-76465925D01*
X44570590Y-76482962D01*
X43920382Y-77133168D01*
X43979342Y-77176005D01*
X44172182Y-77274263D01*
X44172185Y-77274264D01*
X44378018Y-77341142D01*
X44591780Y-77375000D01*
X44808220Y-77375000D01*
X45021981Y-77341142D01*
X45227814Y-77274264D01*
X45227817Y-77274263D01*
X45420656Y-77176006D01*
X45479615Y-77133168D01*
X45479616Y-77133168D01*
X44829409Y-76482962D01*
X44892993Y-76465925D01*
X45007007Y-76400099D01*
X45100099Y-76307007D01*
X45165925Y-76192993D01*
X45182962Y-76129410D01*
X45833168Y-76779616D01*
X45833168Y-76779615D01*
X45876006Y-76720656D01*
X45974263Y-76527817D01*
X45974264Y-76527814D01*
X46041142Y-76321981D01*
X46075000Y-76108220D01*
X46075000Y-75891779D01*
X46041142Y-75678018D01*
X45974264Y-75472185D01*
X45974263Y-75472182D01*
X45876005Y-75279342D01*
X45833168Y-75220383D01*
X45833168Y-75220382D01*
X45182962Y-75870589D01*
X45165925Y-75807007D01*
X45100099Y-75692993D01*
X45007007Y-75599901D01*
X44892993Y-75534075D01*
X44829408Y-75517037D01*
X45479616Y-74866830D01*
X45479615Y-74866829D01*
X45420660Y-74823996D01*
X45227817Y-74725736D01*
X45227814Y-74725735D01*
X45021981Y-74658857D01*
X44808220Y-74625000D01*
X44591780Y-74625000D01*
X44378018Y-74658857D01*
X44172185Y-74725735D01*
X44172182Y-74725736D01*
X43979346Y-74823992D01*
X43920383Y-74866830D01*
X44570591Y-75517037D01*
X44507007Y-75534075D01*
X44392993Y-75599901D01*
X44299901Y-75692993D01*
X44234075Y-75807007D01*
X44217037Y-75870590D01*
X43566830Y-75220383D01*
X43523992Y-75279346D01*
X43425736Y-75472182D01*
X43425735Y-75472185D01*
X43390403Y-75580928D01*
X43350965Y-75638604D01*
X43286607Y-75665802D01*
X43217760Y-75653887D01*
X43166285Y-75606643D01*
X43157908Y-75590055D01*
X43156706Y-75587153D01*
X43112299Y-75500000D01*
X43079850Y-75436315D01*
X43066682Y-75418191D01*
X42980351Y-75299365D01*
X42980347Y-75299360D01*
X42860639Y-75179652D01*
X42860634Y-75179648D01*
X42723688Y-75080152D01*
X42723687Y-75080151D01*
X42723685Y-75080150D01*
X42614610Y-75024573D01*
X42614608Y-75024571D01*
X42572857Y-75003298D01*
X42572859Y-75003298D01*
X42411847Y-74950981D01*
X42244649Y-74924500D01*
X42244644Y-74924500D01*
X42075356Y-74924500D01*
X42075351Y-74924500D01*
X41908152Y-74950981D01*
X41747146Y-75003296D01*
X41596311Y-75080152D01*
X41459365Y-75179648D01*
X41459360Y-75179652D01*
X41339652Y-75299360D01*
X41339648Y-75299365D01*
X41240152Y-75436311D01*
X41163296Y-75587146D01*
X41110981Y-75748152D01*
X41084500Y-75915350D01*
X40695500Y-75915350D01*
X40669018Y-75748152D01*
X40623038Y-75606643D01*
X40616705Y-75587151D01*
X40616703Y-75587148D01*
X40616703Y-75587146D01*
X40572299Y-75500000D01*
X40539850Y-75436315D01*
X40526682Y-75418191D01*
X40440351Y-75299365D01*
X40440347Y-75299360D01*
X40320639Y-75179652D01*
X40320634Y-75179648D01*
X40183688Y-75080152D01*
X40183687Y-75080151D01*
X40183685Y-75080150D01*
X40136582Y-75056150D01*
X40032853Y-75003296D01*
X39871847Y-74950981D01*
X39704649Y-74924500D01*
X39704644Y-74924500D01*
X39535356Y-74924500D01*
X39535351Y-74924500D01*
X39368152Y-74950981D01*
X39244525Y-74991151D01*
X39207151Y-75003295D01*
X39207148Y-75003296D01*
X39207143Y-75003298D01*
X39182164Y-75016025D01*
X39113495Y-75028920D01*
X39048755Y-75002642D01*
X39038191Y-74993220D01*
X38202812Y-74157841D01*
X38202807Y-74157837D01*
X38193365Y-74152386D01*
X38193364Y-74152386D01*
X38134291Y-74118280D01*
X38134290Y-74118279D01*
X38108813Y-74111452D01*
X38057862Y-74097800D01*
X38057860Y-74097800D01*
X14292176Y-74097800D01*
X14225137Y-74078115D01*
X14204495Y-74061481D01*
X14140816Y-73997802D01*
X14140814Y-73997800D01*
X14083750Y-73964854D01*
X14026687Y-73931908D01*
X13963039Y-73914854D01*
X13899392Y-73897800D01*
X13767608Y-73897800D01*
X13640312Y-73931908D01*
X13526186Y-73997800D01*
X13526183Y-73997802D01*
X13433002Y-74090983D01*
X13433000Y-74090986D01*
X13367108Y-74205112D01*
X13333000Y-74332408D01*
X13333000Y-74464191D01*
X13367108Y-74591487D01*
X13386457Y-74625000D01*
X13433000Y-74705614D01*
X13526186Y-74798800D01*
X13640314Y-74864692D01*
X13767608Y-74898800D01*
X13767610Y-74898800D01*
X13899390Y-74898800D01*
X13899392Y-74898800D01*
X14026686Y-74864692D01*
X14140814Y-74798800D01*
X14204495Y-74735119D01*
X14265818Y-74701634D01*
X14292176Y-74698800D01*
X31764799Y-74698800D01*
X31831838Y-74718485D01*
X31877593Y-74771289D01*
X31887537Y-74840447D01*
X31858512Y-74904003D01*
X31799734Y-74941777D01*
X31784197Y-74945273D01*
X31748152Y-74950981D01*
X31587146Y-75003296D01*
X31436311Y-75080152D01*
X31299365Y-75179648D01*
X31299360Y-75179652D01*
X31179652Y-75299360D01*
X31179648Y-75299365D01*
X31080152Y-75436311D01*
X31003294Y-75587150D01*
X30994629Y-75613820D01*
X30955191Y-75671495D01*
X30890831Y-75698692D01*
X30876699Y-75699500D01*
X10621733Y-75699500D01*
X10554694Y-75679815D01*
X10534052Y-75663181D01*
X9687019Y-74816148D01*
X9653534Y-74754825D01*
X9650700Y-74728467D01*
X9650700Y-74638410D01*
X9650700Y-74638408D01*
X9616592Y-74511114D01*
X9550700Y-74396986D01*
X9457514Y-74303800D01*
X9400450Y-74270854D01*
X9343387Y-74237908D01*
X9279739Y-74220854D01*
X9216092Y-74203800D01*
X9084308Y-74203800D01*
X8957012Y-74237908D01*
X8842886Y-74303800D01*
X8842883Y-74303802D01*
X8749702Y-74396983D01*
X8749700Y-74396986D01*
X8683808Y-74511112D01*
X8662272Y-74591487D01*
X8649700Y-74638408D01*
X8649700Y-74770192D01*
X8662014Y-74816148D01*
X8683808Y-74897487D01*
X8709379Y-74941777D01*
X8749700Y-75011614D01*
X8842886Y-75104800D01*
X8957014Y-75170692D01*
X9084308Y-75204800D01*
X9084310Y-75204800D01*
X9174367Y-75204800D01*
X9241406Y-75224485D01*
X9262048Y-75241119D01*
X10261389Y-76240460D01*
X10329912Y-76280022D01*
X10406338Y-76300500D01*
X10485462Y-76300500D01*
X30876699Y-76300500D01*
X30943738Y-76320185D01*
X30989493Y-76372989D01*
X30994629Y-76386180D01*
X31003294Y-76412849D01*
X31080152Y-76563688D01*
X31179648Y-76700634D01*
X31179652Y-76700639D01*
X31299360Y-76820347D01*
X31299365Y-76820351D01*
X31418817Y-76907137D01*
X31436315Y-76919850D01*
X31532425Y-76968820D01*
X31587146Y-76996703D01*
X31587148Y-76996703D01*
X31587151Y-76996705D01*
X31673450Y-77024745D01*
X31748152Y-77049018D01*
X31915351Y-77075500D01*
X31915356Y-77075500D01*
X32084649Y-77075500D01*
X32251847Y-77049018D01*
X32412849Y-76996705D01*
X32563685Y-76919850D01*
X32700641Y-76820346D01*
X32820346Y-76700641D01*
X32919850Y-76563685D01*
X32996705Y-76412849D01*
X33049018Y-76251847D01*
X33075500Y-76084649D01*
X33075500Y-75915350D01*
X33049018Y-75748152D01*
X33003038Y-75606643D01*
X32996705Y-75587151D01*
X32996703Y-75587148D01*
X32996703Y-75587146D01*
X32952299Y-75500000D01*
X32919850Y-75436315D01*
X32906682Y-75418191D01*
X32820351Y-75299365D01*
X32820347Y-75299360D01*
X32700639Y-75179652D01*
X32700634Y-75179648D01*
X32563688Y-75080152D01*
X32563687Y-75080151D01*
X32563685Y-75080150D01*
X32516582Y-75056150D01*
X32412853Y-75003296D01*
X32251847Y-74950981D01*
X32215803Y-74945273D01*
X32152668Y-74915344D01*
X32115737Y-74856032D01*
X32116735Y-74786170D01*
X32155345Y-74727937D01*
X32219309Y-74699823D01*
X32235201Y-74698800D01*
X34304799Y-74698800D01*
X34371838Y-74718485D01*
X34417593Y-74771289D01*
X34427537Y-74840447D01*
X34398512Y-74904003D01*
X34339734Y-74941777D01*
X34324197Y-74945273D01*
X34288152Y-74950981D01*
X34127146Y-75003296D01*
X33976311Y-75080152D01*
X33839365Y-75179648D01*
X33839360Y-75179652D01*
X33719652Y-75299360D01*
X33719648Y-75299365D01*
X33620152Y-75436311D01*
X33543296Y-75587146D01*
X33490981Y-75748152D01*
X33464500Y-75915350D01*
X33464500Y-76084649D01*
X33490981Y-76251847D01*
X33523114Y-76350740D01*
X33539728Y-76401872D01*
X33543296Y-76412851D01*
X33556025Y-76437834D01*
X33568920Y-76506503D01*
X33542642Y-76571243D01*
X33533220Y-76581807D01*
X31892048Y-78222981D01*
X31830725Y-78256466D01*
X31804367Y-78259300D01*
X10694176Y-78259300D01*
X10627137Y-78239615D01*
X10606495Y-78222981D01*
X10542816Y-78159302D01*
X10542814Y-78159300D01*
X10485750Y-78126354D01*
X10428687Y-78093408D01*
X10365039Y-78076354D01*
X10301392Y-78059300D01*
X10169608Y-78059300D01*
X10042312Y-78093408D01*
X9928186Y-78159300D01*
X9928183Y-78159302D01*
X9835002Y-78252483D01*
X9835000Y-78252486D01*
X9769108Y-78366612D01*
X9735000Y-78493908D01*
X9735000Y-78625691D01*
X9769108Y-78752987D01*
X9796400Y-78800257D01*
X9835000Y-78867114D01*
X9928186Y-78960300D01*
X10027021Y-79017363D01*
X10034301Y-79021566D01*
X10042314Y-79026192D01*
X10169608Y-79060300D01*
X10169610Y-79060300D01*
X10301390Y-79060300D01*
X10301392Y-79060300D01*
X10428686Y-79026192D01*
X10542814Y-78960300D01*
X10606495Y-78896619D01*
X10667818Y-78863134D01*
X10694176Y-78860300D01*
X12664035Y-78860300D01*
X12731074Y-78879985D01*
X12776829Y-78932789D01*
X12786773Y-79001947D01*
X12771422Y-79046298D01*
X12760108Y-79065896D01*
X12722108Y-79131712D01*
X12688000Y-79259008D01*
X12688000Y-79375500D01*
X12668315Y-79442539D01*
X12615511Y-79488294D01*
X12564000Y-79499500D01*
X1006977Y-79499500D01*
X993091Y-79498720D01*
X977019Y-79496908D01*
X902742Y-79488538D01*
X875674Y-79482359D01*
X796471Y-79454644D01*
X771453Y-79442596D01*
X700402Y-79397951D01*
X678694Y-79380639D01*
X619360Y-79321305D01*
X602048Y-79299597D01*
X598718Y-79294297D01*
X557401Y-79228543D01*
X545355Y-79203528D01*
X517640Y-79124325D01*
X511461Y-79097255D01*
X501280Y-79006908D01*
X500500Y-78993023D01*
X500500Y-57905513D01*
X4799500Y-57905513D01*
X4799500Y-58094486D01*
X4829059Y-58281118D01*
X4887454Y-58460836D01*
X4965201Y-58613421D01*
X4973240Y-58629199D01*
X5084310Y-58782073D01*
X5217927Y-58915690D01*
X5370801Y-59026760D01*
X5410811Y-59047146D01*
X5539163Y-59112545D01*
X5539165Y-59112545D01*
X5539168Y-59112547D01*
X5635497Y-59143846D01*
X5718881Y-59170940D01*
X5905514Y-59200500D01*
X5905519Y-59200500D01*
X6094486Y-59200500D01*
X6281118Y-59170940D01*
X6460832Y-59112547D01*
X6629199Y-59026760D01*
X6782073Y-58915690D01*
X6915690Y-58782073D01*
X7026760Y-58629199D01*
X7112547Y-58460832D01*
X7170940Y-58281118D01*
X7200500Y-58094486D01*
X7200500Y-57905513D01*
X7170940Y-57718881D01*
X7139019Y-57620641D01*
X7112547Y-57539168D01*
X7076910Y-57469228D01*
X7064015Y-57400561D01*
X7090291Y-57335820D01*
X7099705Y-57325264D01*
X7446452Y-56978519D01*
X7507775Y-56945034D01*
X7534133Y-56942200D01*
X10060675Y-56942200D01*
X10127714Y-56961885D01*
X10173469Y-57014689D01*
X10183413Y-57083847D01*
X10154388Y-57147403D01*
X10148356Y-57153881D01*
X10084312Y-57217924D01*
X10084312Y-57217925D01*
X10084310Y-57217927D01*
X10076820Y-57228236D01*
X9973240Y-57370800D01*
X9887454Y-57539163D01*
X9829059Y-57718881D01*
X9799500Y-57905513D01*
X9799500Y-58094486D01*
X9829059Y-58281118D01*
X9887454Y-58460836D01*
X9965201Y-58613421D01*
X9973240Y-58629199D01*
X10084310Y-58782073D01*
X10217927Y-58915690D01*
X10370801Y-59026760D01*
X10410811Y-59047146D01*
X10539163Y-59112545D01*
X10539165Y-59112545D01*
X10539168Y-59112547D01*
X10635497Y-59143846D01*
X10718881Y-59170940D01*
X10905514Y-59200500D01*
X10905519Y-59200500D01*
X11094486Y-59200500D01*
X11281118Y-59170940D01*
X11460832Y-59112547D01*
X11530769Y-59076911D01*
X11599436Y-59064015D01*
X11664177Y-59090291D01*
X11674744Y-59099715D01*
X14940040Y-62365011D01*
X14995989Y-62420960D01*
X14995991Y-62420961D01*
X14995995Y-62420964D01*
X15064504Y-62460517D01*
X15064511Y-62460521D01*
X15140938Y-62481000D01*
X15140940Y-62481000D01*
X29399060Y-62481000D01*
X29399062Y-62481000D01*
X29475489Y-62460521D01*
X29544011Y-62420960D01*
X29599960Y-62365011D01*
X29958193Y-62006776D01*
X30019514Y-61973293D01*
X30089205Y-61978277D01*
X30102155Y-61983968D01*
X30127151Y-61996705D01*
X30256444Y-62038715D01*
X30288152Y-62049018D01*
X30455351Y-62075500D01*
X30455356Y-62075500D01*
X30624649Y-62075500D01*
X30791847Y-62049018D01*
X30952849Y-61996705D01*
X31103685Y-61919850D01*
X31240641Y-61820346D01*
X31360346Y-61700641D01*
X31459850Y-61563685D01*
X31536705Y-61412849D01*
X31536706Y-61412844D01*
X31537906Y-61409949D01*
X31538658Y-61409014D01*
X31538917Y-61408508D01*
X31539023Y-61408562D01*
X31581741Y-61355541D01*
X31648032Y-61333469D01*
X31715733Y-61350740D01*
X31763350Y-61401872D01*
X31770403Y-61419071D01*
X31805735Y-61527814D01*
X31805736Y-61527817D01*
X31903996Y-61720660D01*
X31946829Y-61779615D01*
X31946830Y-61779616D01*
X32597037Y-61129409D01*
X32614075Y-61192993D01*
X32679901Y-61307007D01*
X32772993Y-61400099D01*
X32887007Y-61465925D01*
X32950590Y-61482962D01*
X32300382Y-62133168D01*
X32359342Y-62176005D01*
X32552182Y-62274263D01*
X32552185Y-62274264D01*
X32758018Y-62341142D01*
X32971780Y-62375000D01*
X33188220Y-62375000D01*
X33401981Y-62341142D01*
X33607814Y-62274264D01*
X33607817Y-62274263D01*
X33800656Y-62176006D01*
X33859615Y-62133168D01*
X33859616Y-62133168D01*
X33724613Y-61998165D01*
X33641798Y-61915350D01*
X40924500Y-61915350D01*
X40924500Y-62084649D01*
X40950981Y-62251847D01*
X41003296Y-62412853D01*
X41080152Y-62563688D01*
X41179648Y-62700634D01*
X41179652Y-62700639D01*
X41299360Y-62820347D01*
X41299365Y-62820351D01*
X41418817Y-62907137D01*
X41436315Y-62919850D01*
X41532425Y-62968820D01*
X41587146Y-62996703D01*
X41587148Y-62996703D01*
X41587151Y-62996705D01*
X41673450Y-63024745D01*
X41748152Y-63049018D01*
X41915351Y-63075500D01*
X41915356Y-63075500D01*
X42084649Y-63075500D01*
X42251847Y-63049018D01*
X42412849Y-62996705D01*
X42563685Y-62919850D01*
X42700641Y-62820346D01*
X42820346Y-62700641D01*
X42919850Y-62563685D01*
X42996705Y-62412849D01*
X43049018Y-62251847D01*
X43067815Y-62133168D01*
X43075500Y-62084649D01*
X43075500Y-61915350D01*
X43049018Y-61748152D01*
X42996703Y-61587146D01*
X42961523Y-61518103D01*
X42919850Y-61436315D01*
X42893538Y-61400099D01*
X42820351Y-61299365D01*
X42820347Y-61299360D01*
X42700639Y-61179652D01*
X42700634Y-61179648D01*
X42563688Y-61080152D01*
X42563687Y-61080151D01*
X42563685Y-61080150D01*
X42516582Y-61056150D01*
X42412853Y-61003296D01*
X42251847Y-60950981D01*
X42084649Y-60924500D01*
X42084644Y-60924500D01*
X41915356Y-60924500D01*
X41915351Y-60924500D01*
X41748152Y-60950981D01*
X41587146Y-61003296D01*
X41436311Y-61080152D01*
X41299365Y-61179648D01*
X41299360Y-61179652D01*
X41179652Y-61299360D01*
X41179648Y-61299365D01*
X41080152Y-61436311D01*
X41003296Y-61587146D01*
X40950981Y-61748152D01*
X40924500Y-61915350D01*
X33641798Y-61915350D01*
X33209409Y-61482962D01*
X33272993Y-61465925D01*
X33387007Y-61400099D01*
X33480099Y-61307007D01*
X33545925Y-61192993D01*
X33562962Y-61129410D01*
X34213168Y-61779616D01*
X34213168Y-61779615D01*
X34256006Y-61720656D01*
X34354263Y-61527817D01*
X34354264Y-61527814D01*
X34421142Y-61321981D01*
X34455000Y-61108220D01*
X34455000Y-60891779D01*
X34421142Y-60678018D01*
X34354264Y-60472185D01*
X34354263Y-60472182D01*
X34256005Y-60279342D01*
X34213168Y-60220383D01*
X34213168Y-60220382D01*
X33562962Y-60870589D01*
X33545925Y-60807007D01*
X33480099Y-60692993D01*
X33387007Y-60599901D01*
X33272993Y-60534075D01*
X33209408Y-60517037D01*
X33859616Y-59866830D01*
X33859615Y-59866829D01*
X33800660Y-59823996D01*
X33607817Y-59725736D01*
X33607814Y-59725735D01*
X33401981Y-59658857D01*
X33188220Y-59625000D01*
X32971780Y-59625000D01*
X32758018Y-59658857D01*
X32552185Y-59725735D01*
X32552182Y-59725736D01*
X32359346Y-59823992D01*
X32300383Y-59866830D01*
X32950591Y-60517037D01*
X32887007Y-60534075D01*
X32772993Y-60599901D01*
X32679901Y-60692993D01*
X32614075Y-60807007D01*
X32597037Y-60870590D01*
X31946830Y-60220383D01*
X31903992Y-60279346D01*
X31805736Y-60472182D01*
X31805735Y-60472185D01*
X31770403Y-60580928D01*
X31730965Y-60638604D01*
X31666607Y-60665802D01*
X31597760Y-60653887D01*
X31546285Y-60606643D01*
X31537908Y-60590055D01*
X31536706Y-60587153D01*
X31488986Y-60493498D01*
X31459850Y-60436315D01*
X31418824Y-60379847D01*
X31360351Y-60299365D01*
X31360347Y-60299360D01*
X31240639Y-60179652D01*
X31240634Y-60179648D01*
X31103688Y-60080152D01*
X31103687Y-60080151D01*
X31103685Y-60080150D01*
X30994610Y-60024573D01*
X30994608Y-60024571D01*
X30952857Y-60003298D01*
X30952859Y-60003298D01*
X30791847Y-59950981D01*
X30624649Y-59924500D01*
X30624644Y-59924500D01*
X30455356Y-59924500D01*
X30455351Y-59924500D01*
X30288152Y-59950981D01*
X30127146Y-60003296D01*
X29976311Y-60080152D01*
X29839365Y-60179648D01*
X29839360Y-60179652D01*
X29719652Y-60299360D01*
X29719648Y-60299365D01*
X29620152Y-60436311D01*
X29543296Y-60587146D01*
X29490981Y-60748152D01*
X29464500Y-60915350D01*
X29464500Y-61084649D01*
X29490981Y-61251847D01*
X29523114Y-61350740D01*
X29539728Y-61401872D01*
X29543296Y-61412851D01*
X29556025Y-61437834D01*
X29568920Y-61506503D01*
X29542642Y-61571243D01*
X29533221Y-61581807D01*
X29271346Y-61843682D01*
X29210026Y-61877166D01*
X29183667Y-61880000D01*
X28933398Y-61880000D01*
X28866359Y-61860315D01*
X28820604Y-61807511D01*
X28810660Y-61738353D01*
X28833080Y-61683115D01*
X28871812Y-61629802D01*
X28919850Y-61563685D01*
X28996705Y-61412849D01*
X29049018Y-61251847D01*
X29075500Y-61084649D01*
X29075500Y-60915350D01*
X29049018Y-60748152D01*
X29031095Y-60692993D01*
X28996705Y-60587151D01*
X28983973Y-60562164D01*
X28971078Y-60493498D01*
X28997354Y-60428758D01*
X29006769Y-60418200D01*
X30049621Y-59375350D01*
X40924500Y-59375350D01*
X40924500Y-59544649D01*
X40950981Y-59711847D01*
X41003296Y-59872853D01*
X41043105Y-59950981D01*
X41079149Y-60021721D01*
X41080152Y-60023688D01*
X41179648Y-60160634D01*
X41179652Y-60160639D01*
X41299360Y-60280347D01*
X41299365Y-60280351D01*
X41418817Y-60367137D01*
X41436315Y-60379850D01*
X41532302Y-60428758D01*
X41587146Y-60456703D01*
X41587148Y-60456703D01*
X41587151Y-60456705D01*
X41664681Y-60481896D01*
X41748152Y-60509018D01*
X41915351Y-60535500D01*
X41915356Y-60535500D01*
X42084649Y-60535500D01*
X42251847Y-60509018D01*
X42299612Y-60493498D01*
X42412849Y-60456705D01*
X42563685Y-60379850D01*
X42700641Y-60280346D01*
X42820346Y-60160641D01*
X42919850Y-60023685D01*
X42996705Y-59872849D01*
X43049018Y-59711847D01*
X43062773Y-59625000D01*
X43075500Y-59544649D01*
X43075500Y-59375350D01*
X43049018Y-59208152D01*
X43024745Y-59133450D01*
X42996705Y-59047151D01*
X42996703Y-59047148D01*
X42996703Y-59047146D01*
X42968820Y-58992425D01*
X42919850Y-58896315D01*
X42900080Y-58869104D01*
X42820351Y-58759365D01*
X42820347Y-58759360D01*
X42700639Y-58639652D01*
X42700634Y-58639648D01*
X42563688Y-58540152D01*
X42563687Y-58540151D01*
X42563685Y-58540150D01*
X42516582Y-58516150D01*
X42412853Y-58463296D01*
X42251847Y-58410981D01*
X42084649Y-58384500D01*
X42084644Y-58384500D01*
X41915356Y-58384500D01*
X41915351Y-58384500D01*
X41748152Y-58410981D01*
X41587146Y-58463296D01*
X41436311Y-58540152D01*
X41299365Y-58639648D01*
X41299360Y-58639652D01*
X41179652Y-58759360D01*
X41179648Y-58759365D01*
X41080152Y-58896311D01*
X41003296Y-59047146D01*
X40950981Y-59208152D01*
X40924500Y-59375350D01*
X30049621Y-59375350D01*
X30100152Y-59324819D01*
X30161475Y-59291334D01*
X30187833Y-59288500D01*
X32745060Y-59288500D01*
X32745062Y-59288500D01*
X32821489Y-59268021D01*
X32890011Y-59228460D01*
X32945960Y-59172511D01*
X37846692Y-54271779D01*
X40625000Y-54271779D01*
X40625000Y-54488220D01*
X40658857Y-54701981D01*
X40725735Y-54907814D01*
X40725736Y-54907817D01*
X40823996Y-55100660D01*
X40866829Y-55159615D01*
X40866830Y-55159616D01*
X41517037Y-54509408D01*
X41534075Y-54572993D01*
X41599901Y-54687007D01*
X41692993Y-54780099D01*
X41807007Y-54845925D01*
X41870590Y-54862962D01*
X41220382Y-55513168D01*
X41279342Y-55556005D01*
X41472182Y-55654263D01*
X41472188Y-55654265D01*
X41580927Y-55689596D01*
X41638603Y-55729033D01*
X41665802Y-55793391D01*
X41653888Y-55862238D01*
X41606644Y-55913714D01*
X41590068Y-55922086D01*
X41587155Y-55923292D01*
X41436311Y-56000152D01*
X41299365Y-56099648D01*
X41299360Y-56099652D01*
X41179652Y-56219360D01*
X41179648Y-56219365D01*
X41080152Y-56356311D01*
X41003296Y-56507146D01*
X40950981Y-56668152D01*
X40924500Y-56835350D01*
X40924500Y-57004649D01*
X40950981Y-57171847D01*
X41003296Y-57332853D01*
X41080152Y-57483688D01*
X41179648Y-57620634D01*
X41179652Y-57620639D01*
X41299360Y-57740347D01*
X41299365Y-57740351D01*
X41391110Y-57807007D01*
X41436315Y-57839850D01*
X41518935Y-57881947D01*
X41587146Y-57916703D01*
X41587148Y-57916703D01*
X41587151Y-57916705D01*
X41640915Y-57934174D01*
X41748152Y-57969018D01*
X41915351Y-57995500D01*
X41915356Y-57995500D01*
X42084649Y-57995500D01*
X42251847Y-57969018D01*
X42412849Y-57916705D01*
X42563685Y-57839850D01*
X42700641Y-57740346D01*
X42820346Y-57620641D01*
X42919850Y-57483685D01*
X42996705Y-57332849D01*
X43049018Y-57171847D01*
X43075500Y-57004649D01*
X43075500Y-56835350D01*
X43049018Y-56668152D01*
X43003419Y-56527814D01*
X42996705Y-56507151D01*
X42996703Y-56507148D01*
X42996703Y-56507146D01*
X42951826Y-56419071D01*
X42919850Y-56356315D01*
X42843950Y-56251847D01*
X42820351Y-56219365D01*
X42820347Y-56219360D01*
X42700639Y-56099652D01*
X42700634Y-56099648D01*
X42563688Y-56000152D01*
X42563687Y-56000151D01*
X42563685Y-56000150D01*
X42488267Y-55961722D01*
X42412846Y-55923293D01*
X42409936Y-55922088D01*
X42408999Y-55921333D01*
X42408508Y-55921083D01*
X42408560Y-55920979D01*
X42355533Y-55878247D01*
X42333468Y-55811953D01*
X42350747Y-55744253D01*
X42401885Y-55696643D01*
X42419072Y-55689596D01*
X42527811Y-55654265D01*
X42527817Y-55654263D01*
X42720656Y-55556006D01*
X42779615Y-55513168D01*
X42779616Y-55513168D01*
X42129409Y-54862962D01*
X42192993Y-54845925D01*
X42307007Y-54780099D01*
X42400099Y-54687007D01*
X42465925Y-54572993D01*
X42482962Y-54509410D01*
X43133168Y-55159616D01*
X43133168Y-55159615D01*
X43176006Y-55100656D01*
X43274263Y-54907817D01*
X43274264Y-54907814D01*
X43341142Y-54701981D01*
X43375000Y-54488220D01*
X43375000Y-54271779D01*
X43341142Y-54058018D01*
X43274264Y-53852185D01*
X43274263Y-53852182D01*
X43176005Y-53659342D01*
X43133168Y-53600383D01*
X43133168Y-53600382D01*
X42482962Y-54250589D01*
X42465925Y-54187007D01*
X42400099Y-54072993D01*
X42307007Y-53979901D01*
X42192993Y-53914075D01*
X42129408Y-53897037D01*
X42779616Y-53246830D01*
X42779615Y-53246829D01*
X42720660Y-53203996D01*
X42527817Y-53105736D01*
X42527814Y-53105735D01*
X42321981Y-53038857D01*
X42108220Y-53005000D01*
X41891780Y-53005000D01*
X41678018Y-53038857D01*
X41472185Y-53105735D01*
X41472182Y-53105736D01*
X41279346Y-53203992D01*
X41220383Y-53246830D01*
X41870591Y-53897037D01*
X41807007Y-53914075D01*
X41692993Y-53979901D01*
X41599901Y-54072993D01*
X41534075Y-54187007D01*
X41517037Y-54250590D01*
X40866830Y-53600383D01*
X40823992Y-53659346D01*
X40725736Y-53852182D01*
X40725735Y-53852185D01*
X40658857Y-54058018D01*
X40625000Y-54271779D01*
X37846692Y-54271779D01*
X43417160Y-48701311D01*
X43417547Y-48700641D01*
X43456721Y-48632789D01*
X43477200Y-48556362D01*
X43477200Y-46597138D01*
X43456721Y-46520711D01*
X43425583Y-46466778D01*
X43417164Y-46452195D01*
X43417158Y-46452187D01*
X43006778Y-46041807D01*
X42973293Y-45980484D01*
X42978277Y-45910792D01*
X42983969Y-45897843D01*
X42996705Y-45872849D01*
X43049018Y-45711847D01*
X43075500Y-45544649D01*
X43075500Y-45375350D01*
X43049018Y-45208152D01*
X42996703Y-45047146D01*
X42927438Y-44911208D01*
X42919850Y-44896315D01*
X42907137Y-44878817D01*
X42820351Y-44759365D01*
X42820347Y-44759360D01*
X42700639Y-44639652D01*
X42700634Y-44639648D01*
X42563688Y-44540152D01*
X42563687Y-44540151D01*
X42563685Y-44540150D01*
X42488267Y-44501722D01*
X42412846Y-44463293D01*
X42409936Y-44462088D01*
X42408999Y-44461333D01*
X42408508Y-44461083D01*
X42408560Y-44460979D01*
X42355533Y-44418247D01*
X42333468Y-44351953D01*
X42350747Y-44284253D01*
X42401885Y-44236643D01*
X42419072Y-44229596D01*
X42527811Y-44194265D01*
X42527817Y-44194263D01*
X42720656Y-44096006D01*
X42779615Y-44053168D01*
X42779616Y-44053168D01*
X42129409Y-43402962D01*
X42192993Y-43385925D01*
X42307007Y-43320099D01*
X42400099Y-43227007D01*
X42465925Y-43112993D01*
X42482962Y-43049410D01*
X43133168Y-43699616D01*
X43133168Y-43699615D01*
X43176006Y-43640656D01*
X43274263Y-43447817D01*
X43274264Y-43447814D01*
X43341142Y-43241981D01*
X43375000Y-43028220D01*
X43375000Y-42811779D01*
X43341142Y-42598018D01*
X43274264Y-42392185D01*
X43274263Y-42392182D01*
X43176005Y-42199342D01*
X43133168Y-42140383D01*
X43133168Y-42140382D01*
X42482962Y-42790589D01*
X42465925Y-42727007D01*
X42400099Y-42612993D01*
X42307007Y-42519901D01*
X42192993Y-42454075D01*
X42129408Y-42437037D01*
X42779616Y-41786830D01*
X42779615Y-41786829D01*
X42720660Y-41743996D01*
X42527817Y-41645736D01*
X42527814Y-41645735D01*
X42321981Y-41578857D01*
X42108220Y-41545000D01*
X41891780Y-41545000D01*
X41678018Y-41578857D01*
X41472185Y-41645735D01*
X41472182Y-41645736D01*
X41279346Y-41743992D01*
X41220383Y-41786830D01*
X41870591Y-42437037D01*
X41807007Y-42454075D01*
X41692993Y-42519901D01*
X41599901Y-42612993D01*
X41534075Y-42727007D01*
X41517037Y-42790590D01*
X40866830Y-42140383D01*
X40823992Y-42199346D01*
X40725736Y-42392182D01*
X40725735Y-42392185D01*
X40658857Y-42598018D01*
X40625000Y-42811779D01*
X40625000Y-43028220D01*
X40658857Y-43241981D01*
X40725735Y-43447814D01*
X40725736Y-43447817D01*
X40823996Y-43640660D01*
X40866829Y-43699615D01*
X40866830Y-43699616D01*
X41517037Y-43049408D01*
X41534075Y-43112993D01*
X41599901Y-43227007D01*
X41692993Y-43320099D01*
X41807007Y-43385925D01*
X41870590Y-43402962D01*
X41220382Y-44053168D01*
X41279342Y-44096005D01*
X41472182Y-44194263D01*
X41472188Y-44194265D01*
X41580927Y-44229596D01*
X41638603Y-44269033D01*
X41665802Y-44333391D01*
X41653888Y-44402238D01*
X41606644Y-44453714D01*
X41590068Y-44462086D01*
X41587155Y-44463292D01*
X41436311Y-44540152D01*
X41299365Y-44639648D01*
X41299360Y-44639652D01*
X41179652Y-44759360D01*
X41179648Y-44759365D01*
X41080152Y-44896311D01*
X41003296Y-45047146D01*
X40950981Y-45208152D01*
X40924500Y-45375350D01*
X40924500Y-45544649D01*
X40950981Y-45711847D01*
X41003296Y-45872853D01*
X41080152Y-46023688D01*
X41179648Y-46160634D01*
X41179652Y-46160639D01*
X41299360Y-46280347D01*
X41299365Y-46280351D01*
X41418817Y-46367137D01*
X41436315Y-46379850D01*
X41532425Y-46428820D01*
X41587146Y-46456703D01*
X41587148Y-46456703D01*
X41587151Y-46456705D01*
X41673450Y-46484745D01*
X41748152Y-46509018D01*
X41915351Y-46535500D01*
X41915356Y-46535500D01*
X42084649Y-46535500D01*
X42251847Y-46509018D01*
X42412849Y-46456705D01*
X42437829Y-46443976D01*
X42506495Y-46431077D01*
X42571236Y-46457351D01*
X42581807Y-46466778D01*
X42839881Y-46724852D01*
X42873366Y-46786175D01*
X42876200Y-46812533D01*
X42876200Y-47063840D01*
X42856515Y-47130879D01*
X42803711Y-47176634D01*
X42734553Y-47186578D01*
X42679315Y-47164159D01*
X42563684Y-47080149D01*
X42412853Y-47003296D01*
X42251847Y-46950981D01*
X42084649Y-46924500D01*
X42084644Y-46924500D01*
X41915356Y-46924500D01*
X41915351Y-46924500D01*
X41748152Y-46950981D01*
X41587146Y-47003296D01*
X41436311Y-47080152D01*
X41299365Y-47179648D01*
X41299360Y-47179652D01*
X41179652Y-47299360D01*
X41179648Y-47299365D01*
X41080152Y-47436311D01*
X41003294Y-47587150D01*
X40994629Y-47613820D01*
X40955191Y-47671495D01*
X40890831Y-47698692D01*
X40876699Y-47699500D01*
X35960438Y-47699500D01*
X35922224Y-47709739D01*
X35884009Y-47719979D01*
X35884008Y-47719980D01*
X35835212Y-47748153D01*
X35829351Y-47751536D01*
X35815489Y-47759539D01*
X35815487Y-47759541D01*
X28581807Y-54993220D01*
X28520484Y-55026705D01*
X28450792Y-55021721D01*
X28437834Y-55016025D01*
X28412851Y-55003296D01*
X28412850Y-55003295D01*
X28412849Y-55003295D01*
X28371095Y-54989728D01*
X28251847Y-54950981D01*
X28084649Y-54924500D01*
X28084644Y-54924500D01*
X27915356Y-54924500D01*
X27915351Y-54924500D01*
X27748152Y-54950981D01*
X27587146Y-55003296D01*
X27436311Y-55080152D01*
X27299365Y-55179648D01*
X27299360Y-55179652D01*
X27179652Y-55299360D01*
X27179648Y-55299365D01*
X27080152Y-55436311D01*
X27003296Y-55587146D01*
X26950981Y-55748152D01*
X26924500Y-55915350D01*
X26924500Y-56084649D01*
X26950981Y-56251847D01*
X27003296Y-56412853D01*
X27080152Y-56563688D01*
X27179648Y-56700634D01*
X27179652Y-56700639D01*
X27187332Y-56708319D01*
X27220817Y-56769642D01*
X27215833Y-56839334D01*
X27173961Y-56895267D01*
X27108497Y-56919684D01*
X27099651Y-56920000D01*
X26058333Y-56920000D01*
X25991294Y-56900315D01*
X25970652Y-56883681D01*
X25488212Y-56401241D01*
X25488204Y-56401235D01*
X25419695Y-56361682D01*
X25419690Y-56361679D01*
X25394213Y-56354852D01*
X25343262Y-56341200D01*
X7318738Y-56341200D01*
X7283135Y-56350740D01*
X7242309Y-56361679D01*
X7242304Y-56361682D01*
X7173795Y-56401235D01*
X7173787Y-56401241D01*
X6674744Y-56900283D01*
X6613421Y-56933768D01*
X6543729Y-56928784D01*
X6530768Y-56923087D01*
X6460836Y-56887454D01*
X6281118Y-56829059D01*
X6094486Y-56799500D01*
X6094481Y-56799500D01*
X5905519Y-56799500D01*
X5905514Y-56799500D01*
X5718881Y-56829059D01*
X5539163Y-56887454D01*
X5370800Y-56973240D01*
X5302497Y-57022866D01*
X5217927Y-57084310D01*
X5217925Y-57084312D01*
X5217924Y-57084312D01*
X5084312Y-57217924D01*
X5084312Y-57217925D01*
X5084310Y-57217927D01*
X5076820Y-57228236D01*
X4973240Y-57370800D01*
X4887454Y-57539163D01*
X4829059Y-57718881D01*
X4799500Y-57905513D01*
X500500Y-57905513D01*
X500500Y-42904108D01*
X926400Y-42904108D01*
X926400Y-43035892D01*
X932940Y-43060300D01*
X960508Y-43163187D01*
X993454Y-43220250D01*
X1026400Y-43277314D01*
X1119586Y-43370500D01*
X1233714Y-43436392D01*
X1361008Y-43470500D01*
X1361010Y-43470500D01*
X1492790Y-43470500D01*
X1492792Y-43470500D01*
X1620086Y-43436392D01*
X1734214Y-43370500D01*
X1797895Y-43306819D01*
X1859218Y-43273334D01*
X1885576Y-43270500D01*
X12059167Y-43270500D01*
X12088607Y-43279144D01*
X12118594Y-43285668D01*
X12123609Y-43289422D01*
X12126206Y-43290185D01*
X12146848Y-43306819D01*
X12188981Y-43348952D01*
X12222466Y-43410275D01*
X12225300Y-43436633D01*
X12225300Y-43526691D01*
X12259408Y-43653987D01*
X12292354Y-43711050D01*
X12325300Y-43768114D01*
X12418486Y-43861300D01*
X12532614Y-43927192D01*
X12659908Y-43961300D01*
X12659910Y-43961300D01*
X12791690Y-43961300D01*
X12791692Y-43961300D01*
X12918986Y-43927192D01*
X13033114Y-43861300D01*
X13126300Y-43768114D01*
X13192192Y-43653986D01*
X13226300Y-43526692D01*
X13226300Y-43394908D01*
X13192192Y-43267614D01*
X13126300Y-43153486D01*
X13033114Y-43060300D01*
X12948069Y-43011199D01*
X12918987Y-42994408D01*
X12854357Y-42977091D01*
X12791692Y-42960300D01*
X12701633Y-42960300D01*
X12634594Y-42940615D01*
X12613952Y-42923981D01*
X12419512Y-42729541D01*
X12419507Y-42729537D01*
X12410065Y-42724086D01*
X12410064Y-42724086D01*
X12350991Y-42689980D01*
X12350990Y-42689979D01*
X12325513Y-42683152D01*
X12274562Y-42669500D01*
X12274560Y-42669500D01*
X1885576Y-42669500D01*
X1861932Y-42662557D01*
X1837446Y-42659778D01*
X1825803Y-42651948D01*
X1818537Y-42649815D01*
X1807199Y-42641589D01*
X1802338Y-42637624D01*
X1734214Y-42569500D01*
X1674228Y-42534867D01*
X1620087Y-42503608D01*
X1556439Y-42486554D01*
X1492792Y-42469500D01*
X1361008Y-42469500D01*
X1233712Y-42503608D01*
X1119586Y-42569500D01*
X1119583Y-42569502D01*
X1026402Y-42662683D01*
X1026400Y-42662686D01*
X960508Y-42776812D01*
X926400Y-42904108D01*
X500500Y-42904108D01*
X500500Y-42444808D01*
X30698100Y-42444808D01*
X30698100Y-42576592D01*
X30703841Y-42598018D01*
X30732208Y-42703887D01*
X30747019Y-42729540D01*
X30798100Y-42818014D01*
X30891286Y-42911200D01*
X31005414Y-42977092D01*
X31132708Y-43011200D01*
X31132710Y-43011200D01*
X31222767Y-43011200D01*
X31289806Y-43030885D01*
X31310448Y-43047519D01*
X33424540Y-45161611D01*
X33480489Y-45217560D01*
X33480491Y-45217561D01*
X33480495Y-45217564D01*
X33549004Y-45257117D01*
X33549011Y-45257121D01*
X33625438Y-45277600D01*
X34296224Y-45277600D01*
X34363263Y-45297285D01*
X34383905Y-45313919D01*
X34447586Y-45377600D01*
X34561714Y-45443492D01*
X34689008Y-45477600D01*
X34689010Y-45477600D01*
X34820790Y-45477600D01*
X34820792Y-45477600D01*
X34948086Y-45443492D01*
X35062214Y-45377600D01*
X35155400Y-45284414D01*
X35221292Y-45170286D01*
X35255400Y-45042992D01*
X35255400Y-44911208D01*
X35221292Y-44783914D01*
X35155400Y-44669786D01*
X35062214Y-44576600D01*
X34999081Y-44540150D01*
X34948087Y-44510708D01*
X34884439Y-44493654D01*
X34820792Y-44476600D01*
X34689008Y-44476600D01*
X34561712Y-44510708D01*
X34447586Y-44576600D01*
X34447583Y-44576602D01*
X34383905Y-44640281D01*
X34322582Y-44673766D01*
X34296224Y-44676600D01*
X33840833Y-44676600D01*
X33773794Y-44656915D01*
X33753152Y-44640281D01*
X31735419Y-42622548D01*
X31701934Y-42561225D01*
X31699100Y-42534867D01*
X31699100Y-42444810D01*
X31699100Y-42444808D01*
X31664992Y-42317514D01*
X31599100Y-42203386D01*
X31505914Y-42110200D01*
X31448850Y-42077254D01*
X31391787Y-42044308D01*
X31328139Y-42027254D01*
X31264492Y-42010200D01*
X31132708Y-42010200D01*
X31005412Y-42044308D01*
X30891286Y-42110200D01*
X30891283Y-42110202D01*
X30798102Y-42203383D01*
X30798100Y-42203386D01*
X30732208Y-42317512D01*
X30712201Y-42392182D01*
X30698100Y-42444808D01*
X500500Y-42444808D01*
X500500Y-39890708D01*
X3829000Y-39890708D01*
X3829000Y-40022491D01*
X3863108Y-40149787D01*
X3896054Y-40206850D01*
X3929000Y-40263914D01*
X4022186Y-40357100D01*
X4136314Y-40422992D01*
X4263608Y-40457100D01*
X4263610Y-40457100D01*
X4395390Y-40457100D01*
X4395392Y-40457100D01*
X4522686Y-40422992D01*
X4636814Y-40357100D01*
X4730000Y-40263914D01*
X4795892Y-40149786D01*
X4830000Y-40022492D01*
X4830000Y-40011008D01*
X17301400Y-40011008D01*
X17301400Y-40142792D01*
X17318454Y-40206439D01*
X17335508Y-40270087D01*
X17362802Y-40317360D01*
X17401400Y-40384214D01*
X17494586Y-40477400D01*
X17608714Y-40543292D01*
X17736008Y-40577400D01*
X17736010Y-40577400D01*
X17867790Y-40577400D01*
X17867792Y-40577400D01*
X17995086Y-40543292D01*
X18109214Y-40477400D01*
X18172895Y-40413719D01*
X18234218Y-40380234D01*
X18260576Y-40377400D01*
X37042660Y-40377400D01*
X37042662Y-40377400D01*
X37119089Y-40356921D01*
X37187611Y-40317360D01*
X37243560Y-40261411D01*
X40478865Y-37026104D01*
X40540186Y-36992621D01*
X40609878Y-36997605D01*
X40665811Y-37039477D01*
X40690228Y-37104941D01*
X40677029Y-37170081D01*
X40605245Y-37310965D01*
X40542009Y-37505582D01*
X40510000Y-37707682D01*
X40510000Y-37912317D01*
X40542009Y-38114417D01*
X40605244Y-38309031D01*
X40698141Y-38491350D01*
X40698147Y-38491359D01*
X40730523Y-38535921D01*
X40730524Y-38535922D01*
X41410000Y-37856446D01*
X41410000Y-37862661D01*
X41437259Y-37964394D01*
X41489920Y-38055606D01*
X41564394Y-38130080D01*
X41655606Y-38182741D01*
X41757339Y-38210000D01*
X41763553Y-38210000D01*
X41084076Y-38889474D01*
X41128650Y-38921859D01*
X41310968Y-39014755D01*
X41505582Y-39077990D01*
X41707683Y-39110000D01*
X41912317Y-39110000D01*
X42114417Y-39077990D01*
X42309031Y-39014755D01*
X42491349Y-38921859D01*
X42535921Y-38889474D01*
X41856447Y-38210000D01*
X41862661Y-38210000D01*
X41964394Y-38182741D01*
X42055606Y-38130080D01*
X42130080Y-38055606D01*
X42182741Y-37964394D01*
X42210000Y-37862661D01*
X42210000Y-37856447D01*
X42889474Y-38535921D01*
X42921859Y-38491349D01*
X43014755Y-38309031D01*
X43077990Y-38114417D01*
X43110000Y-37912317D01*
X43110000Y-37707682D01*
X43077990Y-37505582D01*
X43014755Y-37310968D01*
X42921859Y-37128650D01*
X42889474Y-37084077D01*
X42889474Y-37084076D01*
X42210000Y-37763551D01*
X42210000Y-37757339D01*
X42182741Y-37655606D01*
X42130080Y-37564394D01*
X42055606Y-37489920D01*
X41964394Y-37437259D01*
X41862661Y-37410000D01*
X41856446Y-37410000D01*
X42535922Y-36730524D01*
X42535921Y-36730523D01*
X42491359Y-36698147D01*
X42491350Y-36698141D01*
X42309031Y-36605244D01*
X42114417Y-36542009D01*
X41925731Y-36512124D01*
X41862596Y-36482194D01*
X41825665Y-36422883D01*
X41826663Y-36353020D01*
X41865273Y-36294788D01*
X41920938Y-36268034D01*
X42101835Y-36232051D01*
X42283914Y-36156632D01*
X42447782Y-36047139D01*
X42587139Y-35907782D01*
X42696632Y-35743914D01*
X42772051Y-35561835D01*
X42810500Y-35368541D01*
X42810500Y-35171459D01*
X42810500Y-35171456D01*
X42772052Y-34978170D01*
X42772051Y-34978169D01*
X42772051Y-34978165D01*
X42767288Y-34966666D01*
X42696635Y-34796092D01*
X42696628Y-34796079D01*
X42587139Y-34632218D01*
X42587136Y-34632214D01*
X42447785Y-34492863D01*
X42447781Y-34492860D01*
X42283920Y-34383371D01*
X42283907Y-34383364D01*
X42101839Y-34307950D01*
X42101829Y-34307947D01*
X41908543Y-34269500D01*
X41908541Y-34269500D01*
X41711459Y-34269500D01*
X41711457Y-34269500D01*
X41518170Y-34307947D01*
X41518160Y-34307950D01*
X41336092Y-34383364D01*
X41336079Y-34383371D01*
X41172218Y-34492860D01*
X41172214Y-34492863D01*
X41032863Y-34632214D01*
X41032860Y-34632218D01*
X40923371Y-34796079D01*
X40923364Y-34796092D01*
X40847950Y-34978160D01*
X40847947Y-34978170D01*
X40809500Y-35171456D01*
X40809500Y-35171459D01*
X40809500Y-35368541D01*
X40809500Y-35368543D01*
X40809499Y-35368543D01*
X40847947Y-35561829D01*
X40847950Y-35561839D01*
X40888072Y-35658702D01*
X40895541Y-35728171D01*
X40864266Y-35790650D01*
X40861192Y-35793835D01*
X36914948Y-39740081D01*
X36853625Y-39773566D01*
X36827267Y-39776400D01*
X18260576Y-39776400D01*
X18193537Y-39756715D01*
X18172895Y-39740081D01*
X18109216Y-39676402D01*
X18109214Y-39676400D01*
X18052150Y-39643454D01*
X17995087Y-39610508D01*
X17931439Y-39593454D01*
X17867792Y-39576400D01*
X17736008Y-39576400D01*
X17608712Y-39610508D01*
X17494586Y-39676400D01*
X17494583Y-39676402D01*
X17401402Y-39769583D01*
X17401400Y-39769586D01*
X17335508Y-39883712D01*
X17322454Y-39932432D01*
X17301400Y-40011008D01*
X4830000Y-40011008D01*
X4830000Y-39932432D01*
X4849685Y-39865393D01*
X4866319Y-39844751D01*
X6802528Y-37908543D01*
X33189499Y-37908543D01*
X33227947Y-38101829D01*
X33227950Y-38101839D01*
X33303364Y-38283907D01*
X33303371Y-38283920D01*
X33412860Y-38447781D01*
X33412863Y-38447785D01*
X33552214Y-38587136D01*
X33552218Y-38587139D01*
X33716079Y-38696628D01*
X33716092Y-38696635D01*
X33898160Y-38772049D01*
X33898165Y-38772051D01*
X33898169Y-38772051D01*
X33898170Y-38772052D01*
X34091456Y-38810500D01*
X34091459Y-38810500D01*
X34288543Y-38810500D01*
X34418582Y-38784632D01*
X34481835Y-38772051D01*
X34663914Y-38696632D01*
X34827782Y-38587139D01*
X34967139Y-38447782D01*
X35076632Y-38283914D01*
X35152051Y-38101835D01*
X35190500Y-37908541D01*
X35190500Y-37711459D01*
X35190500Y-37711456D01*
X35152052Y-37518170D01*
X35152051Y-37518169D01*
X35152051Y-37518165D01*
X35107248Y-37410000D01*
X35076635Y-37336092D01*
X35076628Y-37336079D01*
X34967139Y-37172218D01*
X34967136Y-37172214D01*
X34827785Y-37032863D01*
X34827781Y-37032860D01*
X34663920Y-36923371D01*
X34663907Y-36923364D01*
X34481839Y-36847950D01*
X34481829Y-36847947D01*
X34288543Y-36809500D01*
X34288541Y-36809500D01*
X34091459Y-36809500D01*
X34091457Y-36809500D01*
X33898170Y-36847947D01*
X33898160Y-36847950D01*
X33716092Y-36923364D01*
X33716079Y-36923371D01*
X33552218Y-37032860D01*
X33552214Y-37032863D01*
X33412863Y-37172214D01*
X33412860Y-37172218D01*
X33303371Y-37336079D01*
X33303364Y-37336092D01*
X33227950Y-37518160D01*
X33227947Y-37518170D01*
X33189500Y-37711456D01*
X33189500Y-37711459D01*
X33189500Y-37908541D01*
X33189500Y-37908543D01*
X33189499Y-37908543D01*
X6802528Y-37908543D01*
X7093385Y-37617686D01*
X9104252Y-35606819D01*
X9165575Y-35573334D01*
X9191933Y-35570500D01*
X24890524Y-35570500D01*
X24957563Y-35590185D01*
X24978205Y-35606819D01*
X25041886Y-35670500D01*
X25156014Y-35736392D01*
X25283308Y-35770500D01*
X25283310Y-35770500D01*
X25415090Y-35770500D01*
X25415092Y-35770500D01*
X25542386Y-35736392D01*
X25656514Y-35670500D01*
X25720195Y-35606819D01*
X25781518Y-35573334D01*
X25807876Y-35570500D01*
X33148684Y-35570500D01*
X33215723Y-35590185D01*
X33261478Y-35642989D01*
X33263245Y-35647048D01*
X33303364Y-35743907D01*
X33303371Y-35743920D01*
X33412860Y-35907781D01*
X33412863Y-35907785D01*
X33552214Y-36047136D01*
X33552218Y-36047139D01*
X33716079Y-36156628D01*
X33716092Y-36156635D01*
X33866188Y-36218806D01*
X33898165Y-36232051D01*
X33898169Y-36232051D01*
X33898170Y-36232052D01*
X34091456Y-36270500D01*
X34091459Y-36270500D01*
X34288543Y-36270500D01*
X34418582Y-36244632D01*
X34481835Y-36232051D01*
X34663914Y-36156632D01*
X34827782Y-36047139D01*
X34967139Y-35907782D01*
X35076632Y-35743914D01*
X35152051Y-35561835D01*
X35190500Y-35368541D01*
X35190500Y-35171459D01*
X35190500Y-35171456D01*
X35152052Y-34978170D01*
X35152051Y-34978169D01*
X35152051Y-34978165D01*
X35147288Y-34966666D01*
X35076635Y-34796092D01*
X35076628Y-34796079D01*
X34967139Y-34632218D01*
X34967136Y-34632214D01*
X34827785Y-34492863D01*
X34827781Y-34492860D01*
X34663920Y-34383371D01*
X34663907Y-34383364D01*
X34481839Y-34307950D01*
X34481829Y-34307947D01*
X34288543Y-34269500D01*
X34288541Y-34269500D01*
X34091459Y-34269500D01*
X34091457Y-34269500D01*
X33898170Y-34307947D01*
X33898160Y-34307950D01*
X33716092Y-34383364D01*
X33716079Y-34383371D01*
X33552218Y-34492860D01*
X33552214Y-34492863D01*
X33412863Y-34632214D01*
X33412860Y-34632218D01*
X33303371Y-34796079D01*
X33303364Y-34796092D01*
X33263245Y-34892952D01*
X33219405Y-34947356D01*
X33153111Y-34969421D01*
X33148684Y-34969500D01*
X25807876Y-34969500D01*
X25740837Y-34949815D01*
X25720195Y-34933181D01*
X25656516Y-34869502D01*
X25656514Y-34869500D01*
X25599450Y-34836554D01*
X25542387Y-34803608D01*
X25478739Y-34786554D01*
X25415092Y-34769500D01*
X25283308Y-34769500D01*
X25156012Y-34803608D01*
X25041886Y-34869500D01*
X25041883Y-34869502D01*
X24978205Y-34933181D01*
X24916882Y-34966666D01*
X24890524Y-34969500D01*
X8976538Y-34969500D01*
X8925586Y-34983152D01*
X8900110Y-34989979D01*
X8841034Y-35024087D01*
X8841033Y-35024086D01*
X8831592Y-35029537D01*
X8831587Y-35029541D01*
X4441347Y-39419781D01*
X4380024Y-39453266D01*
X4353666Y-39456100D01*
X4263608Y-39456100D01*
X4136312Y-39490208D01*
X4022186Y-39556100D01*
X4022183Y-39556102D01*
X3929002Y-39649283D01*
X3929000Y-39649286D01*
X3863108Y-39763412D01*
X3829000Y-39890708D01*
X500500Y-39890708D01*
X500500Y-33084208D01*
X23599800Y-33084208D01*
X23599800Y-33215991D01*
X23633908Y-33343287D01*
X23666854Y-33400350D01*
X23699800Y-33457414D01*
X23792986Y-33550600D01*
X23907114Y-33616492D01*
X24034408Y-33650600D01*
X24034410Y-33650600D01*
X24166190Y-33650600D01*
X24166192Y-33650600D01*
X24293486Y-33616492D01*
X24407614Y-33550600D01*
X24500800Y-33457414D01*
X24566692Y-33343286D01*
X24600800Y-33215992D01*
X24600800Y-33154500D01*
X24620485Y-33087461D01*
X24673289Y-33041706D01*
X24724800Y-33030500D01*
X33148684Y-33030500D01*
X33215723Y-33050185D01*
X33261478Y-33102989D01*
X33263245Y-33107048D01*
X33303364Y-33203907D01*
X33303371Y-33203920D01*
X33412860Y-33367781D01*
X33412863Y-33367785D01*
X33552214Y-33507136D01*
X33552218Y-33507139D01*
X33716079Y-33616628D01*
X33716092Y-33616635D01*
X33898160Y-33692049D01*
X33898165Y-33692051D01*
X33898169Y-33692051D01*
X33898170Y-33692052D01*
X34091456Y-33730500D01*
X34091459Y-33730500D01*
X34288543Y-33730500D01*
X34418582Y-33704632D01*
X34481835Y-33692051D01*
X34663914Y-33616632D01*
X34827782Y-33507139D01*
X34967139Y-33367782D01*
X35076632Y-33203914D01*
X35152051Y-33021835D01*
X35164965Y-32956912D01*
X35190500Y-32828543D01*
X40809499Y-32828543D01*
X40847947Y-33021829D01*
X40847950Y-33021839D01*
X40923364Y-33203907D01*
X40923371Y-33203920D01*
X41032860Y-33367781D01*
X41032863Y-33367785D01*
X41172214Y-33507136D01*
X41172218Y-33507139D01*
X41336079Y-33616628D01*
X41336092Y-33616635D01*
X41518160Y-33692049D01*
X41518165Y-33692051D01*
X41518169Y-33692051D01*
X41518170Y-33692052D01*
X41711456Y-33730500D01*
X41711459Y-33730500D01*
X41908543Y-33730500D01*
X42038582Y-33704632D01*
X42101835Y-33692051D01*
X42283914Y-33616632D01*
X42447782Y-33507139D01*
X42587139Y-33367782D01*
X42696632Y-33203914D01*
X42772051Y-33021835D01*
X42784965Y-32956912D01*
X42810500Y-32828543D01*
X42810500Y-32631456D01*
X42772052Y-32438170D01*
X42772051Y-32438169D01*
X42772051Y-32438165D01*
X42736755Y-32352952D01*
X42696635Y-32256092D01*
X42696628Y-32256079D01*
X42587139Y-32092218D01*
X42587136Y-32092214D01*
X42447785Y-31952863D01*
X42447781Y-31952860D01*
X42283920Y-31843371D01*
X42283907Y-31843364D01*
X42101839Y-31767950D01*
X42101829Y-31767947D01*
X41908543Y-31729500D01*
X41908541Y-31729500D01*
X41711459Y-31729500D01*
X41711457Y-31729500D01*
X41518170Y-31767947D01*
X41518160Y-31767950D01*
X41336092Y-31843364D01*
X41336079Y-31843371D01*
X41172218Y-31952860D01*
X41172214Y-31952863D01*
X41032863Y-32092214D01*
X41032860Y-32092218D01*
X40923371Y-32256079D01*
X40923364Y-32256092D01*
X40847950Y-32438160D01*
X40847947Y-32438170D01*
X40809500Y-32631456D01*
X40809500Y-32631459D01*
X40809500Y-32828541D01*
X40809500Y-32828543D01*
X40809499Y-32828543D01*
X35190500Y-32828543D01*
X35190500Y-32631456D01*
X35152052Y-32438170D01*
X35152051Y-32438169D01*
X35152051Y-32438165D01*
X35116755Y-32352952D01*
X35076635Y-32256092D01*
X35076628Y-32256079D01*
X34967139Y-32092218D01*
X34967136Y-32092214D01*
X34827785Y-31952863D01*
X34827781Y-31952860D01*
X34663920Y-31843371D01*
X34663907Y-31843364D01*
X34481839Y-31767950D01*
X34481829Y-31767947D01*
X34288543Y-31729500D01*
X34288541Y-31729500D01*
X34091459Y-31729500D01*
X34091457Y-31729500D01*
X33898170Y-31767947D01*
X33898160Y-31767950D01*
X33716092Y-31843364D01*
X33716079Y-31843371D01*
X33552218Y-31952860D01*
X33552214Y-31952863D01*
X33412863Y-32092214D01*
X33412860Y-32092218D01*
X33303371Y-32256079D01*
X33303364Y-32256092D01*
X33263245Y-32352952D01*
X33219405Y-32407356D01*
X33153111Y-32429421D01*
X33148684Y-32429500D01*
X24480838Y-32429500D01*
X24448482Y-32438170D01*
X24404409Y-32449979D01*
X24404404Y-32449982D01*
X24335895Y-32489535D01*
X24335891Y-32489538D01*
X24212146Y-32613282D01*
X24150822Y-32646766D01*
X24124465Y-32649600D01*
X24034408Y-32649600D01*
X23907112Y-32683708D01*
X23792986Y-32749600D01*
X23792983Y-32749602D01*
X23699802Y-32842783D01*
X23699800Y-32842786D01*
X23633908Y-32956912D01*
X23599800Y-33084208D01*
X500500Y-33084208D01*
X500500Y-31033408D01*
X9991900Y-31033408D01*
X9991900Y-31165191D01*
X10026008Y-31292487D01*
X10058954Y-31349550D01*
X10091900Y-31406614D01*
X10185086Y-31499800D01*
X10299214Y-31565692D01*
X10426508Y-31599800D01*
X10426510Y-31599800D01*
X10558290Y-31599800D01*
X10558292Y-31599800D01*
X10685586Y-31565692D01*
X10799714Y-31499800D01*
X10863395Y-31436119D01*
X10924718Y-31402634D01*
X10951076Y-31399800D01*
X18990265Y-31399800D01*
X19057304Y-31419485D01*
X19097652Y-31461800D01*
X19104297Y-31473310D01*
X19104299Y-31473313D01*
X19104300Y-31473314D01*
X19197486Y-31566500D01*
X19311614Y-31632392D01*
X19438908Y-31666500D01*
X19438910Y-31666500D01*
X19570690Y-31666500D01*
X19570692Y-31666500D01*
X19697986Y-31632392D01*
X19812114Y-31566500D01*
X19905300Y-31473314D01*
X19971192Y-31359186D01*
X20005300Y-31231892D01*
X20005300Y-31141832D01*
X20024985Y-31074793D01*
X20041619Y-31054151D01*
X21714052Y-29381719D01*
X21775375Y-29348234D01*
X21801733Y-29345400D01*
X33320416Y-29345400D01*
X33387455Y-29365085D01*
X33433210Y-29417889D01*
X33443154Y-29487047D01*
X33416269Y-29548066D01*
X33412857Y-29552223D01*
X33303371Y-29716079D01*
X33303364Y-29716092D01*
X33227950Y-29898160D01*
X33227947Y-29898170D01*
X33189500Y-30091456D01*
X33189500Y-30091459D01*
X33189500Y-30288541D01*
X33189500Y-30288543D01*
X33189499Y-30288543D01*
X33227947Y-30481829D01*
X33227950Y-30481839D01*
X33303364Y-30663907D01*
X33303371Y-30663920D01*
X33412860Y-30827781D01*
X33412863Y-30827785D01*
X33552214Y-30967136D01*
X33552218Y-30967139D01*
X33716079Y-31076628D01*
X33716092Y-31076635D01*
X33873494Y-31141832D01*
X33898165Y-31152051D01*
X33898169Y-31152051D01*
X33898170Y-31152052D01*
X34091456Y-31190500D01*
X34091459Y-31190500D01*
X34288543Y-31190500D01*
X34418582Y-31164632D01*
X34481835Y-31152051D01*
X34663914Y-31076632D01*
X34827782Y-30967139D01*
X34967139Y-30827782D01*
X35076632Y-30663914D01*
X35152051Y-30481835D01*
X35190500Y-30288541D01*
X35190500Y-30091459D01*
X35190500Y-30091456D01*
X35152052Y-29898170D01*
X35152051Y-29898169D01*
X35152051Y-29898165D01*
X35152049Y-29898160D01*
X35076635Y-29716092D01*
X35076628Y-29716079D01*
X34967142Y-29552223D01*
X34967139Y-29552218D01*
X34967132Y-29552211D01*
X34963731Y-29548066D01*
X34936418Y-29483756D01*
X34948209Y-29414888D01*
X34995360Y-29363328D01*
X35059584Y-29345400D01*
X40489067Y-29345400D01*
X40556106Y-29365085D01*
X40576748Y-29381719D01*
X40861192Y-29666163D01*
X40894677Y-29727486D01*
X40889693Y-29797178D01*
X40888073Y-29801295D01*
X40847948Y-29898168D01*
X40847947Y-29898171D01*
X40809500Y-30091456D01*
X40809500Y-30091459D01*
X40809500Y-30288541D01*
X40809500Y-30288543D01*
X40809499Y-30288543D01*
X40847947Y-30481829D01*
X40847950Y-30481839D01*
X40923364Y-30663907D01*
X40923371Y-30663920D01*
X41032860Y-30827781D01*
X41032863Y-30827785D01*
X41172214Y-30967136D01*
X41172218Y-30967139D01*
X41336079Y-31076628D01*
X41336092Y-31076635D01*
X41493494Y-31141832D01*
X41518165Y-31152051D01*
X41518169Y-31152051D01*
X41518170Y-31152052D01*
X41711456Y-31190500D01*
X41711459Y-31190500D01*
X41908543Y-31190500D01*
X42038582Y-31164632D01*
X42101835Y-31152051D01*
X42283914Y-31076632D01*
X42447782Y-30967139D01*
X42587139Y-30827782D01*
X42696632Y-30663914D01*
X42772051Y-30481835D01*
X42810500Y-30288541D01*
X42810500Y-30091459D01*
X42810500Y-30091456D01*
X42772052Y-29898170D01*
X42772051Y-29898169D01*
X42772051Y-29898165D01*
X42772049Y-29898160D01*
X42696635Y-29716092D01*
X42696628Y-29716079D01*
X42587139Y-29552218D01*
X42587136Y-29552214D01*
X42447785Y-29412863D01*
X42447781Y-29412860D01*
X42283920Y-29303371D01*
X42283907Y-29303364D01*
X42101839Y-29227950D01*
X42101829Y-29227947D01*
X41908543Y-29189500D01*
X41908541Y-29189500D01*
X41711459Y-29189500D01*
X41711457Y-29189500D01*
X41518171Y-29227947D01*
X41518168Y-29227948D01*
X41518166Y-29227948D01*
X41518165Y-29227949D01*
X41518163Y-29227950D01*
X41421295Y-29268073D01*
X41351826Y-29275540D01*
X41289347Y-29244265D01*
X41286163Y-29241192D01*
X40849412Y-28804441D01*
X40849404Y-28804435D01*
X40780895Y-28764882D01*
X40780890Y-28764879D01*
X40755413Y-28758052D01*
X40704462Y-28744400D01*
X40704460Y-28744400D01*
X34670189Y-28744400D01*
X34603150Y-28724715D01*
X34562802Y-28682400D01*
X34497900Y-28569986D01*
X34404714Y-28476800D01*
X34347650Y-28443854D01*
X34290587Y-28410908D01*
X34226939Y-28393854D01*
X34163292Y-28376800D01*
X34031508Y-28376800D01*
X33904212Y-28410908D01*
X33790086Y-28476800D01*
X33790083Y-28476802D01*
X33696902Y-28569983D01*
X33696898Y-28569989D01*
X33631998Y-28682400D01*
X33581431Y-28730616D01*
X33524611Y-28744400D01*
X21586338Y-28744400D01*
X21548124Y-28754639D01*
X21509909Y-28764879D01*
X21509904Y-28764882D01*
X21441395Y-28804435D01*
X21441387Y-28804441D01*
X19616647Y-30629181D01*
X19555324Y-30662666D01*
X19528966Y-30665500D01*
X19438908Y-30665500D01*
X19311612Y-30699608D01*
X19197486Y-30765500D01*
X19191040Y-30770447D01*
X19189527Y-30768475D01*
X19139182Y-30795966D01*
X19112824Y-30798800D01*
X10951076Y-30798800D01*
X10884037Y-30779115D01*
X10863395Y-30762481D01*
X10799716Y-30698802D01*
X10799714Y-30698800D01*
X10737128Y-30662666D01*
X10685587Y-30632908D01*
X10621939Y-30615854D01*
X10558292Y-30598800D01*
X10426508Y-30598800D01*
X10299212Y-30632908D01*
X10185086Y-30698800D01*
X10185083Y-30698802D01*
X10091902Y-30791983D01*
X10091900Y-30791986D01*
X10026008Y-30906112D01*
X9991900Y-31033408D01*
X500500Y-31033408D01*
X500500Y-17019608D01*
X9132700Y-17019608D01*
X9132700Y-17151391D01*
X9166808Y-17278687D01*
X9195520Y-17328416D01*
X9232700Y-17392814D01*
X9325886Y-17486000D01*
X9440014Y-17551892D01*
X9567308Y-17586000D01*
X9567310Y-17586000D01*
X9699090Y-17586000D01*
X9699092Y-17586000D01*
X9826386Y-17551892D01*
X9940514Y-17486000D01*
X10004195Y-17422319D01*
X10065518Y-17388834D01*
X10091876Y-17386000D01*
X13660167Y-17386000D01*
X13727206Y-17405685D01*
X13747848Y-17422319D01*
X15420481Y-19094952D01*
X15453966Y-19156275D01*
X15456800Y-19182633D01*
X15456800Y-19272691D01*
X15490908Y-19399987D01*
X15523854Y-19457050D01*
X15556800Y-19514114D01*
X15649986Y-19607300D01*
X15764114Y-19673192D01*
X15891408Y-19707300D01*
X15891410Y-19707300D01*
X16023190Y-19707300D01*
X16023192Y-19707300D01*
X16150486Y-19673192D01*
X16264614Y-19607300D01*
X16357800Y-19514114D01*
X16423692Y-19399986D01*
X16457800Y-19272692D01*
X16457800Y-19140908D01*
X16423692Y-19013614D01*
X16357800Y-18899486D01*
X16264614Y-18806300D01*
X16207550Y-18773354D01*
X16150487Y-18740408D01*
X16086839Y-18723354D01*
X16023192Y-18706300D01*
X15933133Y-18706300D01*
X15866094Y-18686615D01*
X15845452Y-18669981D01*
X14020512Y-16845041D01*
X14020511Y-16845040D01*
X14005873Y-16836589D01*
X14005873Y-16836588D01*
X14005871Y-16836588D01*
X13951989Y-16805479D01*
X13875562Y-16785000D01*
X13875560Y-16785000D01*
X10091876Y-16785000D01*
X10024837Y-16765315D01*
X10004195Y-16748681D01*
X9940516Y-16685002D01*
X9940514Y-16685000D01*
X9844618Y-16629634D01*
X9826387Y-16619108D01*
X9727795Y-16592691D01*
X9699092Y-16585000D01*
X9567308Y-16585000D01*
X9440012Y-16619108D01*
X9325886Y-16685000D01*
X9325883Y-16685002D01*
X9232702Y-16778183D01*
X9232700Y-16778186D01*
X9166808Y-16892312D01*
X9132700Y-17019608D01*
X500500Y-17019608D01*
X500500Y-6635305D01*
X3750000Y-6635305D01*
X3750000Y-6864694D01*
X3750001Y-6864710D01*
X3779942Y-7092137D01*
X3839318Y-7313730D01*
X3927102Y-7525659D01*
X3927106Y-7525669D01*
X4041799Y-7724324D01*
X4041805Y-7724331D01*
X4098381Y-7798064D01*
X4822421Y-7074024D01*
X4835359Y-7105258D01*
X4917437Y-7228097D01*
X5021903Y-7332563D01*
X5144742Y-7414641D01*
X5175974Y-7427578D01*
X4451934Y-8151617D01*
X4451934Y-8151618D01*
X4525666Y-8208194D01*
X4724330Y-8322893D01*
X4724340Y-8322897D01*
X4936269Y-8410681D01*
X5157862Y-8470057D01*
X5385289Y-8499998D01*
X5385306Y-8500000D01*
X5614694Y-8500000D01*
X5614710Y-8499998D01*
X5842137Y-8470057D01*
X6063730Y-8410681D01*
X6275659Y-8322897D01*
X6275668Y-8322893D01*
X6474327Y-8208197D01*
X6474334Y-8208192D01*
X6548064Y-8151617D01*
X5824025Y-7427578D01*
X5855258Y-7414641D01*
X5978097Y-7332563D01*
X6082563Y-7228097D01*
X6164641Y-7105258D01*
X6177578Y-7074025D01*
X6901617Y-7798064D01*
X6958192Y-7724334D01*
X6958197Y-7724327D01*
X7072893Y-7525668D01*
X7072897Y-7525659D01*
X7160681Y-7313730D01*
X7220057Y-7092137D01*
X7249998Y-6864710D01*
X7250000Y-6864694D01*
X7250000Y-6635305D01*
X7249998Y-6635289D01*
X7220057Y-6407862D01*
X7160681Y-6186269D01*
X7072897Y-5974340D01*
X7072893Y-5974330D01*
X6958194Y-5775666D01*
X6901618Y-5701934D01*
X6901617Y-5701934D01*
X6177577Y-6425973D01*
X6164641Y-6394742D01*
X6082563Y-6271903D01*
X5978097Y-6167437D01*
X5855258Y-6085359D01*
X5824023Y-6072421D01*
X6297902Y-5598543D01*
X7999499Y-5598543D01*
X8037947Y-5791829D01*
X8037950Y-5791839D01*
X8113364Y-5973907D01*
X8113371Y-5973920D01*
X8222860Y-6137781D01*
X8222863Y-6137785D01*
X8362214Y-6277136D01*
X8362218Y-6277139D01*
X8526079Y-6386628D01*
X8526092Y-6386635D01*
X8676188Y-6448806D01*
X8708165Y-6462051D01*
X8708169Y-6462051D01*
X8708170Y-6462052D01*
X8901456Y-6500500D01*
X8901459Y-6500500D01*
X9098543Y-6500500D01*
X9228582Y-6474632D01*
X9291835Y-6462051D01*
X9473914Y-6386632D01*
X9637782Y-6277139D01*
X9777139Y-6137782D01*
X9886632Y-5973914D01*
X9886634Y-5973907D01*
X9889502Y-5968544D01*
X9891310Y-5969510D01*
X9929272Y-5922397D01*
X9995564Y-5900326D01*
X10063265Y-5917600D01*
X10110879Y-5968734D01*
X10112522Y-5972331D01*
X10113371Y-5973920D01*
X10222860Y-6137781D01*
X10222863Y-6137785D01*
X10362214Y-6277136D01*
X10362218Y-6277139D01*
X10526079Y-6386628D01*
X10526092Y-6386635D01*
X10676188Y-6448806D01*
X10708165Y-6462051D01*
X10708169Y-6462051D01*
X10708170Y-6462052D01*
X10901456Y-6500500D01*
X10901459Y-6500500D01*
X11098543Y-6500500D01*
X11228582Y-6474632D01*
X11291835Y-6462051D01*
X11473914Y-6386632D01*
X11637782Y-6277139D01*
X11777139Y-6137782D01*
X11886632Y-5973914D01*
X11886634Y-5973907D01*
X11889502Y-5968544D01*
X11891310Y-5969510D01*
X11929272Y-5922397D01*
X11995564Y-5900326D01*
X12063265Y-5917600D01*
X12110879Y-5968734D01*
X12112522Y-5972331D01*
X12113371Y-5973920D01*
X12222860Y-6137781D01*
X12222863Y-6137785D01*
X12362214Y-6277136D01*
X12362218Y-6277139D01*
X12526079Y-6386628D01*
X12526092Y-6386635D01*
X12676188Y-6448806D01*
X12708165Y-6462051D01*
X12708169Y-6462051D01*
X12708170Y-6462052D01*
X12901456Y-6500500D01*
X12901459Y-6500500D01*
X13098543Y-6500500D01*
X13228582Y-6474632D01*
X13291835Y-6462051D01*
X13388702Y-6421926D01*
X13458169Y-6414457D01*
X13520649Y-6445731D01*
X13523835Y-6448806D01*
X14009540Y-6934511D01*
X14065489Y-6990460D01*
X14065491Y-6990461D01*
X14065495Y-6990464D01*
X14134004Y-7030017D01*
X14134011Y-7030021D01*
X14210438Y-7050500D01*
X14352691Y-7050500D01*
X14419730Y-7070185D01*
X14440372Y-7086819D01*
X14953553Y-7600000D01*
X14947339Y-7600000D01*
X14845606Y-7627259D01*
X14754394Y-7679920D01*
X14679920Y-7754394D01*
X14627259Y-7845606D01*
X14600000Y-7947339D01*
X14600000Y-7953553D01*
X13920524Y-7274077D01*
X13920523Y-7274077D01*
X13908435Y-7290716D01*
X13853105Y-7333383D01*
X13783492Y-7339363D01*
X13721697Y-7306757D01*
X13720435Y-7305513D01*
X13637785Y-7222863D01*
X13637781Y-7222860D01*
X13473920Y-7113371D01*
X13473907Y-7113364D01*
X13291839Y-7037950D01*
X13291829Y-7037947D01*
X13098543Y-6999500D01*
X13098541Y-6999500D01*
X12901459Y-6999500D01*
X12901457Y-6999500D01*
X12708170Y-7037947D01*
X12708160Y-7037950D01*
X12526092Y-7113364D01*
X12526079Y-7113371D01*
X12362218Y-7222860D01*
X12362214Y-7222863D01*
X12222863Y-7362214D01*
X12222860Y-7362218D01*
X12113371Y-7526079D01*
X12110498Y-7531456D01*
X12108691Y-7530490D01*
X12070715Y-7577612D01*
X12004420Y-7599673D01*
X11936721Y-7582391D01*
X11889113Y-7531251D01*
X11887473Y-7527660D01*
X11886628Y-7526079D01*
X11777139Y-7362218D01*
X11777136Y-7362214D01*
X11637785Y-7222863D01*
X11637781Y-7222860D01*
X11473920Y-7113371D01*
X11473907Y-7113364D01*
X11291839Y-7037950D01*
X11291829Y-7037947D01*
X11098543Y-6999500D01*
X11098541Y-6999500D01*
X10901459Y-6999500D01*
X10901457Y-6999500D01*
X10708170Y-7037947D01*
X10708160Y-7037950D01*
X10526092Y-7113364D01*
X10526079Y-7113371D01*
X10362218Y-7222860D01*
X10362214Y-7222863D01*
X10222863Y-7362214D01*
X10222860Y-7362218D01*
X10113371Y-7526079D01*
X10110498Y-7531456D01*
X10108691Y-7530490D01*
X10070715Y-7577612D01*
X10004420Y-7599673D01*
X9936721Y-7582391D01*
X9889113Y-7531251D01*
X9887473Y-7527660D01*
X9886628Y-7526079D01*
X9777139Y-7362218D01*
X9777136Y-7362214D01*
X9637785Y-7222863D01*
X9637781Y-7222860D01*
X9473920Y-7113371D01*
X9473907Y-7113364D01*
X9291839Y-7037950D01*
X9291829Y-7037947D01*
X9098543Y-6999500D01*
X9098541Y-6999500D01*
X8901459Y-6999500D01*
X8901457Y-6999500D01*
X8708170Y-7037947D01*
X8708160Y-7037950D01*
X8526092Y-7113364D01*
X8526079Y-7113371D01*
X8362218Y-7222860D01*
X8362214Y-7222863D01*
X8222863Y-7362214D01*
X8222860Y-7362218D01*
X8113371Y-7526079D01*
X8113364Y-7526092D01*
X8037950Y-7708160D01*
X8037947Y-7708170D01*
X7999500Y-7901456D01*
X7999500Y-7901459D01*
X7999500Y-8098541D01*
X7999500Y-8098543D01*
X7999499Y-8098543D01*
X8037947Y-8291829D01*
X8037950Y-8291839D01*
X8113364Y-8473907D01*
X8113371Y-8473920D01*
X8222860Y-8637781D01*
X8222863Y-8637785D01*
X8362214Y-8777136D01*
X8362218Y-8777139D01*
X8526079Y-8886628D01*
X8526092Y-8886635D01*
X8708160Y-8962049D01*
X8708165Y-8962051D01*
X8708169Y-8962051D01*
X8708170Y-8962052D01*
X8901456Y-9000500D01*
X8901459Y-9000500D01*
X9098543Y-9000500D01*
X9228582Y-8974632D01*
X9291835Y-8962051D01*
X9388702Y-8921926D01*
X9458169Y-8914457D01*
X9520649Y-8945731D01*
X9523835Y-8948806D01*
X20355940Y-19780911D01*
X20411889Y-19836860D01*
X20411891Y-19836861D01*
X20411895Y-19836864D01*
X20480404Y-19876417D01*
X20480411Y-19876421D01*
X20556838Y-19896900D01*
X20635962Y-19896900D01*
X30447824Y-19896900D01*
X30514863Y-19916585D01*
X30535505Y-19933219D01*
X30599186Y-19996900D01*
X30713314Y-20062792D01*
X30840608Y-20096900D01*
X30840610Y-20096900D01*
X30972390Y-20096900D01*
X30972392Y-20096900D01*
X31099686Y-20062792D01*
X31213814Y-19996900D01*
X31307000Y-19903714D01*
X31372892Y-19789586D01*
X31407000Y-19662292D01*
X31407000Y-19530508D01*
X31372892Y-19403214D01*
X31307000Y-19289086D01*
X31213814Y-19195900D01*
X31118569Y-19140910D01*
X31099687Y-19130008D01*
X31036039Y-19112954D01*
X30972392Y-19095900D01*
X30840608Y-19095900D01*
X30713312Y-19130008D01*
X30599186Y-19195900D01*
X30599183Y-19195902D01*
X30535505Y-19259581D01*
X30474182Y-19293066D01*
X30447824Y-19295900D01*
X20772233Y-19295900D01*
X20705194Y-19276215D01*
X20684552Y-19259581D01*
X18380179Y-16955208D01*
X31203800Y-16955208D01*
X31203800Y-17086991D01*
X31237908Y-17214287D01*
X31265202Y-17261560D01*
X31303800Y-17328414D01*
X31396986Y-17421600D01*
X31495821Y-17478663D01*
X31508524Y-17485997D01*
X31511114Y-17487492D01*
X31638408Y-17521600D01*
X31638410Y-17521600D01*
X31770190Y-17521600D01*
X31770192Y-17521600D01*
X31897486Y-17487492D01*
X32011614Y-17421600D01*
X32075295Y-17357919D01*
X32136618Y-17324434D01*
X32162976Y-17321600D01*
X36110560Y-17321600D01*
X36110562Y-17321600D01*
X36186989Y-17301121D01*
X36255511Y-17261560D01*
X36311460Y-17205611D01*
X36853951Y-16663118D01*
X36915274Y-16629634D01*
X36941632Y-16626800D01*
X37031690Y-16626800D01*
X37031692Y-16626800D01*
X37158986Y-16592692D01*
X37273114Y-16526800D01*
X37366300Y-16433614D01*
X37432192Y-16319486D01*
X37466300Y-16192192D01*
X37466300Y-16060408D01*
X37432192Y-15933114D01*
X37366300Y-15818986D01*
X37273114Y-15725800D01*
X37216050Y-15692854D01*
X37158987Y-15659908D01*
X37095339Y-15642854D01*
X37031692Y-15625800D01*
X36899908Y-15625800D01*
X36772612Y-15659908D01*
X36658486Y-15725800D01*
X36658483Y-15725802D01*
X36565302Y-15818983D01*
X36565300Y-15818986D01*
X36499408Y-15933112D01*
X36465300Y-16060408D01*
X36465300Y-16150466D01*
X36445615Y-16217505D01*
X36428981Y-16238147D01*
X35982848Y-16684281D01*
X35921525Y-16717766D01*
X35895167Y-16720600D01*
X32162976Y-16720600D01*
X32095937Y-16700915D01*
X32075295Y-16684281D01*
X32011616Y-16620602D01*
X32011614Y-16620600D01*
X31949953Y-16585000D01*
X31897487Y-16554708D01*
X31833839Y-16537654D01*
X31770192Y-16520600D01*
X31638408Y-16520600D01*
X31511112Y-16554708D01*
X31396986Y-16620600D01*
X31396983Y-16620602D01*
X31303802Y-16713783D01*
X31303800Y-16713786D01*
X31237908Y-16827912D01*
X31203800Y-16955208D01*
X18380179Y-16955208D01*
X12104713Y-10679742D01*
X12071228Y-10618419D01*
X12076212Y-10548727D01*
X12118084Y-10492794D01*
X12160300Y-10472287D01*
X12190886Y-10464092D01*
X12305014Y-10398200D01*
X12368695Y-10334519D01*
X12430018Y-10301034D01*
X12456376Y-10298200D01*
X14649360Y-10298200D01*
X14649362Y-10298200D01*
X14725789Y-10277721D01*
X14794311Y-10238160D01*
X14850260Y-10182211D01*
X16344560Y-8687911D01*
X16366159Y-8650500D01*
X16384121Y-8619389D01*
X16404600Y-8542962D01*
X16404600Y-7444238D01*
X16384121Y-7367811D01*
X16363771Y-7332563D01*
X16344564Y-7299295D01*
X16344558Y-7299287D01*
X15758962Y-6713691D01*
X15725477Y-6652368D01*
X15724318Y-6635305D01*
X16750000Y-6635305D01*
X16750000Y-6864694D01*
X16750001Y-6864710D01*
X16779942Y-7092137D01*
X16839318Y-7313730D01*
X16927102Y-7525659D01*
X16927106Y-7525669D01*
X17041799Y-7724324D01*
X17041805Y-7724331D01*
X17098381Y-7798064D01*
X17822421Y-7074024D01*
X17835359Y-7105258D01*
X17917437Y-7228097D01*
X18021903Y-7332563D01*
X18144742Y-7414641D01*
X18175974Y-7427578D01*
X17451934Y-8151617D01*
X17451934Y-8151618D01*
X17525666Y-8208194D01*
X17724330Y-8322893D01*
X17724340Y-8322897D01*
X17936269Y-8410681D01*
X18157862Y-8470057D01*
X18385289Y-8499998D01*
X18385306Y-8500000D01*
X18614694Y-8500000D01*
X18614710Y-8499998D01*
X18842137Y-8470057D01*
X19063730Y-8410681D01*
X19275659Y-8322897D01*
X19275668Y-8322893D01*
X19474327Y-8208197D01*
X19474334Y-8208192D01*
X19548064Y-8151617D01*
X18824025Y-7427578D01*
X18855258Y-7414641D01*
X18978097Y-7332563D01*
X19082563Y-7228097D01*
X19164641Y-7105258D01*
X19177578Y-7074025D01*
X19901617Y-7798064D01*
X19958192Y-7724334D01*
X19958197Y-7724327D01*
X20072893Y-7525668D01*
X20072897Y-7525659D01*
X20160681Y-7313730D01*
X20220057Y-7092137D01*
X20249998Y-6864710D01*
X20250000Y-6864694D01*
X20250000Y-6635305D01*
X20249998Y-6635289D01*
X20220057Y-6407862D01*
X20160681Y-6186269D01*
X20072897Y-5974340D01*
X20072893Y-5974330D01*
X19958194Y-5775666D01*
X19901618Y-5701934D01*
X19901617Y-5701934D01*
X19177577Y-6425973D01*
X19164641Y-6394742D01*
X19082563Y-6271903D01*
X18978097Y-6167437D01*
X18855258Y-6085359D01*
X18824023Y-6072421D01*
X19548064Y-5348381D01*
X19548064Y-5348380D01*
X19474331Y-5291805D01*
X19474324Y-5291799D01*
X19275669Y-5177106D01*
X19275659Y-5177102D01*
X19063730Y-5089318D01*
X18842137Y-5029942D01*
X18614710Y-5000001D01*
X18614694Y-5000000D01*
X18385306Y-5000000D01*
X18385289Y-5000001D01*
X18157862Y-5029942D01*
X17936269Y-5089318D01*
X17724340Y-5177102D01*
X17724330Y-5177106D01*
X17525673Y-5291801D01*
X17525659Y-5291810D01*
X17451934Y-5348380D01*
X18175975Y-6072421D01*
X18144742Y-6085359D01*
X18021903Y-6167437D01*
X17917437Y-6271903D01*
X17835359Y-6394742D01*
X17822421Y-6425975D01*
X17098380Y-5701934D01*
X17041810Y-5775659D01*
X17041801Y-5775673D01*
X16927106Y-5974330D01*
X16927102Y-5974340D01*
X16839318Y-6186269D01*
X16779942Y-6407862D01*
X16750001Y-6635289D01*
X16750000Y-6635305D01*
X15724318Y-6635305D01*
X15723025Y-6616281D01*
X15725921Y-6579473D01*
X15046447Y-5900000D01*
X15052661Y-5900000D01*
X15154394Y-5872741D01*
X15245606Y-5820080D01*
X15320080Y-5745606D01*
X15372741Y-5654394D01*
X15400000Y-5552661D01*
X15400000Y-5546447D01*
X16079474Y-6225921D01*
X16111859Y-6181349D01*
X16204755Y-5999031D01*
X16267990Y-5804417D01*
X16300000Y-5602317D01*
X16300000Y-5397682D01*
X16267990Y-5195582D01*
X16204755Y-5000968D01*
X16142301Y-4878395D01*
X16129405Y-4809725D01*
X16155682Y-4744985D01*
X16212788Y-4704728D01*
X16252786Y-4698100D01*
X25606967Y-4698100D01*
X25674006Y-4717785D01*
X25694648Y-4734419D01*
X30022028Y-9061799D01*
X30055513Y-9123122D01*
X30050529Y-9192814D01*
X30008657Y-9248747D01*
X29950533Y-9272419D01*
X29708990Y-9304220D01*
X29708979Y-9304222D01*
X29455744Y-9372075D01*
X29213528Y-9472404D01*
X29213517Y-9472409D01*
X28986471Y-9603496D01*
X28873633Y-9690079D01*
X28873633Y-9690080D01*
X29590979Y-10407426D01*
X29462537Y-10493249D01*
X29323249Y-10632537D01*
X29237426Y-10760979D01*
X28520080Y-10043633D01*
X28520079Y-10043633D01*
X28433496Y-10156471D01*
X28302409Y-10383517D01*
X28302404Y-10383528D01*
X28202075Y-10625744D01*
X28134222Y-10878979D01*
X28134220Y-10878990D01*
X28100000Y-11138905D01*
X28100000Y-11401094D01*
X28134220Y-11661009D01*
X28134222Y-11661020D01*
X28202075Y-11914255D01*
X28302404Y-12156471D01*
X28302409Y-12156482D01*
X28433488Y-12383516D01*
X28433494Y-12383524D01*
X28520080Y-12496365D01*
X29237425Y-11779019D01*
X29323249Y-11907463D01*
X29462537Y-12046751D01*
X29590978Y-12132573D01*
X28873633Y-12849917D01*
X28873633Y-12849918D01*
X28986475Y-12936505D01*
X28986483Y-12936511D01*
X29213517Y-13067590D01*
X29213528Y-13067595D01*
X29455744Y-13167924D01*
X29708979Y-13235777D01*
X29708990Y-13235779D01*
X29968905Y-13269999D01*
X29968920Y-13270000D01*
X30231080Y-13270000D01*
X30231094Y-13269999D01*
X30491009Y-13235779D01*
X30491020Y-13235777D01*
X30744255Y-13167924D01*
X30986471Y-13067595D01*
X30986482Y-13067590D01*
X31213516Y-12936511D01*
X31213534Y-12936499D01*
X31326365Y-12849919D01*
X31326365Y-12849917D01*
X30609020Y-12132573D01*
X30737463Y-12046751D01*
X30876751Y-11907463D01*
X30962573Y-11779020D01*
X31679917Y-12496365D01*
X31679919Y-12496365D01*
X31766505Y-12383525D01*
X31767235Y-12382263D01*
X31767552Y-12381960D01*
X31768764Y-12380147D01*
X31769169Y-12380418D01*
X31817800Y-12334045D01*
X31886406Y-12320819D01*
X31951272Y-12346784D01*
X31962306Y-12356577D01*
X33948340Y-14342611D01*
X34004289Y-14398560D01*
X34004291Y-14398561D01*
X34004295Y-14398564D01*
X34072804Y-14438117D01*
X34072811Y-14438121D01*
X34149238Y-14458600D01*
X34228362Y-14458600D01*
X36395724Y-14458600D01*
X36462763Y-14478285D01*
X36483405Y-14494919D01*
X36547086Y-14558600D01*
X36661214Y-14624492D01*
X36788508Y-14658600D01*
X36788510Y-14658600D01*
X36920290Y-14658600D01*
X36920292Y-14658600D01*
X37047586Y-14624492D01*
X37161714Y-14558600D01*
X37254900Y-14465414D01*
X37320792Y-14351286D01*
X37354900Y-14223992D01*
X37354900Y-14092208D01*
X37320792Y-13964914D01*
X37254900Y-13850786D01*
X37161714Y-13757600D01*
X37098427Y-13721061D01*
X37063317Y-13700790D01*
X37015102Y-13650222D01*
X37001880Y-13581615D01*
X37027848Y-13516751D01*
X37077864Y-13478842D01*
X37131544Y-13456608D01*
X37203908Y-13426635D01*
X37203911Y-13426633D01*
X37203914Y-13426632D01*
X37367782Y-13317139D01*
X37507139Y-13177782D01*
X37616632Y-13013914D01*
X37692051Y-12831835D01*
X37728034Y-12650938D01*
X37730500Y-12638543D01*
X37730500Y-12441456D01*
X37692052Y-12248170D01*
X37692051Y-12248169D01*
X37692051Y-12248165D01*
X37679268Y-12217304D01*
X37616635Y-12066092D01*
X37616628Y-12066079D01*
X37507139Y-11902218D01*
X37507136Y-11902214D01*
X37367785Y-11762863D01*
X37367781Y-11762860D01*
X37203920Y-11653371D01*
X37203907Y-11653364D01*
X37021839Y-11577950D01*
X37021829Y-11577947D01*
X36828543Y-11539500D01*
X36828541Y-11539500D01*
X36631459Y-11539500D01*
X36631457Y-11539500D01*
X36438170Y-11577947D01*
X36438160Y-11577950D01*
X36256092Y-11653364D01*
X36256079Y-11653371D01*
X36092218Y-11762860D01*
X36092214Y-11762863D01*
X35952863Y-11902214D01*
X35952860Y-11902218D01*
X35843371Y-12066079D01*
X35843364Y-12066092D01*
X35767950Y-12248160D01*
X35767947Y-12248170D01*
X35731965Y-12429062D01*
X35699580Y-12490973D01*
X35638864Y-12525547D01*
X35569094Y-12521806D01*
X35512423Y-12480940D01*
X35487875Y-12424268D01*
X35457990Y-12235582D01*
X35394755Y-12040968D01*
X35301859Y-11858650D01*
X35269474Y-11814077D01*
X35269474Y-11814076D01*
X34632137Y-12451413D01*
X34609333Y-12366306D01*
X34550090Y-12263694D01*
X34466306Y-12179910D01*
X34363694Y-12120667D01*
X34278584Y-12097861D01*
X34915922Y-11460524D01*
X34915921Y-11460523D01*
X34871359Y-11428147D01*
X34871350Y-11428141D01*
X34689031Y-11335244D01*
X34494417Y-11272009D01*
X34305731Y-11242124D01*
X34242596Y-11212194D01*
X34205665Y-11152883D01*
X34206663Y-11083020D01*
X34245273Y-11024788D01*
X34300938Y-10998034D01*
X34481835Y-10962051D01*
X34663914Y-10886632D01*
X34827782Y-10777139D01*
X34967139Y-10637782D01*
X35076632Y-10473914D01*
X35152051Y-10291835D01*
X35175551Y-10173694D01*
X35190500Y-10098543D01*
X35729499Y-10098543D01*
X35767947Y-10291829D01*
X35767950Y-10291839D01*
X35843364Y-10473907D01*
X35843371Y-10473920D01*
X35952860Y-10637781D01*
X35952863Y-10637785D01*
X36092214Y-10777136D01*
X36092218Y-10777139D01*
X36256079Y-10886628D01*
X36256092Y-10886635D01*
X36330980Y-10917654D01*
X36438165Y-10962051D01*
X36438169Y-10962051D01*
X36438170Y-10962052D01*
X36631456Y-11000500D01*
X36631459Y-11000500D01*
X36828543Y-11000500D01*
X36958582Y-10974632D01*
X37021835Y-10962051D01*
X37203914Y-10886632D01*
X37367782Y-10777139D01*
X37507139Y-10637782D01*
X37616632Y-10473914D01*
X37692051Y-10291835D01*
X37715551Y-10173694D01*
X37730500Y-10098543D01*
X38269499Y-10098543D01*
X38307947Y-10291829D01*
X38307950Y-10291839D01*
X38383364Y-10473907D01*
X38383371Y-10473920D01*
X38492860Y-10637781D01*
X38492863Y-10637785D01*
X38632214Y-10777136D01*
X38632218Y-10777139D01*
X38796079Y-10886628D01*
X38796092Y-10886635D01*
X38870980Y-10917654D01*
X38978165Y-10962051D01*
X38978169Y-10962051D01*
X38978170Y-10962052D01*
X39171456Y-11000500D01*
X39171459Y-11000500D01*
X39368543Y-11000500D01*
X39498582Y-10974632D01*
X39561835Y-10962051D01*
X39603164Y-10944931D01*
X39669021Y-10917654D01*
X39743907Y-10886635D01*
X39743907Y-10886634D01*
X39743914Y-10886632D01*
X39907782Y-10777139D01*
X40047139Y-10637782D01*
X40156632Y-10473914D01*
X40232051Y-10291835D01*
X40268034Y-10110937D01*
X40300419Y-10049027D01*
X40361134Y-10014453D01*
X40430904Y-10018192D01*
X40487576Y-10059059D01*
X40512124Y-10115731D01*
X40542009Y-10304417D01*
X40605244Y-10499031D01*
X40698141Y-10681350D01*
X40698147Y-10681359D01*
X40730523Y-10725921D01*
X40730524Y-10725922D01*
X41367861Y-10088584D01*
X41390667Y-10173694D01*
X41449910Y-10276306D01*
X41533694Y-10360090D01*
X41636306Y-10419333D01*
X41721414Y-10442137D01*
X41084076Y-11079474D01*
X41128650Y-11111859D01*
X41222180Y-11159515D01*
X41272976Y-11207489D01*
X41289771Y-11275310D01*
X41267234Y-11341445D01*
X41222180Y-11380485D01*
X41128644Y-11428143D01*
X41084077Y-11460523D01*
X41084077Y-11460524D01*
X41721415Y-12097861D01*
X41636306Y-12120667D01*
X41533694Y-12179910D01*
X41449910Y-12263694D01*
X41390667Y-12366306D01*
X41367861Y-12451414D01*
X40730524Y-11814077D01*
X40730523Y-11814077D01*
X40698143Y-11858644D01*
X40605244Y-12040968D01*
X40542010Y-12235581D01*
X40512124Y-12424269D01*
X40482194Y-12487403D01*
X40422883Y-12524334D01*
X40353020Y-12523336D01*
X40294788Y-12484726D01*
X40268034Y-12429061D01*
X40242795Y-12302177D01*
X40232051Y-12248165D01*
X40219268Y-12217304D01*
X40156635Y-12066092D01*
X40156628Y-12066079D01*
X40047139Y-11902218D01*
X40047136Y-11902214D01*
X39907785Y-11762863D01*
X39907781Y-11762860D01*
X39743920Y-11653371D01*
X39743907Y-11653364D01*
X39561839Y-11577950D01*
X39561829Y-11577947D01*
X39368543Y-11539500D01*
X39368541Y-11539500D01*
X39171459Y-11539500D01*
X39171457Y-11539500D01*
X38978170Y-11577947D01*
X38978160Y-11577950D01*
X38796092Y-11653364D01*
X38796079Y-11653371D01*
X38632218Y-11762860D01*
X38632214Y-11762863D01*
X38492863Y-11902214D01*
X38492860Y-11902218D01*
X38383371Y-12066079D01*
X38383364Y-12066092D01*
X38307950Y-12248160D01*
X38307947Y-12248170D01*
X38269500Y-12441456D01*
X38269500Y-12441459D01*
X38269500Y-12638541D01*
X38269500Y-12638543D01*
X38269499Y-12638543D01*
X38307947Y-12831829D01*
X38307950Y-12831839D01*
X38383364Y-13013907D01*
X38383371Y-13013920D01*
X38492860Y-13177781D01*
X38492863Y-13177785D01*
X38632214Y-13317136D01*
X38632218Y-13317139D01*
X38796079Y-13426628D01*
X38796092Y-13426635D01*
X38870980Y-13457654D01*
X38978165Y-13502051D01*
X38978169Y-13502051D01*
X38978170Y-13502052D01*
X39171456Y-13540500D01*
X39171459Y-13540500D01*
X39368543Y-13540500D01*
X39498582Y-13514632D01*
X39561835Y-13502051D01*
X39617867Y-13478842D01*
X39669021Y-13457654D01*
X39743907Y-13426635D01*
X39743907Y-13426634D01*
X39743914Y-13426632D01*
X39907782Y-13317139D01*
X40047139Y-13177782D01*
X40156632Y-13013914D01*
X40232051Y-12831835D01*
X40268034Y-12650937D01*
X40300419Y-12589027D01*
X40361134Y-12554453D01*
X40430904Y-12558192D01*
X40487576Y-12599059D01*
X40512124Y-12655731D01*
X40542009Y-12844417D01*
X40605244Y-13039031D01*
X40698141Y-13221350D01*
X40698147Y-13221359D01*
X40730523Y-13265921D01*
X40730524Y-13265922D01*
X41367861Y-12628584D01*
X41390667Y-12713694D01*
X41449910Y-12816306D01*
X41533694Y-12900090D01*
X41636306Y-12959333D01*
X41721414Y-12982137D01*
X41084076Y-13619474D01*
X41128650Y-13651859D01*
X41310968Y-13744755D01*
X41505582Y-13807990D01*
X41707683Y-13840000D01*
X41912317Y-13840000D01*
X42114417Y-13807990D01*
X42309031Y-13744755D01*
X42491349Y-13651859D01*
X42535921Y-13619474D01*
X41898585Y-12982138D01*
X41983694Y-12959333D01*
X42086306Y-12900090D01*
X42170090Y-12816306D01*
X42229333Y-12713694D01*
X42252138Y-12628585D01*
X42889474Y-13265921D01*
X42921859Y-13221349D01*
X43014755Y-13039031D01*
X43077990Y-12844417D01*
X43077990Y-12844416D01*
X43087786Y-12782568D01*
X43087786Y-12782567D01*
X43110000Y-12642317D01*
X43110000Y-12437682D01*
X43077990Y-12235582D01*
X43014755Y-12040968D01*
X42921859Y-11858650D01*
X42889474Y-11814077D01*
X42889474Y-11814076D01*
X42252137Y-12451413D01*
X42229333Y-12366306D01*
X42170090Y-12263694D01*
X42086306Y-12179910D01*
X41983694Y-12120667D01*
X41898584Y-12097861D01*
X42535922Y-11460524D01*
X42535921Y-11460523D01*
X42491359Y-11428147D01*
X42491350Y-11428141D01*
X42397819Y-11380485D01*
X42394050Y-11376925D01*
X42389050Y-11375559D01*
X42368911Y-11353183D01*
X42347023Y-11332511D01*
X42345776Y-11327479D01*
X42342309Y-11323626D01*
X42337464Y-11293912D01*
X42330228Y-11264690D01*
X42331900Y-11259783D01*
X42331066Y-11254667D01*
X42343053Y-11227053D01*
X42352765Y-11198555D01*
X42357381Y-11194047D01*
X42358889Y-11190576D01*
X42370100Y-11181630D01*
X42385123Y-11166965D01*
X42427029Y-11138905D01*
X43900000Y-11138905D01*
X43900000Y-11401094D01*
X43934220Y-11661009D01*
X43934222Y-11661020D01*
X44002075Y-11914255D01*
X44102404Y-12156471D01*
X44102409Y-12156482D01*
X44233488Y-12383516D01*
X44233494Y-12383524D01*
X44320080Y-12496365D01*
X45037425Y-11779019D01*
X45123249Y-11907463D01*
X45262537Y-12046751D01*
X45390978Y-12132573D01*
X44673633Y-12849917D01*
X44673633Y-12849918D01*
X44786475Y-12936505D01*
X44786483Y-12936511D01*
X45013517Y-13067590D01*
X45013528Y-13067595D01*
X45255744Y-13167924D01*
X45508979Y-13235777D01*
X45508990Y-13235779D01*
X45768905Y-13269999D01*
X45768920Y-13270000D01*
X46031080Y-13270000D01*
X46031094Y-13269999D01*
X46291009Y-13235779D01*
X46291020Y-13235777D01*
X46544255Y-13167924D01*
X46786471Y-13067595D01*
X46786482Y-13067590D01*
X47013516Y-12936511D01*
X47013534Y-12936499D01*
X47126365Y-12849919D01*
X47126365Y-12849917D01*
X46409020Y-12132573D01*
X46537463Y-12046751D01*
X46676751Y-11907463D01*
X46762573Y-11779021D01*
X47479917Y-12496365D01*
X47479919Y-12496365D01*
X47566499Y-12383534D01*
X47566511Y-12383516D01*
X47697590Y-12156482D01*
X47697595Y-12156471D01*
X47797924Y-11914255D01*
X47865777Y-11661020D01*
X47865779Y-11661009D01*
X47899999Y-11401094D01*
X47900000Y-11401080D01*
X47900000Y-11138919D01*
X47899999Y-11138905D01*
X47865779Y-10878990D01*
X47865777Y-10878979D01*
X47797924Y-10625744D01*
X47697595Y-10383528D01*
X47697590Y-10383517D01*
X47566511Y-10156483D01*
X47566505Y-10156475D01*
X47479918Y-10043633D01*
X47479917Y-10043633D01*
X46762572Y-10760978D01*
X46676751Y-10632537D01*
X46537463Y-10493249D01*
X46409019Y-10407425D01*
X47126365Y-9690080D01*
X47013524Y-9603494D01*
X47013516Y-9603488D01*
X46786482Y-9472409D01*
X46786471Y-9472404D01*
X46544255Y-9372075D01*
X46291020Y-9304222D01*
X46291009Y-9304220D01*
X46031094Y-9270000D01*
X45768905Y-9270000D01*
X45508990Y-9304220D01*
X45508979Y-9304222D01*
X45255744Y-9372075D01*
X45013528Y-9472404D01*
X45013517Y-9472409D01*
X44786471Y-9603496D01*
X44673633Y-9690079D01*
X44673633Y-9690080D01*
X45390979Y-10407426D01*
X45262537Y-10493249D01*
X45123249Y-10632537D01*
X45037426Y-10760979D01*
X44320080Y-10043633D01*
X44320079Y-10043633D01*
X44233496Y-10156471D01*
X44102409Y-10383517D01*
X44102404Y-10383528D01*
X44002075Y-10625744D01*
X43934222Y-10878979D01*
X43934220Y-10878990D01*
X43900000Y-11138905D01*
X42427029Y-11138905D01*
X42527846Y-11071398D01*
X41898585Y-10442138D01*
X41983694Y-10419333D01*
X42086306Y-10360090D01*
X42170090Y-10276306D01*
X42229333Y-10173694D01*
X42252138Y-10088585D01*
X42889474Y-10725921D01*
X42921859Y-10681349D01*
X43014755Y-10499031D01*
X43077990Y-10304417D01*
X43110000Y-10102317D01*
X43110000Y-9897682D01*
X43087786Y-9757431D01*
X43077990Y-9695582D01*
X43014755Y-9500968D01*
X42921859Y-9318650D01*
X42889474Y-9274077D01*
X42889474Y-9274076D01*
X42252137Y-9911413D01*
X42229333Y-9826306D01*
X42170090Y-9723694D01*
X42086306Y-9639910D01*
X41983694Y-9580667D01*
X41898584Y-9557861D01*
X42535922Y-8920524D01*
X42535921Y-8920523D01*
X42491359Y-8888147D01*
X42491350Y-8888141D01*
X42309031Y-8795244D01*
X42114417Y-8732009D01*
X41912317Y-8700000D01*
X41707683Y-8700000D01*
X41505582Y-8732009D01*
X41310968Y-8795244D01*
X41128644Y-8888143D01*
X41084077Y-8920523D01*
X41084077Y-8920524D01*
X41721415Y-9557861D01*
X41636306Y-9580667D01*
X41533694Y-9639910D01*
X41449910Y-9723694D01*
X41390667Y-9826306D01*
X41367861Y-9911414D01*
X40730524Y-9274077D01*
X40730523Y-9274077D01*
X40698143Y-9318644D01*
X40605244Y-9500968D01*
X40542010Y-9695581D01*
X40512124Y-9884269D01*
X40482194Y-9947403D01*
X40422883Y-9984334D01*
X40353020Y-9983336D01*
X40294788Y-9944726D01*
X40268034Y-9889061D01*
X40251216Y-9804511D01*
X40232051Y-9708165D01*
X40224560Y-9690079D01*
X40156635Y-9526092D01*
X40156628Y-9526079D01*
X40047139Y-9362218D01*
X40047136Y-9362214D01*
X39907785Y-9222863D01*
X39907781Y-9222860D01*
X39743920Y-9113371D01*
X39743907Y-9113364D01*
X39669016Y-9082344D01*
X39561839Y-9037950D01*
X39561829Y-9037947D01*
X39368543Y-8999500D01*
X39368541Y-8999500D01*
X39171459Y-8999500D01*
X39171457Y-8999500D01*
X38978170Y-9037947D01*
X38978160Y-9037950D01*
X38796092Y-9113364D01*
X38796079Y-9113371D01*
X38632218Y-9222860D01*
X38632214Y-9222863D01*
X38492863Y-9362214D01*
X38492860Y-9362218D01*
X38383371Y-9526079D01*
X38383364Y-9526092D01*
X38307950Y-9708160D01*
X38307947Y-9708170D01*
X38269500Y-9901456D01*
X38269500Y-9901459D01*
X38269500Y-10098541D01*
X38269500Y-10098543D01*
X38269499Y-10098543D01*
X37730500Y-10098543D01*
X37730500Y-9901456D01*
X37692052Y-9708170D01*
X37692051Y-9708169D01*
X37692051Y-9708165D01*
X37684560Y-9690079D01*
X37616635Y-9526092D01*
X37616628Y-9526079D01*
X37507139Y-9362218D01*
X37507136Y-9362214D01*
X37367785Y-9222863D01*
X37367781Y-9222860D01*
X37203920Y-9113371D01*
X37203907Y-9113364D01*
X37021839Y-9037950D01*
X37021829Y-9037947D01*
X36828543Y-8999500D01*
X36828541Y-8999500D01*
X36631459Y-8999500D01*
X36631457Y-8999500D01*
X36438170Y-9037947D01*
X36438160Y-9037950D01*
X36256092Y-9113364D01*
X36256079Y-9113371D01*
X36092218Y-9222860D01*
X36092214Y-9222863D01*
X35952863Y-9362214D01*
X35952860Y-9362218D01*
X35843371Y-9526079D01*
X35843364Y-9526092D01*
X35767950Y-9708160D01*
X35767947Y-9708170D01*
X35729500Y-9901456D01*
X35729500Y-9901459D01*
X35729500Y-10098541D01*
X35729500Y-10098543D01*
X35729499Y-10098543D01*
X35190500Y-10098543D01*
X35190500Y-9901456D01*
X35152052Y-9708170D01*
X35152051Y-9708169D01*
X35152051Y-9708165D01*
X35144560Y-9690079D01*
X35076635Y-9526092D01*
X35076628Y-9526079D01*
X34967139Y-9362218D01*
X34967136Y-9362214D01*
X34827785Y-9222863D01*
X34827781Y-9222860D01*
X34663920Y-9113371D01*
X34663907Y-9113364D01*
X34481839Y-9037950D01*
X34481829Y-9037947D01*
X34288543Y-8999500D01*
X34288541Y-8999500D01*
X34091459Y-8999500D01*
X34091457Y-8999500D01*
X33898170Y-9037947D01*
X33898160Y-9037950D01*
X33716092Y-9113364D01*
X33716079Y-9113371D01*
X33552218Y-9222860D01*
X33552214Y-9222863D01*
X33412863Y-9362214D01*
X33412860Y-9362218D01*
X33303371Y-9526079D01*
X33303364Y-9526092D01*
X33227950Y-9708160D01*
X33227947Y-9708170D01*
X33189500Y-9901456D01*
X33189500Y-9901459D01*
X33189500Y-10098541D01*
X33189500Y-10098543D01*
X33189499Y-10098543D01*
X33227947Y-10291829D01*
X33227950Y-10291839D01*
X33303364Y-10473907D01*
X33303371Y-10473920D01*
X33412860Y-10637781D01*
X33412863Y-10637785D01*
X33552214Y-10777136D01*
X33552218Y-10777139D01*
X33716079Y-10886628D01*
X33716092Y-10886635D01*
X33790980Y-10917654D01*
X33898165Y-10962051D01*
X33979909Y-10978311D01*
X34079061Y-10998034D01*
X34140972Y-11030419D01*
X34175546Y-11091134D01*
X34171807Y-11160904D01*
X34130940Y-11217576D01*
X34074269Y-11242124D01*
X33885581Y-11272010D01*
X33690968Y-11335244D01*
X33508644Y-11428143D01*
X33464077Y-11460523D01*
X33464077Y-11460524D01*
X34101415Y-12097861D01*
X34016306Y-12120667D01*
X33913694Y-12179910D01*
X33829910Y-12263694D01*
X33770667Y-12366306D01*
X33747861Y-12451415D01*
X33110524Y-11814077D01*
X33110523Y-11814077D01*
X33078143Y-11858644D01*
X32985244Y-12040968D01*
X32927949Y-12217304D01*
X32888511Y-12274979D01*
X32824152Y-12302177D01*
X32755306Y-12290262D01*
X32722337Y-12266666D01*
X32363219Y-11907548D01*
X32329734Y-11846225D01*
X32326900Y-11819867D01*
X32326900Y-10601639D01*
X32306420Y-10525209D01*
X32306417Y-10525204D01*
X32266864Y-10456695D01*
X32266858Y-10456687D01*
X25967312Y-4157141D01*
X25967304Y-4157135D01*
X25898795Y-4117582D01*
X25898790Y-4117579D01*
X25873313Y-4110752D01*
X25822362Y-4097100D01*
X10062838Y-4097100D01*
X10024624Y-4107339D01*
X9986409Y-4117579D01*
X9986404Y-4117582D01*
X9917895Y-4157135D01*
X9917887Y-4157141D01*
X9523835Y-4551192D01*
X9462512Y-4584677D01*
X9392820Y-4579693D01*
X9388702Y-4578072D01*
X9291839Y-4537950D01*
X9291829Y-4537947D01*
X9098543Y-4499500D01*
X9098541Y-4499500D01*
X8901459Y-4499500D01*
X8901457Y-4499500D01*
X8708170Y-4537947D01*
X8708160Y-4537950D01*
X8526092Y-4613364D01*
X8526079Y-4613371D01*
X8362218Y-4722860D01*
X8362214Y-4722863D01*
X8222863Y-4862214D01*
X8222860Y-4862218D01*
X8113371Y-5026079D01*
X8113364Y-5026092D01*
X8037950Y-5208160D01*
X8037947Y-5208170D01*
X7999500Y-5401456D01*
X7999500Y-5401459D01*
X7999500Y-5598541D01*
X7999500Y-5598543D01*
X7999499Y-5598543D01*
X6297902Y-5598543D01*
X6548064Y-5348381D01*
X6474331Y-5291805D01*
X6474324Y-5291799D01*
X6275669Y-5177106D01*
X6275659Y-5177102D01*
X6063730Y-5089318D01*
X5842137Y-5029942D01*
X5614710Y-5000001D01*
X5614694Y-5000000D01*
X5385306Y-5000000D01*
X5385289Y-5000001D01*
X5157862Y-5029942D01*
X4936269Y-5089318D01*
X4724340Y-5177102D01*
X4724330Y-5177106D01*
X4525673Y-5291801D01*
X4525659Y-5291810D01*
X4451934Y-5348380D01*
X5175975Y-6072421D01*
X5144742Y-6085359D01*
X5021903Y-6167437D01*
X4917437Y-6271903D01*
X4835359Y-6394742D01*
X4822421Y-6425975D01*
X4098380Y-5701934D01*
X4041810Y-5775659D01*
X4041801Y-5775673D01*
X3927106Y-5974330D01*
X3927102Y-5974340D01*
X3839318Y-6186269D01*
X3779942Y-6407862D01*
X3750001Y-6635289D01*
X3750000Y-6635305D01*
X500500Y-6635305D01*
X500500Y-1006976D01*
X501280Y-993091D01*
X507927Y-934108D01*
X511461Y-902739D01*
X517640Y-875674D01*
X517643Y-875666D01*
X545359Y-796462D01*
X557399Y-771459D01*
X602052Y-700396D01*
X619356Y-678698D01*
X678700Y-619355D01*
X700396Y-602052D01*
X771459Y-557399D01*
X796466Y-545356D01*
X875677Y-517639D01*
X902739Y-511461D01*
X970274Y-503851D01*
X993092Y-501280D01*
X1006977Y-500500D01*
X48934108Y-500500D01*
X48993038Y-500500D01*
X49006922Y-501280D01*
G37*
%TD.AperFunction*%
%TD*%
M02*
