M48
; DRILL file {KiCad 9.0.7} date 2026-03-02T07:06:39+0900
; FORMAT={-:-/ absolute / metric / decimal}
; #@! TF.CreationDate,2026-03-02T07:06:39+09:00
; #@! TF.GenerationSoftware,Kicad,Pcbnew,9.0.7
; #@! TF.FileFunction,MixedPlating,1,2
FMAT,2
METRIC
; #@! TA.AperFunction,Plated,PTH,ViaDrill
T1C0.300
; #@! TA.AperFunction,Plated,PTH,ComponentDrill
T2C0.800
; #@! TA.AperFunction,Plated,PTH,ComponentDrill
T3C0.900
; #@! TA.AperFunction,Plated,PTH,ComponentDrill
T4C1.000
; #@! TA.AperFunction,Plated,PTH,ComponentDrill
T5C1.500
; #@! TA.AperFunction,Plated,PTH,ComponentDrill
T6C2.000
%
G90
G05
T1
X1.427Y-42.97
X4.329Y-39.957
X5.596Y-21.025
X6.453Y-29.0
X7.282Y-78.56
X8.512Y-25.48
X9.15Y-74.704
X9.633Y-17.085
X9.867Y-16.125
X10.236Y-28.965
X10.236Y-78.56
X10.492Y-31.099
X10.936Y-77.878
X11.998Y-9.998
X12.726Y-43.461
X13.188Y-77.795
X13.188Y-79.325
X13.833Y-74.398
X14.224Y-43.528
X15.957Y-19.207
X17.802Y-40.077
X18.903Y-19.06
X19.095Y-77.795
X19.505Y-31.166
X19.573Y-22.656
X19.836Y-25.323
X20.962Y-31.612
X22.047Y-16.125
X22.047Y-77.795
X24.1Y-33.15
X25.349Y-35.27
X27.953Y-25.148
X30.906Y-19.596
X30.925Y-16.144
X31.199Y-42.511
X31.704Y-17.021
X34.097Y-28.877
X34.158Y-43.457
X34.755Y-44.977
X36.618Y-25.148
X36.854Y-14.158
X36.966Y-16.126
X39.765Y-19.596
X45.671Y-28.066
T2
X9.0Y-5.5
X9.0Y-8.0
X11.0Y-5.5
X11.0Y-8.0
X13.0Y-5.5
X13.0Y-8.0
X15.0Y-5.5
X15.0Y-8.0
X34.19Y-30.19
X34.19Y-32.73
X34.19Y-35.27
X34.19Y-37.81
X41.81Y-30.19
X41.81Y-32.73
X41.81Y-35.27
X41.81Y-37.81
T3
X34.19Y-10.0
X34.19Y-12.54
X36.73Y-10.0
X36.73Y-12.54
X39.27Y-10.0
X39.27Y-12.54
X41.81Y-10.0
X41.81Y-12.54
T4
X6.0Y-58.0
X11.0Y-58.0
X16.0Y-58.0
X28.0Y-56.0
X28.0Y-61.0
X30.54Y-56.0
X30.54Y-61.0
X32.0Y-76.0
X33.08Y-56.0
X33.08Y-61.0
X34.54Y-76.0
X37.08Y-76.0
X39.62Y-76.0
X42.0Y-42.92
X42.0Y-45.46
X42.0Y-48.0
X42.0Y-54.38
X42.0Y-56.92
X42.0Y-59.46
X42.0Y-62.0
X42.16Y-76.0
X44.7Y-76.0
T5
X5.5Y-6.75
X18.5Y-6.75
T6
X30.1Y-11.27
X45.9Y-11.27
M30
