M48
; DRILL file {KiCad 9.0.7} date 2026-03-02T03:21:03+0900
; FORMAT={-:-/ absolute / metric / decimal}
; #@! TF.CreationDate,2026-03-02T03:21:03+09:00
; #@! TF.GenerationSoftware,Kicad,Pcbnew,9.0.7
; #@! TF.FileFunction,MixedPlating,1,2
FMAT,2
METRIC
; #@! TA.AperFunction,Plated,PTH,ViaDrill
T1C0.300
; #@! TA.AperFunction,Plated,PTH,ComponentDrill
T2C0.800
%
G90
G05
T1
X6.888Y-13.876
X7.12Y-28.118
X7.12Y-63.866
X7.626Y-67.56
X7.841Y-49.823
X8.73Y-45.94
X9.198Y-10.891
X9.475Y-63.825
X9.537Y-60.556
X10.48Y-31.114
X11.32Y-60.556
X14.867Y-43.11
X18.858Y-25.148
X24.448Y-7.325
X24.463Y-72.661
X24.8Y-49.553
X24.851Y-9.882
X24.916Y-63.293
X25.029Y-67.52
X25.158Y-31.803
X25.522Y-65.673
X26.35Y-67.804
X26.396Y-28.985
X26.396Y-46.337
X26.4Y-31.912
X27.025Y-10.279
X27.299Y-63.657
X27.742Y-11.065
X27.94Y-28.118
X28.13Y-45.148
X29.161Y-71.844
X30.387Y-43.11
X33.212Y-64.392
X33.423Y-72.674
X33.937Y-26.1
X33.978Y-7.75
X36.0Y-66.514
X36.095Y-60.405
X36.504Y-70.276
X36.522Y-61.804
X38.794Y-79.105
X40.666Y-51.881
X41.731Y-10.251
X41.776Y-75.414
X41.95Y-65.673
X41.983Y-70.26
X42.294Y-76.192
X42.582Y-46.767
X43.735Y-11.193
X43.735Y-29.204
X43.753Y-46.906
X43.878Y-45.94
X44.22Y-63.763
X44.664Y-10.282
X44.664Y-28.118
X44.697Y-70.26
X45.47Y-28.847
X47.416Y-25.148
X48.809Y-60.992
X50.343Y-7.147
X50.381Y-43.11
X50.44Y-63.799
X59.831Y-63.932
X60.399Y-49.649
X60.874Y-11.423
X61.208Y-29.275
X61.509Y-64.297
X61.992Y-28.118
X61.994Y-7.325
X62.325Y-49.823
X62.456Y-54.607
X63.921Y-45.94
X65.529Y-7.325
X65.63Y-45.17
X67.768Y-67.409
X67.855Y-29.0
T2
X5.0Y-75.0
X7.0Y-75.0
X9.0Y-75.0
X11.0Y-75.0
X13.0Y-75.0
X15.0Y-75.0
M30
