%TF.GenerationSoftware,KiCad,Pcbnew,9.0.7*%
%TF.CreationDate,2026-03-02T12:53:16+09:00*%
%TF.ProjectId,mixtee-input-mother,6d697874-6565-42d6-996e-7075742d6d6f,rev?*%
%TF.SameCoordinates,Original*%
%TF.FileFunction,Soldermask,Top*%
%TF.FilePolarity,Negative*%
%FSLAX46Y46*%
G04 Gerber Fmt 4.6, Leading zero omitted, Abs format (unit mm)*
G04 Created by KiCad (PCBNEW 9.0.7) date 2026-03-02 12:53:16*
%MOMM*%
%LPD*%
G01*
G04 APERTURE LIST*
G04 Aperture macros list*
%AMRoundRect*
0 Rectangle with rounded corners*
0 $1 Rounding radius*
0 $2 $3 $4 $5 $6 $7 $8 $9 X,Y pos of 4 corners*
0 Add a 4 corners polygon primitive as box body*
4,1,4,$2,$3,$4,$5,$6,$7,$8,$9,$2,$3,0*
0 Add four circle primitives for the rounded corners*
1,1,$1+$1,$2,$3*
1,1,$1+$1,$4,$5*
1,1,$1+$1,$6,$7*
1,1,$1+$1,$8,$9*
0 Add four rect primitives between the rounded corners*
20,1,$1+$1,$2,$3,$4,$5,0*
20,1,$1+$1,$4,$5,$6,$7,0*
20,1,$1+$1,$6,$7,$8,$9,0*
20,1,$1+$1,$8,$9,$2,$3,0*%
G04 Aperture macros list end*
%ADD10RoundRect,0.250000X-0.250000X-0.400000X0.250000X-0.400000X0.250000X0.400000X-0.250000X0.400000X0*%
%ADD11RoundRect,0.225000X-0.225000X-0.275000X0.225000X-0.275000X0.225000X0.275000X-0.225000X0.275000X0*%
%ADD12RoundRect,0.150000X-0.350000X-0.150000X0.350000X-0.150000X0.350000X0.150000X-0.350000X0.150000X0*%
%ADD13C,2.400000*%
%ADD14RoundRect,0.250000X-0.400000X-0.250000X0.400000X-0.250000X0.400000X0.250000X-0.400000X0.250000X0*%
%ADD15RoundRect,0.150000X-0.600000X-0.150000X0.600000X-0.150000X0.600000X0.150000X-0.600000X0.150000X0*%
%ADD16RoundRect,0.062500X-0.337500X-0.062500X0.337500X-0.062500X0.337500X0.062500X-0.337500X0.062500X0*%
%ADD17RoundRect,0.062500X-0.062500X-0.337500X0.062500X-0.337500X0.062500X0.337500X-0.062500X0.337500X0*%
%ADD18C,0.600000*%
%ADD19RoundRect,0.345000X-1.380000X-1.380000X1.380000X-1.380000X1.380000X1.380000X-1.380000X1.380000X0*%
%ADD20C,1.750000*%
%ADD21RoundRect,0.150000X-0.150000X-0.600000X0.150000X-0.600000X0.150000X0.600000X-0.150000X0.600000X0*%
%ADD22R,1.200000X2.000000*%
G04 APERTURE END LIST*
D10*
%TO.C,C31*%
X15000000Y-2000000D03*
X17000000Y-2000000D03*
%TD*%
D11*
%TO.C,R7*%
X57200000Y-14500000D03*
X58800000Y-14500000D03*
%TD*%
D12*
%TO.C,D3*%
X45900000Y-13000000D03*
X48100000Y-13000000D03*
%TD*%
%TO.C,D7*%
X75900000Y-8000000D03*
X78100000Y-8000000D03*
%TD*%
D13*
%TO.C,J4*%
X77620000Y-28570000D03*
X70000000Y-22220000D03*
%TD*%
D14*
%TO.C,C1*%
X13000000Y-13000000D03*
X13000000Y-11000000D03*
%TD*%
D10*
%TO.C,C27*%
X55000000Y-10000000D03*
X57000000Y-10000000D03*
%TD*%
D11*
%TO.C,C18*%
X31200000Y-20500000D03*
X32800000Y-20500000D03*
%TD*%
D15*
%TO.C,U5*%
X21300000Y-15095000D03*
X21300000Y-16365000D03*
X21300000Y-17635000D03*
X21300000Y-18905000D03*
X26700000Y-18905000D03*
X26700000Y-17635000D03*
X26700000Y-16365000D03*
X26700000Y-15095000D03*
%TD*%
D11*
%TO.C,C13*%
X13200000Y-16000000D03*
X14800000Y-16000000D03*
%TD*%
D10*
%TO.C,C26*%
X24000000Y-7000000D03*
X26000000Y-7000000D03*
%TD*%
D16*
%TO.C,U1*%
X17250000Y-5250000D03*
X17250000Y-5750000D03*
X17250000Y-6250000D03*
X17250000Y-6750000D03*
X17250000Y-7250000D03*
X17250000Y-7750000D03*
X17250000Y-8250000D03*
X17250000Y-8750000D03*
D17*
X18250000Y-9750000D03*
X18750000Y-9750000D03*
X19250000Y-9750000D03*
X19750000Y-9750000D03*
X20250000Y-9750000D03*
X20750000Y-9750000D03*
X21250000Y-9750000D03*
X21750000Y-9750000D03*
D16*
X22750000Y-8750000D03*
X22750000Y-8250000D03*
X22750000Y-7750000D03*
X22750000Y-7250000D03*
X22750000Y-6750000D03*
X22750000Y-6250000D03*
X22750000Y-5750000D03*
X22750000Y-5250000D03*
D17*
X21750000Y-4250000D03*
X21250000Y-4250000D03*
X20750000Y-4250000D03*
X20250000Y-4250000D03*
X19750000Y-4250000D03*
X19250000Y-4250000D03*
X18750000Y-4250000D03*
X18250000Y-4250000D03*
D18*
X19000000Y-6000000D03*
X19000000Y-7000000D03*
X19000000Y-8000000D03*
X20000000Y-6000000D03*
X20000000Y-7000000D03*
D19*
X20000000Y-7000000D03*
D18*
X20000000Y-8000000D03*
X21000000Y-6000000D03*
X21000000Y-7000000D03*
X21000000Y-8000000D03*
%TD*%
D11*
%TO.C,C6*%
X17200000Y-16000000D03*
X18800000Y-16000000D03*
%TD*%
D15*
%TO.C,U7*%
X61300000Y-15095000D03*
X61300000Y-16365000D03*
X61300000Y-17635000D03*
X61300000Y-18905000D03*
X66700000Y-18905000D03*
X66700000Y-17635000D03*
X66700000Y-16365000D03*
X66700000Y-15095000D03*
%TD*%
%TO.C,U3*%
X3300000Y-1095000D03*
X3300000Y-2365000D03*
X3300000Y-3635000D03*
X3300000Y-4905000D03*
X8700000Y-4905000D03*
X8700000Y-3635000D03*
X8700000Y-2365000D03*
X8700000Y-1095000D03*
%TD*%
D11*
%TO.C,C15*%
X51200000Y-16000000D03*
X52800000Y-16000000D03*
%TD*%
D10*
%TO.C,C28*%
X64000000Y-7000000D03*
X66000000Y-7000000D03*
%TD*%
D11*
%TO.C,R12*%
X31200000Y-19000000D03*
X32800000Y-19000000D03*
%TD*%
%TO.C,C11*%
X37200000Y-20500000D03*
X38800000Y-20500000D03*
%TD*%
D12*
%TO.C,D5*%
X75900000Y-4000000D03*
X78100000Y-4000000D03*
%TD*%
D11*
%TO.C,R14*%
X51200000Y-19000000D03*
X52800000Y-19000000D03*
%TD*%
%TO.C,C22*%
X14200000Y-6000000D03*
X15800000Y-6000000D03*
%TD*%
%TO.C,R9*%
X13200000Y-14500000D03*
X14800000Y-14500000D03*
%TD*%
D12*
%TO.C,D1*%
X5900000Y-13000000D03*
X8100000Y-13000000D03*
%TD*%
D14*
%TO.C,C2*%
X33000000Y-13000000D03*
X33000000Y-11000000D03*
%TD*%
D11*
%TO.C,R8*%
X57200000Y-19000000D03*
X58800000Y-19000000D03*
%TD*%
%TO.C,R15*%
X71200000Y-14500000D03*
X72800000Y-14500000D03*
%TD*%
%TO.C,C9*%
X1200000Y-20500000D03*
X2800000Y-20500000D03*
%TD*%
%TO.C,C32*%
X41200000Y-2000000D03*
X42800000Y-2000000D03*
%TD*%
D12*
%TO.C,D4*%
X65900000Y-13000000D03*
X68100000Y-13000000D03*
%TD*%
D11*
%TO.C,C16*%
X71200000Y-16000000D03*
X72800000Y-16000000D03*
%TD*%
%TO.C,C7*%
X37200000Y-16000000D03*
X38800000Y-16000000D03*
%TD*%
D15*
%TO.C,U6*%
X41300000Y-15095000D03*
X41300000Y-16365000D03*
X41300000Y-17635000D03*
X41300000Y-18905000D03*
X46700000Y-18905000D03*
X46700000Y-17635000D03*
X46700000Y-16365000D03*
X46700000Y-15095000D03*
%TD*%
D20*
%TO.C,J6*%
X65000000Y-2000000D03*
X67000000Y-2000000D03*
X69000000Y-2000000D03*
X71000000Y-2000000D03*
X73000000Y-2000000D03*
X75000000Y-2000000D03*
%TD*%
D10*
%TO.C,C30*%
X11000000Y-2000000D03*
X13000000Y-2000000D03*
%TD*%
D11*
%TO.C,R4*%
X17200000Y-19000000D03*
X18800000Y-19000000D03*
%TD*%
%TO.C,C17*%
X13200000Y-20500000D03*
X14800000Y-20500000D03*
%TD*%
%TO.C,R10*%
X13200000Y-19000000D03*
X14800000Y-19000000D03*
%TD*%
D16*
%TO.C,U2*%
X57250000Y-5250000D03*
X57250000Y-5750000D03*
X57250000Y-6250000D03*
X57250000Y-6750000D03*
X57250000Y-7250000D03*
X57250000Y-7750000D03*
X57250000Y-8250000D03*
X57250000Y-8750000D03*
D17*
X58250000Y-9750000D03*
X58750000Y-9750000D03*
X59250000Y-9750000D03*
X59750000Y-9750000D03*
X60250000Y-9750000D03*
X60750000Y-9750000D03*
X61250000Y-9750000D03*
X61750000Y-9750000D03*
D16*
X62750000Y-8750000D03*
X62750000Y-8250000D03*
X62750000Y-7750000D03*
X62750000Y-7250000D03*
X62750000Y-6750000D03*
X62750000Y-6250000D03*
X62750000Y-5750000D03*
X62750000Y-5250000D03*
D17*
X61750000Y-4250000D03*
X61250000Y-4250000D03*
X60750000Y-4250000D03*
X60250000Y-4250000D03*
X59750000Y-4250000D03*
X59250000Y-4250000D03*
X58750000Y-4250000D03*
X58250000Y-4250000D03*
D18*
X59000000Y-6000000D03*
X59000000Y-7000000D03*
X59000000Y-8000000D03*
X60000000Y-6000000D03*
X60000000Y-7000000D03*
D19*
X60000000Y-7000000D03*
D18*
X60000000Y-8000000D03*
X61000000Y-6000000D03*
X61000000Y-7000000D03*
X61000000Y-8000000D03*
%TD*%
D11*
%TO.C,C12*%
X57200000Y-20500000D03*
X58800000Y-20500000D03*
%TD*%
%TO.C,R16*%
X71200000Y-19000000D03*
X72800000Y-19000000D03*
%TD*%
%TO.C,C10*%
X17200000Y-20500000D03*
X18800000Y-20500000D03*
%TD*%
%TO.C,R5*%
X37200000Y-14500000D03*
X38800000Y-14500000D03*
%TD*%
D10*
%TO.C,C25*%
X15000000Y-10000000D03*
X17000000Y-10000000D03*
%TD*%
D11*
%TO.C,C24*%
X54200000Y-6000000D03*
X55800000Y-6000000D03*
%TD*%
%TO.C,C19*%
X51200000Y-20500000D03*
X52800000Y-20500000D03*
%TD*%
D13*
%TO.C,J2*%
X37620000Y-28570000D03*
X30000000Y-22220000D03*
%TD*%
D11*
%TO.C,C5*%
X1200000Y-16000000D03*
X2800000Y-16000000D03*
%TD*%
D12*
%TO.C,D2*%
X25900000Y-13000000D03*
X28100000Y-13000000D03*
%TD*%
D11*
%TO.C,C21*%
X24200000Y-9000000D03*
X25800000Y-9000000D03*
%TD*%
D21*
%TO.C,J5*%
X22500000Y-2000000D03*
X23500000Y-2000000D03*
X24500000Y-2000000D03*
X25500000Y-2000000D03*
X26500000Y-2000000D03*
X27500000Y-2000000D03*
X28500000Y-2000000D03*
X29500000Y-2000000D03*
X30500000Y-2000000D03*
X31500000Y-2000000D03*
X32500000Y-2000000D03*
X33500000Y-2000000D03*
X34500000Y-2000000D03*
X35500000Y-2000000D03*
X36500000Y-2000000D03*
X37500000Y-2000000D03*
D22*
X21000000Y-2000000D03*
X39000000Y-2000000D03*
%TD*%
D11*
%TO.C,R2*%
X1200000Y-19000000D03*
X2800000Y-19000000D03*
%TD*%
%TO.C,C14*%
X31200000Y-16000000D03*
X32800000Y-16000000D03*
%TD*%
%TO.C,C8*%
X57200000Y-16000000D03*
X58800000Y-16000000D03*
%TD*%
%TO.C,R1*%
X1200000Y-14500000D03*
X2800000Y-14500000D03*
%TD*%
D13*
%TO.C,J3*%
X57620000Y-28570000D03*
X50000000Y-22220000D03*
%TD*%
D12*
%TO.C,D8*%
X75900000Y-10000000D03*
X78100000Y-10000000D03*
%TD*%
D14*
%TO.C,C4*%
X73000000Y-13000000D03*
X73000000Y-11000000D03*
%TD*%
D11*
%TO.C,R18*%
X55200000Y-4000000D03*
X56800000Y-4000000D03*
%TD*%
D14*
%TO.C,C3*%
X53000000Y-13000000D03*
X53000000Y-11000000D03*
%TD*%
D13*
%TO.C,J1*%
X17620000Y-28570000D03*
X10000000Y-22220000D03*
%TD*%
D11*
%TO.C,R6*%
X37200000Y-19000000D03*
X38800000Y-19000000D03*
%TD*%
%TO.C,C29*%
X1200000Y-6500000D03*
X2800000Y-6500000D03*
%TD*%
%TO.C,C23*%
X64200000Y-9000000D03*
X65800000Y-9000000D03*
%TD*%
D15*
%TO.C,U4*%
X5300000Y-15095000D03*
X5300000Y-16365000D03*
X5300000Y-17635000D03*
X5300000Y-18905000D03*
X10700000Y-18905000D03*
X10700000Y-17635000D03*
X10700000Y-16365000D03*
X10700000Y-15095000D03*
%TD*%
D11*
%TO.C,R11*%
X31200000Y-14500000D03*
X32800000Y-14500000D03*
%TD*%
%TO.C,R17*%
X15200000Y-4000000D03*
X16800000Y-4000000D03*
%TD*%
%TO.C,R13*%
X51200000Y-14500000D03*
X52800000Y-14500000D03*
%TD*%
%TO.C,C20*%
X71200000Y-20500000D03*
X72800000Y-20500000D03*
%TD*%
D12*
%TO.C,D6*%
X75900000Y-6000000D03*
X78100000Y-6000000D03*
%TD*%
D11*
%TO.C,R3*%
X17200000Y-14500000D03*
X18800000Y-14500000D03*
%TD*%
M02*
