%TF.GenerationSoftware,KiCad,Pcbnew,9.0.7*%
%TF.CreationDate,2026-03-02T12:53:16+09:00*%
%TF.ProjectId,mixtee-input-mother,6d697874-6565-42d6-996e-7075742d6d6f,rev?*%
%TF.SameCoordinates,Original*%
%TF.FileFunction,Copper,L3,Inr*%
%TF.FilePolarity,Positive*%
%FSLAX46Y46*%
G04 Gerber Fmt 4.6, Leading zero omitted, Abs format (unit mm)*
G04 Created by KiCad (PCBNEW 9.0.7) date 2026-03-02 12:53:16*
%MOMM*%
%LPD*%
G01*
G04 APERTURE LIST*
%TA.AperFunction,ComponentPad*%
%ADD10C,2.400000*%
%TD*%
%TA.AperFunction,ComponentPad*%
%ADD11C,0.600000*%
%TD*%
%TA.AperFunction,ComponentPad*%
%ADD12C,1.750000*%
%TD*%
%TA.AperFunction,ViaPad*%
%ADD13C,0.600000*%
%TD*%
%TA.AperFunction,Conductor*%
%ADD14C,0.200000*%
%TD*%
G04 APERTURE END LIST*
D10*
%TO.N,GND*%
%TO.C,J4*%
X77620000Y-28570000D03*
%TO.N,JACK_4*%
X70000000Y-22220000D03*
%TD*%
D11*
%TO.N,GND*%
%TO.C,U1*%
X19000000Y-6000000D03*
X19000000Y-7000000D03*
X19000000Y-8000000D03*
X20000000Y-6000000D03*
X20000000Y-7000000D03*
X20000000Y-8000000D03*
X21000000Y-6000000D03*
X21000000Y-7000000D03*
X21000000Y-8000000D03*
%TD*%
D12*
%TO.N,DAIN_R1*%
%TO.C,J6*%
X65000000Y-2000000D03*
%TO.N,DAIN_R2*%
X67000000Y-2000000D03*
%TO.N,DAIN_R3*%
X69000000Y-2000000D03*
%TO.N,DAIN_R4*%
X71000000Y-2000000D03*
%TO.N,5V_A*%
X73000000Y-2000000D03*
%TO.N,GND*%
X75000000Y-2000000D03*
%TD*%
D11*
%TO.N,GND*%
%TO.C,U2*%
X59000000Y-6000000D03*
X59000000Y-7000000D03*
X59000000Y-8000000D03*
X60000000Y-6000000D03*
X60000000Y-7000000D03*
X60000000Y-8000000D03*
X61000000Y-6000000D03*
X61000000Y-7000000D03*
X61000000Y-8000000D03*
%TD*%
D10*
%TO.N,GND*%
%TO.C,J2*%
X37620000Y-28570000D03*
%TO.N,JACK_2*%
X30000000Y-22220000D03*
%TD*%
%TO.N,GND*%
%TO.C,J3*%
X57620000Y-28570000D03*
%TO.N,JACK_3*%
X50000000Y-22220000D03*
%TD*%
%TO.N,GND*%
%TO.C,J1*%
X17620000Y-28570000D03*
%TO.N,JACK_1*%
X10000000Y-22220000D03*
%TD*%
D13*
%TO.N,GND*%
X39900200Y-15302900D03*
X67086700Y-8792600D03*
X59861500Y-3323900D03*
X18103100Y-1865700D03*
X40197300Y-1889400D03*
X28120000Y-7082500D03*
X22802400Y-717600D03*
X34397900Y-15692200D03*
X19900200Y-15302900D03*
X75645200Y-15692200D03*
X67229700Y-6947300D03*
X56950400Y-11167700D03*
X4826800Y-3568500D03*
X13841300Y-872300D03*
X40019600Y-18986700D03*
X4558900Y-7069000D03*
X60041000Y-18377700D03*
X43853500Y-2201000D03*
X16155700Y-8741400D03*
X14996800Y-5071400D03*
X16000000Y-15692200D03*
X60011100Y-15246000D03*
X26663400Y-10464600D03*
X3900200Y-15160400D03*
X54489100Y-7514300D03*
X54232100Y-15124600D03*
X4019600Y-18986700D03*
X19900200Y-19479000D03*
%TO.N,5V_A*%
X28581800Y-681400D03*
X26849100Y-14039400D03*
X45202700Y-14924300D03*
%TO.N,V33_A*%
X957800Y-1227700D03*
X19887600Y-3310100D03*
X61220000Y-3109300D03*
X55799500Y-7355700D03*
X9974800Y-2083000D03*
X54058200Y-3933800D03*
X4945700Y-1037200D03*
X12765400Y-6005200D03*
X64056200Y-10442900D03*
X15841300Y-872300D03*
X22769200Y-9586000D03*
X16018100Y-3047100D03*
X51882000Y-6896000D03*
%TO.N,MCLK*%
X54843500Y-11865100D03*
X16412900Y-12073900D03*
X25417600Y-4042500D03*
%TO.N,BCLK*%
X19016900Y-1338700D03*
X24102300Y-625400D03*
X27006900Y-7806700D03*
%TO.N,LRCLK*%
X15499500Y-12127400D03*
X24535500Y-3423600D03*
X55603900Y-8872900D03*
%TO.N,SDIN1*%
X16005900Y-4961000D03*
X22637600Y-3949200D03*
%TO.N,SDOUT1*%
X18436200Y-3308500D03*
X25613500Y-625400D03*
%TO.N,SDA*%
X57840100Y-1352000D03*
X27481700Y-659600D03*
X19882500Y-1339300D03*
%TO.N,AIN_3_AC*%
X28197300Y-12042200D03*
X16000000Y-14824300D03*
%TO.N,AIN_7_AC*%
X60479000Y-12820700D03*
X71769300Y-10841100D03*
%TO.N,JACK_1*%
X8205300Y-12169200D03*
%TO.N,JACK_2*%
X29102300Y-13000000D03*
%TO.N,JACK_3*%
X49653000Y-12999400D03*
%TO.N,JACK_4*%
X71519800Y-12999500D03*
%TO.N,FOUT_1*%
X19357900Y-12862900D03*
X6884800Y-15809600D03*
%TO.N,FOUT_3*%
X23990900Y-11190700D03*
X22856900Y-15204500D03*
%TO.N,FOUT_5*%
X43253300Y-15692200D03*
X59660400Y-10767600D03*
%TO.N,DAIN_R1*%
X14274200Y-12442000D03*
X78595900Y-4905600D03*
%TO.N,DAIN_R2*%
X31330500Y-6836500D03*
X65844200Y-5045000D03*
X30176600Y-14944000D03*
X76502100Y-4971300D03*
%TO.N,DAIN_R3*%
X50074900Y-16460100D03*
X69059600Y-15864000D03*
%TO.N,DAIN_R4*%
X69761600Y-13544700D03*
X71000000Y-8306700D03*
%TO.N,FN1_R2*%
X31525500Y-17331500D03*
X30227500Y-18816100D03*
%TO.N,FOUT_R1*%
X18498900Y-11054900D03*
X16200000Y-16560100D03*
%TD*%
D14*
%TO.N,5V_A*%
X44317800Y-14039400D02*
X45202700Y-14924300D01*
X71681400Y-681400D02*
X28581800Y-681400D01*
X73000000Y-2000000D02*
X71681400Y-681400D01*
X26849100Y-14039400D02*
X44317800Y-14039400D01*
%TO.N,MCLK*%
X25156400Y-11390500D02*
X24326100Y-10560200D01*
X18666500Y-12073900D02*
X16412900Y-12073900D01*
X54368900Y-11390500D02*
X25156400Y-11390500D01*
X20180200Y-10560200D02*
X18666500Y-12073900D01*
X24326100Y-10560200D02*
X20180200Y-10560200D01*
X54843500Y-11865100D02*
X54368900Y-11390500D01*
%TO.N,BCLK*%
X22786600Y-1941100D02*
X19619300Y-1941100D01*
X24102300Y-625400D02*
X22786600Y-1941100D01*
X19619300Y-1941100D02*
X19016900Y-1338700D01*
%TO.N,LRCLK*%
X55603900Y-8872900D02*
X31752100Y-8872900D01*
X31752100Y-8872900D02*
X26302800Y-3423600D01*
X26302800Y-3423600D02*
X24535500Y-3423600D01*
%TO.N,SDIN1*%
X22637600Y-3949200D02*
X21625800Y-4961000D01*
X21625800Y-4961000D02*
X16005900Y-4961000D01*
%TO.N,SDOUT1*%
X23773000Y-2465900D02*
X19278800Y-2465900D01*
X25613500Y-625400D02*
X23773000Y-2465900D01*
X19278800Y-2465900D02*
X18436200Y-3308500D01*
%TO.N,SDA*%
X29626100Y-2804000D02*
X27481700Y-659600D01*
X56388100Y-2804000D02*
X29626100Y-2804000D01*
X57840100Y-1352000D02*
X56388100Y-2804000D01*
%TO.N,AIN_3_AC*%
X21229000Y-12042200D02*
X18446900Y-14824300D01*
X28197300Y-12042200D02*
X21229000Y-12042200D01*
X18446900Y-14824300D02*
X16000000Y-14824300D01*
%TO.N,AIN_7_AC*%
X69789700Y-12820700D02*
X71769300Y-10841100D01*
X60479000Y-12820700D02*
X69789700Y-12820700D01*
%TO.N,FOUT_1*%
X19177100Y-13043700D02*
X19357900Y-12862900D01*
X6884800Y-15809600D02*
X9650700Y-13043700D01*
X9650700Y-13043700D02*
X19177100Y-13043700D01*
%TO.N,FOUT_5*%
X59660400Y-10767600D02*
X59458800Y-10566000D01*
X56348700Y-10918600D02*
X56348700Y-11256600D01*
X51913100Y-15692200D02*
X43253300Y-15692200D01*
X59458800Y-10566000D02*
X56701300Y-10566000D01*
X56701300Y-10566000D02*
X56348700Y-10918600D01*
X56348700Y-11256600D02*
X51913100Y-15692200D01*
%TO.N,DAIN_R1*%
X78595900Y-4905600D02*
X77854700Y-5646800D01*
X17759300Y-8956900D02*
X14274200Y-12442000D01*
X66907900Y-3907900D02*
X66907900Y-5646800D01*
X77854700Y-5646800D02*
X66907900Y-5646800D01*
X66907900Y-5646800D02*
X63065300Y-9489400D01*
X24606000Y-9489400D02*
X24073500Y-8956900D01*
X63065300Y-9489400D02*
X24606000Y-9489400D01*
X24073500Y-8956900D02*
X17759300Y-8956900D01*
X65000000Y-2000000D02*
X66907900Y-3907900D01*
%TO.N,DAIN_R2*%
X67000000Y-2000000D02*
X69971300Y-4971300D01*
X33122000Y-5045000D02*
X31330500Y-6836500D01*
X65844200Y-5045000D02*
X33122000Y-5045000D01*
X69971300Y-4971300D02*
X76502100Y-4971300D01*
%TO.N,DAIN_R3*%
X68463500Y-16460100D02*
X69059600Y-15864000D01*
X50074900Y-16460100D02*
X68463500Y-16460100D01*
%TD*%
%TA.AperFunction,Conductor*%
%TO.N,V33_A*%
G36*
X13330352Y-520185D02*
G01*
X13376107Y-572989D01*
X13386051Y-642147D01*
X13377875Y-671949D01*
X13374910Y-679107D01*
X13374908Y-679113D01*
X13374908Y-679114D01*
X13340800Y-806408D01*
X13340800Y-938192D01*
X13351012Y-976305D01*
X13374908Y-1065487D01*
X13385528Y-1083881D01*
X13440800Y-1179614D01*
X13533986Y-1272800D01*
X13648114Y-1338692D01*
X13775408Y-1372800D01*
X13775410Y-1372800D01*
X13907190Y-1372800D01*
X13907192Y-1372800D01*
X14034486Y-1338692D01*
X14148614Y-1272800D01*
X14241800Y-1179614D01*
X14307692Y-1065486D01*
X14341800Y-938192D01*
X14341800Y-806408D01*
X14307692Y-679114D01*
X14307689Y-679110D01*
X14307689Y-679107D01*
X14304725Y-671949D01*
X14297258Y-602480D01*
X14328535Y-540001D01*
X14388625Y-504351D01*
X14419287Y-500500D01*
X22180816Y-500500D01*
X22247855Y-520185D01*
X22293610Y-572989D01*
X22303554Y-642147D01*
X22302450Y-647531D01*
X22301900Y-651710D01*
X22301900Y-783491D01*
X22336008Y-910787D01*
X22359215Y-950982D01*
X22401900Y-1024914D01*
X22495086Y-1118100D01*
X22593921Y-1175163D01*
X22605590Y-1181900D01*
X22609214Y-1183992D01*
X22736508Y-1218100D01*
X22736510Y-1218100D01*
X22785267Y-1218100D01*
X22806512Y-1224338D01*
X22828601Y-1225918D01*
X22839384Y-1233990D01*
X22852306Y-1237785D01*
X22866805Y-1254518D01*
X22884534Y-1267790D01*
X22889241Y-1280410D01*
X22898061Y-1290589D01*
X22901212Y-1312506D01*
X22908951Y-1333254D01*
X22906088Y-1346414D01*
X22908005Y-1359747D01*
X22898805Y-1379890D01*
X22894099Y-1401527D01*
X22880830Y-1419252D01*
X22878980Y-1423303D01*
X22872948Y-1429781D01*
X22698448Y-1604281D01*
X22637125Y-1637766D01*
X22610767Y-1640600D01*
X20481522Y-1640600D01*
X20414483Y-1620915D01*
X20368728Y-1568111D01*
X20358784Y-1498953D01*
X20361743Y-1484523D01*
X20383000Y-1405192D01*
X20383000Y-1273408D01*
X20348892Y-1146114D01*
X20348544Y-1145512D01*
X20338858Y-1128734D01*
X20283000Y-1031986D01*
X20189814Y-938800D01*
X20127348Y-902735D01*
X20075687Y-872908D01*
X20000589Y-852786D01*
X19948392Y-838800D01*
X19816608Y-838800D01*
X19689312Y-872908D01*
X19575186Y-938800D01*
X19575183Y-938802D01*
X19537681Y-976305D01*
X19476358Y-1009790D01*
X19406666Y-1004806D01*
X19362319Y-976305D01*
X19324216Y-938202D01*
X19324214Y-938200D01*
X19245375Y-892682D01*
X19210087Y-872308D01*
X19137228Y-852786D01*
X19082792Y-838200D01*
X18951008Y-838200D01*
X18823712Y-872308D01*
X18709586Y-938200D01*
X18709583Y-938202D01*
X18616402Y-1031383D01*
X18616400Y-1031386D01*
X18550508Y-1145512D01*
X18516400Y-1272808D01*
X18516400Y-1311616D01*
X18496715Y-1378655D01*
X18443911Y-1424410D01*
X18374753Y-1434354D01*
X18330400Y-1419003D01*
X18296289Y-1399309D01*
X18296286Y-1399308D01*
X18168992Y-1365200D01*
X18037208Y-1365200D01*
X17909912Y-1399308D01*
X17795786Y-1465200D01*
X17795783Y-1465202D01*
X17702602Y-1558383D01*
X17702600Y-1558386D01*
X17636708Y-1672512D01*
X17616441Y-1748152D01*
X17602600Y-1799808D01*
X17602600Y-1931592D01*
X17610265Y-1960197D01*
X17636708Y-2058887D01*
X17651579Y-2084644D01*
X17702600Y-2173014D01*
X17795786Y-2266200D01*
X17909914Y-2332092D01*
X18037208Y-2366200D01*
X18037210Y-2366200D01*
X18168990Y-2366200D01*
X18168992Y-2366200D01*
X18296286Y-2332092D01*
X18410414Y-2266200D01*
X18503600Y-2173014D01*
X18569492Y-2058886D01*
X18603600Y-1931592D01*
X18603600Y-1892783D01*
X18623285Y-1825744D01*
X18676089Y-1779989D01*
X18745247Y-1770045D01*
X18789600Y-1785396D01*
X18801201Y-1792094D01*
X18823711Y-1805091D01*
X18823713Y-1805091D01*
X18823714Y-1805092D01*
X18951008Y-1839200D01*
X18951010Y-1839200D01*
X19041067Y-1839200D01*
X19041876Y-1839437D01*
X19042687Y-1839211D01*
X19075353Y-1849267D01*
X19108106Y-1858885D01*
X19108656Y-1859520D01*
X19109464Y-1859769D01*
X19128748Y-1875519D01*
X19228851Y-1975622D01*
X19262336Y-2036945D01*
X19257352Y-2106637D01*
X19215480Y-2162570D01*
X19173268Y-2183077D01*
X19162810Y-2185879D01*
X19144046Y-2196713D01*
X19121240Y-2209880D01*
X19113232Y-2214503D01*
X19094289Y-2225439D01*
X18548047Y-2771681D01*
X18486724Y-2805166D01*
X18460366Y-2808000D01*
X18370308Y-2808000D01*
X18243012Y-2842108D01*
X18128886Y-2908000D01*
X18128883Y-2908002D01*
X18035702Y-3001183D01*
X18035700Y-3001186D01*
X17969808Y-3115312D01*
X17953095Y-3177687D01*
X17935700Y-3242608D01*
X17935700Y-3374392D01*
X17952754Y-3438039D01*
X17969808Y-3501687D01*
X17996952Y-3548700D01*
X18035700Y-3615814D01*
X18128886Y-3709000D01*
X18243014Y-3774892D01*
X18370308Y-3809000D01*
X18370310Y-3809000D01*
X18502090Y-3809000D01*
X18502092Y-3809000D01*
X18629386Y-3774892D01*
X18743514Y-3709000D01*
X18836700Y-3615814D01*
X18902592Y-3501686D01*
X18936700Y-3374392D01*
X18936700Y-3284332D01*
X18956385Y-3217293D01*
X18973019Y-3196651D01*
X19366952Y-2802719D01*
X19428275Y-2769234D01*
X19454633Y-2766400D01*
X23812560Y-2766400D01*
X23812562Y-2766400D01*
X23888989Y-2745921D01*
X23957511Y-2706360D01*
X24013460Y-2650411D01*
X25501651Y-1162218D01*
X25562974Y-1128734D01*
X25589332Y-1125900D01*
X25679390Y-1125900D01*
X25679392Y-1125900D01*
X25806686Y-1091792D01*
X25920814Y-1025900D01*
X26014000Y-932714D01*
X26079892Y-818586D01*
X26114000Y-691292D01*
X26114000Y-624500D01*
X26133685Y-557461D01*
X26186489Y-511706D01*
X26238000Y-500500D01*
X26857200Y-500500D01*
X26924239Y-520185D01*
X26969994Y-572989D01*
X26981200Y-624500D01*
X26981200Y-725492D01*
X26984350Y-737247D01*
X27015308Y-852787D01*
X27028522Y-875674D01*
X27081200Y-966914D01*
X27174386Y-1060100D01*
X27273221Y-1117163D01*
X27288354Y-1125900D01*
X27288514Y-1125992D01*
X27415808Y-1160100D01*
X27415810Y-1160100D01*
X27505867Y-1160100D01*
X27572906Y-1179785D01*
X27593548Y-1196419D01*
X29441589Y-3044460D01*
X29495352Y-3075500D01*
X29510108Y-3084020D01*
X29510112Y-3084022D01*
X29586538Y-3104500D01*
X29586540Y-3104500D01*
X56427660Y-3104500D01*
X56427662Y-3104500D01*
X56504089Y-3084021D01*
X56572611Y-3044460D01*
X56628560Y-2988511D01*
X57728251Y-1888818D01*
X57789574Y-1855334D01*
X57815932Y-1852500D01*
X57905990Y-1852500D01*
X57905992Y-1852500D01*
X58033286Y-1818392D01*
X58147414Y-1752500D01*
X58240600Y-1659314D01*
X58306492Y-1545186D01*
X58340600Y-1417892D01*
X58340600Y-1286108D01*
X58306492Y-1158814D01*
X58306490Y-1158810D01*
X58304229Y-1153350D01*
X58296762Y-1083881D01*
X58328038Y-1021402D01*
X58388128Y-985751D01*
X58418791Y-981900D01*
X64197751Y-981900D01*
X64264790Y-1001585D01*
X64310545Y-1054389D01*
X64320489Y-1123547D01*
X64291464Y-1187103D01*
X64285432Y-1193581D01*
X64179652Y-1299360D01*
X64179648Y-1299365D01*
X64080152Y-1436311D01*
X64003296Y-1587146D01*
X63950981Y-1748152D01*
X63924500Y-1915350D01*
X63924500Y-2084649D01*
X63950981Y-2251847D01*
X64003296Y-2412853D01*
X64080152Y-2563688D01*
X64179648Y-2700634D01*
X64179652Y-2700639D01*
X64299360Y-2820347D01*
X64299365Y-2820351D01*
X64350508Y-2857508D01*
X64436315Y-2919850D01*
X64509634Y-2957208D01*
X64587146Y-2996703D01*
X64587148Y-2996703D01*
X64587151Y-2996705D01*
X64648329Y-3016583D01*
X64748152Y-3049018D01*
X64915351Y-3075500D01*
X64915356Y-3075500D01*
X65084649Y-3075500D01*
X65251847Y-3049018D01*
X65412849Y-2996705D01*
X65437829Y-2983976D01*
X65506495Y-2971077D01*
X65571236Y-2997351D01*
X65581807Y-3006778D01*
X66571081Y-3996052D01*
X66604566Y-4057375D01*
X66607400Y-4083733D01*
X66607400Y-5470967D01*
X66587715Y-5538006D01*
X66571081Y-5558648D01*
X62977148Y-9152581D01*
X62915825Y-9186066D01*
X62889467Y-9188900D01*
X56198984Y-9188900D01*
X56131945Y-9169215D01*
X56086190Y-9116411D01*
X56076246Y-9047253D01*
X56079209Y-9032807D01*
X56079281Y-9032536D01*
X56104400Y-8938792D01*
X56104400Y-8807008D01*
X56070292Y-8679714D01*
X56004400Y-8565586D01*
X55911214Y-8472400D01*
X55853301Y-8438964D01*
X55797087Y-8406508D01*
X55733439Y-8389454D01*
X55669792Y-8372400D01*
X55538008Y-8372400D01*
X55410712Y-8406508D01*
X55296586Y-8472400D01*
X55296583Y-8472402D01*
X55232905Y-8536081D01*
X55171582Y-8569566D01*
X55145224Y-8572400D01*
X31927933Y-8572400D01*
X31860894Y-8552715D01*
X31840252Y-8536081D01*
X30752579Y-7448408D01*
X53988600Y-7448408D01*
X53988600Y-7580192D01*
X53993471Y-7598370D01*
X54022708Y-7707487D01*
X54055654Y-7764550D01*
X54088600Y-7821614D01*
X54181786Y-7914800D01*
X54295914Y-7980692D01*
X54423208Y-8014800D01*
X54423210Y-8014800D01*
X54554990Y-8014800D01*
X54554992Y-8014800D01*
X54682286Y-7980692D01*
X54796414Y-7914800D01*
X54889600Y-7821614D01*
X54955492Y-7707486D01*
X54989600Y-7580192D01*
X54989600Y-7448408D01*
X54955492Y-7321114D01*
X54889600Y-7206986D01*
X54796414Y-7113800D01*
X54739350Y-7080854D01*
X54682287Y-7047908D01*
X54614280Y-7029686D01*
X54554992Y-7013800D01*
X54423208Y-7013800D01*
X54295912Y-7047908D01*
X54181786Y-7113800D01*
X54181783Y-7113802D01*
X54088602Y-7206983D01*
X54088600Y-7206986D01*
X54022708Y-7321112D01*
X53999909Y-7406200D01*
X53988600Y-7448408D01*
X30752579Y-7448408D01*
X30074779Y-6770608D01*
X30830000Y-6770608D01*
X30830000Y-6902391D01*
X30864108Y-7029687D01*
X30886089Y-7067758D01*
X30930000Y-7143814D01*
X31023186Y-7237000D01*
X31137314Y-7302892D01*
X31264608Y-7337000D01*
X31264610Y-7337000D01*
X31396390Y-7337000D01*
X31396392Y-7337000D01*
X31523686Y-7302892D01*
X31637814Y-7237000D01*
X31731000Y-7143814D01*
X31796892Y-7029686D01*
X31831000Y-6902392D01*
X31831000Y-6812332D01*
X31850685Y-6745293D01*
X31867319Y-6724651D01*
X33210152Y-5381819D01*
X33271475Y-5348334D01*
X33297833Y-5345500D01*
X58669852Y-5345500D01*
X58736891Y-5365185D01*
X58782646Y-5417989D01*
X58792590Y-5487147D01*
X58763565Y-5550703D01*
X58731853Y-5576887D01*
X58692686Y-5599500D01*
X58692683Y-5599502D01*
X58599502Y-5692683D01*
X58599500Y-5692686D01*
X58533608Y-5806812D01*
X58499500Y-5934108D01*
X58499500Y-6065891D01*
X58533608Y-6193187D01*
X58566554Y-6250250D01*
X58599500Y-6307314D01*
X58599502Y-6307316D01*
X58692687Y-6400501D01*
X58694158Y-6401630D01*
X58695083Y-6402897D01*
X58698433Y-6406247D01*
X58697910Y-6406769D01*
X58735356Y-6458060D01*
X58739506Y-6527807D01*
X58705289Y-6588725D01*
X58694158Y-6598370D01*
X58692687Y-6599498D01*
X58599502Y-6692683D01*
X58599500Y-6692686D01*
X58533608Y-6806812D01*
X58499500Y-6934108D01*
X58499500Y-7065891D01*
X58533608Y-7193187D01*
X58558904Y-7237000D01*
X58599500Y-7307314D01*
X58599502Y-7307316D01*
X58692687Y-7400501D01*
X58694158Y-7401630D01*
X58695083Y-7402897D01*
X58698433Y-7406247D01*
X58697910Y-7406769D01*
X58735356Y-7458060D01*
X58739506Y-7527807D01*
X58705289Y-7588725D01*
X58694158Y-7598370D01*
X58692687Y-7599498D01*
X58599502Y-7692683D01*
X58599500Y-7692686D01*
X58533608Y-7806812D01*
X58499500Y-7934108D01*
X58499500Y-8065891D01*
X58533608Y-8193187D01*
X58541697Y-8207197D01*
X58599500Y-8307314D01*
X58692686Y-8400500D01*
X58806814Y-8466392D01*
X58934108Y-8500500D01*
X58934110Y-8500500D01*
X59065890Y-8500500D01*
X59065892Y-8500500D01*
X59193186Y-8466392D01*
X59307314Y-8400500D01*
X59400500Y-8307314D01*
X59400504Y-8307306D01*
X59401625Y-8305847D01*
X59402892Y-8304921D01*
X59406247Y-8301567D01*
X59406770Y-8302090D01*
X59458053Y-8264645D01*
X59527799Y-8260491D01*
X59588719Y-8294704D01*
X59598375Y-8305847D01*
X59599498Y-8307311D01*
X59599500Y-8307314D01*
X59692686Y-8400500D01*
X59806814Y-8466392D01*
X59934108Y-8500500D01*
X59934110Y-8500500D01*
X60065890Y-8500500D01*
X60065892Y-8500500D01*
X60193186Y-8466392D01*
X60307314Y-8400500D01*
X60400500Y-8307314D01*
X60400504Y-8307306D01*
X60401625Y-8305847D01*
X60402892Y-8304921D01*
X60406247Y-8301567D01*
X60406770Y-8302090D01*
X60458053Y-8264645D01*
X60527799Y-8260491D01*
X60588719Y-8294704D01*
X60598375Y-8305847D01*
X60599498Y-8307311D01*
X60599500Y-8307314D01*
X60692686Y-8400500D01*
X60806814Y-8466392D01*
X60934108Y-8500500D01*
X60934110Y-8500500D01*
X61065890Y-8500500D01*
X61065892Y-8500500D01*
X61193186Y-8466392D01*
X61307314Y-8400500D01*
X61400500Y-8307314D01*
X61466392Y-8193186D01*
X61500500Y-8065892D01*
X61500500Y-7934108D01*
X61466392Y-7806814D01*
X61400500Y-7692686D01*
X61307314Y-7599500D01*
X61307311Y-7599498D01*
X61305847Y-7598375D01*
X61304921Y-7597107D01*
X61301567Y-7593753D01*
X61302090Y-7593229D01*
X61264645Y-7541947D01*
X61260491Y-7472201D01*
X61294704Y-7411281D01*
X61305847Y-7401625D01*
X61307306Y-7400504D01*
X61307314Y-7400500D01*
X61400500Y-7307314D01*
X61466392Y-7193186D01*
X61500500Y-7065892D01*
X61500500Y-6934108D01*
X61466392Y-6806814D01*
X61400500Y-6692686D01*
X61307314Y-6599500D01*
X61307311Y-6599498D01*
X61305847Y-6598375D01*
X61304921Y-6597107D01*
X61301567Y-6593753D01*
X61302090Y-6593229D01*
X61264645Y-6541947D01*
X61260491Y-6472201D01*
X61294704Y-6411281D01*
X61305847Y-6401625D01*
X61307306Y-6400504D01*
X61307314Y-6400500D01*
X61400500Y-6307314D01*
X61466392Y-6193186D01*
X61500500Y-6065892D01*
X61500500Y-5934108D01*
X61466392Y-5806814D01*
X61400500Y-5692686D01*
X61307314Y-5599500D01*
X61268146Y-5576886D01*
X61219932Y-5526319D01*
X61206710Y-5457712D01*
X61232678Y-5392847D01*
X61289593Y-5352320D01*
X61330148Y-5345500D01*
X65385524Y-5345500D01*
X65452563Y-5365185D01*
X65473205Y-5381819D01*
X65536886Y-5445500D01*
X65651014Y-5511392D01*
X65778308Y-5545500D01*
X65778310Y-5545500D01*
X65910090Y-5545500D01*
X65910092Y-5545500D01*
X66037386Y-5511392D01*
X66151514Y-5445500D01*
X66244700Y-5352314D01*
X66310592Y-5238186D01*
X66344700Y-5110892D01*
X66344700Y-4979108D01*
X66310592Y-4851814D01*
X66244700Y-4737686D01*
X66151514Y-4644500D01*
X66083112Y-4605008D01*
X66037387Y-4578608D01*
X65969805Y-4560500D01*
X65910092Y-4544500D01*
X65778308Y-4544500D01*
X65651012Y-4578608D01*
X65536886Y-4644500D01*
X65536883Y-4644502D01*
X65473205Y-4708181D01*
X65411882Y-4741666D01*
X65385524Y-4744500D01*
X33082438Y-4744500D01*
X33006010Y-4764978D01*
X32937489Y-4804540D01*
X32937486Y-4804542D01*
X31442347Y-6299681D01*
X31381024Y-6333166D01*
X31354666Y-6336000D01*
X31264608Y-6336000D01*
X31137312Y-6370108D01*
X31023186Y-6436000D01*
X31023183Y-6436002D01*
X30930002Y-6529183D01*
X30930000Y-6529186D01*
X30864108Y-6643312D01*
X30830000Y-6770608D01*
X30074779Y-6770608D01*
X26562179Y-3258008D01*
X59361000Y-3258008D01*
X59361000Y-3389791D01*
X59395108Y-3517087D01*
X59428054Y-3574150D01*
X59461000Y-3631214D01*
X59554186Y-3724400D01*
X59668314Y-3790292D01*
X59795608Y-3824400D01*
X59795610Y-3824400D01*
X59927390Y-3824400D01*
X59927392Y-3824400D01*
X60054686Y-3790292D01*
X60168814Y-3724400D01*
X60262000Y-3631214D01*
X60327892Y-3517086D01*
X60362000Y-3389792D01*
X60362000Y-3258008D01*
X60327892Y-3130714D01*
X60262000Y-3016586D01*
X60168814Y-2923400D01*
X60111750Y-2890454D01*
X60054687Y-2857508D01*
X59991039Y-2840454D01*
X59927392Y-2823400D01*
X59795608Y-2823400D01*
X59668312Y-2857508D01*
X59554186Y-2923400D01*
X59554183Y-2923402D01*
X59461002Y-3016583D01*
X59461000Y-3016586D01*
X59395108Y-3130712D01*
X59361000Y-3258008D01*
X26562179Y-3258008D01*
X26487312Y-3183141D01*
X26487307Y-3183137D01*
X26477865Y-3177686D01*
X26477864Y-3177686D01*
X26461087Y-3168000D01*
X26418791Y-3143580D01*
X26418790Y-3143579D01*
X26391482Y-3136262D01*
X26342362Y-3123100D01*
X26342360Y-3123100D01*
X24994176Y-3123100D01*
X24927137Y-3103415D01*
X24906495Y-3086781D01*
X24842816Y-3023102D01*
X24842814Y-3023100D01*
X24752708Y-2971077D01*
X24728687Y-2957208D01*
X24665039Y-2940154D01*
X24601392Y-2923100D01*
X24469608Y-2923100D01*
X24342312Y-2957208D01*
X24228186Y-3023100D01*
X24228183Y-3023102D01*
X24135002Y-3116283D01*
X24135000Y-3116286D01*
X24069108Y-3230412D01*
X24054661Y-3284332D01*
X24035000Y-3357708D01*
X24035000Y-3489492D01*
X24038515Y-3502610D01*
X24069108Y-3616787D01*
X24098353Y-3667440D01*
X24135000Y-3730914D01*
X24228186Y-3824100D01*
X24304810Y-3868339D01*
X24338941Y-3888045D01*
X24342314Y-3889992D01*
X24469608Y-3924100D01*
X24469610Y-3924100D01*
X24601390Y-3924100D01*
X24601392Y-3924100D01*
X24728686Y-3889992D01*
X24731094Y-3888601D01*
X24733386Y-3888045D01*
X24736200Y-3886880D01*
X24736381Y-3887318D01*
X24798991Y-3872125D01*
X24865020Y-3894973D01*
X24908214Y-3949891D01*
X24917100Y-3995985D01*
X24917100Y-4108391D01*
X24951208Y-4235687D01*
X24963233Y-4256514D01*
X25017100Y-4349814D01*
X25110286Y-4443000D01*
X25209121Y-4500063D01*
X25217849Y-4505102D01*
X25224414Y-4508892D01*
X25351708Y-4543000D01*
X25351710Y-4543000D01*
X25483490Y-4543000D01*
X25483492Y-4543000D01*
X25610786Y-4508892D01*
X25724914Y-4443000D01*
X25818100Y-4349814D01*
X25883992Y-4235686D01*
X25918100Y-4108392D01*
X25918100Y-3976608D01*
X25892266Y-3880193D01*
X25892861Y-3855198D01*
X25889303Y-3830453D01*
X25893678Y-3820872D01*
X25893929Y-3810343D01*
X25907941Y-3789639D01*
X25918328Y-3766897D01*
X25927189Y-3761202D01*
X25933092Y-3752481D01*
X25956072Y-3742640D01*
X25977106Y-3729123D01*
X25992963Y-3726843D01*
X25997321Y-3724977D01*
X26012041Y-3724100D01*
X26126967Y-3724100D01*
X26194006Y-3743785D01*
X26214648Y-3760419D01*
X31431448Y-8977219D01*
X31464933Y-9038542D01*
X31459949Y-9108234D01*
X31418077Y-9164167D01*
X31352613Y-9188584D01*
X31343767Y-9188900D01*
X24781833Y-9188900D01*
X24714794Y-9169215D01*
X24694152Y-9152581D01*
X24258013Y-8716442D01*
X24258011Y-8716440D01*
X24242007Y-8707200D01*
X24242002Y-8707197D01*
X24189491Y-8676880D01*
X24189490Y-8676879D01*
X24164013Y-8670052D01*
X24113062Y-8656400D01*
X21326857Y-8656400D01*
X21259818Y-8636715D01*
X21214063Y-8583911D01*
X21204119Y-8514753D01*
X21233144Y-8451197D01*
X21264856Y-8425013D01*
X21307314Y-8400500D01*
X21400500Y-8307314D01*
X21466392Y-8193186D01*
X21500500Y-8065892D01*
X21500500Y-7934108D01*
X21466392Y-7806814D01*
X21428283Y-7740808D01*
X26506400Y-7740808D01*
X26506400Y-7872592D01*
X26522383Y-7932241D01*
X26540508Y-7999887D01*
X26573454Y-8056950D01*
X26606400Y-8114014D01*
X26699586Y-8207200D01*
X26813714Y-8273092D01*
X26941008Y-8307200D01*
X26941010Y-8307200D01*
X27072790Y-8307200D01*
X27072792Y-8307200D01*
X27200086Y-8273092D01*
X27314214Y-8207200D01*
X27407400Y-8114014D01*
X27473292Y-7999886D01*
X27507400Y-7872592D01*
X27507400Y-7740808D01*
X27473292Y-7613514D01*
X27407400Y-7499386D01*
X27314214Y-7406200D01*
X27257150Y-7373254D01*
X27200087Y-7340308D01*
X27126183Y-7320506D01*
X27072792Y-7306200D01*
X26941008Y-7306200D01*
X26813712Y-7340308D01*
X26699586Y-7406200D01*
X26699583Y-7406202D01*
X26606402Y-7499383D01*
X26606400Y-7499386D01*
X26540508Y-7613512D01*
X26515328Y-7707487D01*
X26506400Y-7740808D01*
X21428283Y-7740808D01*
X21400500Y-7692686D01*
X21307314Y-7599500D01*
X21307311Y-7599498D01*
X21305847Y-7598375D01*
X21304921Y-7597107D01*
X21301567Y-7593753D01*
X21302090Y-7593229D01*
X21264645Y-7541947D01*
X21260491Y-7472201D01*
X21294704Y-7411281D01*
X21305847Y-7401625D01*
X21307306Y-7400504D01*
X21307314Y-7400500D01*
X21400500Y-7307314D01*
X21466392Y-7193186D01*
X21500500Y-7065892D01*
X21500500Y-7016608D01*
X27619500Y-7016608D01*
X27619500Y-7148391D01*
X27653608Y-7275687D01*
X27679485Y-7320506D01*
X27719500Y-7389814D01*
X27812686Y-7483000D01*
X27926814Y-7548892D01*
X28054108Y-7583000D01*
X28054110Y-7583000D01*
X28185890Y-7583000D01*
X28185892Y-7583000D01*
X28313186Y-7548892D01*
X28427314Y-7483000D01*
X28520500Y-7389814D01*
X28586392Y-7275686D01*
X28620500Y-7148392D01*
X28620500Y-7016608D01*
X28586392Y-6889314D01*
X28581827Y-6881408D01*
X28538759Y-6806812D01*
X28520500Y-6775186D01*
X28427314Y-6682000D01*
X28354539Y-6639983D01*
X28313187Y-6616108D01*
X28229755Y-6593753D01*
X28185892Y-6582000D01*
X28054108Y-6582000D01*
X27926812Y-6616108D01*
X27812686Y-6682000D01*
X27812683Y-6682002D01*
X27719502Y-6775183D01*
X27719500Y-6775186D01*
X27653608Y-6889312D01*
X27619500Y-7016608D01*
X21500500Y-7016608D01*
X21500500Y-6934108D01*
X21466392Y-6806814D01*
X21400500Y-6692686D01*
X21307314Y-6599500D01*
X21307311Y-6599498D01*
X21305847Y-6598375D01*
X21304921Y-6597107D01*
X21301567Y-6593753D01*
X21302090Y-6593229D01*
X21264645Y-6541947D01*
X21260491Y-6472201D01*
X21294704Y-6411281D01*
X21305847Y-6401625D01*
X21307306Y-6400504D01*
X21307314Y-6400500D01*
X21400500Y-6307314D01*
X21466392Y-6193186D01*
X21500500Y-6065892D01*
X21500500Y-5934108D01*
X21466392Y-5806814D01*
X21400500Y-5692686D01*
X21307314Y-5599500D01*
X21243526Y-5562672D01*
X21193187Y-5533608D01*
X21161761Y-5525187D01*
X21065892Y-5499500D01*
X20934108Y-5499500D01*
X20853394Y-5521126D01*
X20806812Y-5533608D01*
X20692686Y-5599500D01*
X20692683Y-5599502D01*
X20599498Y-5692687D01*
X20598370Y-5694158D01*
X20597102Y-5695083D01*
X20593753Y-5698433D01*
X20593230Y-5697910D01*
X20541940Y-5735356D01*
X20472193Y-5739506D01*
X20411275Y-5705289D01*
X20401630Y-5694158D01*
X20400501Y-5692687D01*
X20307316Y-5599502D01*
X20307314Y-5599500D01*
X20243526Y-5562672D01*
X20193187Y-5533608D01*
X20151092Y-5522329D01*
X20087441Y-5505274D01*
X20027782Y-5468910D01*
X19999632Y-5410962D01*
X19974177Y-5466703D01*
X19915399Y-5504477D01*
X19912594Y-5505264D01*
X19862489Y-5518689D01*
X19806812Y-5533608D01*
X19692686Y-5599500D01*
X19692683Y-5599502D01*
X19599498Y-5692687D01*
X19598370Y-5694158D01*
X19597102Y-5695083D01*
X19593753Y-5698433D01*
X19593230Y-5697910D01*
X19541940Y-5735356D01*
X19472193Y-5739506D01*
X19411275Y-5705289D01*
X19401630Y-5694158D01*
X19400501Y-5692687D01*
X19307316Y-5599502D01*
X19307314Y-5599500D01*
X19243526Y-5562672D01*
X19193187Y-5533608D01*
X19161761Y-5525187D01*
X19065892Y-5499500D01*
X18934108Y-5499500D01*
X18853394Y-5521126D01*
X18806812Y-5533608D01*
X18692686Y-5599500D01*
X18692683Y-5599502D01*
X18599502Y-5692683D01*
X18599500Y-5692686D01*
X18533608Y-5806812D01*
X18499500Y-5934108D01*
X18499500Y-6065891D01*
X18533608Y-6193187D01*
X18566554Y-6250250D01*
X18599500Y-6307314D01*
X18599502Y-6307316D01*
X18692687Y-6400501D01*
X18694158Y-6401630D01*
X18695083Y-6402897D01*
X18698433Y-6406247D01*
X18697910Y-6406769D01*
X18735356Y-6458060D01*
X18739506Y-6527807D01*
X18705289Y-6588725D01*
X18694158Y-6598370D01*
X18692687Y-6599498D01*
X18599502Y-6692683D01*
X18599500Y-6692686D01*
X18533608Y-6806812D01*
X18499500Y-6934108D01*
X18499500Y-7065891D01*
X18533608Y-7193187D01*
X18558904Y-7237000D01*
X18599500Y-7307314D01*
X18599502Y-7307316D01*
X18692687Y-7400501D01*
X18694158Y-7401630D01*
X18695083Y-7402897D01*
X18698433Y-7406247D01*
X18697910Y-7406769D01*
X18735356Y-7458060D01*
X18739506Y-7527807D01*
X18705289Y-7588725D01*
X18694158Y-7598370D01*
X18692687Y-7599498D01*
X18599502Y-7692683D01*
X18599500Y-7692686D01*
X18533608Y-7806812D01*
X18499500Y-7934108D01*
X18499500Y-8065891D01*
X18533608Y-8193187D01*
X18541697Y-8207197D01*
X18599500Y-8307314D01*
X18692686Y-8400500D01*
X18735144Y-8425013D01*
X18783359Y-8475581D01*
X18796581Y-8544188D01*
X18770613Y-8609052D01*
X18713699Y-8649580D01*
X18673143Y-8656400D01*
X17719738Y-8656400D01*
X17643310Y-8676878D01*
X17574789Y-8716440D01*
X17574786Y-8716442D01*
X14386047Y-11905181D01*
X14324724Y-11938666D01*
X14298366Y-11941500D01*
X14208308Y-11941500D01*
X14081012Y-11975608D01*
X13966886Y-12041500D01*
X13966883Y-12041502D01*
X13873702Y-12134683D01*
X13873700Y-12134686D01*
X13807808Y-12248812D01*
X13781892Y-12345534D01*
X13773700Y-12376108D01*
X13773700Y-12507892D01*
X13794925Y-12587108D01*
X13793263Y-12656956D01*
X13754101Y-12714819D01*
X13689872Y-12742323D01*
X13675151Y-12743200D01*
X9611138Y-12743200D01*
X9572924Y-12753439D01*
X9534709Y-12763679D01*
X9534708Y-12763680D01*
X9476983Y-12797007D01*
X9476983Y-12797008D01*
X9466189Y-12803240D01*
X9466186Y-12803242D01*
X6996647Y-15272781D01*
X6935324Y-15306266D01*
X6908966Y-15309100D01*
X6818908Y-15309100D01*
X6691612Y-15343208D01*
X6577486Y-15409100D01*
X6577483Y-15409102D01*
X6484302Y-15502283D01*
X6484300Y-15502286D01*
X6418408Y-15616412D01*
X6395100Y-15703400D01*
X6384300Y-15743708D01*
X6384300Y-15875492D01*
X6387696Y-15888166D01*
X6418408Y-16002787D01*
X6451210Y-16059600D01*
X6484300Y-16116914D01*
X6577486Y-16210100D01*
X6691614Y-16275992D01*
X6818908Y-16310100D01*
X6818910Y-16310100D01*
X6950690Y-16310100D01*
X6950692Y-16310100D01*
X7077986Y-16275992D01*
X7192114Y-16210100D01*
X7285300Y-16116914D01*
X7351192Y-16002786D01*
X7385300Y-15875492D01*
X7385300Y-15785432D01*
X7404985Y-15718393D01*
X7421619Y-15697751D01*
X8579471Y-14539900D01*
X9738852Y-13380519D01*
X9800175Y-13347034D01*
X9826533Y-13344200D01*
X19202666Y-13344200D01*
X19269705Y-13363885D01*
X19315460Y-13416689D01*
X19325404Y-13485847D01*
X19296379Y-13549403D01*
X19290347Y-13555881D01*
X18358748Y-14487481D01*
X18297425Y-14520966D01*
X18271067Y-14523800D01*
X16458676Y-14523800D01*
X16391637Y-14504115D01*
X16370995Y-14487481D01*
X16307316Y-14423802D01*
X16307314Y-14423800D01*
X16224902Y-14376219D01*
X16193187Y-14357908D01*
X16125979Y-14339900D01*
X16065892Y-14323800D01*
X15934108Y-14323800D01*
X15806812Y-14357908D01*
X15692686Y-14423800D01*
X15692683Y-14423802D01*
X15599502Y-14516983D01*
X15599500Y-14516986D01*
X15533608Y-14631112D01*
X15499500Y-14758408D01*
X15499500Y-14890191D01*
X15533608Y-15017487D01*
X15560902Y-15064760D01*
X15599500Y-15131614D01*
X15599502Y-15131616D01*
X15638455Y-15170569D01*
X15671940Y-15231892D01*
X15666956Y-15301584D01*
X15638455Y-15345931D01*
X15599502Y-15384883D01*
X15599500Y-15384886D01*
X15533608Y-15499012D01*
X15499500Y-15626308D01*
X15499500Y-15758091D01*
X15533608Y-15885387D01*
X15560902Y-15932660D01*
X15599500Y-15999514D01*
X15692686Y-16092700D01*
X15734624Y-16116913D01*
X15734728Y-16116973D01*
X15782944Y-16167540D01*
X15796167Y-16236147D01*
X15780115Y-16286360D01*
X15733609Y-16366910D01*
X15733609Y-16366911D01*
X15733609Y-16366912D01*
X15733608Y-16366914D01*
X15726295Y-16394208D01*
X15699500Y-16494208D01*
X15699500Y-16625991D01*
X15733608Y-16753287D01*
X15766554Y-16810350D01*
X15799500Y-16867414D01*
X15892686Y-16960600D01*
X16006814Y-17026492D01*
X16134108Y-17060600D01*
X16134110Y-17060600D01*
X16265890Y-17060600D01*
X16265892Y-17060600D01*
X16393186Y-17026492D01*
X16507314Y-16960600D01*
X16600500Y-16867414D01*
X16666392Y-16753286D01*
X16700500Y-16625992D01*
X16700500Y-16494208D01*
X16666392Y-16366914D01*
X16600500Y-16252786D01*
X16507314Y-16159600D01*
X16465269Y-16135325D01*
X16417055Y-16084758D01*
X16403833Y-16016151D01*
X16419885Y-15965938D01*
X16436309Y-15937492D01*
X16466392Y-15885386D01*
X16500500Y-15758092D01*
X16500500Y-15626308D01*
X16466392Y-15499014D01*
X16400500Y-15384886D01*
X16361545Y-15345931D01*
X16357206Y-15337985D01*
X16349959Y-15332560D01*
X16340724Y-15307800D01*
X16328060Y-15284608D01*
X16328705Y-15275578D01*
X16325542Y-15267096D01*
X16331158Y-15241275D01*
X16331463Y-15237008D01*
X19399700Y-15237008D01*
X19399700Y-15368792D01*
X19405079Y-15388866D01*
X19433808Y-15496087D01*
X19450559Y-15525100D01*
X19499700Y-15610214D01*
X19592886Y-15703400D01*
X19707014Y-15769292D01*
X19834308Y-15803400D01*
X19834310Y-15803400D01*
X19966090Y-15803400D01*
X19966092Y-15803400D01*
X20093386Y-15769292D01*
X20207514Y-15703400D01*
X20300700Y-15610214D01*
X20366592Y-15496086D01*
X20400700Y-15368792D01*
X20400700Y-15237008D01*
X20374334Y-15138608D01*
X22356400Y-15138608D01*
X22356400Y-15270392D01*
X22362110Y-15291702D01*
X22390508Y-15397687D01*
X22417536Y-15444500D01*
X22456400Y-15511814D01*
X22549586Y-15605000D01*
X22663714Y-15670892D01*
X22791008Y-15705000D01*
X22791010Y-15705000D01*
X22922790Y-15705000D01*
X22922792Y-15705000D01*
X23050086Y-15670892D01*
X23127308Y-15626308D01*
X33897400Y-15626308D01*
X33897400Y-15758091D01*
X33931508Y-15885387D01*
X33958802Y-15932660D01*
X33997400Y-15999514D01*
X34090586Y-16092700D01*
X34204714Y-16158592D01*
X34332008Y-16192700D01*
X34332010Y-16192700D01*
X34463790Y-16192700D01*
X34463792Y-16192700D01*
X34591086Y-16158592D01*
X34705214Y-16092700D01*
X34798400Y-15999514D01*
X34864292Y-15885386D01*
X34898400Y-15758092D01*
X34898400Y-15626308D01*
X34864292Y-15499014D01*
X34798400Y-15384886D01*
X34705214Y-15291700D01*
X34635262Y-15251313D01*
X34610486Y-15237008D01*
X39399700Y-15237008D01*
X39399700Y-15368792D01*
X39405079Y-15388866D01*
X39433808Y-15496087D01*
X39450559Y-15525100D01*
X39499700Y-15610214D01*
X39592886Y-15703400D01*
X39707014Y-15769292D01*
X39834308Y-15803400D01*
X39834310Y-15803400D01*
X39966090Y-15803400D01*
X39966092Y-15803400D01*
X40093386Y-15769292D01*
X40207514Y-15703400D01*
X40300700Y-15610214D01*
X40366592Y-15496086D01*
X40400700Y-15368792D01*
X40400700Y-15237008D01*
X40366592Y-15109714D01*
X40366240Y-15109105D01*
X40340640Y-15064764D01*
X40300700Y-14995586D01*
X40207514Y-14902400D01*
X40150450Y-14869454D01*
X40093387Y-14836508D01*
X40003607Y-14812452D01*
X39966092Y-14802400D01*
X39834308Y-14802400D01*
X39707012Y-14836508D01*
X39592886Y-14902400D01*
X39592883Y-14902402D01*
X39499702Y-14995583D01*
X39499700Y-14995586D01*
X39433808Y-15109712D01*
X39408089Y-15205700D01*
X39399700Y-15237008D01*
X34610486Y-15237008D01*
X34591087Y-15225808D01*
X34516041Y-15205700D01*
X34463792Y-15191700D01*
X34332008Y-15191700D01*
X34204712Y-15225808D01*
X34090586Y-15291700D01*
X34090583Y-15291702D01*
X33997402Y-15384883D01*
X33997400Y-15384886D01*
X33931508Y-15499012D01*
X33897400Y-15626308D01*
X23127308Y-15626308D01*
X23164214Y-15605000D01*
X23257400Y-15511814D01*
X23323292Y-15397686D01*
X23357400Y-15270392D01*
X23357400Y-15138608D01*
X23323292Y-15011314D01*
X23322470Y-15009891D01*
X23311096Y-14990190D01*
X23257400Y-14897186D01*
X23164214Y-14804000D01*
X23107150Y-14771054D01*
X23050087Y-14738108D01*
X22986439Y-14721054D01*
X22922792Y-14704000D01*
X22791008Y-14704000D01*
X22663712Y-14738108D01*
X22549586Y-14804000D01*
X22549583Y-14804002D01*
X22456402Y-14897183D01*
X22456400Y-14897186D01*
X22390508Y-15011312D01*
X22362059Y-15117488D01*
X22356400Y-15138608D01*
X20374334Y-15138608D01*
X20366592Y-15109714D01*
X20366240Y-15109105D01*
X20340640Y-15064764D01*
X20300700Y-14995586D01*
X20207514Y-14902400D01*
X20150450Y-14869454D01*
X20093387Y-14836508D01*
X20003607Y-14812452D01*
X19966092Y-14802400D01*
X19834308Y-14802400D01*
X19707012Y-14836508D01*
X19592886Y-14902400D01*
X19592883Y-14902402D01*
X19499702Y-14995583D01*
X19499700Y-14995586D01*
X19433808Y-15109712D01*
X19408089Y-15205700D01*
X19399700Y-15237008D01*
X16331463Y-15237008D01*
X16333044Y-15214916D01*
X16338862Y-15205862D01*
X16340394Y-15198823D01*
X16361545Y-15170569D01*
X16370995Y-15161119D01*
X16432318Y-15127634D01*
X16458676Y-15124800D01*
X18486460Y-15124800D01*
X18486462Y-15124800D01*
X18562889Y-15104321D01*
X18631411Y-15064760D01*
X18687360Y-15008811D01*
X20762063Y-12934108D01*
X28601800Y-12934108D01*
X28601800Y-13065892D01*
X28604623Y-13076427D01*
X28635908Y-13193187D01*
X28636198Y-13193689D01*
X28701800Y-13307314D01*
X28794986Y-13400500D01*
X28909114Y-13466392D01*
X29036408Y-13500500D01*
X29168192Y-13500500D01*
X29295486Y-13466392D01*
X29409614Y-13400500D01*
X29502800Y-13307314D01*
X29568692Y-13193186D01*
X29602800Y-13065892D01*
X29602800Y-12934108D01*
X29602639Y-12933508D01*
X49152500Y-12933508D01*
X49152500Y-13065292D01*
X49152527Y-13065391D01*
X49186608Y-13192587D01*
X49203128Y-13221200D01*
X49252500Y-13306714D01*
X49345686Y-13399900D01*
X49459814Y-13465792D01*
X49587108Y-13499900D01*
X49587110Y-13499900D01*
X49718890Y-13499900D01*
X49718892Y-13499900D01*
X49846186Y-13465792D01*
X49960314Y-13399900D01*
X50053500Y-13306714D01*
X50119392Y-13192586D01*
X50153500Y-13065292D01*
X50153500Y-12933508D01*
X50119392Y-12806214D01*
X50053500Y-12692086D01*
X49960314Y-12598900D01*
X49903250Y-12565954D01*
X49846187Y-12533008D01*
X49755063Y-12508592D01*
X49718892Y-12498900D01*
X49587108Y-12498900D01*
X49459812Y-12533008D01*
X49345686Y-12598900D01*
X49345683Y-12598902D01*
X49252502Y-12692083D01*
X49252500Y-12692086D01*
X49186608Y-12806212D01*
X49180470Y-12829120D01*
X49152500Y-12933508D01*
X29602639Y-12933508D01*
X29568692Y-12806814D01*
X29568344Y-12806212D01*
X29554518Y-12782264D01*
X29502800Y-12692686D01*
X29409614Y-12599500D01*
X29311234Y-12542700D01*
X29295487Y-12533608D01*
X29220016Y-12513386D01*
X29168192Y-12499500D01*
X29036408Y-12499500D01*
X28909112Y-12533608D01*
X28794986Y-12599500D01*
X28794983Y-12599502D01*
X28701802Y-12692683D01*
X28701800Y-12692686D01*
X28635908Y-12806812D01*
X28629931Y-12829120D01*
X28601800Y-12934108D01*
X20762063Y-12934108D01*
X21317152Y-12379019D01*
X21378475Y-12345534D01*
X21404833Y-12342700D01*
X27738624Y-12342700D01*
X27805663Y-12362385D01*
X27826305Y-12379019D01*
X27889986Y-12442700D01*
X27987327Y-12498900D01*
X28002901Y-12507892D01*
X28004114Y-12508592D01*
X28131408Y-12542700D01*
X28131410Y-12542700D01*
X28263190Y-12542700D01*
X28263192Y-12542700D01*
X28390486Y-12508592D01*
X28504614Y-12442700D01*
X28597800Y-12349514D01*
X28663692Y-12235386D01*
X28697800Y-12108092D01*
X28697800Y-11976308D01*
X28663692Y-11849014D01*
X28663691Y-11849013D01*
X28663177Y-11847093D01*
X28664840Y-11777243D01*
X28704003Y-11719381D01*
X28768231Y-11691877D01*
X28782952Y-11691000D01*
X54193067Y-11691000D01*
X54222507Y-11699644D01*
X54252494Y-11706168D01*
X54257509Y-11709922D01*
X54260106Y-11710685D01*
X54280748Y-11727319D01*
X54306681Y-11753252D01*
X54340166Y-11814575D01*
X54343000Y-11840933D01*
X54343000Y-11930992D01*
X54355142Y-11976308D01*
X54377108Y-12058287D01*
X54403103Y-12103310D01*
X54443000Y-12172414D01*
X54536186Y-12265600D01*
X54604543Y-12305066D01*
X54636223Y-12323357D01*
X54684438Y-12373925D01*
X54697660Y-12442532D01*
X54671692Y-12507397D01*
X54661903Y-12518425D01*
X51824948Y-15355381D01*
X51763625Y-15388866D01*
X51737267Y-15391700D01*
X45725549Y-15391700D01*
X45658510Y-15372015D01*
X45612755Y-15319211D01*
X45602811Y-15250053D01*
X45618162Y-15205700D01*
X45656897Y-15138608D01*
X45669092Y-15117486D01*
X45703200Y-14990192D01*
X45703200Y-14858408D01*
X45669092Y-14731114D01*
X45665042Y-14724100D01*
X45627976Y-14659900D01*
X45603200Y-14616986D01*
X45510014Y-14523800D01*
X45436830Y-14481547D01*
X45395887Y-14457908D01*
X45328667Y-14439897D01*
X45268592Y-14423800D01*
X45178533Y-14423800D01*
X45111494Y-14404115D01*
X45090852Y-14387481D01*
X44502312Y-13798941D01*
X44502307Y-13798937D01*
X44487888Y-13790612D01*
X44487886Y-13790612D01*
X44457641Y-13773150D01*
X44433790Y-13759379D01*
X44408313Y-13752552D01*
X44357362Y-13738900D01*
X44357360Y-13738900D01*
X27307776Y-13738900D01*
X27240737Y-13719215D01*
X27220095Y-13702581D01*
X27156416Y-13638902D01*
X27156414Y-13638900D01*
X27099350Y-13605954D01*
X27042287Y-13573008D01*
X26954190Y-13549403D01*
X26914992Y-13538900D01*
X26783208Y-13538900D01*
X26655912Y-13573008D01*
X26541786Y-13638900D01*
X26541783Y-13638902D01*
X26448602Y-13732083D01*
X26448600Y-13732086D01*
X26382708Y-13846212D01*
X26348600Y-13973508D01*
X26348600Y-14105291D01*
X26382708Y-14232587D01*
X26415654Y-14289650D01*
X26448600Y-14346714D01*
X26541786Y-14439900D01*
X26655914Y-14505792D01*
X26783208Y-14539900D01*
X26783210Y-14539900D01*
X26914990Y-14539900D01*
X26914992Y-14539900D01*
X27042286Y-14505792D01*
X27156414Y-14439900D01*
X27220095Y-14376219D01*
X27281418Y-14342734D01*
X27307776Y-14339900D01*
X29773524Y-14339900D01*
X29840563Y-14359585D01*
X29886318Y-14412389D01*
X29896262Y-14481547D01*
X29867237Y-14545103D01*
X29861205Y-14551581D01*
X29776102Y-14636683D01*
X29776100Y-14636686D01*
X29710208Y-14750812D01*
X29681378Y-14858410D01*
X29676100Y-14878108D01*
X29676100Y-15009892D01*
X29676481Y-15011314D01*
X29710208Y-15137187D01*
X29734989Y-15180108D01*
X29776100Y-15251314D01*
X29869286Y-15344500D01*
X29946130Y-15388866D01*
X29981179Y-15409102D01*
X29983414Y-15410392D01*
X30110708Y-15444500D01*
X30110710Y-15444500D01*
X30242490Y-15444500D01*
X30242492Y-15444500D01*
X30369786Y-15410392D01*
X30483914Y-15344500D01*
X30577100Y-15251314D01*
X30642992Y-15137186D01*
X30677100Y-15009892D01*
X30677100Y-14878108D01*
X30642992Y-14750814D01*
X30577100Y-14636686D01*
X30491995Y-14551581D01*
X30458510Y-14490258D01*
X30463494Y-14420566D01*
X30505366Y-14364633D01*
X30570830Y-14340216D01*
X30579676Y-14339900D01*
X44141967Y-14339900D01*
X44209006Y-14359585D01*
X44229648Y-14376219D01*
X44665881Y-14812452D01*
X44699366Y-14873775D01*
X44702200Y-14900133D01*
X44702200Y-14990192D01*
X44734062Y-15109105D01*
X44736309Y-15117488D01*
X44736309Y-15117489D01*
X44787238Y-15205700D01*
X44803711Y-15273600D01*
X44780859Y-15339627D01*
X44725937Y-15382818D01*
X44679851Y-15391700D01*
X43711976Y-15391700D01*
X43644937Y-15372015D01*
X43624295Y-15355381D01*
X43560616Y-15291702D01*
X43560614Y-15291700D01*
X43490662Y-15251313D01*
X43446487Y-15225808D01*
X43371441Y-15205700D01*
X43319192Y-15191700D01*
X43187408Y-15191700D01*
X43060112Y-15225808D01*
X42945986Y-15291700D01*
X42945983Y-15291702D01*
X42852802Y-15384883D01*
X42852800Y-15384886D01*
X42786908Y-15499012D01*
X42752800Y-15626308D01*
X42752800Y-15758091D01*
X42786908Y-15885387D01*
X42814202Y-15932660D01*
X42852800Y-15999514D01*
X42945986Y-16092700D01*
X43060114Y-16158592D01*
X43187408Y-16192700D01*
X43187410Y-16192700D01*
X43319190Y-16192700D01*
X43319192Y-16192700D01*
X43446486Y-16158592D01*
X43560614Y-16092700D01*
X43624295Y-16029019D01*
X43685618Y-15995534D01*
X43711976Y-15992700D01*
X49552051Y-15992700D01*
X49619090Y-16012385D01*
X49664845Y-16065189D01*
X49674789Y-16134347D01*
X49659438Y-16178700D01*
X49608509Y-16266910D01*
X49608509Y-16266911D01*
X49608508Y-16266913D01*
X49608508Y-16266914D01*
X49591500Y-16330391D01*
X49574400Y-16394208D01*
X49574400Y-16525991D01*
X49608508Y-16653287D01*
X49635802Y-16700560D01*
X49674400Y-16767414D01*
X49767586Y-16860600D01*
X49881714Y-16926492D01*
X50009008Y-16960600D01*
X50009010Y-16960600D01*
X50140790Y-16960600D01*
X50140792Y-16960600D01*
X50268086Y-16926492D01*
X50382214Y-16860600D01*
X50445895Y-16796919D01*
X50507218Y-16763434D01*
X50533576Y-16760600D01*
X68503060Y-16760600D01*
X68503062Y-16760600D01*
X68579489Y-16740121D01*
X68648011Y-16700560D01*
X68703960Y-16644611D01*
X68947751Y-16400818D01*
X69009074Y-16367334D01*
X69035432Y-16364500D01*
X69125490Y-16364500D01*
X69125492Y-16364500D01*
X69252786Y-16330392D01*
X69366914Y-16264500D01*
X69460100Y-16171314D01*
X69525992Y-16057186D01*
X69560100Y-15929892D01*
X69560100Y-15798108D01*
X69525992Y-15670814D01*
X69500296Y-15626308D01*
X75144700Y-15626308D01*
X75144700Y-15758091D01*
X75178808Y-15885387D01*
X75206102Y-15932660D01*
X75244700Y-15999514D01*
X75337886Y-16092700D01*
X75452014Y-16158592D01*
X75579308Y-16192700D01*
X75579310Y-16192700D01*
X75711090Y-16192700D01*
X75711092Y-16192700D01*
X75838386Y-16158592D01*
X75952514Y-16092700D01*
X76045700Y-15999514D01*
X76111592Y-15885386D01*
X76145700Y-15758092D01*
X76145700Y-15626308D01*
X76111592Y-15499014D01*
X76045700Y-15384886D01*
X75952514Y-15291700D01*
X75882562Y-15251313D01*
X75838387Y-15225808D01*
X75763341Y-15205700D01*
X75711092Y-15191700D01*
X75579308Y-15191700D01*
X75452012Y-15225808D01*
X75337886Y-15291700D01*
X75337883Y-15291702D01*
X75244702Y-15384883D01*
X75244700Y-15384886D01*
X75178808Y-15499012D01*
X75144700Y-15626308D01*
X69500296Y-15626308D01*
X69460100Y-15556686D01*
X69366914Y-15463500D01*
X69309850Y-15430554D01*
X69252787Y-15397608D01*
X69189139Y-15380554D01*
X69125492Y-15363500D01*
X68993708Y-15363500D01*
X68866412Y-15397608D01*
X68752286Y-15463500D01*
X68752283Y-15463502D01*
X68659102Y-15556683D01*
X68659100Y-15556686D01*
X68593208Y-15670812D01*
X68559100Y-15798108D01*
X68559100Y-15888166D01*
X68550455Y-15917606D01*
X68543932Y-15947593D01*
X68540177Y-15952608D01*
X68539415Y-15955205D01*
X68522785Y-15975842D01*
X68375346Y-16123282D01*
X68314026Y-16156766D01*
X68287667Y-16159600D01*
X52167149Y-16159600D01*
X52100110Y-16139915D01*
X52054355Y-16087111D01*
X52044411Y-16017953D01*
X52073436Y-15954397D01*
X52091662Y-15937225D01*
X52097606Y-15932662D01*
X52097611Y-15932660D01*
X52153560Y-15876711D01*
X52971563Y-15058708D01*
X53731600Y-15058708D01*
X53731600Y-15190492D01*
X53742619Y-15231614D01*
X53765708Y-15317787D01*
X53792101Y-15363500D01*
X53831600Y-15431914D01*
X53924786Y-15525100D01*
X54038914Y-15590992D01*
X54166208Y-15625100D01*
X54166210Y-15625100D01*
X54297990Y-15625100D01*
X54297992Y-15625100D01*
X54425286Y-15590992D01*
X54539414Y-15525100D01*
X54632600Y-15431914D01*
X54698492Y-15317786D01*
X54732600Y-15190492D01*
X54732600Y-15180108D01*
X59510600Y-15180108D01*
X59510600Y-15311892D01*
X59519337Y-15344499D01*
X59544708Y-15439187D01*
X59561180Y-15467716D01*
X59610600Y-15553314D01*
X59703786Y-15646500D01*
X59817914Y-15712392D01*
X59945208Y-15746500D01*
X59945210Y-15746500D01*
X60076990Y-15746500D01*
X60076992Y-15746500D01*
X60204286Y-15712392D01*
X60318414Y-15646500D01*
X60411600Y-15553314D01*
X60477492Y-15439186D01*
X60511600Y-15311892D01*
X60511600Y-15180108D01*
X60477492Y-15052814D01*
X60411600Y-14938686D01*
X60318414Y-14845500D01*
X60243763Y-14802400D01*
X60204287Y-14779608D01*
X60140639Y-14762554D01*
X60076992Y-14745500D01*
X59945208Y-14745500D01*
X59817912Y-14779608D01*
X59703786Y-14845500D01*
X59703783Y-14845502D01*
X59610602Y-14938683D01*
X59610600Y-14938686D01*
X59544708Y-15052812D01*
X59521720Y-15138608D01*
X59510600Y-15180108D01*
X54732600Y-15180108D01*
X54732600Y-15058708D01*
X54698492Y-14931414D01*
X54632600Y-14817286D01*
X54539414Y-14724100D01*
X54482350Y-14691154D01*
X54425287Y-14658208D01*
X54344953Y-14636683D01*
X54297992Y-14624100D01*
X54166208Y-14624100D01*
X54038912Y-14658208D01*
X53924786Y-14724100D01*
X53924783Y-14724102D01*
X53831602Y-14817283D01*
X53831600Y-14817286D01*
X53765708Y-14931412D01*
X53744299Y-15011314D01*
X53731600Y-15058708D01*
X52971563Y-15058708D01*
X55275462Y-12754808D01*
X59978500Y-12754808D01*
X59978500Y-12886591D01*
X60012608Y-13013887D01*
X60042345Y-13065392D01*
X60078500Y-13128014D01*
X60171686Y-13221200D01*
X60285814Y-13287092D01*
X60413108Y-13321200D01*
X60413110Y-13321200D01*
X60544890Y-13321200D01*
X60544892Y-13321200D01*
X60672186Y-13287092D01*
X60786314Y-13221200D01*
X60849995Y-13157519D01*
X60911318Y-13124034D01*
X60937676Y-13121200D01*
X69213405Y-13121200D01*
X69280444Y-13140885D01*
X69326199Y-13193689D01*
X69336143Y-13262847D01*
X69320792Y-13307200D01*
X69295209Y-13351510D01*
X69295209Y-13351511D01*
X69295209Y-13351512D01*
X69295208Y-13351514D01*
X69282243Y-13399900D01*
X69261100Y-13478808D01*
X69261100Y-13610591D01*
X69295208Y-13737887D01*
X69295793Y-13738900D01*
X69361100Y-13852014D01*
X69454286Y-13945200D01*
X69568414Y-14011092D01*
X69695708Y-14045200D01*
X69695710Y-14045200D01*
X69827490Y-14045200D01*
X69827492Y-14045200D01*
X69954786Y-14011092D01*
X70068914Y-13945200D01*
X70162100Y-13852014D01*
X70227992Y-13737886D01*
X70262100Y-13610592D01*
X70262100Y-13478808D01*
X70227992Y-13351514D01*
X70225405Y-13347034D01*
X70210490Y-13321200D01*
X70162100Y-13237386D01*
X70068914Y-13144200D01*
X70067723Y-13143009D01*
X70063384Y-13135063D01*
X70056137Y-13129638D01*
X70046902Y-13104878D01*
X70034238Y-13081686D01*
X70034883Y-13072656D01*
X70031720Y-13064174D01*
X70037336Y-13038353D01*
X70039222Y-13011994D01*
X70045040Y-13002940D01*
X70046572Y-12995901D01*
X70067720Y-12967650D01*
X70101762Y-12933608D01*
X71019300Y-12933608D01*
X71019300Y-13065392D01*
X71022257Y-13076427D01*
X71053408Y-13192687D01*
X71086354Y-13249750D01*
X71119300Y-13306814D01*
X71212486Y-13400000D01*
X71326614Y-13465892D01*
X71453908Y-13500000D01*
X71453910Y-13500000D01*
X71585690Y-13500000D01*
X71585692Y-13500000D01*
X71712986Y-13465892D01*
X71827114Y-13400000D01*
X71920300Y-13306814D01*
X71986192Y-13192686D01*
X72020300Y-13065392D01*
X72020300Y-12933608D01*
X71986192Y-12806314D01*
X71980026Y-12795635D01*
X71961577Y-12763680D01*
X71920300Y-12692186D01*
X71827114Y-12599000D01*
X71729600Y-12542700D01*
X71712987Y-12533108D01*
X71639382Y-12513386D01*
X71585692Y-12499000D01*
X71453908Y-12499000D01*
X71326612Y-12533108D01*
X71212486Y-12599000D01*
X71212483Y-12599002D01*
X71119302Y-12692183D01*
X71119300Y-12692186D01*
X71053408Y-12806312D01*
X71047297Y-12829120D01*
X71019300Y-12933608D01*
X70101762Y-12933608D01*
X71657451Y-11377918D01*
X71718774Y-11344434D01*
X71745132Y-11341600D01*
X71835190Y-11341600D01*
X71835192Y-11341600D01*
X71962486Y-11307492D01*
X72076614Y-11241600D01*
X72169800Y-11148414D01*
X72235692Y-11034286D01*
X72269800Y-10906992D01*
X72269800Y-10775208D01*
X72235692Y-10647914D01*
X72169800Y-10533786D01*
X72076614Y-10440600D01*
X72004055Y-10398708D01*
X71962487Y-10374708D01*
X71898839Y-10357654D01*
X71835192Y-10340600D01*
X71703408Y-10340600D01*
X71576112Y-10374708D01*
X71461986Y-10440600D01*
X71461983Y-10440602D01*
X71368802Y-10533783D01*
X71368800Y-10533786D01*
X71302908Y-10647912D01*
X71268800Y-10775208D01*
X71268800Y-10865266D01*
X71249115Y-10932305D01*
X71232481Y-10952947D01*
X69701548Y-12483881D01*
X69640225Y-12517366D01*
X69613867Y-12520200D01*
X60937676Y-12520200D01*
X60870637Y-12500515D01*
X60849995Y-12483881D01*
X60786316Y-12420202D01*
X60786314Y-12420200D01*
X60729250Y-12387254D01*
X60672187Y-12354308D01*
X60608539Y-12337254D01*
X60544892Y-12320200D01*
X60413108Y-12320200D01*
X60285812Y-12354308D01*
X60171686Y-12420200D01*
X60171683Y-12420202D01*
X60078502Y-12513383D01*
X60078500Y-12513386D01*
X60012608Y-12627512D01*
X59978500Y-12754808D01*
X55275462Y-12754808D01*
X56464897Y-11565372D01*
X56526220Y-11531888D01*
X56595912Y-11536872D01*
X56640259Y-11565373D01*
X56643086Y-11568200D01*
X56757214Y-11634092D01*
X56884508Y-11668200D01*
X56884510Y-11668200D01*
X57016290Y-11668200D01*
X57016292Y-11668200D01*
X57143586Y-11634092D01*
X57257714Y-11568200D01*
X57350900Y-11475014D01*
X57416792Y-11360886D01*
X57450900Y-11233592D01*
X57450900Y-11101808D01*
X57429674Y-11022591D01*
X57431337Y-10952744D01*
X57470499Y-10894881D01*
X57534728Y-10867377D01*
X57549449Y-10866500D01*
X59073596Y-10866500D01*
X59140635Y-10886185D01*
X59186390Y-10938989D01*
X59193370Y-10958405D01*
X59194008Y-10960786D01*
X59259900Y-11074914D01*
X59353086Y-11168100D01*
X59451921Y-11225163D01*
X59466517Y-11233590D01*
X59467214Y-11233992D01*
X59594508Y-11268100D01*
X59594510Y-11268100D01*
X59726290Y-11268100D01*
X59726292Y-11268100D01*
X59853586Y-11233992D01*
X59967714Y-11168100D01*
X60060900Y-11074914D01*
X60126792Y-10960786D01*
X60160900Y-10833492D01*
X60160900Y-10701708D01*
X60126792Y-10574414D01*
X60060900Y-10460286D01*
X59967714Y-10367100D01*
X59885686Y-10319741D01*
X59853587Y-10301208D01*
X59771379Y-10279181D01*
X59726292Y-10267100D01*
X59594508Y-10267100D01*
X59594502Y-10267100D01*
X59581508Y-10270582D01*
X59517328Y-10270581D01*
X59498367Y-10265500D01*
X59498362Y-10265500D01*
X56740862Y-10265500D01*
X56661738Y-10265500D01*
X56585310Y-10285978D01*
X56516789Y-10325540D01*
X56516786Y-10325542D01*
X56108241Y-10734087D01*
X56108235Y-10734095D01*
X56068682Y-10802604D01*
X56068679Y-10802609D01*
X56048200Y-10879039D01*
X56048200Y-11080767D01*
X56028515Y-11147806D01*
X56011881Y-11168448D01*
X55496825Y-11683503D01*
X55435502Y-11716988D01*
X55365810Y-11712004D01*
X55309877Y-11670132D01*
X55301757Y-11657823D01*
X55268403Y-11600053D01*
X55244000Y-11557786D01*
X55150814Y-11464600D01*
X55093750Y-11431654D01*
X55036687Y-11398708D01*
X54973039Y-11381654D01*
X54909392Y-11364600D01*
X54819333Y-11364600D01*
X54752294Y-11344915D01*
X54731652Y-11328281D01*
X54553412Y-11150041D01*
X54553407Y-11150037D01*
X54532509Y-11137972D01*
X54532509Y-11137971D01*
X54532507Y-11137971D01*
X54484894Y-11110481D01*
X54484893Y-11110480D01*
X54462008Y-11104348D01*
X54408462Y-11090000D01*
X54408460Y-11090000D01*
X27042911Y-11090000D01*
X26975872Y-11070315D01*
X26930117Y-11017511D01*
X26920173Y-10948353D01*
X26949198Y-10884797D01*
X26967421Y-10867627D01*
X26970709Y-10865102D01*
X26970714Y-10865100D01*
X27063900Y-10771914D01*
X27129792Y-10657786D01*
X27163900Y-10530492D01*
X27163900Y-10398708D01*
X27129792Y-10271414D01*
X27063900Y-10157286D01*
X26970714Y-10064100D01*
X26896560Y-10021287D01*
X26848345Y-9970719D01*
X26835123Y-9902112D01*
X26861091Y-9837248D01*
X26918005Y-9796720D01*
X26958561Y-9789900D01*
X63104860Y-9789900D01*
X63104862Y-9789900D01*
X63181289Y-9769421D01*
X63249811Y-9729860D01*
X63305760Y-9673911D01*
X64252963Y-8726708D01*
X66586200Y-8726708D01*
X66586200Y-8858491D01*
X66620308Y-8985787D01*
X66647456Y-9032807D01*
X66686200Y-9099914D01*
X66779386Y-9193100D01*
X66863908Y-9241899D01*
X66890756Y-9257400D01*
X66893514Y-9258992D01*
X67020808Y-9293100D01*
X67020810Y-9293100D01*
X67152590Y-9293100D01*
X67152592Y-9293100D01*
X67279886Y-9258992D01*
X67394014Y-9193100D01*
X67487200Y-9099914D01*
X67553092Y-8985786D01*
X67587200Y-8858492D01*
X67587200Y-8726708D01*
X67553092Y-8599414D01*
X67487200Y-8485286D01*
X67394014Y-8392100D01*
X67303891Y-8340067D01*
X67303890Y-8340066D01*
X67279888Y-8326209D01*
X67279887Y-8326208D01*
X67279886Y-8326208D01*
X67152592Y-8292100D01*
X67020808Y-8292100D01*
X66893512Y-8326208D01*
X66779386Y-8392100D01*
X66779383Y-8392102D01*
X66686202Y-8485283D01*
X66686200Y-8485286D01*
X66620308Y-8599412D01*
X66586200Y-8726708D01*
X64252963Y-8726708D01*
X64738863Y-8240808D01*
X70499500Y-8240808D01*
X70499500Y-8372591D01*
X70533608Y-8499887D01*
X70533962Y-8500500D01*
X70599500Y-8614014D01*
X70692686Y-8707200D01*
X70806814Y-8773092D01*
X70934108Y-8807200D01*
X70934110Y-8807200D01*
X71065890Y-8807200D01*
X71065892Y-8807200D01*
X71193186Y-8773092D01*
X71307314Y-8707200D01*
X71400500Y-8614014D01*
X71466392Y-8499886D01*
X71500500Y-8372592D01*
X71500500Y-8240808D01*
X71466392Y-8113514D01*
X71400500Y-7999386D01*
X71307314Y-7906200D01*
X71249100Y-7872590D01*
X71193187Y-7840308D01*
X71123415Y-7821613D01*
X71065892Y-7806200D01*
X70934108Y-7806200D01*
X70806812Y-7840308D01*
X70692686Y-7906200D01*
X70692683Y-7906202D01*
X70599502Y-7999383D01*
X70599500Y-7999386D01*
X70533608Y-8113512D01*
X70499500Y-8240808D01*
X64738863Y-8240808D01*
X66098263Y-6881408D01*
X66729200Y-6881408D01*
X66729200Y-7013192D01*
X66730116Y-7016610D01*
X66763308Y-7140487D01*
X66793734Y-7193186D01*
X66829200Y-7254614D01*
X66922386Y-7347800D01*
X66995160Y-7389816D01*
X67023537Y-7406200D01*
X67036514Y-7413692D01*
X67163808Y-7447800D01*
X67163810Y-7447800D01*
X67295590Y-7447800D01*
X67295592Y-7447800D01*
X67422886Y-7413692D01*
X67537014Y-7347800D01*
X67630200Y-7254614D01*
X67696092Y-7140486D01*
X67730200Y-7013192D01*
X67730200Y-6881408D01*
X67696092Y-6754114D01*
X67630200Y-6639986D01*
X67537014Y-6546800D01*
X67479950Y-6513854D01*
X67422887Y-6480908D01*
X67337615Y-6458060D01*
X67295592Y-6446800D01*
X67163808Y-6446800D01*
X67036512Y-6480908D01*
X66922386Y-6546800D01*
X66922383Y-6546802D01*
X66829202Y-6639983D01*
X66829200Y-6639986D01*
X66763308Y-6754112D01*
X66730699Y-6875812D01*
X66729200Y-6881408D01*
X66098263Y-6881408D01*
X66996052Y-5983619D01*
X67057375Y-5950134D01*
X67083733Y-5947300D01*
X77894260Y-5947300D01*
X77894262Y-5947300D01*
X77970689Y-5926821D01*
X78039211Y-5887260D01*
X78095160Y-5831311D01*
X78484051Y-5442418D01*
X78545374Y-5408934D01*
X78571732Y-5406100D01*
X78661790Y-5406100D01*
X78661792Y-5406100D01*
X78789086Y-5371992D01*
X78903214Y-5306100D01*
X78996400Y-5212914D01*
X79062292Y-5098786D01*
X79096400Y-4971492D01*
X79096400Y-4839708D01*
X79062292Y-4712414D01*
X78996400Y-4598286D01*
X78903214Y-4505100D01*
X78825965Y-4460500D01*
X78789087Y-4439208D01*
X78700945Y-4415591D01*
X78661792Y-4405100D01*
X78530008Y-4405100D01*
X78402712Y-4439208D01*
X78288586Y-4505100D01*
X78288583Y-4505102D01*
X78195402Y-4598283D01*
X78195400Y-4598286D01*
X78129508Y-4712412D01*
X78095400Y-4839708D01*
X78095400Y-4929766D01*
X78075715Y-4996805D01*
X78059081Y-5017447D01*
X77766548Y-5309981D01*
X77705225Y-5343466D01*
X77678867Y-5346300D01*
X77078296Y-5346300D01*
X77011257Y-5326615D01*
X76965502Y-5273811D01*
X76955558Y-5204653D01*
X76966675Y-5172536D01*
X76965380Y-5172000D01*
X76968487Y-5164493D01*
X76968492Y-5164486D01*
X77002600Y-5037192D01*
X77002600Y-4905408D01*
X76968492Y-4778114D01*
X76902600Y-4663986D01*
X76809414Y-4570800D01*
X76752350Y-4537854D01*
X76695287Y-4504908D01*
X76624791Y-4486019D01*
X76567992Y-4470800D01*
X76436208Y-4470800D01*
X76308912Y-4504908D01*
X76194786Y-4570800D01*
X76194783Y-4570802D01*
X76131105Y-4634481D01*
X76069782Y-4667966D01*
X76043424Y-4670800D01*
X70147133Y-4670800D01*
X70080094Y-4651115D01*
X70059452Y-4634481D01*
X68692248Y-3267277D01*
X68658763Y-3205954D01*
X68663747Y-3136262D01*
X68705619Y-3080329D01*
X68771083Y-3055912D01*
X68799326Y-3057122D01*
X68828778Y-3061787D01*
X68915352Y-3075500D01*
X68915356Y-3075500D01*
X69084649Y-3075500D01*
X69251847Y-3049018D01*
X69265884Y-3044457D01*
X69412849Y-2996705D01*
X69563685Y-2919850D01*
X69700641Y-2820346D01*
X69820346Y-2700641D01*
X69856840Y-2650411D01*
X69899682Y-2591445D01*
X69955011Y-2548779D01*
X70024625Y-2542800D01*
X70086420Y-2575405D01*
X70100318Y-2591445D01*
X70179648Y-2700634D01*
X70179652Y-2700639D01*
X70299360Y-2820347D01*
X70299365Y-2820351D01*
X70350508Y-2857508D01*
X70436315Y-2919850D01*
X70509634Y-2957208D01*
X70587146Y-2996703D01*
X70587148Y-2996703D01*
X70587151Y-2996705D01*
X70648329Y-3016583D01*
X70748152Y-3049018D01*
X70915351Y-3075500D01*
X70915356Y-3075500D01*
X71084649Y-3075500D01*
X71251847Y-3049018D01*
X71265884Y-3044457D01*
X71412849Y-2996705D01*
X71563685Y-2919850D01*
X71700641Y-2820346D01*
X71820346Y-2700641D01*
X71856840Y-2650411D01*
X71899682Y-2591445D01*
X71955011Y-2548779D01*
X72024625Y-2542800D01*
X72086420Y-2575405D01*
X72100318Y-2591445D01*
X72179648Y-2700634D01*
X72179652Y-2700639D01*
X72299360Y-2820347D01*
X72299365Y-2820351D01*
X72350508Y-2857508D01*
X72436315Y-2919850D01*
X72509634Y-2957208D01*
X72587146Y-2996703D01*
X72587148Y-2996703D01*
X72587151Y-2996705D01*
X72648329Y-3016583D01*
X72748152Y-3049018D01*
X72915351Y-3075500D01*
X72915356Y-3075500D01*
X73084649Y-3075500D01*
X73251847Y-3049018D01*
X73265884Y-3044457D01*
X73412849Y-2996705D01*
X73563685Y-2919850D01*
X73700641Y-2820346D01*
X73820346Y-2700641D01*
X73856840Y-2650411D01*
X73899682Y-2591445D01*
X73955011Y-2548779D01*
X74024625Y-2542800D01*
X74086420Y-2575405D01*
X74100318Y-2591445D01*
X74179648Y-2700634D01*
X74179652Y-2700639D01*
X74299360Y-2820347D01*
X74299365Y-2820351D01*
X74350508Y-2857508D01*
X74436315Y-2919850D01*
X74509634Y-2957208D01*
X74587146Y-2996703D01*
X74587148Y-2996703D01*
X74587151Y-2996705D01*
X74648329Y-3016583D01*
X74748152Y-3049018D01*
X74915351Y-3075500D01*
X74915356Y-3075500D01*
X75084649Y-3075500D01*
X75251847Y-3049018D01*
X75265884Y-3044457D01*
X75412849Y-2996705D01*
X75563685Y-2919850D01*
X75700641Y-2820346D01*
X75820346Y-2700641D01*
X75919850Y-2563685D01*
X75996705Y-2412849D01*
X76049018Y-2251847D01*
X76075500Y-2084649D01*
X76075500Y-1915350D01*
X76049018Y-1748152D01*
X76013151Y-1637766D01*
X75996705Y-1587151D01*
X75996703Y-1587148D01*
X75996703Y-1587146D01*
X75968546Y-1531886D01*
X75919850Y-1436315D01*
X75877958Y-1378655D01*
X75820351Y-1299365D01*
X75820347Y-1299360D01*
X75700639Y-1179652D01*
X75700634Y-1179648D01*
X75563688Y-1080152D01*
X75563687Y-1080151D01*
X75563685Y-1080150D01*
X75513126Y-1054389D01*
X75412853Y-1003296D01*
X75251847Y-950981D01*
X75084649Y-924500D01*
X75084644Y-924500D01*
X74915356Y-924500D01*
X74915351Y-924500D01*
X74748152Y-950981D01*
X74587146Y-1003296D01*
X74436311Y-1080152D01*
X74299365Y-1179648D01*
X74299360Y-1179652D01*
X74179652Y-1299360D01*
X74179648Y-1299365D01*
X74100318Y-1408554D01*
X74044988Y-1451220D01*
X73975375Y-1457199D01*
X73913580Y-1424593D01*
X73899682Y-1408554D01*
X73820351Y-1299365D01*
X73820347Y-1299360D01*
X73700639Y-1179652D01*
X73700634Y-1179648D01*
X73563688Y-1080152D01*
X73563687Y-1080151D01*
X73563685Y-1080150D01*
X73513126Y-1054389D01*
X73412853Y-1003296D01*
X73251847Y-950981D01*
X73084649Y-924500D01*
X73084644Y-924500D01*
X72915356Y-924500D01*
X72915351Y-924500D01*
X72748152Y-950981D01*
X72632026Y-988714D01*
X72587151Y-1003295D01*
X72587148Y-1003296D01*
X72587143Y-1003298D01*
X72562164Y-1016025D01*
X72493495Y-1028920D01*
X72428755Y-1002642D01*
X72418191Y-993220D01*
X72137152Y-712181D01*
X72103667Y-650858D01*
X72108651Y-581166D01*
X72150523Y-525233D01*
X72215987Y-500816D01*
X72224833Y-500500D01*
X78934108Y-500500D01*
X78993038Y-500500D01*
X79006922Y-501280D01*
X79097266Y-511459D01*
X79124331Y-517636D01*
X79203540Y-545352D01*
X79228553Y-557398D01*
X79299606Y-602043D01*
X79321313Y-619355D01*
X79380644Y-678686D01*
X79397957Y-700395D01*
X79442600Y-771444D01*
X79454648Y-796462D01*
X79482362Y-875666D01*
X79488540Y-902735D01*
X79492537Y-938202D01*
X79497894Y-985751D01*
X79498720Y-993076D01*
X79499500Y-1006961D01*
X79499500Y-38993038D01*
X79498720Y-39006923D01*
X79488540Y-39097264D01*
X79482362Y-39124333D01*
X79454648Y-39203537D01*
X79442600Y-39228555D01*
X79397957Y-39299604D01*
X79380644Y-39321313D01*
X79321313Y-39380644D01*
X79299604Y-39397957D01*
X79228555Y-39442600D01*
X79203537Y-39454648D01*
X79124333Y-39482362D01*
X79097264Y-39488540D01*
X79017075Y-39497576D01*
X79006921Y-39498720D01*
X78993038Y-39499500D01*
X1006977Y-39499500D01*
X993091Y-39498720D01*
X977019Y-39496908D01*
X902742Y-39488538D01*
X875674Y-39482359D01*
X796471Y-39454644D01*
X771453Y-39442596D01*
X700402Y-39397951D01*
X678694Y-39380639D01*
X619360Y-39321305D01*
X602048Y-39299597D01*
X557403Y-39228546D01*
X545355Y-39203528D01*
X517640Y-39124325D01*
X511461Y-39097255D01*
X501280Y-39006908D01*
X500500Y-38993023D01*
X500500Y-28459778D01*
X16219500Y-28459778D01*
X16219500Y-28680221D01*
X16253985Y-28897952D01*
X16322103Y-29107603D01*
X16322104Y-29107606D01*
X16422187Y-29304025D01*
X16551752Y-29482358D01*
X16551756Y-29482363D01*
X16707636Y-29638243D01*
X16707641Y-29638247D01*
X16863192Y-29751260D01*
X16885978Y-29767815D01*
X17014375Y-29833237D01*
X17082393Y-29867895D01*
X17082396Y-29867896D01*
X17187221Y-29901955D01*
X17292049Y-29936015D01*
X17509778Y-29970500D01*
X17509779Y-29970500D01*
X17730221Y-29970500D01*
X17730222Y-29970500D01*
X17947951Y-29936015D01*
X18157606Y-29867895D01*
X18354022Y-29767815D01*
X18532365Y-29638242D01*
X18688242Y-29482365D01*
X18817815Y-29304022D01*
X18917895Y-29107606D01*
X18986015Y-28897951D01*
X19020500Y-28680222D01*
X19020500Y-28459778D01*
X36219500Y-28459778D01*
X36219500Y-28680221D01*
X36253985Y-28897952D01*
X36322103Y-29107603D01*
X36322104Y-29107606D01*
X36422187Y-29304025D01*
X36551752Y-29482358D01*
X36551756Y-29482363D01*
X36707636Y-29638243D01*
X36707641Y-29638247D01*
X36863192Y-29751260D01*
X36885978Y-29767815D01*
X37014375Y-29833237D01*
X37082393Y-29867895D01*
X37082396Y-29867896D01*
X37187221Y-29901955D01*
X37292049Y-29936015D01*
X37509778Y-29970500D01*
X37509779Y-29970500D01*
X37730221Y-29970500D01*
X37730222Y-29970500D01*
X37947951Y-29936015D01*
X38157606Y-29867895D01*
X38354022Y-29767815D01*
X38532365Y-29638242D01*
X38688242Y-29482365D01*
X38817815Y-29304022D01*
X38917895Y-29107606D01*
X38986015Y-28897951D01*
X39020500Y-28680222D01*
X39020500Y-28459778D01*
X56219500Y-28459778D01*
X56219500Y-28680221D01*
X56253985Y-28897952D01*
X56322103Y-29107603D01*
X56322104Y-29107606D01*
X56422187Y-29304025D01*
X56551752Y-29482358D01*
X56551756Y-29482363D01*
X56707636Y-29638243D01*
X56707641Y-29638247D01*
X56863192Y-29751260D01*
X56885978Y-29767815D01*
X57014375Y-29833237D01*
X57082393Y-29867895D01*
X57082396Y-29867896D01*
X57187221Y-29901955D01*
X57292049Y-29936015D01*
X57509778Y-29970500D01*
X57509779Y-29970500D01*
X57730221Y-29970500D01*
X57730222Y-29970500D01*
X57947951Y-29936015D01*
X58157606Y-29867895D01*
X58354022Y-29767815D01*
X58532365Y-29638242D01*
X58688242Y-29482365D01*
X58817815Y-29304022D01*
X58917895Y-29107606D01*
X58986015Y-28897951D01*
X59020500Y-28680222D01*
X59020500Y-28459778D01*
X76219500Y-28459778D01*
X76219500Y-28680221D01*
X76253985Y-28897952D01*
X76322103Y-29107603D01*
X76322104Y-29107606D01*
X76422187Y-29304025D01*
X76551752Y-29482358D01*
X76551756Y-29482363D01*
X76707636Y-29638243D01*
X76707641Y-29638247D01*
X76863192Y-29751260D01*
X76885978Y-29767815D01*
X77014375Y-29833237D01*
X77082393Y-29867895D01*
X77082396Y-29867896D01*
X77187221Y-29901955D01*
X77292049Y-29936015D01*
X77509778Y-29970500D01*
X77509779Y-29970500D01*
X77730221Y-29970500D01*
X77730222Y-29970500D01*
X77947951Y-29936015D01*
X78157606Y-29867895D01*
X78354022Y-29767815D01*
X78532365Y-29638242D01*
X78688242Y-29482365D01*
X78817815Y-29304022D01*
X78917895Y-29107606D01*
X78986015Y-28897951D01*
X79020500Y-28680222D01*
X79020500Y-28459778D01*
X78986015Y-28242049D01*
X78917895Y-28032394D01*
X78917895Y-28032393D01*
X78883237Y-27964375D01*
X78817815Y-27835978D01*
X78801260Y-27813192D01*
X78688247Y-27657641D01*
X78688243Y-27657636D01*
X78532363Y-27501756D01*
X78532358Y-27501752D01*
X78354025Y-27372187D01*
X78354024Y-27372186D01*
X78354022Y-27372185D01*
X78291096Y-27340122D01*
X78157606Y-27272104D01*
X78157603Y-27272103D01*
X77947952Y-27203985D01*
X77839086Y-27186742D01*
X77730222Y-27169500D01*
X77509778Y-27169500D01*
X77437201Y-27180995D01*
X77292047Y-27203985D01*
X77082396Y-27272103D01*
X77082393Y-27272104D01*
X76885974Y-27372187D01*
X76707641Y-27501752D01*
X76707636Y-27501756D01*
X76551756Y-27657636D01*
X76551752Y-27657641D01*
X76422187Y-27835974D01*
X76322104Y-28032393D01*
X76322103Y-28032396D01*
X76253985Y-28242047D01*
X76219500Y-28459778D01*
X59020500Y-28459778D01*
X58986015Y-28242049D01*
X58917895Y-28032394D01*
X58917895Y-28032393D01*
X58883237Y-27964375D01*
X58817815Y-27835978D01*
X58801260Y-27813192D01*
X58688247Y-27657641D01*
X58688243Y-27657636D01*
X58532363Y-27501756D01*
X58532358Y-27501752D01*
X58354025Y-27372187D01*
X58354024Y-27372186D01*
X58354022Y-27372185D01*
X58291096Y-27340122D01*
X58157606Y-27272104D01*
X58157603Y-27272103D01*
X57947952Y-27203985D01*
X57839086Y-27186742D01*
X57730222Y-27169500D01*
X57509778Y-27169500D01*
X57437201Y-27180995D01*
X57292047Y-27203985D01*
X57082396Y-27272103D01*
X57082393Y-27272104D01*
X56885974Y-27372187D01*
X56707641Y-27501752D01*
X56707636Y-27501756D01*
X56551756Y-27657636D01*
X56551752Y-27657641D01*
X56422187Y-27835974D01*
X56322104Y-28032393D01*
X56322103Y-28032396D01*
X56253985Y-28242047D01*
X56219500Y-28459778D01*
X39020500Y-28459778D01*
X38986015Y-28242049D01*
X38917895Y-28032394D01*
X38917895Y-28032393D01*
X38883237Y-27964375D01*
X38817815Y-27835978D01*
X38801260Y-27813192D01*
X38688247Y-27657641D01*
X38688243Y-27657636D01*
X38532363Y-27501756D01*
X38532358Y-27501752D01*
X38354025Y-27372187D01*
X38354024Y-27372186D01*
X38354022Y-27372185D01*
X38291096Y-27340122D01*
X38157606Y-27272104D01*
X38157603Y-27272103D01*
X37947952Y-27203985D01*
X37839086Y-27186742D01*
X37730222Y-27169500D01*
X37509778Y-27169500D01*
X37437201Y-27180995D01*
X37292047Y-27203985D01*
X37082396Y-27272103D01*
X37082393Y-27272104D01*
X36885974Y-27372187D01*
X36707641Y-27501752D01*
X36707636Y-27501756D01*
X36551756Y-27657636D01*
X36551752Y-27657641D01*
X36422187Y-27835974D01*
X36322104Y-28032393D01*
X36322103Y-28032396D01*
X36253985Y-28242047D01*
X36219500Y-28459778D01*
X19020500Y-28459778D01*
X18986015Y-28242049D01*
X18917895Y-28032394D01*
X18917895Y-28032393D01*
X18883237Y-27964375D01*
X18817815Y-27835978D01*
X18801260Y-27813192D01*
X18688247Y-27657641D01*
X18688243Y-27657636D01*
X18532363Y-27501756D01*
X18532358Y-27501752D01*
X18354025Y-27372187D01*
X18354024Y-27372186D01*
X18354022Y-27372185D01*
X18291096Y-27340122D01*
X18157606Y-27272104D01*
X18157603Y-27272103D01*
X17947952Y-27203985D01*
X17839086Y-27186742D01*
X17730222Y-27169500D01*
X17509778Y-27169500D01*
X17437201Y-27180995D01*
X17292047Y-27203985D01*
X17082396Y-27272103D01*
X17082393Y-27272104D01*
X16885974Y-27372187D01*
X16707641Y-27501752D01*
X16707636Y-27501756D01*
X16551756Y-27657636D01*
X16551752Y-27657641D01*
X16422187Y-27835974D01*
X16322104Y-28032393D01*
X16322103Y-28032396D01*
X16253985Y-28242047D01*
X16219500Y-28459778D01*
X500500Y-28459778D01*
X500500Y-22109778D01*
X8599500Y-22109778D01*
X8599500Y-22330221D01*
X8633985Y-22547952D01*
X8702103Y-22757603D01*
X8702104Y-22757606D01*
X8802187Y-22954025D01*
X8931752Y-23132358D01*
X8931756Y-23132363D01*
X9087636Y-23288243D01*
X9087641Y-23288247D01*
X9243192Y-23401260D01*
X9265978Y-23417815D01*
X9394375Y-23483237D01*
X9462393Y-23517895D01*
X9462396Y-23517896D01*
X9567221Y-23551955D01*
X9672049Y-23586015D01*
X9889778Y-23620500D01*
X9889779Y-23620500D01*
X10110221Y-23620500D01*
X10110222Y-23620500D01*
X10327951Y-23586015D01*
X10537606Y-23517895D01*
X10734022Y-23417815D01*
X10912365Y-23288242D01*
X11068242Y-23132365D01*
X11197815Y-22954022D01*
X11297895Y-22757606D01*
X11366015Y-22547951D01*
X11400500Y-22330222D01*
X11400500Y-22109778D01*
X28599500Y-22109778D01*
X28599500Y-22330221D01*
X28633985Y-22547952D01*
X28702103Y-22757603D01*
X28702104Y-22757606D01*
X28802187Y-22954025D01*
X28931752Y-23132358D01*
X28931756Y-23132363D01*
X29087636Y-23288243D01*
X29087641Y-23288247D01*
X29243192Y-23401260D01*
X29265978Y-23417815D01*
X29394375Y-23483237D01*
X29462393Y-23517895D01*
X29462396Y-23517896D01*
X29567221Y-23551955D01*
X29672049Y-23586015D01*
X29889778Y-23620500D01*
X29889779Y-23620500D01*
X30110221Y-23620500D01*
X30110222Y-23620500D01*
X30327951Y-23586015D01*
X30537606Y-23517895D01*
X30734022Y-23417815D01*
X30912365Y-23288242D01*
X31068242Y-23132365D01*
X31197815Y-22954022D01*
X31297895Y-22757606D01*
X31366015Y-22547951D01*
X31400500Y-22330222D01*
X31400500Y-22109778D01*
X48599500Y-22109778D01*
X48599500Y-22330221D01*
X48633985Y-22547952D01*
X48702103Y-22757603D01*
X48702104Y-22757606D01*
X48802187Y-22954025D01*
X48931752Y-23132358D01*
X48931756Y-23132363D01*
X49087636Y-23288243D01*
X49087641Y-23288247D01*
X49243192Y-23401260D01*
X49265978Y-23417815D01*
X49394375Y-23483237D01*
X49462393Y-23517895D01*
X49462396Y-23517896D01*
X49567221Y-23551955D01*
X49672049Y-23586015D01*
X49889778Y-23620500D01*
X49889779Y-23620500D01*
X50110221Y-23620500D01*
X50110222Y-23620500D01*
X50327951Y-23586015D01*
X50537606Y-23517895D01*
X50734022Y-23417815D01*
X50912365Y-23288242D01*
X51068242Y-23132365D01*
X51197815Y-22954022D01*
X51297895Y-22757606D01*
X51366015Y-22547951D01*
X51400500Y-22330222D01*
X51400500Y-22109778D01*
X68599500Y-22109778D01*
X68599500Y-22330221D01*
X68633985Y-22547952D01*
X68702103Y-22757603D01*
X68702104Y-22757606D01*
X68802187Y-22954025D01*
X68931752Y-23132358D01*
X68931756Y-23132363D01*
X69087636Y-23288243D01*
X69087641Y-23288247D01*
X69243192Y-23401260D01*
X69265978Y-23417815D01*
X69394375Y-23483237D01*
X69462393Y-23517895D01*
X69462396Y-23517896D01*
X69567221Y-23551955D01*
X69672049Y-23586015D01*
X69889778Y-23620500D01*
X69889779Y-23620500D01*
X70110221Y-23620500D01*
X70110222Y-23620500D01*
X70327951Y-23586015D01*
X70537606Y-23517895D01*
X70734022Y-23417815D01*
X70912365Y-23288242D01*
X71068242Y-23132365D01*
X71197815Y-22954022D01*
X71297895Y-22757606D01*
X71366015Y-22547951D01*
X71400500Y-22330222D01*
X71400500Y-22109778D01*
X71366015Y-21892049D01*
X71297895Y-21682394D01*
X71297895Y-21682393D01*
X71263237Y-21614375D01*
X71197815Y-21485978D01*
X71181260Y-21463192D01*
X71068247Y-21307641D01*
X71068243Y-21307636D01*
X70912363Y-21151756D01*
X70912358Y-21151752D01*
X70734025Y-21022187D01*
X70734024Y-21022186D01*
X70734022Y-21022185D01*
X70671096Y-20990122D01*
X70537606Y-20922104D01*
X70537603Y-20922103D01*
X70327952Y-20853985D01*
X70219086Y-20836742D01*
X70110222Y-20819500D01*
X69889778Y-20819500D01*
X69817201Y-20830995D01*
X69672047Y-20853985D01*
X69462396Y-20922103D01*
X69462393Y-20922104D01*
X69265974Y-21022187D01*
X69087641Y-21151752D01*
X69087636Y-21151756D01*
X68931756Y-21307636D01*
X68931752Y-21307641D01*
X68802187Y-21485974D01*
X68702104Y-21682393D01*
X68702103Y-21682396D01*
X68633985Y-21892047D01*
X68599500Y-22109778D01*
X51400500Y-22109778D01*
X51366015Y-21892049D01*
X51297895Y-21682394D01*
X51297895Y-21682393D01*
X51263237Y-21614375D01*
X51197815Y-21485978D01*
X51181260Y-21463192D01*
X51068247Y-21307641D01*
X51068243Y-21307636D01*
X50912363Y-21151756D01*
X50912358Y-21151752D01*
X50734025Y-21022187D01*
X50734024Y-21022186D01*
X50734022Y-21022185D01*
X50671096Y-20990122D01*
X50537606Y-20922104D01*
X50537603Y-20922103D01*
X50327952Y-20853985D01*
X50219086Y-20836742D01*
X50110222Y-20819500D01*
X49889778Y-20819500D01*
X49817201Y-20830995D01*
X49672047Y-20853985D01*
X49462396Y-20922103D01*
X49462393Y-20922104D01*
X49265974Y-21022187D01*
X49087641Y-21151752D01*
X49087636Y-21151756D01*
X48931756Y-21307636D01*
X48931752Y-21307641D01*
X48802187Y-21485974D01*
X48702104Y-21682393D01*
X48702103Y-21682396D01*
X48633985Y-21892047D01*
X48599500Y-22109778D01*
X31400500Y-22109778D01*
X31366015Y-21892049D01*
X31297895Y-21682394D01*
X31297895Y-21682393D01*
X31263237Y-21614375D01*
X31197815Y-21485978D01*
X31181260Y-21463192D01*
X31068247Y-21307641D01*
X31068243Y-21307636D01*
X30912363Y-21151756D01*
X30912358Y-21151752D01*
X30734025Y-21022187D01*
X30734024Y-21022186D01*
X30734022Y-21022185D01*
X30671096Y-20990122D01*
X30537606Y-20922104D01*
X30537603Y-20922103D01*
X30327952Y-20853985D01*
X30219086Y-20836742D01*
X30110222Y-20819500D01*
X29889778Y-20819500D01*
X29817201Y-20830995D01*
X29672047Y-20853985D01*
X29462396Y-20922103D01*
X29462393Y-20922104D01*
X29265974Y-21022187D01*
X29087641Y-21151752D01*
X29087636Y-21151756D01*
X28931756Y-21307636D01*
X28931752Y-21307641D01*
X28802187Y-21485974D01*
X28702104Y-21682393D01*
X28702103Y-21682396D01*
X28633985Y-21892047D01*
X28599500Y-22109778D01*
X11400500Y-22109778D01*
X11366015Y-21892049D01*
X11297895Y-21682394D01*
X11297895Y-21682393D01*
X11263237Y-21614375D01*
X11197815Y-21485978D01*
X11181260Y-21463192D01*
X11068247Y-21307641D01*
X11068243Y-21307636D01*
X10912363Y-21151756D01*
X10912358Y-21151752D01*
X10734025Y-21022187D01*
X10734024Y-21022186D01*
X10734022Y-21022185D01*
X10671096Y-20990122D01*
X10537606Y-20922104D01*
X10537603Y-20922103D01*
X10327952Y-20853985D01*
X10219086Y-20836742D01*
X10110222Y-20819500D01*
X9889778Y-20819500D01*
X9817201Y-20830995D01*
X9672047Y-20853985D01*
X9462396Y-20922103D01*
X9462393Y-20922104D01*
X9265974Y-21022187D01*
X9087641Y-21151752D01*
X9087636Y-21151756D01*
X8931756Y-21307636D01*
X8931752Y-21307641D01*
X8802187Y-21485974D01*
X8702104Y-21682393D01*
X8702103Y-21682396D01*
X8633985Y-21892047D01*
X8599500Y-22109778D01*
X500500Y-22109778D01*
X500500Y-18920808D01*
X3519100Y-18920808D01*
X3519100Y-19052592D01*
X3536154Y-19116239D01*
X3553208Y-19179887D01*
X3574403Y-19216597D01*
X3619100Y-19294014D01*
X3712286Y-19387200D01*
X3826414Y-19453092D01*
X3953708Y-19487200D01*
X3953710Y-19487200D01*
X4085490Y-19487200D01*
X4085492Y-19487200D01*
X4212786Y-19453092D01*
X4282040Y-19413108D01*
X19399700Y-19413108D01*
X19399700Y-19544891D01*
X19433808Y-19672187D01*
X19466754Y-19729250D01*
X19499700Y-19786314D01*
X19592886Y-19879500D01*
X19707014Y-19945392D01*
X19834308Y-19979500D01*
X19834310Y-19979500D01*
X19966090Y-19979500D01*
X19966092Y-19979500D01*
X20093386Y-19945392D01*
X20207514Y-19879500D01*
X20300700Y-19786314D01*
X20366592Y-19672186D01*
X20400700Y-19544892D01*
X20400700Y-19413108D01*
X20366592Y-19285814D01*
X20364673Y-19282491D01*
X20326631Y-19216600D01*
X20300700Y-19171686D01*
X20207514Y-19078500D01*
X20150450Y-19045554D01*
X20093387Y-19012608D01*
X20029739Y-18995554D01*
X19966092Y-18978500D01*
X19834308Y-18978500D01*
X19707012Y-19012608D01*
X19592886Y-19078500D01*
X19592883Y-19078502D01*
X19499702Y-19171683D01*
X19499700Y-19171686D01*
X19433808Y-19285812D01*
X19399700Y-19413108D01*
X4282040Y-19413108D01*
X4326914Y-19387200D01*
X4420100Y-19294014D01*
X4485992Y-19179886D01*
X4520100Y-19052592D01*
X4520100Y-18920808D01*
X4485992Y-18793514D01*
X4460989Y-18750208D01*
X29727000Y-18750208D01*
X29727000Y-18881991D01*
X29761108Y-19009287D01*
X29786110Y-19052590D01*
X29827000Y-19123414D01*
X29920186Y-19216600D01*
X30034314Y-19282492D01*
X30161608Y-19316600D01*
X30161610Y-19316600D01*
X30293390Y-19316600D01*
X30293392Y-19316600D01*
X30420686Y-19282492D01*
X30534814Y-19216600D01*
X30628000Y-19123414D01*
X30693892Y-19009286D01*
X30717599Y-18920808D01*
X39519100Y-18920808D01*
X39519100Y-19052592D01*
X39536154Y-19116239D01*
X39553208Y-19179887D01*
X39574403Y-19216597D01*
X39619100Y-19294014D01*
X39712286Y-19387200D01*
X39826414Y-19453092D01*
X39953708Y-19487200D01*
X39953710Y-19487200D01*
X40085490Y-19487200D01*
X40085492Y-19487200D01*
X40212786Y-19453092D01*
X40326914Y-19387200D01*
X40420100Y-19294014D01*
X40485992Y-19179886D01*
X40520100Y-19052592D01*
X40520100Y-18920808D01*
X40485992Y-18793514D01*
X40420100Y-18679386D01*
X40326914Y-18586200D01*
X40269850Y-18553254D01*
X40212787Y-18520308D01*
X40149139Y-18503254D01*
X40085492Y-18486200D01*
X39953708Y-18486200D01*
X39826412Y-18520308D01*
X39712286Y-18586200D01*
X39712283Y-18586202D01*
X39619102Y-18679383D01*
X39619100Y-18679386D01*
X39553208Y-18793512D01*
X39519100Y-18920808D01*
X30717599Y-18920808D01*
X30728000Y-18881992D01*
X30728000Y-18750208D01*
X30693892Y-18622914D01*
X30628000Y-18508786D01*
X30534814Y-18415600D01*
X30465608Y-18375644D01*
X30420687Y-18349708D01*
X30357039Y-18332654D01*
X30293392Y-18315600D01*
X30161608Y-18315600D01*
X30034312Y-18349708D01*
X29920186Y-18415600D01*
X29920183Y-18415602D01*
X29827002Y-18508783D01*
X29827000Y-18508786D01*
X29761108Y-18622912D01*
X29727000Y-18750208D01*
X4460989Y-18750208D01*
X4420100Y-18679386D01*
X4326914Y-18586200D01*
X4269850Y-18553254D01*
X4212787Y-18520308D01*
X4149139Y-18503254D01*
X4085492Y-18486200D01*
X3953708Y-18486200D01*
X3826412Y-18520308D01*
X3712286Y-18586200D01*
X3712283Y-18586202D01*
X3619102Y-18679383D01*
X3619100Y-18679386D01*
X3553208Y-18793512D01*
X3519100Y-18920808D01*
X500500Y-18920808D01*
X500500Y-18311808D01*
X59540500Y-18311808D01*
X59540500Y-18443591D01*
X59574608Y-18570887D01*
X59604645Y-18622912D01*
X59640500Y-18685014D01*
X59733686Y-18778200D01*
X59847814Y-18844092D01*
X59975108Y-18878200D01*
X59975110Y-18878200D01*
X60106890Y-18878200D01*
X60106892Y-18878200D01*
X60234186Y-18844092D01*
X60348314Y-18778200D01*
X60441500Y-18685014D01*
X60507392Y-18570886D01*
X60541500Y-18443592D01*
X60541500Y-18311808D01*
X60507392Y-18184514D01*
X60441500Y-18070386D01*
X60348314Y-17977200D01*
X60291250Y-17944254D01*
X60234187Y-17911308D01*
X60170539Y-17894254D01*
X60106892Y-17877200D01*
X59975108Y-17877200D01*
X59847812Y-17911308D01*
X59733686Y-17977200D01*
X59733683Y-17977202D01*
X59640502Y-18070383D01*
X59640500Y-18070386D01*
X59574608Y-18184512D01*
X59540500Y-18311808D01*
X500500Y-18311808D01*
X500500Y-17265608D01*
X31025000Y-17265608D01*
X31025000Y-17397391D01*
X31059108Y-17524687D01*
X31092054Y-17581750D01*
X31125000Y-17638814D01*
X31218186Y-17732000D01*
X31332314Y-17797892D01*
X31459608Y-17832000D01*
X31459610Y-17832000D01*
X31591390Y-17832000D01*
X31591392Y-17832000D01*
X31718686Y-17797892D01*
X31832814Y-17732000D01*
X31926000Y-17638814D01*
X31991892Y-17524686D01*
X32026000Y-17397392D01*
X32026000Y-17265608D01*
X31991892Y-17138314D01*
X31926000Y-17024186D01*
X31832814Y-16931000D01*
X31722684Y-16867416D01*
X31718687Y-16865108D01*
X31655039Y-16848054D01*
X31591392Y-16831000D01*
X31459608Y-16831000D01*
X31332312Y-16865108D01*
X31218186Y-16931000D01*
X31218183Y-16931002D01*
X31125002Y-17024183D01*
X31125000Y-17024186D01*
X31059108Y-17138312D01*
X31025000Y-17265608D01*
X500500Y-17265608D01*
X500500Y-15094508D01*
X3399700Y-15094508D01*
X3399700Y-15226292D01*
X3412157Y-15272781D01*
X3433808Y-15353587D01*
X3442587Y-15368792D01*
X3499700Y-15467714D01*
X3592886Y-15560900D01*
X3678300Y-15610214D01*
X3706175Y-15626308D01*
X3707014Y-15626792D01*
X3834308Y-15660900D01*
X3834310Y-15660900D01*
X3966090Y-15660900D01*
X3966092Y-15660900D01*
X4093386Y-15626792D01*
X4207514Y-15560900D01*
X4300700Y-15467714D01*
X4366592Y-15353586D01*
X4400700Y-15226292D01*
X4400700Y-15094508D01*
X4366592Y-14967214D01*
X4300700Y-14853086D01*
X4207514Y-14759900D01*
X4110693Y-14704000D01*
X4093387Y-14694008D01*
X4029739Y-14676954D01*
X3966092Y-14659900D01*
X3834308Y-14659900D01*
X3707012Y-14694008D01*
X3592886Y-14759900D01*
X3592883Y-14759902D01*
X3499702Y-14853083D01*
X3499700Y-14853086D01*
X3433808Y-14967212D01*
X3410872Y-15052812D01*
X3399700Y-15094508D01*
X500500Y-15094508D01*
X500500Y-12103308D01*
X7704800Y-12103308D01*
X7704800Y-12235092D01*
X7736640Y-12353919D01*
X7738908Y-12362385D01*
X7738907Y-12362385D01*
X7748511Y-12379019D01*
X7804800Y-12476514D01*
X7897986Y-12569700D01*
X8012114Y-12635592D01*
X8139408Y-12669700D01*
X8139410Y-12669700D01*
X8271190Y-12669700D01*
X8271192Y-12669700D01*
X8398486Y-12635592D01*
X8512614Y-12569700D01*
X8605800Y-12476514D01*
X8671692Y-12362386D01*
X8705800Y-12235092D01*
X8705800Y-12103308D01*
X8671692Y-11976014D01*
X8605800Y-11861886D01*
X8512614Y-11768700D01*
X8440940Y-11727319D01*
X8398487Y-11702808D01*
X8288740Y-11673402D01*
X8271192Y-11668700D01*
X8139408Y-11668700D01*
X8012112Y-11702808D01*
X7897986Y-11768700D01*
X7897983Y-11768702D01*
X7804802Y-11861883D01*
X7804800Y-11861886D01*
X7738908Y-11976012D01*
X7716863Y-12058286D01*
X7704800Y-12103308D01*
X500500Y-12103308D01*
X500500Y-8675508D01*
X15655200Y-8675508D01*
X15655200Y-8807291D01*
X15689308Y-8934587D01*
X15691736Y-8938792D01*
X15755200Y-9048714D01*
X15848386Y-9141900D01*
X15962514Y-9207792D01*
X16089808Y-9241900D01*
X16089810Y-9241900D01*
X16221590Y-9241900D01*
X16221592Y-9241900D01*
X16348886Y-9207792D01*
X16463014Y-9141900D01*
X16556200Y-9048714D01*
X16622092Y-8934586D01*
X16656200Y-8807292D01*
X16656200Y-8675508D01*
X16622092Y-8548214D01*
X16556200Y-8434086D01*
X16463014Y-8340900D01*
X16404845Y-8307316D01*
X16348887Y-8275008D01*
X16285239Y-8257954D01*
X16221592Y-8240900D01*
X16089808Y-8240900D01*
X15962512Y-8275008D01*
X15848386Y-8340900D01*
X15848383Y-8340902D01*
X15755202Y-8434083D01*
X15755200Y-8434086D01*
X15689308Y-8548212D01*
X15655200Y-8675508D01*
X500500Y-8675508D01*
X500500Y-7003108D01*
X4058400Y-7003108D01*
X4058400Y-7134892D01*
X4060791Y-7143814D01*
X4092508Y-7262187D01*
X4118562Y-7307313D01*
X4158400Y-7376314D01*
X4251586Y-7469500D01*
X4365714Y-7535392D01*
X4493008Y-7569500D01*
X4493010Y-7569500D01*
X4624790Y-7569500D01*
X4624792Y-7569500D01*
X4752086Y-7535392D01*
X4866214Y-7469500D01*
X4959400Y-7376314D01*
X5025292Y-7262186D01*
X5059400Y-7134892D01*
X5059400Y-7003108D01*
X5025292Y-6875814D01*
X4959400Y-6761686D01*
X4866214Y-6668500D01*
X4775469Y-6616108D01*
X4752087Y-6602608D01*
X4675175Y-6582000D01*
X4624792Y-6568500D01*
X4493008Y-6568500D01*
X4365712Y-6602608D01*
X4251586Y-6668500D01*
X4251583Y-6668502D01*
X4158402Y-6761683D01*
X4158400Y-6761686D01*
X4092508Y-6875812D01*
X4058400Y-7003108D01*
X500500Y-7003108D01*
X500500Y-5005508D01*
X14496300Y-5005508D01*
X14496300Y-5137291D01*
X14530408Y-5264587D01*
X14554376Y-5306100D01*
X14596300Y-5378714D01*
X14689486Y-5471900D01*
X14783742Y-5526319D01*
X14800241Y-5535845D01*
X14803614Y-5537792D01*
X14930908Y-5571900D01*
X14930910Y-5571900D01*
X15062690Y-5571900D01*
X15062692Y-5571900D01*
X15189986Y-5537792D01*
X15304114Y-5471900D01*
X15397300Y-5378714D01*
X15433080Y-5316740D01*
X15483645Y-5268527D01*
X15552252Y-5255303D01*
X15617117Y-5281271D01*
X15628147Y-5291061D01*
X15698586Y-5361500D01*
X15812714Y-5427392D01*
X15940008Y-5461500D01*
X15940010Y-5461500D01*
X16071790Y-5461500D01*
X16071792Y-5461500D01*
X16199086Y-5427392D01*
X16313214Y-5361500D01*
X16376895Y-5297819D01*
X16438218Y-5264334D01*
X16464576Y-5261500D01*
X19880464Y-5261500D01*
X19947503Y-5281185D01*
X19993258Y-5333989D01*
X20000144Y-5381881D01*
X20005548Y-5336688D01*
X20050033Y-5282810D01*
X20116585Y-5261535D01*
X20119536Y-5261500D01*
X21665360Y-5261500D01*
X21665362Y-5261500D01*
X21741789Y-5241021D01*
X21810311Y-5201460D01*
X21866260Y-5145511D01*
X22525751Y-4486018D01*
X22587074Y-4452534D01*
X22613432Y-4449700D01*
X22703490Y-4449700D01*
X22703492Y-4449700D01*
X22830786Y-4415592D01*
X22944914Y-4349700D01*
X23038100Y-4256514D01*
X23103992Y-4142386D01*
X23138100Y-4015092D01*
X23138100Y-3883308D01*
X23103992Y-3756014D01*
X23096270Y-3742640D01*
X23086073Y-3724977D01*
X23038100Y-3641886D01*
X22944914Y-3548700D01*
X22865081Y-3502608D01*
X22830787Y-3482808D01*
X22767139Y-3465754D01*
X22703492Y-3448700D01*
X22571708Y-3448700D01*
X22444412Y-3482808D01*
X22330286Y-3548700D01*
X22330283Y-3548702D01*
X22237102Y-3641883D01*
X22237100Y-3641886D01*
X22171208Y-3756012D01*
X22137100Y-3883308D01*
X22137100Y-3973366D01*
X22117415Y-4040405D01*
X22100781Y-4061047D01*
X21537648Y-4624181D01*
X21476325Y-4657666D01*
X21449967Y-4660500D01*
X16464576Y-4660500D01*
X16397537Y-4640815D01*
X16376895Y-4624181D01*
X16313216Y-4560502D01*
X16313214Y-4560500D01*
X16223825Y-4508891D01*
X16199087Y-4494608D01*
X16110232Y-4470800D01*
X16071792Y-4460500D01*
X15940008Y-4460500D01*
X15812712Y-4494608D01*
X15698586Y-4560500D01*
X15698583Y-4560502D01*
X15605402Y-4653683D01*
X15605396Y-4653692D01*
X15569619Y-4715658D01*
X15519052Y-4763873D01*
X15450445Y-4777095D01*
X15385580Y-4751127D01*
X15374552Y-4741338D01*
X15304116Y-4670902D01*
X15304114Y-4670900D01*
X15223195Y-4624181D01*
X15189987Y-4605008D01*
X15126339Y-4587954D01*
X15062692Y-4570900D01*
X14930908Y-4570900D01*
X14803612Y-4605008D01*
X14689486Y-4670900D01*
X14689483Y-4670902D01*
X14596302Y-4764083D01*
X14596300Y-4764086D01*
X14530408Y-4878212D01*
X14496300Y-5005508D01*
X500500Y-5005508D01*
X500500Y-3502608D01*
X4326300Y-3502608D01*
X4326300Y-3634391D01*
X4360408Y-3761687D01*
X4377854Y-3791904D01*
X4426300Y-3875814D01*
X4519486Y-3969000D01*
X4612483Y-4022692D01*
X4629247Y-4032371D01*
X4633614Y-4034892D01*
X4760908Y-4069000D01*
X4760910Y-4069000D01*
X4892690Y-4069000D01*
X4892692Y-4069000D01*
X5019986Y-4034892D01*
X5134114Y-3969000D01*
X5227300Y-3875814D01*
X5293192Y-3761686D01*
X5327300Y-3634392D01*
X5327300Y-3502608D01*
X5293192Y-3375314D01*
X5227300Y-3261186D01*
X5134114Y-3168000D01*
X5069533Y-3130714D01*
X5019987Y-3102108D01*
X4938705Y-3080329D01*
X4892692Y-3068000D01*
X4760908Y-3068000D01*
X4633612Y-3102108D01*
X4519486Y-3168000D01*
X4519483Y-3168002D01*
X4426302Y-3261183D01*
X4426300Y-3261186D01*
X4360408Y-3375312D01*
X4326300Y-3502608D01*
X500500Y-3502608D01*
X500500Y-1006976D01*
X501280Y-993091D01*
X507398Y-938800D01*
X511461Y-902739D01*
X517640Y-875674D01*
X525649Y-852787D01*
X545359Y-796462D01*
X557399Y-771459D01*
X602052Y-700396D01*
X619356Y-678698D01*
X678700Y-619355D01*
X700396Y-602052D01*
X771459Y-557399D01*
X796466Y-545356D01*
X875677Y-517639D01*
X902739Y-511461D01*
X970274Y-503851D01*
X993092Y-501280D01*
X1006977Y-500500D01*
X13263313Y-500500D01*
X13330352Y-520185D01*
G37*
%TD.AperFunction*%
%TA.AperFunction,Conductor*%
G36*
X23964706Y-9277085D02*
G01*
X23985348Y-9293719D01*
X24421489Y-9729860D01*
X24480829Y-9764120D01*
X24490008Y-9769420D01*
X24490012Y-9769422D01*
X24566438Y-9789900D01*
X24566440Y-9789900D01*
X26368239Y-9789900D01*
X26435278Y-9809585D01*
X26481033Y-9862389D01*
X26490977Y-9931547D01*
X26461952Y-9995103D01*
X26430240Y-10021287D01*
X26356086Y-10064100D01*
X26356083Y-10064102D01*
X26262902Y-10157283D01*
X26262900Y-10157286D01*
X26197008Y-10271412D01*
X26162900Y-10398708D01*
X26162900Y-10530491D01*
X26197008Y-10657787D01*
X26229954Y-10714850D01*
X26262900Y-10771914D01*
X26262902Y-10771916D01*
X26356086Y-10865100D01*
X26359379Y-10867627D01*
X26361451Y-10870465D01*
X26361833Y-10870847D01*
X26361773Y-10870906D01*
X26400580Y-10924056D01*
X26404732Y-10993802D01*
X26370518Y-11054721D01*
X26308799Y-11087472D01*
X26283889Y-11090000D01*
X25332233Y-11090000D01*
X25265194Y-11070315D01*
X25244552Y-11053681D01*
X24510612Y-10319741D01*
X24510611Y-10319740D01*
X24478512Y-10301208D01*
X24478512Y-10301207D01*
X24478508Y-10301206D01*
X24465800Y-10293869D01*
X24442090Y-10280179D01*
X24442091Y-10280179D01*
X24403875Y-10269939D01*
X24365662Y-10259700D01*
X20140638Y-10259700D01*
X20100027Y-10270582D01*
X20064210Y-10280179D01*
X20035486Y-10296763D01*
X20027792Y-10301206D01*
X20027790Y-10301207D01*
X20027788Y-10301208D01*
X19995690Y-10319739D01*
X19995687Y-10319741D01*
X19211081Y-11104348D01*
X19149758Y-11137833D01*
X19080066Y-11132849D01*
X19024133Y-11090977D01*
X18999716Y-11025513D01*
X18999400Y-11016667D01*
X18999400Y-10989010D01*
X18999400Y-10989008D01*
X18965292Y-10861714D01*
X18899400Y-10747586D01*
X18806214Y-10654400D01*
X18749150Y-10621454D01*
X18692087Y-10588508D01*
X18628439Y-10571454D01*
X18564792Y-10554400D01*
X18433008Y-10554400D01*
X18305712Y-10588508D01*
X18191586Y-10654400D01*
X18191583Y-10654402D01*
X18098402Y-10747583D01*
X18098400Y-10747586D01*
X18032508Y-10861712D01*
X18011802Y-10938989D01*
X17998400Y-10989008D01*
X17998400Y-11120792D01*
X18011075Y-11168097D01*
X18032508Y-11248087D01*
X18044063Y-11268100D01*
X18098400Y-11362214D01*
X18191586Y-11455400D01*
X18305714Y-11521292D01*
X18336816Y-11529625D01*
X18396476Y-11565990D01*
X18427005Y-11628837D01*
X18418710Y-11698212D01*
X18374225Y-11752090D01*
X18307673Y-11773365D01*
X18304722Y-11773400D01*
X16871576Y-11773400D01*
X16804537Y-11753715D01*
X16783895Y-11737081D01*
X16720216Y-11673402D01*
X16720214Y-11673400D01*
X16639674Y-11626900D01*
X16606087Y-11607508D01*
X16542439Y-11590454D01*
X16478792Y-11573400D01*
X16347008Y-11573400D01*
X16219712Y-11607508D01*
X16105586Y-11673400D01*
X16105583Y-11673402D01*
X16017131Y-11761855D01*
X15955808Y-11795340D01*
X15886116Y-11790356D01*
X15858802Y-11776080D01*
X15849647Y-11769733D01*
X15806814Y-11726900D01*
X15693471Y-11661461D01*
X15689253Y-11658537D01*
X15670401Y-11635177D01*
X15649685Y-11613450D01*
X15648686Y-11608270D01*
X15645373Y-11604164D01*
X15642142Y-11574315D01*
X15636463Y-11544843D01*
X15638423Y-11539945D01*
X15637856Y-11534700D01*
X15651274Y-11507846D01*
X15662431Y-11479979D01*
X15668765Y-11472841D01*
X15669087Y-11472199D01*
X15669614Y-11471885D01*
X15672212Y-11468958D01*
X17847452Y-9293719D01*
X17908775Y-9260234D01*
X17935133Y-9257400D01*
X23897667Y-9257400D01*
X23964706Y-9277085D01*
G37*
%TD.AperFunction*%
%TD*%
M02*
