M48
; DRILL file {KiCad 9.0.7} date 2026-03-02T12:53:21+0900
; FORMAT={-:-/ absolute / metric / decimal}
; #@! TF.CreationDate,2026-03-02T12:53:21+09:00
; #@! TF.GenerationSoftware,Kicad,Pcbnew,9.0.7
; #@! TF.FileFunction,MixedPlating,1,4
FMAT,2
METRIC
; #@! TA.AperFunction,Plated,PTH,ViaDrill
T1C0.300
; #@! TA.AperFunction,Plated,PTH,ComponentDrill
T2C0.300
; #@! TA.AperFunction,Plated,PTH,ComponentDrill
T3C0.800
; #@! TA.AperFunction,Plated,PTH,ComponentDrill
T4C1.300
%
G90
G05
T1
X0.958Y-1.228
X3.9Y-15.16
X4.02Y-18.987
X4.559Y-7.069
X4.827Y-3.568
X4.946Y-1.037
X6.885Y-15.81
X8.205Y-12.169
X9.975Y-2.083
X12.765Y-6.005
X13.841Y-0.872
X14.274Y-12.442
X14.997Y-5.071
X15.499Y-12.127
X15.841Y-0.872
X16.0Y-14.824
X16.0Y-15.692
X16.006Y-4.961
X16.018Y-3.047
X16.156Y-8.741
X16.2Y-16.56
X16.413Y-12.074
X18.103Y-1.866
X18.436Y-3.308
X18.499Y-11.055
X19.017Y-1.339
X19.358Y-12.863
X19.883Y-1.339
X19.888Y-3.31
X19.9Y-15.303
X19.9Y-19.479
X22.638Y-3.949
X22.769Y-9.586
X22.802Y-0.718
X22.857Y-15.204
X23.991Y-11.191
X24.102Y-0.625
X24.535Y-3.424
X25.418Y-4.042
X25.613Y-0.625
X26.663Y-10.465
X26.849Y-14.039
X27.007Y-7.807
X27.482Y-0.66
X28.12Y-7.082
X28.197Y-12.042
X28.582Y-0.681
X29.102Y-13.0
X30.177Y-14.944
X30.227Y-18.816
X31.33Y-6.837
X31.525Y-17.331
X34.398Y-15.692
X39.9Y-15.303
X40.02Y-18.987
X40.197Y-1.889
X43.253Y-15.692
X43.853Y-2.201
X45.203Y-14.924
X49.653Y-12.999
X50.075Y-16.46
X51.882Y-6.896
X54.058Y-3.934
X54.232Y-15.125
X54.489Y-7.514
X54.843Y-11.865
X55.604Y-8.873
X55.799Y-7.356
X56.95Y-11.168
X57.84Y-1.352
X59.66Y-10.768
X59.861Y-3.324
X60.011Y-15.246
X60.041Y-18.378
X60.479Y-12.821
X61.22Y-3.109
X64.056Y-10.443
X65.844Y-5.045
X67.087Y-8.793
X67.23Y-6.947
X69.06Y-15.864
X69.762Y-13.545
X71.0Y-8.307
X71.52Y-12.999
X71.769Y-10.841
X75.645Y-15.692
X76.502Y-4.971
X78.596Y-4.906
T2
X19.0Y-6.0
X19.0Y-7.0
X19.0Y-8.0
X20.0Y-6.0
X20.0Y-7.0
X20.0Y-8.0
X21.0Y-6.0
X21.0Y-7.0
X21.0Y-8.0
X59.0Y-6.0
X59.0Y-7.0
X59.0Y-8.0
X60.0Y-6.0
X60.0Y-7.0
X60.0Y-8.0
X61.0Y-6.0
X61.0Y-7.0
X61.0Y-8.0
T3
X65.0Y-2.0
X67.0Y-2.0
X69.0Y-2.0
X71.0Y-2.0
X73.0Y-2.0
X75.0Y-2.0
T4
X10.0Y-22.22
X17.62Y-28.57
X30.0Y-22.22
X37.62Y-28.57
X50.0Y-22.22
X57.62Y-28.57
X70.0Y-22.22
X77.62Y-28.57
M30
