%TF.GenerationSoftware,KiCad,Pcbnew,9.0.7*%
%TF.CreationDate,2026-03-02T02:23:24+09:00*%
%TF.ProjectId,mixtee-daughter-output,6d697874-6565-42d6-9461-756768746572,rev?*%
%TF.SameCoordinates,Original*%
%TF.FileFunction,Copper,L1,Top*%
%TF.FilePolarity,Positive*%
%FSLAX46Y46*%
G04 Gerber Fmt 4.6, Leading zero omitted, Abs format (unit mm)*
G04 Created by KiCad (PCBNEW 9.0.7) date 2026-03-02 02:23:24*
%MOMM*%
%LPD*%
G01*
G04 APERTURE LIST*
G04 Aperture macros list*
%AMRoundRect*
0 Rectangle with rounded corners*
0 $1 Rounding radius*
0 $2 $3 $4 $5 $6 $7 $8 $9 X,Y pos of 4 corners*
0 Add a 4 corners polygon primitive as box body*
4,1,4,$2,$3,$4,$5,$6,$7,$8,$9,$2,$3,0*
0 Add four circle primitives for the rounded corners*
1,1,$1+$1,$2,$3*
1,1,$1+$1,$4,$5*
1,1,$1+$1,$6,$7*
1,1,$1+$1,$8,$9*
0 Add four rect primitives between the rounded corners*
20,1,$1+$1,$2,$3,$4,$5,0*
20,1,$1+$1,$4,$5,$6,$7,0*
20,1,$1+$1,$6,$7,$8,$9,0*
20,1,$1+$1,$8,$9,$2,$3,0*%
G04 Aperture macros list end*
%TA.AperFunction,SMDPad,CuDef*%
%ADD10RoundRect,0.150000X-0.350000X-0.150000X0.350000X-0.150000X0.350000X0.150000X-0.350000X0.150000X0*%
%TD*%
%TA.AperFunction,ComponentPad*%
%ADD11C,2.400000*%
%TD*%
%TA.AperFunction,SMDPad,CuDef*%
%ADD12RoundRect,0.225000X-0.225000X-0.275000X0.225000X-0.275000X0.225000X0.275000X-0.225000X0.275000X0*%
%TD*%
%TA.AperFunction,ComponentPad*%
%ADD13C,1.750000*%
%TD*%
%TA.AperFunction,ViaPad*%
%ADD14C,0.600000*%
%TD*%
%TA.AperFunction,Conductor*%
%ADD15C,0.500000*%
%TD*%
%TA.AperFunction,Conductor*%
%ADD16C,0.300000*%
%TD*%
%TA.AperFunction,Conductor*%
%ADD17C,0.250000*%
%TD*%
G04 APERTURE END LIST*
D10*
%TO.P,D4,1*%
%TO.N,+5VA*%
X70900000Y-5500000D03*
%TO.P,D4,2*%
%TO.N,AIN4*%
X73100000Y-5500000D03*
%TD*%
%TO.P,D3,1*%
%TO.N,+5VA*%
X50900000Y-5500000D03*
%TO.P,D3,2*%
%TO.N,AIN3*%
X53100000Y-5500000D03*
%TD*%
D11*
%TO.P,J1,S*%
%TO.N,GND*%
X17620000Y-8570000D03*
%TO.P,J1,T*%
%TO.N,AIN1*%
X10000000Y-2220000D03*
%TD*%
D10*
%TO.P,D1,1*%
%TO.N,+5VA*%
X10900000Y-5500000D03*
%TO.P,D1,2*%
%TO.N,AIN1*%
X13100000Y-5500000D03*
%TD*%
D12*
%TO.P,C1,1*%
%TO.N,+5VA*%
X24200000Y-4000000D03*
%TO.P,C1,2*%
%TO.N,GND*%
X25800000Y-4000000D03*
%TD*%
D11*
%TO.P,J4,S*%
%TO.N,GND*%
X77620000Y-8570000D03*
%TO.P,J4,T*%
%TO.N,AIN4*%
X70000000Y-2220000D03*
%TD*%
D13*
%TO.P,J5,1*%
%TO.N,AIN1*%
X35000000Y-1500000D03*
%TO.P,J5,2*%
%TO.N,AIN2*%
X37000000Y-1500000D03*
%TO.P,J5,3*%
%TO.N,AIN3*%
X39000000Y-1500000D03*
%TO.P,J5,4*%
%TO.N,AIN4*%
X41000000Y-1500000D03*
%TO.P,J5,5*%
%TO.N,+5VA*%
X43000000Y-1500000D03*
%TO.P,J5,6*%
%TO.N,GND*%
X45000000Y-1500000D03*
%TD*%
D11*
%TO.P,J3,S*%
%TO.N,GND*%
X57620000Y-8570000D03*
%TO.P,J3,T*%
%TO.N,AIN3*%
X50000000Y-2220000D03*
%TD*%
%TO.P,J2,S*%
%TO.N,GND*%
X37620000Y-8570000D03*
%TO.P,J2,T*%
%TO.N,AIN2*%
X30000000Y-2220000D03*
%TD*%
D10*
%TO.P,D2,1*%
%TO.N,+5VA*%
X30900000Y-5500000D03*
%TO.P,D2,2*%
%TO.N,AIN2*%
X33100000Y-5500000D03*
%TD*%
D14*
%TO.N,AIN1*%
X14033800Y-4818000D03*
%TO.N,AIN2*%
X33114400Y-4618300D03*
%TO.N,AIN3*%
X51556200Y-6852900D03*
%TO.N,AIN4*%
X43829600Y-3312100D03*
%TO.N,GND*%
X27989000Y-4307400D03*
%TD*%
D15*
%TO.N,+5VA*%
X24200000Y-4000000D02*
X25700000Y-5500000D01*
X43000000Y-3787200D02*
X43000000Y-1500000D01*
X70067200Y-4667200D02*
X51732800Y-4667200D01*
X44712800Y-5500000D02*
X50900000Y-5500000D01*
X32612800Y-3787200D02*
X30900000Y-5500000D01*
X43000000Y-3787200D02*
X32612800Y-3787200D01*
X25700000Y-5500000D02*
X30900000Y-5500000D01*
X12400000Y-4000000D02*
X24200000Y-4000000D01*
X43000000Y-3787200D02*
X44712800Y-5500000D01*
X10900000Y-5500000D02*
X12400000Y-4000000D01*
X70900000Y-5500000D02*
X70067200Y-4667200D01*
X51732800Y-4667200D02*
X50900000Y-5500000D01*
D16*
%TO.N,AIN1*%
X28562400Y-3857600D02*
X26924800Y-2220000D01*
X35000000Y-1500000D02*
X33007300Y-1500000D01*
X30649700Y-3857600D02*
X28562400Y-3857600D01*
X14033800Y-4818000D02*
X13351800Y-5500000D01*
X13351800Y-5500000D02*
X13100000Y-5500000D01*
X26924800Y-2220000D02*
X10000000Y-2220000D01*
X33007300Y-1500000D02*
X30649700Y-3857600D01*
%TO.N,AIN2*%
X33100000Y-4632700D02*
X33100000Y-5500000D01*
X33114400Y-4618300D02*
X33100000Y-4632700D01*
%TO.N,AIN3*%
X51747100Y-6852900D02*
X51556200Y-6852900D01*
X53100000Y-5500000D02*
X51747100Y-6852900D01*
%TO.N,AIN4*%
X70000000Y-2220000D02*
X68350200Y-3869800D01*
X70000000Y-2220000D02*
X73100000Y-5320000D01*
X73100000Y-5320000D02*
X73100000Y-5500000D01*
X68350200Y-3869800D02*
X44387300Y-3869800D01*
X44387300Y-3869800D02*
X43829600Y-3312100D01*
D17*
%TO.N,GND*%
X26107400Y-4307400D02*
X25800000Y-4000000D01*
X27989000Y-4307400D02*
X26107400Y-4307400D01*
%TD*%
M02*
