%TF.GenerationSoftware,KiCad,Pcbnew,9.0.7*%
%TF.CreationDate,2026-03-02T02:23:24+09:00*%
%TF.ProjectId,mixtee-daughter-output,6d697874-6565-42d6-9461-756768746572,rev?*%
%TF.SameCoordinates,Original*%
%TF.FileFunction,Legend,Top*%
%TF.FilePolarity,Positive*%
%FSLAX46Y46*%
G04 Gerber Fmt 4.6, Leading zero omitted, Abs format (unit mm)*
G04 Created by KiCad (PCBNEW 9.0.7) date 2026-03-02 02:23:24*
%MOMM*%
%LPD*%
G01*
G04 APERTURE LIST*
G04 Aperture macros list*
%AMRoundRect*
0 Rectangle with rounded corners*
0 $1 Rounding radius*
0 $2 $3 $4 $5 $6 $7 $8 $9 X,Y pos of 4 corners*
0 Add a 4 corners polygon primitive as box body*
4,1,4,$2,$3,$4,$5,$6,$7,$8,$9,$2,$3,0*
0 Add four circle primitives for the rounded corners*
1,1,$1+$1,$2,$3*
1,1,$1+$1,$4,$5*
1,1,$1+$1,$6,$7*
1,1,$1+$1,$8,$9*
0 Add four rect primitives between the rounded corners*
20,1,$1+$1,$2,$3,$4,$5,0*
20,1,$1+$1,$4,$5,$6,$7,0*
20,1,$1+$1,$6,$7,$8,$9,0*
20,1,$1+$1,$8,$9,$2,$3,0*%
G04 Aperture macros list end*
%ADD10C,0.150000*%
%ADD11C,0.120000*%
%ADD12RoundRect,0.150000X-0.350000X-0.150000X0.350000X-0.150000X0.350000X0.150000X-0.350000X0.150000X0*%
%ADD13C,2.400000*%
%ADD14RoundRect,0.225000X-0.225000X-0.275000X0.225000X-0.275000X0.225000X0.275000X-0.225000X0.275000X0*%
%ADD15C,1.750000*%
G04 APERTURE END LIST*
D10*
X26464284Y-19186128D02*
X26464284Y-17686128D01*
X26464284Y-17686128D02*
X26964284Y-18757557D01*
X26964284Y-18757557D02*
X27464284Y-17686128D01*
X27464284Y-17686128D02*
X27464284Y-19186128D01*
X28178570Y-19186128D02*
X28178570Y-17686128D01*
X28749999Y-17686128D02*
X29749999Y-19186128D01*
X29749999Y-17686128D02*
X28749999Y-19186128D01*
X30107142Y-17686128D02*
X30964285Y-17686128D01*
X30535713Y-19186128D02*
X30535713Y-17686128D01*
X31464284Y-18400414D02*
X31964284Y-18400414D01*
X32178570Y-19186128D02*
X31464284Y-19186128D01*
X31464284Y-19186128D02*
X31464284Y-17686128D01*
X31464284Y-17686128D02*
X32178570Y-17686128D01*
X32821427Y-18400414D02*
X33321427Y-18400414D01*
X33535713Y-19186128D02*
X32821427Y-19186128D01*
X32821427Y-19186128D02*
X32821427Y-17686128D01*
X32821427Y-17686128D02*
X33535713Y-17686128D01*
X35321427Y-19186128D02*
X35321427Y-17686128D01*
X35321427Y-17686128D02*
X35678570Y-17686128D01*
X35678570Y-17686128D02*
X35892856Y-17757557D01*
X35892856Y-17757557D02*
X36035713Y-17900414D01*
X36035713Y-17900414D02*
X36107142Y-18043271D01*
X36107142Y-18043271D02*
X36178570Y-18328985D01*
X36178570Y-18328985D02*
X36178570Y-18543271D01*
X36178570Y-18543271D02*
X36107142Y-18828985D01*
X36107142Y-18828985D02*
X36035713Y-18971842D01*
X36035713Y-18971842D02*
X35892856Y-19114700D01*
X35892856Y-19114700D02*
X35678570Y-19186128D01*
X35678570Y-19186128D02*
X35321427Y-19186128D01*
X37464285Y-19186128D02*
X37464285Y-18400414D01*
X37464285Y-18400414D02*
X37392856Y-18257557D01*
X37392856Y-18257557D02*
X37249999Y-18186128D01*
X37249999Y-18186128D02*
X36964285Y-18186128D01*
X36964285Y-18186128D02*
X36821427Y-18257557D01*
X37464285Y-19114700D02*
X37321427Y-19186128D01*
X37321427Y-19186128D02*
X36964285Y-19186128D01*
X36964285Y-19186128D02*
X36821427Y-19114700D01*
X36821427Y-19114700D02*
X36749999Y-18971842D01*
X36749999Y-18971842D02*
X36749999Y-18828985D01*
X36749999Y-18828985D02*
X36821427Y-18686128D01*
X36821427Y-18686128D02*
X36964285Y-18614700D01*
X36964285Y-18614700D02*
X37321427Y-18614700D01*
X37321427Y-18614700D02*
X37464285Y-18543271D01*
X38821428Y-18186128D02*
X38821428Y-19186128D01*
X38178570Y-18186128D02*
X38178570Y-18971842D01*
X38178570Y-18971842D02*
X38249999Y-19114700D01*
X38249999Y-19114700D02*
X38392856Y-19186128D01*
X38392856Y-19186128D02*
X38607142Y-19186128D01*
X38607142Y-19186128D02*
X38749999Y-19114700D01*
X38749999Y-19114700D02*
X38821428Y-19043271D01*
X40178571Y-18186128D02*
X40178571Y-19400414D01*
X40178571Y-19400414D02*
X40107142Y-19543271D01*
X40107142Y-19543271D02*
X40035713Y-19614700D01*
X40035713Y-19614700D02*
X39892856Y-19686128D01*
X39892856Y-19686128D02*
X39678571Y-19686128D01*
X39678571Y-19686128D02*
X39535713Y-19614700D01*
X40178571Y-19114700D02*
X40035713Y-19186128D01*
X40035713Y-19186128D02*
X39749999Y-19186128D01*
X39749999Y-19186128D02*
X39607142Y-19114700D01*
X39607142Y-19114700D02*
X39535713Y-19043271D01*
X39535713Y-19043271D02*
X39464285Y-18900414D01*
X39464285Y-18900414D02*
X39464285Y-18471842D01*
X39464285Y-18471842D02*
X39535713Y-18328985D01*
X39535713Y-18328985D02*
X39607142Y-18257557D01*
X39607142Y-18257557D02*
X39749999Y-18186128D01*
X39749999Y-18186128D02*
X40035713Y-18186128D01*
X40035713Y-18186128D02*
X40178571Y-18257557D01*
X40892856Y-19186128D02*
X40892856Y-17686128D01*
X41535714Y-19186128D02*
X41535714Y-18400414D01*
X41535714Y-18400414D02*
X41464285Y-18257557D01*
X41464285Y-18257557D02*
X41321428Y-18186128D01*
X41321428Y-18186128D02*
X41107142Y-18186128D01*
X41107142Y-18186128D02*
X40964285Y-18257557D01*
X40964285Y-18257557D02*
X40892856Y-18328985D01*
X42035714Y-18186128D02*
X42607142Y-18186128D01*
X42249999Y-17686128D02*
X42249999Y-18971842D01*
X42249999Y-18971842D02*
X42321428Y-19114700D01*
X42321428Y-19114700D02*
X42464285Y-19186128D01*
X42464285Y-19186128D02*
X42607142Y-19186128D01*
X43678571Y-19114700D02*
X43535714Y-19186128D01*
X43535714Y-19186128D02*
X43250000Y-19186128D01*
X43250000Y-19186128D02*
X43107142Y-19114700D01*
X43107142Y-19114700D02*
X43035714Y-18971842D01*
X43035714Y-18971842D02*
X43035714Y-18400414D01*
X43035714Y-18400414D02*
X43107142Y-18257557D01*
X43107142Y-18257557D02*
X43250000Y-18186128D01*
X43250000Y-18186128D02*
X43535714Y-18186128D01*
X43535714Y-18186128D02*
X43678571Y-18257557D01*
X43678571Y-18257557D02*
X43750000Y-18400414D01*
X43750000Y-18400414D02*
X43750000Y-18543271D01*
X43750000Y-18543271D02*
X43035714Y-18686128D01*
X44392856Y-19186128D02*
X44392856Y-18186128D01*
X44392856Y-18471842D02*
X44464285Y-18328985D01*
X44464285Y-18328985D02*
X44535714Y-18257557D01*
X44535714Y-18257557D02*
X44678571Y-18186128D01*
X44678571Y-18186128D02*
X44821428Y-18186128D01*
X46392856Y-17614700D02*
X45107142Y-19543271D01*
X47178571Y-17686128D02*
X47464285Y-17686128D01*
X47464285Y-17686128D02*
X47607142Y-17757557D01*
X47607142Y-17757557D02*
X47749999Y-17900414D01*
X47749999Y-17900414D02*
X47821428Y-18186128D01*
X47821428Y-18186128D02*
X47821428Y-18686128D01*
X47821428Y-18686128D02*
X47749999Y-18971842D01*
X47749999Y-18971842D02*
X47607142Y-19114700D01*
X47607142Y-19114700D02*
X47464285Y-19186128D01*
X47464285Y-19186128D02*
X47178571Y-19186128D01*
X47178571Y-19186128D02*
X47035714Y-19114700D01*
X47035714Y-19114700D02*
X46892856Y-18971842D01*
X46892856Y-18971842D02*
X46821428Y-18686128D01*
X46821428Y-18686128D02*
X46821428Y-18186128D01*
X46821428Y-18186128D02*
X46892856Y-17900414D01*
X46892856Y-17900414D02*
X47035714Y-17757557D01*
X47035714Y-17757557D02*
X47178571Y-17686128D01*
X49107143Y-18186128D02*
X49107143Y-19186128D01*
X48464285Y-18186128D02*
X48464285Y-18971842D01*
X48464285Y-18971842D02*
X48535714Y-19114700D01*
X48535714Y-19114700D02*
X48678571Y-19186128D01*
X48678571Y-19186128D02*
X48892857Y-19186128D01*
X48892857Y-19186128D02*
X49035714Y-19114700D01*
X49035714Y-19114700D02*
X49107143Y-19043271D01*
X49607143Y-18186128D02*
X50178571Y-18186128D01*
X49821428Y-17686128D02*
X49821428Y-18971842D01*
X49821428Y-18971842D02*
X49892857Y-19114700D01*
X49892857Y-19114700D02*
X50035714Y-19186128D01*
X50035714Y-19186128D02*
X50178571Y-19186128D01*
X50678571Y-18186128D02*
X50678571Y-19686128D01*
X50678571Y-18257557D02*
X50821429Y-18186128D01*
X50821429Y-18186128D02*
X51107143Y-18186128D01*
X51107143Y-18186128D02*
X51250000Y-18257557D01*
X51250000Y-18257557D02*
X51321429Y-18328985D01*
X51321429Y-18328985D02*
X51392857Y-18471842D01*
X51392857Y-18471842D02*
X51392857Y-18900414D01*
X51392857Y-18900414D02*
X51321429Y-19043271D01*
X51321429Y-19043271D02*
X51250000Y-19114700D01*
X51250000Y-19114700D02*
X51107143Y-19186128D01*
X51107143Y-19186128D02*
X50821429Y-19186128D01*
X50821429Y-19186128D02*
X50678571Y-19114700D01*
X52678572Y-18186128D02*
X52678572Y-19186128D01*
X52035714Y-18186128D02*
X52035714Y-18971842D01*
X52035714Y-18971842D02*
X52107143Y-19114700D01*
X52107143Y-19114700D02*
X52250000Y-19186128D01*
X52250000Y-19186128D02*
X52464286Y-19186128D01*
X52464286Y-19186128D02*
X52607143Y-19114700D01*
X52607143Y-19114700D02*
X52678572Y-19043271D01*
X53178572Y-18186128D02*
X53750000Y-18186128D01*
X53392857Y-17686128D02*
X53392857Y-18971842D01*
X53392857Y-18971842D02*
X53464286Y-19114700D01*
X53464286Y-19114700D02*
X53607143Y-19186128D01*
X53607143Y-19186128D02*
X53750000Y-19186128D01*
D11*
X71409524Y-4363855D02*
X71409524Y-3563855D01*
X71409524Y-3563855D02*
X71600000Y-3563855D01*
X71600000Y-3563855D02*
X71714286Y-3601950D01*
X71714286Y-3601950D02*
X71790476Y-3678140D01*
X71790476Y-3678140D02*
X71828571Y-3754331D01*
X71828571Y-3754331D02*
X71866667Y-3906712D01*
X71866667Y-3906712D02*
X71866667Y-4020998D01*
X71866667Y-4020998D02*
X71828571Y-4173379D01*
X71828571Y-4173379D02*
X71790476Y-4249569D01*
X71790476Y-4249569D02*
X71714286Y-4325760D01*
X71714286Y-4325760D02*
X71600000Y-4363855D01*
X71600000Y-4363855D02*
X71409524Y-4363855D01*
X72552381Y-3830521D02*
X72552381Y-4363855D01*
X72361905Y-3525760D02*
X72171428Y-4097188D01*
X72171428Y-4097188D02*
X72666667Y-4097188D01*
X51409524Y-4363855D02*
X51409524Y-3563855D01*
X51409524Y-3563855D02*
X51600000Y-3563855D01*
X51600000Y-3563855D02*
X51714286Y-3601950D01*
X51714286Y-3601950D02*
X51790476Y-3678140D01*
X51790476Y-3678140D02*
X51828571Y-3754331D01*
X51828571Y-3754331D02*
X51866667Y-3906712D01*
X51866667Y-3906712D02*
X51866667Y-4020998D01*
X51866667Y-4020998D02*
X51828571Y-4173379D01*
X51828571Y-4173379D02*
X51790476Y-4249569D01*
X51790476Y-4249569D02*
X51714286Y-4325760D01*
X51714286Y-4325760D02*
X51600000Y-4363855D01*
X51600000Y-4363855D02*
X51409524Y-4363855D01*
X52133333Y-3563855D02*
X52628571Y-3563855D01*
X52628571Y-3563855D02*
X52361905Y-3868617D01*
X52361905Y-3868617D02*
X52476190Y-3868617D01*
X52476190Y-3868617D02*
X52552381Y-3906712D01*
X52552381Y-3906712D02*
X52590476Y-3944807D01*
X52590476Y-3944807D02*
X52628571Y-4020998D01*
X52628571Y-4020998D02*
X52628571Y-4211474D01*
X52628571Y-4211474D02*
X52590476Y-4287664D01*
X52590476Y-4287664D02*
X52552381Y-4325760D01*
X52552381Y-4325760D02*
X52476190Y-4363855D01*
X52476190Y-4363855D02*
X52247619Y-4363855D01*
X52247619Y-4363855D02*
X52171428Y-4325760D01*
X52171428Y-4325760D02*
X52133333Y-4287664D01*
D10*
X954819Y-20333333D02*
X1669104Y-20333333D01*
X1669104Y-20333333D02*
X1811961Y-20380952D01*
X1811961Y-20380952D02*
X1907200Y-20476190D01*
X1907200Y-20476190D02*
X1954819Y-20619047D01*
X1954819Y-20619047D02*
X1954819Y-20714285D01*
X1954819Y-19333333D02*
X1954819Y-19904761D01*
X1954819Y-19619047D02*
X954819Y-19619047D01*
X954819Y-19619047D02*
X1097676Y-19714285D01*
X1097676Y-19714285D02*
X1192914Y-19809523D01*
X1192914Y-19809523D02*
X1240533Y-19904761D01*
D11*
X11409524Y-4363855D02*
X11409524Y-3563855D01*
X11409524Y-3563855D02*
X11600000Y-3563855D01*
X11600000Y-3563855D02*
X11714286Y-3601950D01*
X11714286Y-3601950D02*
X11790476Y-3678140D01*
X11790476Y-3678140D02*
X11828571Y-3754331D01*
X11828571Y-3754331D02*
X11866667Y-3906712D01*
X11866667Y-3906712D02*
X11866667Y-4020998D01*
X11866667Y-4020998D02*
X11828571Y-4173379D01*
X11828571Y-4173379D02*
X11790476Y-4249569D01*
X11790476Y-4249569D02*
X11714286Y-4325760D01*
X11714286Y-4325760D02*
X11600000Y-4363855D01*
X11600000Y-4363855D02*
X11409524Y-4363855D01*
X12628571Y-4363855D02*
X12171428Y-4363855D01*
X12400000Y-4363855D02*
X12400000Y-3563855D01*
X12400000Y-3563855D02*
X12323809Y-3678140D01*
X12323809Y-3678140D02*
X12247619Y-3754331D01*
X12247619Y-3754331D02*
X12171428Y-3792426D01*
X24866667Y-2787664D02*
X24828571Y-2825760D01*
X24828571Y-2825760D02*
X24714286Y-2863855D01*
X24714286Y-2863855D02*
X24638095Y-2863855D01*
X24638095Y-2863855D02*
X24523809Y-2825760D01*
X24523809Y-2825760D02*
X24447619Y-2749569D01*
X24447619Y-2749569D02*
X24409524Y-2673379D01*
X24409524Y-2673379D02*
X24371428Y-2520998D01*
X24371428Y-2520998D02*
X24371428Y-2406712D01*
X24371428Y-2406712D02*
X24409524Y-2254331D01*
X24409524Y-2254331D02*
X24447619Y-2178140D01*
X24447619Y-2178140D02*
X24523809Y-2101950D01*
X24523809Y-2101950D02*
X24638095Y-2063855D01*
X24638095Y-2063855D02*
X24714286Y-2063855D01*
X24714286Y-2063855D02*
X24828571Y-2101950D01*
X24828571Y-2101950D02*
X24866667Y-2140045D01*
X25628571Y-2863855D02*
X25171428Y-2863855D01*
X25400000Y-2863855D02*
X25400000Y-2063855D01*
X25400000Y-2063855D02*
X25323809Y-2178140D01*
X25323809Y-2178140D02*
X25247619Y-2254331D01*
X25247619Y-2254331D02*
X25171428Y-2292426D01*
D10*
X60954819Y-20333333D02*
X61669104Y-20333333D01*
X61669104Y-20333333D02*
X61811961Y-20380952D01*
X61811961Y-20380952D02*
X61907200Y-20476190D01*
X61907200Y-20476190D02*
X61954819Y-20619047D01*
X61954819Y-20619047D02*
X61954819Y-20714285D01*
X61288152Y-19428571D02*
X61954819Y-19428571D01*
X60907200Y-19666666D02*
X61621485Y-19904761D01*
X61621485Y-19904761D02*
X61621485Y-19285714D01*
X39666666Y1545180D02*
X39666666Y830895D01*
X39666666Y830895D02*
X39619047Y688038D01*
X39619047Y688038D02*
X39523809Y592800D01*
X39523809Y592800D02*
X39380952Y545180D01*
X39380952Y545180D02*
X39285714Y545180D01*
X40619047Y1545180D02*
X40142857Y1545180D01*
X40142857Y1545180D02*
X40095238Y1068990D01*
X40095238Y1068990D02*
X40142857Y1116609D01*
X40142857Y1116609D02*
X40238095Y1164228D01*
X40238095Y1164228D02*
X40476190Y1164228D01*
X40476190Y1164228D02*
X40571428Y1116609D01*
X40571428Y1116609D02*
X40619047Y1068990D01*
X40619047Y1068990D02*
X40666666Y973752D01*
X40666666Y973752D02*
X40666666Y735657D01*
X40666666Y735657D02*
X40619047Y640419D01*
X40619047Y640419D02*
X40571428Y592800D01*
X40571428Y592800D02*
X40476190Y545180D01*
X40476190Y545180D02*
X40238095Y545180D01*
X40238095Y545180D02*
X40142857Y592800D01*
X40142857Y592800D02*
X40095238Y640419D01*
X40954819Y-20333333D02*
X41669104Y-20333333D01*
X41669104Y-20333333D02*
X41811961Y-20380952D01*
X41811961Y-20380952D02*
X41907200Y-20476190D01*
X41907200Y-20476190D02*
X41954819Y-20619047D01*
X41954819Y-20619047D02*
X41954819Y-20714285D01*
X40954819Y-19952380D02*
X40954819Y-19333333D01*
X40954819Y-19333333D02*
X41335771Y-19666666D01*
X41335771Y-19666666D02*
X41335771Y-19523809D01*
X41335771Y-19523809D02*
X41383390Y-19428571D01*
X41383390Y-19428571D02*
X41431009Y-19380952D01*
X41431009Y-19380952D02*
X41526247Y-19333333D01*
X41526247Y-19333333D02*
X41764342Y-19333333D01*
X41764342Y-19333333D02*
X41859580Y-19380952D01*
X41859580Y-19380952D02*
X41907200Y-19428571D01*
X41907200Y-19428571D02*
X41954819Y-19523809D01*
X41954819Y-19523809D02*
X41954819Y-19809523D01*
X41954819Y-19809523D02*
X41907200Y-19904761D01*
X41907200Y-19904761D02*
X41859580Y-19952380D01*
X20954819Y-20333333D02*
X21669104Y-20333333D01*
X21669104Y-20333333D02*
X21811961Y-20380952D01*
X21811961Y-20380952D02*
X21907200Y-20476190D01*
X21907200Y-20476190D02*
X21954819Y-20619047D01*
X21954819Y-20619047D02*
X21954819Y-20714285D01*
X21050057Y-19904761D02*
X21002438Y-19857142D01*
X21002438Y-19857142D02*
X20954819Y-19761904D01*
X20954819Y-19761904D02*
X20954819Y-19523809D01*
X20954819Y-19523809D02*
X21002438Y-19428571D01*
X21002438Y-19428571D02*
X21050057Y-19380952D01*
X21050057Y-19380952D02*
X21145295Y-19333333D01*
X21145295Y-19333333D02*
X21240533Y-19333333D01*
X21240533Y-19333333D02*
X21383390Y-19380952D01*
X21383390Y-19380952D02*
X21954819Y-19952380D01*
X21954819Y-19952380D02*
X21954819Y-19333333D01*
D11*
X31409524Y-4363855D02*
X31409524Y-3563855D01*
X31409524Y-3563855D02*
X31600000Y-3563855D01*
X31600000Y-3563855D02*
X31714286Y-3601950D01*
X31714286Y-3601950D02*
X31790476Y-3678140D01*
X31790476Y-3678140D02*
X31828571Y-3754331D01*
X31828571Y-3754331D02*
X31866667Y-3906712D01*
X31866667Y-3906712D02*
X31866667Y-4020998D01*
X31866667Y-4020998D02*
X31828571Y-4173379D01*
X31828571Y-4173379D02*
X31790476Y-4249569D01*
X31790476Y-4249569D02*
X31714286Y-4325760D01*
X31714286Y-4325760D02*
X31600000Y-4363855D01*
X31600000Y-4363855D02*
X31409524Y-4363855D01*
X32171428Y-3640045D02*
X32209524Y-3601950D01*
X32209524Y-3601950D02*
X32285714Y-3563855D01*
X32285714Y-3563855D02*
X32476190Y-3563855D01*
X32476190Y-3563855D02*
X32552381Y-3601950D01*
X32552381Y-3601950D02*
X32590476Y-3640045D01*
X32590476Y-3640045D02*
X32628571Y-3716236D01*
X32628571Y-3716236D02*
X32628571Y-3792426D01*
X32628571Y-3792426D02*
X32590476Y-3906712D01*
X32590476Y-3906712D02*
X32133333Y-4363855D01*
X32133333Y-4363855D02*
X32628571Y-4363855D01*
%TO.C,D4*%
X70200000Y-4900000D02*
X70200000Y-6100000D01*
X70200000Y-4900000D02*
X73800000Y-4900000D01*
X70200000Y-6100000D02*
X73800000Y-6100000D01*
%TO.C,D3*%
X50200000Y-4900000D02*
X50200000Y-6100000D01*
X50200000Y-4900000D02*
X53800000Y-4900000D01*
X50200000Y-6100000D02*
X53800000Y-6100000D01*
%TO.C,J1*%
X3650000Y-500000D02*
X19500000Y-500000D01*
X3650000Y-19500000D02*
X3650000Y-500000D01*
X19500000Y-500000D02*
X19500000Y-19500000D01*
X19500000Y-19500000D02*
X3650000Y-19500000D01*
%TO.C,D1*%
X10200000Y-4900000D02*
X10200000Y-6100000D01*
X10200000Y-4900000D02*
X13800000Y-4900000D01*
X10200000Y-6100000D02*
X13800000Y-6100000D01*
%TO.C,J4*%
X63650000Y-500000D02*
X79500000Y-500000D01*
X63650000Y-19500000D02*
X63650000Y-500000D01*
X79500000Y-500000D02*
X79500000Y-19500000D01*
X79500000Y-19500000D02*
X63650000Y-19500000D01*
%TO.C,J5*%
X33750000Y100000D02*
X46250000Y100000D01*
X33750000Y-5900000D02*
X33750000Y100000D01*
X46250000Y100000D02*
X46250000Y-5900000D01*
X46250000Y-5900000D02*
X33750000Y-5900000D01*
%TO.C,J3*%
X43650000Y-500000D02*
X59500000Y-500000D01*
X43650000Y-19500000D02*
X43650000Y-500000D01*
X59500000Y-500000D02*
X59500000Y-19500000D01*
X59500000Y-19500000D02*
X43650000Y-19500000D01*
%TO.C,J2*%
X23650000Y-500000D02*
X39500000Y-500000D01*
X23650000Y-19500000D02*
X23650000Y-500000D01*
X39500000Y-500000D02*
X39500000Y-19500000D01*
X39500000Y-19500000D02*
X23650000Y-19500000D01*
%TO.C,D2*%
X30200000Y-4900000D02*
X30200000Y-6100000D01*
X30200000Y-4900000D02*
X33800000Y-4900000D01*
X30200000Y-6100000D02*
X33800000Y-6100000D01*
%TD*%
%LPC*%
D12*
%TO.C,D4*%
X70900000Y-5500000D03*
X73100000Y-5500000D03*
%TD*%
%TO.C,D3*%
X50900000Y-5500000D03*
X53100000Y-5500000D03*
%TD*%
D13*
%TO.C,J1*%
X17620000Y-8570000D03*
X10000000Y-2220000D03*
%TD*%
D12*
%TO.C,D1*%
X10900000Y-5500000D03*
X13100000Y-5500000D03*
%TD*%
D14*
%TO.C,C1*%
X24200000Y-4000000D03*
X25800000Y-4000000D03*
%TD*%
D13*
%TO.C,J4*%
X77620000Y-8570000D03*
X70000000Y-2220000D03*
%TD*%
D15*
%TO.C,J5*%
X35000000Y-1500000D03*
X37000000Y-1500000D03*
X39000000Y-1500000D03*
X41000000Y-1500000D03*
X43000000Y-1500000D03*
X45000000Y-1500000D03*
%TD*%
D13*
%TO.C,J3*%
X57620000Y-8570000D03*
X50000000Y-2220000D03*
%TD*%
%TO.C,J2*%
X37620000Y-8570000D03*
X30000000Y-2220000D03*
%TD*%
D12*
%TO.C,D2*%
X30900000Y-5500000D03*
X33100000Y-5500000D03*
%TD*%
%LPD*%
M02*
